<?xml version="1.0" encoding="UTF-8" standalone="no"?>
<svg
   width="72"
   height="72"
   viewBox="0 0 72 72"
   fill="none"
   version="1.1"
   id="svg2"
   sodipodi:docname="brand-icon.svg"
   xml:space="preserve"
   inkscape:version="1.4 (86a8ad7, 2024-10-11)"
   xmlns:inkscape="http://www.inkscape.org/namespaces/inkscape"
   xmlns:sodipodi="http://sodipodi.sourceforge.net/DTD/sodipodi-0.dtd"
   xmlns="http://www.w3.org/2000/svg"
   xmlns:svg="http://www.w3.org/2000/svg"><defs
     id="defs2" /><sodipodi:namedview
     id="namedview2"
     pagecolor="#505050"
     bordercolor="#eeeeee"
     borderopacity="1"
     inkscape:showpageshadow="0"
     inkscape:pageopacity="0"
     inkscape:pagecheckerboard="0"
     inkscape:deskcolor="#505050"
     inkscape:zoom="3.52"
     inkscape:cx="27.130682"
     inkscape:cy="4.4034091"
     inkscape:window-width="1600"
     inkscape:window-height="829"
     inkscape:window-x="-8"
     inkscape:window-y="-8"
     inkscape:window-maximized="1"
     inkscape:current-layer="svg2" /><path
     d="M 6.1371845,24.783859 H 19.534512 L 13.219848,70.09584 H -0.26281285 Z m 0.6826664,-14.76266 q 0,-3.2426655 2.303999,-5.2053313 2.3039991,-2.0479992 6.0586641,-2.0479992 3.583999,0 5.717331,1.8773326 2.133332,1.7919992 2.133332,4.7786647 0,3.2426652 -2.559999,5.5466642 -2.474665,2.218666 -5.97333,2.218666 -3.413332,0 -5.5466647,-1.962666 -2.1333324,-2.047999 -2.1333324,-5.205331 z m 25.4293021,14.76266 h 12.373329 l -0.938667,6.399998 q 5.802665,-7.509331 14.506661,-7.509331 6.99733,0 10.751995,5.631998 3.839999,5.546664 2.559999,15.018661 L 67.918472,70.09584 H 54.435811 l 3.327998,-24.490656 q 0.682667,-4.607998 -0.938666,-7.082664 -1.535999,-2.559999 -4.863998,-2.559999 -3.669332,0 -6.143997,2.986666 -2.474666,2.986665 -3.242666,8.362663 L 39.331817,70.09584 H 25.849156 Z"
     id="text1"
     style="font-style:italic;font-weight:900;font-size:85.3333px;line-height:0px;font-family:Kometa;-inkscape-font-specification:'Kometa Heavy Italic';fill:#173b3f;stroke-width:1.397"
     aria-label="in" /><path
     id="path1"
     style="fill:#e61f0b;stroke-width:1.01971"
     d="M 24.394463,9.832756 A 9.4290657,9.2560558 0 0 1 14.965397,19.088812 9.4290657,9.2560558 0 0 1 5.5363312,9.832756 9.4290657,9.2560558 0 0 1 14.965397,0.57670021 9.4290657,9.2560558 0 0 1 24.394463,9.832756 Z" /></svg>
