<?xml version="1.0" encoding="UTF-8" standalone="no"?>
<svg
   width="264"
   height="48"
   viewBox="0 0 264 48"
   fill="none"
   version="1.1"
   id="svg3"
   sodipodi:docname="logo.svg"
   inkscape:version="1.4 (86a8ad7, 2024-10-11)"
   xmlns:inkscape="http://www.inkscape.org/namespaces/inkscape"
   xmlns:sodipodi="http://sodipodi.sourceforge.net/DTD/sodipodi-0.dtd"
   xmlns="http://www.w3.org/2000/svg"
   xmlns:svg="http://www.w3.org/2000/svg">
  <defs
     id="defs3" />
  <sodipodi:namedview
     id="namedview3"
     pagecolor="#505050"
     bordercolor="#eeeeee"
     borderopacity="1"
     inkscape:showpageshadow="0"
     inkscape:pageopacity="0"
     inkscape:pagecheckerboard="0"
     inkscape:deskcolor="#505050"
     inkscape:zoom="3.52"
     inkscape:cx="132.24432"
     inkscape:cy="16.051136"
     inkscape:window-width="1600"
     inkscape:window-height="829"
     inkscape:window-x="-8"
     inkscape:window-y="-8"
     inkscape:window-maximized="1"
     inkscape:current-layer="svg3" />
  <path
     d="M 4.2755576,15.209553 H 9.135571 l -2.2907069,16.43737 h -4.890969 z m 0.247644,-5.3553017 q 0,-1.176309 0.8357985,-1.8882855 0.8357985,-0.742932 2.1978405,-0.742932 1.3001309,0 2.0740184,0.681021 0.773888,0.6500655 0.773888,1.733508 0,1.1763092 -0.9286655,2.0121072 -0.8977095,0.804843 -2.1668849,0.804843 -1.23822,0 -2.0121075,-0.711976 Q 4.5232016,10.999605 4.5232016,9.8542513 Z m 9.2247314,5.3553017 h 4.488547 l -0.340511,2.321662 q 2.104974,-2.724084 5.262435,-2.724084 2.538351,0 3.900393,2.043063 1.392998,2.012108 0.928665,5.448168 l -1.300131,9.348561 h -4.890969 l 1.207265,-8.884228 q 0.247644,-1.671597 -0.340511,-2.569307 -0.557199,-0.928665 -1.764463,-0.928665 -1.331087,0 -2.228796,1.083443 -0.89771,1.083442 -1.176309,3.033639 l -1.176309,8.265118 H 11.42627 Z m 18.294706,0.185733 h 1.547775 l 0.340511,-2.352618 q 0.371466,-2.569307 2.012107,-3.9313487 1.640642,-1.3929975 4.271859,-1.3929975 2.166885,0 4.117082,1.0834425 l -1.950197,3.5908377 q -0.773887,-0.742932 -1.795419,-0.742932 -1.702552,0 -1.981152,2.012108 l -0.247644,1.733508 H 41.3912 l -0.557199,4.024215 H 37.831318 L 36.09781,31.863612 q -0.526244,3.776571 -2.074019,5.479123 -1.547775,1.733508 -4.364725,1.733508 -1.392998,0 -2.043063,-0.2786 l -0.402422,-3.745615 q 0.340511,0.123822 1.021532,0.123822 2.507395,0 2.971728,-3.312238 L 32.940349,19.419501 H 31.48544 Z M 44.23912,15.209553 h 4.426636 l -0.34051,2.414529 q 0.650065,-1.331087 1.702552,-2.074019 1.052487,-0.742932 2.290707,-0.742932 1.485864,0 2.693128,1.423953 l -2.043062,4.271859 q -0.866754,-0.866754 -2.13593,-0.866754 -1.269175,0 -1.950196,1.021532 -0.681021,1.021531 -1.021532,3.43606 l -1.052487,7.553142 h -4.890969 z m 20.833032,-0.557199 q 3.559882,0 5.757723,2.259751 2.19784,2.228796 2.19784,5.881545 0,4.024215 -2.631217,6.717344 -2.631217,2.693128 -6.624477,2.693128 -3.559882,0 -5.757723,-2.228796 -2.166885,-2.259751 -2.166885,-5.881545 0,-4.05517 2.631218,-6.748299 2.631217,-2.693128 6.593521,-2.693128 z m -0.216688,4.705236 q -1.733508,0 -2.909817,1.300131 -1.145354,1.269175 -1.145354,3.188416 0,1.671597 0.866754,2.693129 0.866754,0.990576 2.352618,0.990576 1.733508,0 2.878862,-1.269176 1.176309,-1.300131 1.176309,-3.219372 0,-1.671597 -0.866754,-2.662173 Q 66.341328,19.35759 64.855464,19.35759 Z M 77.85675,15.209553 h 4.488547 l -0.34051,2.321662 q 2.104974,-2.724084 5.262435,-2.724084 2.53835,0 3.900392,2.043063 1.392998,2.012108 0.928665,5.448168 l -1.300131,9.348561 H 85.90518 l 1.207264,-8.884228 q 0.247644,-1.671597 -0.34051,-2.569307 -0.557199,-0.928665 -1.764464,-0.928665 -1.331086,0 -2.228796,1.083443 -0.897709,1.083442 -1.176309,3.033639 l -1.176309,8.265118 h -4.890969 z m 20.368722,-2.693129 4.860018,-1.516819 -0.61911,4.395681 h 3.90039 l -0.58816,4.086126 h -3.90039 l -0.71198,5.169568 q -0.21668,1.578731 0.49529,2.414529 0.74293,0.804843 2.32166,0.804843 0.40243,0 0.95963,-0.154777 l -1.45491,3.931348 q -1.26918,0.309555 -2.13593,0.309555 -2.847908,0 -4.240906,-1.640641 -1.392997,-1.640642 -0.990576,-4.488548 l 0.89771,-6.345877 h -1.795419 l 0.588154,-4.086126 h 2.012108 z m 19.532898,12.908444 h -5.66486 q 0.46434,2.878861 3.77657,2.878861 2.29071,0 4.02422,-1.362042 l 1.9502,3.497972 q -2.81695,1.826374 -6.16015,1.826374 -3.77657,0 -6.09823,-2.19784 -2.32166,-2.197841 -2.32166,-5.943456 0,-3.99326 2.72408,-6.655433 2.72408,-2.662173 6.81021,-2.662173 2.90982,0 4.7981,1.702553 1.88829,1.671597 1.88829,4.271859 0,2.166885 -1.51682,3.405105 -1.51682,1.23822 -4.20995,1.23822 z m -5.29339,-3.405105 h 4.5195 q 2.13593,0 2.13593,-1.454909 0,-0.742932 -0.65006,-1.176309 -0.61911,-0.464332 -1.70256,-0.464332 -1.57873,0 -2.78599,0.866754 -1.17631,0.835798 -1.51682,2.228796 z"
     id="text3"
     style="font-style:italic;font-weight:900;font-size:30.9555px;line-height:0px;font-family:Kometa;-inkscape-font-specification:'Kometa Heavy Italic';fill:#173b3f;stroke-width:4.0542"
     inkscape:label="text3"
     transform="scale(1.0365089,0.96477706)"
     aria-label="infronte" />
  <path
     id="path10"
     style="fill:#e61f0b;stroke-width:1.37049;fill-opacity:1"
     d="M 11.795891,9.4764748 A 4.1749501,4.241219 0 0 1 7.6209412,13.717694 4.1749501,4.241219 0 0 1 3.445991,9.4764748 4.1749501,4.241219 0 0 1 7.6209412,5.2352557 4.1749501,4.241219 0 0 1 11.795891,9.4764748 Z" />
  <path
     id="rect7"
     style="fill:#173b3f;stroke-width:2.0809"
     d="m 139.16083,3.6713285 h 3.10314 V 44.58042 h -3.10314 z" />
  <path
     style="font-weight:900;font-size:10.6667px;line-height:0px;font-family:Kometa;-inkscape-font-specification:'Kometa Heavy';fill:#173b3f;stroke-width:1.74247"
     d="m 150.36493,30.182985 q 1.152,-1.162671 2.94401,-1.162671 1.792,0 2.93334,1.162671 1.152,1.152003 1.152,2.976009 0,1.813339 -1.152,2.976009 -1.14134,1.152004 -2.93334,1.152004 -1.79201,0 -2.94401,-1.152004 -1.14134,-1.16267 -1.14134,-2.976009 0,-1.824006 1.14134,-2.976009 z m 4.55468,1.237337 q -0.62934,-0.693336 -1.61067,-0.693336 -0.98134,0 -1.62134,0.693336 -0.62934,0.682669 -0.62934,1.738672 0,1.045337 0.64,1.738672 0.64001,0.682669 1.61068,0.682669 0.97067,0 1.61067,-0.682669 0.64,-0.693335 0.64,-1.738672 0,-1.056003 -0.64,-1.738672 z m 3.94667,0.04267 h 1.56801 v 0.789335 q 0.29867,-0.448001 0.77867,-0.682668 0.49067,-0.245334 1.06667,-0.245334 0.91733,0 1.472,0.608001 0.55467,0.597336 0.55467,1.589339 v 3.605345 h -1.70667 v -3.07201 q 0,-0.576002 -0.24534,-0.87467 -0.23466,-0.298667 -0.68266,-0.298667 -0.51201,0 -0.81067,0.373334 -0.288,0.373335 -0.288,1.013337 v 2.858676 h -1.70668 z m 9.8347,-0.928003 1.62134,-0.522669 v 1.514672 h 1.41867 v 1.429338 h -1.41867 v 1.749339 q 0,1.09867 1.06667,1.09867 0.288,0 0.46933,-0.04267 l -0.32,1.365338 q -0.416,0.106667 -0.84267,0.106667 -0.98133,0 -1.536,-0.554669 -0.544,-0.554668 -0.544,-1.557338 v -2.16534 h -0.65067 v -1.429338 h 0.736 z m 4.11735,-1.461338 h 1.61067 v 3.157343 q 0.67201,-0.906669 1.83468,-0.906669 0.93867,0 1.46133,0.640002 0.53334,0.640002 0.53334,1.664005 v 3.498678 h -1.70667 v -3.07201 q 0,-0.576002 -0.24534,-0.87467 -0.23466,-0.298667 -0.68267,-0.298667 -0.512,0 -0.81066,0.373334 -0.28801,0.373335 -0.28801,1.013337 v 2.858676 h -1.70667 z m 12.27737,5.866685 h -3.79734 q 0.064,0.437335 0.46933,0.725336 0.41601,0.288 0.97067,0.288 0.87467,0 1.47201,-0.565335 l 0.85333,1.216004 q -1.024,0.736003 -2.42134,0.736003 -1.32267,0 -2.208,-0.853336 -0.87467,-0.864003 -0.87467,-2.154674 0,-1.333338 0.832,-2.16534 0.84267,-0.842669 2.18667,-0.842669 1.18401,0 1.92001,0.725335 0.736,0.725336 0.736,1.888006 0,0.544002 -0.13867,1.00267 z m -3.81867,-1.077337 h 2.304 q 0.0107,-0.032 0.0107,-0.138667 0,-0.405334 -0.29867,-0.682669 -0.29867,-0.288001 -0.736,-0.288001 -0.53334,0 -0.88534,0.298668 -0.34133,0.298668 -0.39466,0.810669 z m 8.23468,-4.682681 h 3.34935 v 5.621351 q 0,1.173337 -0.58667,1.802672 -0.58667,0.629336 -1.67467,0.629336 -0.72534,0 -1.21601,-0.106667 l -0.32,-1.514672 q 0.34134,0.05333 0.768,0.05333 1.28001,0 1.28001,-1.258671 V 30.78032 h -1.60001 z m 5.54669,2.954676 q 0.864,-0.864003 2.176,-0.864003 1.31201,0 2.17601,0.864003 0.864,0.853336 0.864,2.16534 0,1.301337 -0.864,2.16534 -0.864,0.853336 -2.17601,0.853336 -1.312,0 -2.176,-0.853336 -0.864,-0.864003 -0.864,-2.16534 0,-1.301338 0.864,-2.16534 z m 3.12534,1.173337 q -0.36267,-0.394668 -0.94934,-0.394668 -0.58666,0 -0.96,0.394668 -0.36267,0.384001 -0.36267,0.992003 0,0.608002 0.37334,1.00267 0.37333,0.384001 0.94933,0.384001 0.56534,0 0.93867,-0.394668 0.38401,-0.394668 0.38401,-0.992003 0,-0.608002 -0.37334,-0.992003 z m 3.45601,-4.23468 h 1.68534 v 3.114676 q 0.59734,-0.864002 1.72801,-0.864002 1.06667,0 1.77067,0.864002 0.71467,0.864003 0.71467,2.16534 0,1.248004 -0.74667,2.112007 -0.736,0.864003 -1.81334,0.864003 -1.07734,0 -1.76001,-0.896003 v 0.693336 h -1.57867 z m 3.84002,4.256013 q -0.34134,-0.384001 -0.91734,-0.384001 -0.576,0 -0.928,0.394668 -0.352,0.384001 -0.352,1.013336 0,0.618669 0.352,1.013337 0.36266,0.394668 0.928,0.394668 0.56533,0 0.91734,-0.384001 0.352,-0.394668 0.352,-1.024004 0,-0.640002 -0.352,-1.024003 z m 5.80267,-4.149346 h 6.29336 v 1.621338 h -2.27201 v 6.325354 h -1.74934 v -6.325354 h -2.27201 z m 7.23202,2.282674 h 1.54667 v 0.917336 q 0.17067,-0.501335 0.512,-0.778669 0.352,-0.277334 0.80001,-0.277334 0.53333,0 1.024,0.490668 l -0.512,1.493338 q -0.33067,-0.298668 -0.73601,-0.298668 -0.928,0 -0.928,1.450671 v 2.666676 h -1.70667 z m 5.33334,1.941339 -0.74666,-1.365338 q 1.16267,-0.714668 2.688,-0.714668 1.25867,0 1.85601,0.512001 0.608,0.512002 0.608,1.578672 v 1.429338 q 0,0.544001 0.20267,0.768002 0.20267,0.213334 0.71467,0.213334 l -0.42667,1.301338 q -0.24533,0.106667 -0.61867,0.106667 -0.928,0 -1.312,-0.725336 -0.64,0.832003 -1.85601,0.832003 -0.98134,0 -1.57867,-0.501335 -0.59734,-0.512002 -0.59734,-1.354671 0,-0.789336 0.69334,-1.258671 0.704,-0.469335 1.88801,-0.469335 h 1.184 v -0.170667 q 0,-0.853336 -1.09867,-0.853336 -0.40533,0 -0.84267,0.192001 -0.43733,0.181333 -0.75734,0.480001 z m 2.69868,1.429338 h -0.94934 q -0.544,0 -0.84267,0.16 -0.288,0.160001 -0.288,0.448002 0,0.618668 0.89601,0.618668 0.55466,0 0.864,-0.234667 0.32,-0.234667 0.32,-0.650669 z m 3.52002,-3.370677 h 1.70667 v 5.664018 h -1.70667 z m -0.17067,-1.866673 q 0,-0.384001 0.288,-0.640002 0.29867,-0.256001 0.73601,-0.256001 0.43733,0 0.72533,0.256001 0.29867,0.256001 0.29867,0.640002 0,0.394668 -0.29867,0.661335 -0.288,0.256001 -0.72533,0.256001 -0.43734,0 -0.73601,-0.256001 -0.288,-0.266667 -0.288,-0.661335 z m 3.54134,1.866673 h 1.56801 v 0.789335 q 0.29867,-0.448001 0.77867,-0.682668 0.49067,-0.245334 1.06667,-0.245334 0.91733,0 1.472,0.608001 0.55467,0.597336 0.55467,1.589339 v 3.605345 h -1.70667 v -3.07201 q 0,-0.576002 -0.24534,-0.87467 -0.23466,-0.298667 -0.68266,-0.298667 -0.51201,0 -0.81067,0.373334 -0.288,0.373335 -0.288,1.013337 v 2.858676 h -1.70668 z m 7.04003,0 h 1.70667 v 5.664018 h -1.70667 z m -0.17067,-1.866673 q 0,-0.384001 0.288,-0.640002 0.29867,-0.256001 0.736,-0.256001 0.43734,0 0.72534,0.256001 0.29867,0.256001 0.29867,0.640002 0,0.394668 -0.29867,0.661335 -0.288,0.256001 -0.72534,0.256001 -0.43733,0 -0.736,-0.256001 -0.288,-0.266667 -0.288,-0.661335 z m 3.54134,1.866673 h 1.56801 v 0.789335 q 0.29866,-0.448001 0.77867,-0.682668 0.49066,-0.245334 1.06667,-0.245334 0.91733,0 1.472,0.608001 0.55467,0.597336 0.55467,1.589339 v 3.605345 h -1.70667 v -3.07201 q 0,-0.576002 -0.24534,-0.87467 -0.23466,-0.298667 -0.68267,-0.298667 -0.512,0 -0.81067,0.373334 -0.288,0.373335 -0.288,1.013337 v 2.858676 h -1.70667 z m 11.07204,0 h 1.568 v 5.685351 q 0,1.184004 -0.78933,1.856006 -0.78934,0.682669 -2.16534,0.682669 -1.62134,0 -2.78401,-0.768003 l 0.64,-1.418671 q 0.33067,0.352001 0.896,0.576002 0.57601,0.224001 1.12001,0.224001 0.672,0 1.04533,-0.330668 0.37334,-0.330668 0.37334,-0.917336 v -0.565335 q -0.576,0.693335 -1.57867,0.693335 -1.17334,0 -1.90934,-0.800002 -0.72534,-0.81067 -0.72534,-2.112007 0,-1.312004 0.736,-2.122674 0.73601,-0.821335 1.92001,-0.821335 1.088,0 1.65334,0.853336 z m -0.40534,1.792005 q -0.352,-0.384001 -0.928,-0.384001 -0.576,0 -0.928,0.384001 -0.34134,0.373335 -0.34134,0.992003 0,0.618669 0.34134,1.00267 0.352,0.384001 0.928,0.384001 0.576,0 0.928,-0.384001 0.352,-0.384001 0.352,-0.992003 0,-0.618668 -0.352,-1.00267 z"
     id="text7"
     transform="scale(1.0220425,0.9784329)"
     aria-label="On the Job Training" />
  <g
     id="text8"
     style="font-weight:bold;font-size:10.6667px;line-height:0px;font-family:Kometa;-inkscape-font-specification:'Kometa Bold';fill:#ffffff;stroke-width:1.74247"
     transform="scale(1.0220425,0.9784329)"
     aria-label="(SOJT) Structured">
    <path
       style="font-weight:900;-inkscape-font-specification:'Kometa Heavy';fill:#e61f0b"
       d="m 152.0396,12.614297 0.45867,0.949336 q -1.30134,0.768002 -1.30134,4.490681 0,3.722678 1.30134,4.490681 l -0.45867,0.949336 q -1.13067,-0.362668 -1.84534,-1.856006 -0.704,-1.482671 -0.704,-3.584011 0,-2.10134 0.704,-3.584011 0.71467,-1.493338 1.84534,-1.856006 z m 7.22135,1.354671 -1.12,1.280004 q -0.512,-0.533335 -0.94934,-0.757336 -0.43733,-0.224001 -0.928,-0.224001 -0.45867,0 -0.8,0.181334 -0.34134,0.170667 -0.34134,0.576002 0,0.149334 0.0533,0.277334 0.0533,0.128001 0.18133,0.224001 0.128,0.096 0.24533,0.170667 0.11734,0.064 0.34134,0.138667 0.224,0.07467 0.37333,0.117334 0.16,0.04267 0.43734,0.117334 0.288,0.064 0.448,0.106667 0.448,0.128 0.768,0.277334 0.32,0.138667 0.64,0.384001 0.33067,0.245334 0.50134,0.640002 0.17067,0.394668 0.17067,0.917336 0,1.173337 -0.82134,1.856006 -0.81067,0.682669 -2.18667,0.682669 -0.98134,0 -1.86668,-0.341334 -0.87467,-0.352002 -1.42933,-0.960003 l 1.056,-1.333338 q 0.48,0.469335 1.07734,0.736002 0.608,0.266668 1.17333,0.266668 0.45867,0 0.80001,-0.181334 0.352,-0.181334 0.352,-0.586669 0,-0.213334 -0.10667,-0.373334 -0.096,-0.160001 -0.34134,-0.277334 -0.24533,-0.128001 -0.42666,-0.192001 -0.18134,-0.064 -0.59734,-0.170667 -0.416,-0.117334 -0.59733,-0.170667 -0.45867,-0.138667 -0.77867,-0.288001 -0.30934,-0.149334 -0.64,-0.394668 -0.32001,-0.245334 -0.49067,-0.629335 -0.16,-0.394668 -0.16,-0.90667 0,-1.13067 0.78933,-1.792006 0.8,-0.672002 2.11201,-0.672002 0.96,0 1.77067,0.352001 0.81067,0.341335 1.29067,0.949337 z m 2.44268,-0.138667 q 1.152,-1.162671 2.94401,-1.162671 1.792,0 2.93334,1.162671 1.152,1.152003 1.152,2.976009 0,1.813339 -1.152,2.976009 -1.14134,1.152004 -2.93334,1.152004 -1.79201,0 -2.94401,-1.152004 -1.14134,-1.16267 -1.14134,-2.976009 0,-1.824006 1.14134,-2.976009 z m 4.55468,1.237337 q -0.62934,-0.693336 -1.61067,-0.693336 -0.98134,0 -1.62134,0.693336 -0.62934,0.682669 -0.62934,1.738672 0,1.045337 0.64,1.738672 0.64001,0.682669 1.61068,0.682669 0.97066,0 1.61067,-0.682669 0.64,-0.693335 0.64,-1.738672 0,-1.056003 -0.64,-1.738672 z m 4.04267,-2.240007 h 3.34935 v 5.621351 q 0,1.173337 -0.58667,1.802672 -0.58667,0.629336 -1.67467,0.629336 -0.72534,0 -1.21601,-0.106667 l -0.32,-1.514672 q 0.34133,0.05333 0.768,0.05333 1.28001,0 1.28001,-1.258671 v -3.626678 h -1.60001 z m 4.68268,0 h 6.29336 v 1.621338 h -2.27201 v 6.325354 h -1.74934 v -6.325354 h -2.27201 z m 7.3387,10.6667 -0.45867,-0.949336 q 1.30134,-0.768003 1.30134,-4.490681 0,-3.722679 -1.30134,-4.490681 l 0.45867,-0.949336 q 1.13067,0.362668 1.83467,1.856006 0.71467,1.482671 0.71467,3.584011 0,2.10134 -0.71467,3.584011 -0.704,1.493338 -1.83467,1.856006 z"
       id="path1" />
    <path
       style="font-weight:900;-inkscape-font-specification:'Kometa Heavy';fill:#173b3f"
       d="m 195.01572,13.968968 -1.12,1.280004 q -0.512,-0.533335 -0.94934,-0.757336 -0.43733,-0.224001 -0.928,-0.224001 -0.45867,0 -0.8,0.181334 -0.34134,0.170667 -0.34134,0.576002 0,0.149334 0.0533,0.277334 0.0533,0.128001 0.18133,0.224001 0.128,0.096 0.24534,0.170667 0.11733,0.064 0.34133,0.138667 0.224,0.07467 0.37334,0.117334 0.16,0.04267 0.43733,0.117334 0.288,0.064 0.448,0.106667 0.448,0.128 0.768,0.277334 0.32,0.138667 0.64001,0.384001 0.33066,0.245334 0.50133,0.640002 0.17067,0.394668 0.17067,0.917336 0,1.173337 -0.82134,1.856006 -0.81067,0.682669 -2.18667,0.682669 -0.98134,0 -1.86667,-0.341334 -0.87467,-0.352002 -1.42934,-0.960003 l 1.056,-1.333338 q 0.48,0.469335 1.07734,0.736002 0.608,0.266668 1.17333,0.266668 0.45867,0 0.80001,-0.181334 0.352,-0.181334 0.352,-0.586669 0,-0.213334 -0.10667,-0.373334 -0.096,-0.160001 -0.34133,-0.277334 -0.24534,-0.128001 -0.42667,-0.192001 -0.18133,-0.064 -0.59734,-0.170667 -0.416,-0.117334 -0.59733,-0.170667 -0.45867,-0.138667 -0.77867,-0.288001 -0.30933,-0.149334 -0.64,-0.394668 -0.32,-0.245334 -0.49067,-0.629335 -0.16,-0.394668 -0.16,-0.90667 0,-1.13067 0.78933,-1.792006 0.80001,-0.672002 2.11201,-0.672002 0.96,0 1.77067,0.352001 0.81067,0.341335 1.29067,0.949337 z m 1.51467,0.213334 1.62134,-0.522669 v 1.514672 h 1.41867 v 1.429338 h -1.41867 v 1.749339 q 0,1.09867 1.06667,1.09867 0.288,0 0.46934,-0.04267 l -0.32001,1.365338 q -0.416,0.106667 -0.84267,0.106667 -0.98133,0 -1.536,-0.554669 -0.544,-0.554668 -0.544,-1.557338 v -2.16534 h -0.65067 v -1.429338 h 0.736 z m 4.11736,0.928003 h 1.54667 v 0.917336 q 0.17066,-0.501335 0.512,-0.778669 0.352,-0.277334 0.8,-0.277334 0.53334,0 1.024,0.490668 l -0.512,1.493338 q -0.33067,-0.298668 -0.736,-0.298668 -0.928,0 -0.928,1.450671 v 2.666676 h -1.70667 z m 4.544,0 h 1.70668 v 3.146676 q 0,1.120004 0.832,1.120004 0.50133,0 0.78933,-0.384001 0.29867,-0.384002 0.29867,-0.981337 v -2.901342 h 1.70667 v 5.664018 h -1.52533 V 20.00632 q -0.66134,0.928003 -1.79201,0.928003 -0.90667,0 -1.46134,-0.629335 -0.55467,-0.640002 -0.55467,-1.674672 z m 11.93604,0.693335 -1.02401,1.322671 q -0.45867,-0.586669 -1.152,-0.586669 -0.58667,0 -0.97067,0.405335 -0.37333,0.394668 -0.37333,1.00267 0,0.597335 0.37333,1.00267 0.384,0.405334 0.94934,0.405334 0.66133,0 1.12,-0.490668 l 1.04534,1.237337 q -0.83201,0.885337 -2.16534,0.885337 -1.30134,0 -2.17601,-0.864003 -0.864,-0.87467 -0.864,-2.176007 0,-1.312004 0.864,-2.176007 0.87467,-0.874669 2.17601,-0.874669 1.408,0 2.19734,0.906669 z m 1.09868,-1.621338 1.62134,-0.522669 v 1.514672 h 1.41867 v 1.429338 h -1.41867 v 1.749339 q 0,1.09867 1.06667,1.09867 0.288,0 0.46933,-0.04267 l -0.32,1.365338 q -0.416,0.106667 -0.84267,0.106667 -0.98134,0 -1.536,-0.554669 -0.54401,-0.554668 -0.54401,-1.557338 v -2.16534 h -0.65067 v -1.429338 h 0.73601 z m 4.05335,0.928003 h 1.70667 v 3.146676 q 0,1.120004 0.83201,1.120004 0.50133,0 0.78933,-0.384001 0.29867,-0.384002 0.29867,-0.981337 v -2.901342 h 1.70667 v 5.664018 h -1.52534 V 20.00632 q -0.66133,0.928003 -1.792,0.928003 -0.90667,0 -1.46134,-0.629335 -0.55467,-0.640002 -0.55467,-1.674672 z m 6.99735,0 h 1.54667 v 0.917336 q 0.17067,-0.501335 0.512,-0.778669 0.352,-0.277334 0.80001,-0.277334 0.53333,0 1.024,0.490668 l -0.512,1.493338 q -0.33067,-0.298668 -0.736,-0.298668 -0.92801,0 -0.92801,1.450671 v 2.666676 h -1.70667 z m 9.84536,3.477344 h -3.79735 q 0.064,0.437335 0.46934,0.725336 0.416,0.288 0.97067,0.288 0.87467,0 1.472,-0.565335 l 0.85334,1.216004 q -1.024,0.736003 -2.42134,0.736003 -1.32267,0 -2.20801,-0.853337 -0.87467,-0.864002 -0.87467,-2.154673 0,-1.333338 0.832,-2.16534 0.84267,-0.842669 2.18668,-0.842669 1.184,0 1.92,0.725335 0.73601,0.725336 0.73601,1.888006 0,0.544002 -0.13867,1.00267 z m -3.81868,-1.077337 h 2.30401 q 0.0107,-0.032 0.0107,-0.138667 0,-0.405335 -0.29866,-0.682669 -0.29867,-0.288001 -0.73601,-0.288001 -0.53333,0 -0.88533,0.298668 -0.34134,0.298668 -0.39467,0.810669 z m 9.35469,-4.789348 h 1.6 v 8.053359 h -1.57867 V 20.10232 q -0.27733,0.416002 -0.74667,0.650669 -0.45867,0.234668 -1.01333,0.234668 -1.03467,0 -1.79201,-0.885337 -0.74667,-0.885336 -0.74667,-2.10134 0,-1.248004 0.768,-2.13334 0.76801,-0.896002 1.84534,-0.896002 1.09867,0 1.66401,0.821335 z m -0.37334,4.26668 q -0.352,-0.394668 -0.928,-0.394668 -0.576,0 -0.928,0.384001 -0.34134,0.384001 -0.34134,1.024003 0,0.629336 0.352,1.024004 0.352,0.394668 0.91734,0.394668 0.56533,0 0.91734,-0.394668 0.36266,-0.405335 0.36266,-1.024004 0,-0.629335 -0.352,-1.013336 z"
       id="path2" />
  </g>
</svg>
