<?xml version="1.0" encoding="UTF-8" standalone="no"?>
<svg
   width="32"
   height="32"
   viewBox="0 0 32 32"
   fill="none"
   version="1.1"
   id="svg4"
   sodipodi:docname="apacheflink-svgrepo-com.svg"
   xml:space="preserve"
   inkscape:version="1.4 (86a8ad7, 2024-10-11)"
   xmlns:inkscape="http://www.inkscape.org/namespaces/inkscape"
   xmlns:sodipodi="http://sodipodi.sourceforge.net/DTD/sodipodi-0.dtd"
   xmlns="http://www.w3.org/2000/svg"
   xmlns:svg="http://www.w3.org/2000/svg"><defs
     id="defs4" /><sodipodi:namedview
     id="namedview4"
     pagecolor="#505050"
     bordercolor="#eeeeee"
     borderopacity="1"
     inkscape:showpageshadow="0"
     inkscape:pageopacity="0"
     inkscape:pagecheckerboard="0"
     inkscape:deskcolor="#505050"
     inkscape:zoom="7.01"
     inkscape:cx="15.905849"
     inkscape:cy="15.905849"
     inkscape:window-width="1600"
     inkscape:window-height="829"
     inkscape:window-x="-8"
     inkscape:window-y="-8"
     inkscape:window-maximized="1"
     inkscape:current-layer="svg4" /><g
     style="fill:#000000"
     id="g5"
     transform="matrix(1.3241886,0,0,1.3037093,-0.04980094,0.41596484)"><path
       d="M 8.302,23.976 C 7.722,23.932 6.962,23.789 6.323,23.604 A 9.06,9.06 0 0 1 3.379,22.093 C 3.011,21.808 2.226,21.023 1.906,20.62 0.716,19.121 0.11,17.49 0.05,15.622 A 8.333,8.333 0 0 1 0.378,13.02 c 0.068,-0.229 0.071,-0.255 0.057,-0.53 a 4.173,4.173 0 0 1 0.1,-1.116 c 0.061,-0.244 0.23,-0.61 0.34,-0.742 l 0.068,-0.08 -0.01,0.434 C 0.921,11.608 0.922,11.609 1.12,11.261 A 8.388,8.388 0 0 1 2.84,9.11 C 3.034,8.934 3.209,8.772 3.228,8.751 3.247,8.73 3.318,8.573 3.387,8.402 3.594,7.888 3.779,7.606 3.98,7.504 4.155,7.414 4.314,7.46 4.351,7.608 A 0.856,0.856 0 0 1 4.344,7.825 0.727,0.727 0 0 0 4.331,7.985 C 4.336,7.985 4.488,7.906 4.67,7.81 5.32,7.463 5.785,7.264 6.764,6.918 7.087,6.803 7.392,6.693 7.44,6.672 7.716,6.556 7.865,6.166 7.838,5.633 A 1.446,1.446 0 0 0 7.736,5.128 4.148,4.148 0 0 0 7.614,4.811 C 7.564,4.713 7.571,4.696 7.652,4.719 7.885,4.786 8.164,5.011 8.339,5.274 8.441,5.428 8.612,5.796 8.613,5.866 8.613,5.922 8.649,5.896 8.726,5.782 9.033,5.328 9.035,4.812 8.73,4.294 8.619,4.104 8.301,3.791 8.085,3.657 7.808,3.487 7.641,3.437 7.345,3.44 7.116,3.442 7.095,3.438 7.028,3.383 6.945,3.313 6.898,3.164 6.919,3.04 6.944,2.898 7.185,2.44 7.35,2.22 7.545,1.96 7.986,1.536 8.267,1.336 9.179,0.688 10.323,0.296 11.653,0.176 11.973,0.146 11.985,0.144 12.051,0.073 12.113,0.007 12.133,0 12.271,0 c 0.133,0 0.17,0.012 0.319,0.097 0.157,0.091 0.173,0.096 0.239,0.066 0.05,-0.022 0.132,-0.027 0.28,-0.017 0.169,0.01 0.22,0.007 0.264,-0.024 0.077,-0.054 0.171,-0.047 0.31,0.024 0.067,0.033 0.264,0.093 0.438,0.13 0.819,0.182 1.477,0.436 2.103,0.815 0.111,0.067 0.206,0.122 0.211,0.122 0.009,0 -0.003,-0.088 -0.032,-0.246 L 16.39,0.9 16.542,0.99 c 0.2,0.12 0.38,0.307 0.479,0.496 0.069,0.133 0.085,0.15 0.121,0.127 0.029,-0.017 0.064,-0.019 0.11,-0.003 0.054,0.019 0.093,0.075 0.2,0.293 0.074,0.149 0.142,0.277 0.15,0.286 0.01,0.01 0.084,-0.058 0.167,-0.148 0.176,-0.192 0.337,-0.3 0.55,-0.373 0.2,-0.067 0.32,-0.053 0.41,0.048 0.09,0.1 0.09,0.23 -0.004,0.427 -0.18,0.38 -0.26,0.728 -0.23,0.994 l 0.017,0.137 0.108,-0.076 c 0.1,-0.07 0.122,-0.076 0.305,-0.076 0.192,0 0.4,0.058 0.4,0.112 0,0.012 -0.051,0.083 -0.113,0.159 -0.184,0.226 -0.23,0.353 -0.227,0.626 0.003,0.251 0.014,0.308 0.177,0.868 0.059,0.205 0.128,0.473 0.152,0.595 a 0.87,0.87 0 0 0 0.06,0.222 c 0.04,0 0.313,-0.226 0.478,-0.394 0.099,-0.1 0.187,-0.182 0.195,-0.182 0.033,0 0.091,0.19 0.117,0.376 0.03,0.22 0.007,0.432 -0.073,0.692 -0.048,0.156 -0.049,0.17 -0.012,0.247 0.061,0.128 0.07,0.266 0.028,0.444 -0.07,0.302 -0.199,0.51 -0.533,0.858 l -0.172,0.18 -0.028,0.24 c -0.016,0.133 -0.05,0.332 -0.076,0.442 a 0.9,0.9 0 0 0 -0.035,0.214 c 0.007,0.007 0.029,-0.002 0.049,-0.019 0.053,-0.044 0.216,-0.019 0.378,0.058 0.333,0.158 0.972,0.741 1.222,1.116 l 0.135,0.201 0.215,0.054 c 0.884,0.224 1.572,0.866 1.952,1.823 0.12,0.3 0.204,0.683 0.264,1.186 0.019,0.154 0.06,0.29 0.18,0.589 0.085,0.213 0.168,0.447 0.183,0.519 0.042,0.193 0.018,0.442 -0.06,0.626 -0.037,0.086 -0.087,0.23 -0.113,0.32 -0.091,0.323 -0.239,0.533 -0.487,0.693 -0.08,0.051 -0.204,0.11 -0.277,0.13 -0.137,0.037 -0.599,0.25 -0.6,0.277 -10e-4,0.008 0.032,0.022 0.073,0.03 0.22,0.044 0.509,0.252 0.582,0.42 0.015,0.035 0.073,0.123 0.129,0.197 0.213,0.28 0.265,0.537 0.188,0.943 l -0.04,0.213 0.062,0.076 c 0.22,0.271 0.409,0.622 0.478,0.892 0.098,0.379 0.096,0.747 -0.005,1.303 l -0.044,0.235 0.08,0.116 c 0.154,0.223 0.184,0.436 0.106,0.737 -0.194,0.752 -0.766,1.31 -1.563,1.522 l -0.156,0.041 v 0.208 c 0,0.16 -0.012,0.234 -0.05,0.317 a 0.66,0.66 0 0 1 -0.32,0.319 C 21.6,24.062 21.266,23.956 21.102,23.733 21.02,23.623 21.013,23.62 20.894,23.62 A 0.817,0.817 0 0 1 20.668,23.583 C 20.42,23.496 20.306,23.326 20.3,23.036 L 20.296,22.868 20.14,22.774 a 2.384,2.384 0 0 1 -0.563,-0.457 l -0.15,-0.165 0.078,0.155 c 0.336,0.667 -0.045,1.39 -0.846,1.604 -0.164,0.045 -0.289,0.053 -0.992,0.07 -1.085,0.026 -9.019,0.022 -9.366,-0.005 z m 13.506,-0.401 c 0.101,-0.088 0.143,-0.312 0.08,-0.433 -0.058,-0.115 -0.14,-0.15 -0.384,-0.17 -0.277,-0.02 -0.354,-0.06 -0.354,-0.178 0,-0.153 0.025,-0.16 0.64,-0.168 0.597,-0.008 0.777,-0.037 1.038,-0.17 0.23,-0.116 0.522,-0.478 0.549,-0.682 l 0.013,-0.095 -0.165,0.047 c -0.625,0.175 -1.467,0.207 -2.083,0.079 -0.665,-0.14 -1.28,-0.52 -1.497,-0.926 l -0.054,-0.101 -0.03,0.07 a 1.26,1.26 0 0 0 -0.03,0.334 c -0.002,0.247 0.003,0.275 0.073,0.42 0.145,0.305 0.46,0.601 0.842,0.793 0.2,0.101 0.205,0.105 0.192,0.178 l -0.042,0.242 c -0.037,0.212 -0.016,0.326 0.081,0.437 a 0.516,0.516 0 0 0 0.404,0.175 c 0.094,0 0.152,0.014 0.192,0.045 0.206,0.16 0.421,0.202 0.535,0.103 z m -5.004,-0.184 c 0.464,-0.067 0.614,-0.069 0.863,-0.014 0.51,0.113 1.036,0.023 1.267,-0.218 0.152,-0.158 0.198,-0.41 0.104,-0.565 -0.116,-0.19 -0.42,-0.32 -0.756,-0.32 -0.234,0 -0.355,0.034 -0.764,0.208 a 3.774,3.774 0 0 1 -0.377,0.144 c -0.174,0.035 -0.265,-0.062 -0.265,-0.279 0,-0.232 0.065,-0.308 0.56,-0.66 0.427,-0.3 0.681,-0.647 0.744,-1.01 0.028,-0.169 -0.003,-0.402 -0.061,-0.458 a 1.582,1.582 0 0 0 -0.295,-0.107 c -0.83,-0.244 -1.212,-0.561 -1.573,-1.308 a 5.485,5.485 0 0 1 -0.35,-0.909 4.378,4.378 0 0 0 -0.152,-0.435 c -0.27,-0.595 -0.927,-1.133 -1.683,-1.377 -0.32,-0.104 -0.523,-0.14 -1.033,-0.184 a 14.72,14.72 0 0 1 -0.564,-0.057 l -0.12,-0.018 0.168,-0.086 c 0.206,-0.104 0.356,-0.153 0.576,-0.185 0.314,-0.047 0.528,-0.055 0.757,-0.03 0.922,0.104 1.617,0.578 2.108,1.438 0.182,0.32 0.313,0.647 0.44,1.102 0.147,0.526 0.28,0.792 0.534,1.06 0.41,0.435 0.959,0.63 1.769,0.63 0.178,0 0.4,-0.012 0.492,-0.025 0.378,-0.053 0.77,-0.188 1.06,-0.363 0.318,-0.191 0.614,-0.542 0.71,-0.84 0.029,-0.09 0.064,-0.165 0.078,-0.165 0.014,0 0.104,0.018 0.2,0.04 0.164,0.039 0.188,0.039 0.386,0 0.318,-0.06 0.403,-0.054 0.484,0.032 0.122,0.13 0.275,0.154 0.45,0.07 a 0.555,0.555 0 0 0 0.178,-0.15 c 0.058,-0.08 0.07,-0.118 0.064,-0.207 -0.007,-0.107 -0.01,-0.11 -0.193,-0.23 a 1.342,1.342 0 0 1 -0.186,-0.132 c 0,-0.007 0.045,-0.043 0.101,-0.08 0.077,-0.05 0.125,-0.064 0.192,-0.058 0.103,0.009 0.104,-0.004 0.005,-0.197 A 0.832,0.832 0 0 0 22.32,17.052 c -0.337,-0.164 -0.719,-0.164 -1.145,0 -0.256,0.1 -0.295,0.101 -0.47,0.024 -0.231,-0.102 -0.466,-0.138 -0.785,-0.12 -0.392,0.024 -0.651,-0.017 -0.75,-0.118 l -0.073,-0.073 0.315,-0.029 c 0.49,-0.045 0.632,-0.088 1.066,-0.327 0.268,-0.148 0.428,-0.188 0.83,-0.211 0.58,-0.033 0.855,-0.132 1.01,-0.363 0.055,-0.082 0.083,-0.106 0.108,-0.09 a 0.636,0.636 0 0 0 0.778,-0.486 c 0.016,-0.084 0.012,-0.089 -0.238,-0.31 a 2.533,2.533 0 0 1 -0.255,-0.241 c 0,-0.01 0.039,-0.05 0.085,-0.092 0.143,-0.125 0.245,-0.104 0.534,0.108 0.05,0.037 0.054,0.037 0.054,-0.005 0,-0.095 -0.059,-0.25 -0.228,-0.61 -0.199,-0.42 -0.215,-0.47 -0.253,-0.804 -0.12,-1.03 -0.675,-1.892 -1.542,-2.395 a 2.065,2.065 0 0 0 -0.212,-0.115 c -0.009,0 -0.05,0.071 -0.093,0.158 a 1.23,1.23 0 0 1 -0.168,0.252 c -0.075,0.078 -0.107,0.095 -0.182,0.095 -0.106,0 -0.18,-0.055 -0.18,-0.133 0,-0.03 0.032,-0.123 0.072,-0.207 0.12,-0.259 0.155,-0.44 0.12,-0.645 -0.08,-0.478 -0.53,-1.016 -1.092,-1.31 -0.22,-0.114 -0.245,-0.11 -0.259,0.031 -0.015,0.162 0.02,0.49 0.077,0.71 0.026,0.102 0.117,0.346 0.202,0.541 0.218,0.5 0.284,0.72 0.285,0.94 a 0.732,0.732 0 0 1 -0.039,0.271 0.83,0.83 0 0 1 -0.282,0.32 c -0.083,0.043 -0.175,0.045 -0.157,0.004 0.127,-0.29 0.169,-0.431 0.179,-0.609 0.014,-0.25 -0.02,-0.365 -0.234,-0.804 C 19.184,9.97 19.124,9.729 19.137,9.367 l 0.01,-0.254 -0.058,0.115 A 6.699,6.699 0 0 1 18.84,9.637 c -0.305,0.472 -0.403,0.726 -0.403,1.044 0,0.294 0.114,0.704 0.278,1 0.032,0.058 0.054,0.11 0.048,0.117 a 0.57,0.57 0 0 1 -0.145,-0.116 c -0.134,-0.126 -0.325,-0.452 -0.325,-0.554 0,-0.068 -0.044,-0.055 -0.24,0.07 -0.365,0.235 -0.628,0.473 -0.975,0.885 -0.506,0.602 -1.196,1.05 -2.04,1.328 -0.198,0.065 -0.845,0.238 -1.437,0.386 -1.62,0.402 -2.188,0.602 -2.937,1.034 -1.484,0.854 -2.26,2 -2.413,3.565 -0.054,0.56 0.023,1.409 0.184,2.017 0.025,0.091 -0.13,-0.112 -0.227,-0.3 -0.174,-0.333 -0.285,-0.744 -0.34,-1.26 -0.05,-0.461 0.005,-1.38 0.112,-1.872 l 0.015,-0.07 -0.357,0.015 c -0.886,0.037 -1.618,0.288 -2.217,0.76 a 2.451,2.451 0 0 0 -0.255,0.225 l -0.06,0.072 0.015,-0.07 c 0.028,-0.127 0.17,-0.404 0.285,-0.555 0.24,-0.317 0.723,-0.62 1.227,-0.771 0.132,-0.04 0.537,-0.139 0.9,-0.22 0.364,-0.08 0.678,-0.152 0.7,-0.158 0.02,-0.006 0.09,-0.108 0.154,-0.226 0.064,-0.118 0.18,-0.303 0.257,-0.41 0.077,-0.109 0.136,-0.201 0.131,-0.206 a 3.854,3.854 0 0 0 -0.391,0.05 c -0.21,0.033 -0.674,0.098 -1.03,0.145 -0.719,0.095 -1.124,0.17 -1.5,0.278 -1.16,0.335 -1.83,0.983 -2.179,2.11 l -0.09,0.292 0.047,0.137 c 0.075,0.223 0.33,0.72 0.5,0.972 0.663,0.99 1.704,1.793 2.981,2.299 0.29,0.114 0.324,0.135 0.474,0.283 0.089,0.087 0.158,0.162 0.154,0.166 -0.018,0.019 -0.754,-0.174 -1.072,-0.28 A 6.756,6.756 0 0 1 4.555,20.673 2.898,2.898 0 0 0 4.112,20.389 5.35,5.35 0 0 1 2.71,19.356 2.975,2.975 0 0 1 2.223,18.684 L 2.12,18.492 2.267,18.627 c 0.32,0.294 0.783,0.595 1.012,0.659 0.052,0.014 0.05,0.005 -0.044,-0.161 A 5.613,5.613 0 0 1 2.871,18.338 1.602,1.602 0 0 0 2.589,17.846 C 1.842,16.875 1.296,15.9 0.915,14.856 l -0.117,-0.323 -0.02,0.106 a 5.454,5.454 0 0 0 -0.025,0.539 l -0.004,0.432 0.14,0.385 c 0.145,0.396 0.665,1.798 0.71,1.915 0.014,0.036 0.02,0.066 0.015,0.066 -0.005,0 -0.091,-0.104 -0.19,-0.23 -0.229,-0.288 -0.484,-0.67 -0.53,-0.793 l -0.037,-0.094 0.014,0.084 c 0.074,0.448 0.273,1.12 0.466,1.573 0.586,1.376 1.55,2.583 2.722,3.407 1.142,0.803 2.692,1.367 4.063,1.478 0.132,0.01 2.083,0.021 4.335,0.023 3.518,0.002 4.13,-0.002 4.347,-0.034 z m 1.685,-6.667 a 2.756,2.756 0 0 1 -0.76,-0.276 c -0.461,-0.27 -0.788,-0.742 -0.82,-1.184 -0.01,-0.155 -0.01,-0.156 0.023,-0.073 0.208,0.529 0.61,0.955 1.163,1.233 0.254,0.128 0.394,0.18 0.69,0.257 l 0.264,0.068 -0.216,-0.002 c -0.119,-0.001 -0.274,-0.011 -0.344,-0.023 z m 2.631,-2.4 c -0.241,-0.058 -0.51,-0.273 -0.584,-0.47 a 0.743,0.743 0 0 1 0.02,-0.479 l 0.038,-0.07 0.017,0.096 c 0.044,0.24 0.214,0.446 0.457,0.554 0.072,0.032 0.256,0.08 0.41,0.107 0.229,0.04 0.376,0.083 0.465,0.136 0.007,0.004 0.014,-0.104 0.017,-0.239 0.005,-0.237 0.004,-0.244 -0.035,-0.186 -0.083,0.122 -0.2,0.216 -0.271,0.216 -0.095,0 -0.513,-0.152 -0.628,-0.228 -0.143,-0.094 -0.188,-0.186 -0.188,-0.383 0,-0.14 -0.009,-0.176 -0.054,-0.224 l -0.054,-0.058 0.114,-0.104 c 0.19,-0.172 0.305,-0.216 0.57,-0.216 0.257,0 0.367,0.04 0.547,0.193 0.256,0.22 0.342,0.757 0.193,1.204 l -0.055,0.164 -0.444,0.004 A 4.386,4.386 0 0 1 21.12,14.324 Z m 0.29,-0.85 c 0.085,-0.043 0.135,-0.137 0.132,-0.248 -0.002,-0.069 -0.022,-0.105 -0.089,-0.167 -0.14,-0.129 -0.328,-0.092 -0.41,0.08 -0.108,0.228 0.139,0.454 0.368,0.336 z m -2.035,8.588 a 2.086,2.086 0 0 1 -0.256,-0.599 c -0.08,-0.356 -0.008,-0.927 0.152,-1.203 l 0.06,-0.106 -0.2,0.015 a 5.06,5.06 0 0 1 -0.316,0.016 H 18.7 v 0.177 c 0,0.354 -0.164,0.786 -0.422,1.108 l -0.134,0.168 0.245,0.017 c 0.134,0.009 0.316,0.038 0.405,0.065 0.18,0.055 0.404,0.192 0.529,0.323 0.1,0.105 0.118,0.112 0.051,0.019 z m 3.292,-0.84 a 0.807,0.807 0 0 0 0.417,-0.375 c 0.086,-0.175 0.179,-0.638 0.196,-0.976 0.011,-0.215 0.005,-0.32 -0.027,-0.468 -0.04,-0.187 -0.184,-0.519 -0.273,-0.631 l -0.045,-0.057 -0.118,0.084 c -0.26,0.186 -0.467,0.215 -0.73,0.1 -0.128,-0.055 -0.2,-0.07 -0.398,-0.078 l -0.243,-0.01 -0.08,0.14 a 2.15,2.15 0 0 1 -1.013,0.922 l -0.184,0.084 -0.017,0.128 c -0.068,0.525 0.283,0.887 1.052,1.084 0.402,0.103 0.536,0.118 0.955,0.111 0.318,-0.005 0.392,-0.013 0.508,-0.059 z M 3.356,17.502 c 0.22,-1.066 1.028,-1.779 2.4,-2.12 C 6.099,15.297 6.663,15.186 7.689,15 9.035,14.757 9.45,14.628 9.946,14.297 l 0.3,-0.2 L 8.98,14.09 C 7.428,14.081 7.225,14.1 6.62,14.3 c -0.383,0.128 -0.759,0.296 -1.798,0.808 -0.494,0.244 -0.903,0.439 -0.908,0.434 -0.009,-0.01 0.374,-0.345 0.57,-0.498 0.642,-0.506 1.693,-1.09 2.365,-1.315 1.148,-0.384 2.03,-0.458 3.891,-0.325 l 0.89,0.063 0.347,-0.086 c 0.34,-0.085 0.688,-0.151 1.344,-0.257 a 4.31,4.31 0 0 0 0.334,-0.061 c 0.005,-0.005 -0.011,-0.016 -0.036,-0.025 a 1.502,1.502 0 0 1 -0.364,-0.181 0.996,0.996 0 0 1 -0.15,-0.11 c 0,-0.005 0.31,-0.006 0.69,-0.002 0.69,0.008 0.692,0.008 0.934,-0.058 1.502,-0.406 2.734,-1.512 3.392,-3.045 0.137,-0.32 0.376,-1.003 0.358,-1.022 -0.007,-0.007 -0.087,0.033 -0.178,0.088 -0.23,0.142 -0.72,0.384 -1.005,0.498 a 7.14,7.14 0 0 1 -2.207,0.498 l -0.214,0.016 -0.17,0.16 c -0.6,0.565 -1.503,1.102 -2.328,1.386 -0.46,0.158 -0.746,0.223 -2.226,0.504 -0.733,0.139 -1.565,0.302 -1.85,0.361 -2.068,0.435 -3.391,0.979 -4.106,1.689 -0.243,0.24 -0.374,0.427 -0.516,0.73 -0.072,0.154 -0.15,0.274 -0.263,0.4 a 2.032,2.032 0 0 0 -0.422,0.802 c -0.093,0.372 -0.051,0.916 0.108,1.381 0.056,0.166 0.203,0.507 0.218,0.507 A 0.79,0.79 0 0 0 3.356,17.502 Z M 2.536,16.634 2.511,16.268 2.251,15.878 A 21.757,21.757 0 0 1 1.783,15.141 C 1.593,14.822 1.153,13.975 1.03,13.689 l -0.051,-0.12 0.013,0.096 c 0.026,0.182 0.15,0.674 0.237,0.943 0.193,0.6 0.513,1.261 0.86,1.783 0.157,0.235 0.453,0.628 0.464,0.617 A 3.887,3.887 0 0 0 2.537,16.634 Z m -0.01,-1.4 C 2.45,14.838 2.486,14.302 2.612,13.985 2.665,13.85 2.775,13.629 2.788,13.629 c 0.005,0 0.044,0.095 0.086,0.21 0.076,0.212 0.18,0.415 0.211,0.414 0.01,0 0.059,-0.071 0.11,-0.158 0.05,-0.086 0.16,-0.248 0.244,-0.36 L 3.593,13.532 3.498,13.472 C 3.192,13.279 2.913,12.836 2.793,12.355 2.676,11.88 2.64,11.155 2.705,10.561 2.723,10.399 2.733,10.261 2.727,10.255 2.71,10.239 2.377,10.654 2.169,10.947 A 7.86,7.86 0 0 0 1.304,12.536 L 1.198,12.8 1.302,13.094 a 9.417,9.417 0 0 0 1.255,2.35 1.269,1.269 0 0 0 -0.03,-0.21 z m 1.469,-1.875 c -0.07,-0.29 -0.1,-0.672 -0.1,-1.351 0,-0.653 0.005,-0.75 0.056,-1.033 C 4.018,10.607 4.142,10.182 4.255,9.937 4.338,9.759 4.578,9.345 4.592,9.359 4.596,9.363 4.569,9.596 4.532,9.876 c -0.108,0.806 -0.13,1.103 -0.113,1.568 0.019,0.533 0.114,1.2 0.172,1.2 0.023,0 0.03,-0.113 0.028,-0.498 a 5.641,5.641 0 0 1 0.24,-1.76 C 5.059,9.688 5.481,8.768 5.869,8.19 A 0.872,0.872 0 0 0 5.949,8.055 C 5.949,8.047 5.886,8.05 5.81,8.061 4.888,8.202 4.139,8.821 3.765,9.751 L 3.672,9.981 3.682,9.818 C 3.714,9.349 3.807,8.69 3.872,8.473 3.88,8.449 3.857,8.483 3.822,8.547 c -0.277,0.512 -0.54,1.976 -0.539,3.004 0,0.753 0.134,1.297 0.406,1.658 0.128,0.17 0.336,0.271 0.306,0.15 z M 5.269,12.44 c 0.212,-0.104 0.503,-0.187 1.772,-0.507 0.555,-0.14 1.138,-0.296 1.297,-0.349 A 4.045,4.045 0 0 0 9.906,10.64 c 0.462,-0.444 0.617,-0.68 0.763,-1.162 0.067,-0.223 0.067,-0.224 0.11,-0.168 0.185,0.245 0.182,0.832 -0.005,1.2 -0.026,0.05 -0.038,0.093 -0.027,0.093 0.05,0 0.315,-0.196 0.426,-0.315 0.291,-0.311 0.426,-0.595 0.66,-1.39 a 3.77,3.77 0 0 1 0.12,-0.368 c 0.021,-0.024 0.108,0.176 0.16,0.373 0.028,0.104 0.04,0.24 0.04,0.44 -0.003,0.329 -0.063,0.58 -0.214,0.879 l -0.086,0.17 0.128,-0.069 c 0.31,-0.166 0.875,-0.858 1.116,-1.367 a 1.83,1.83 0 0 0 0.21,-0.887 C 13.309,7.644 13.22,7.365 12.963,6.994 12.627,6.509 11.87,5.944 11.208,5.683 11.106,5.643 11.04,5.592 10.924,5.463 10.841,5.371 10.784,5.296 10.798,5.296 c 0.03,0 0.472,0.12 0.77,0.209 0.705,0.21 1.258,0.52 1.684,0.942 0.493,0.488 0.727,1.001 0.724,1.586 -0.003,0.518 -0.185,0.988 -0.586,1.519 -0.078,0.102 -0.14,0.19 -0.14,0.197 0,0.02 0.384,-0.152 0.624,-0.278 0.303,-0.16 0.792,-0.49 0.98,-0.658 0.261,-0.237 0.61,-0.82 0.76,-1.272 C 15.759,7.1 15.783,6.605 15.677,6.196 15.584,5.835 15.347,5.419 15.052,5.097 L 14.925,4.959 h 0.122 c 0.066,0 0.127,-0.01 0.134,-0.022 0.03,-0.048 -0.04,-0.15 -0.148,-0.219 C 14.847,4.6 14.77,4.59 14.427,4.633 14.042,4.682 13.428,4.683 13.131,4.634 12.874,4.592 12.588,4.502 12.45,4.42 L 12.356,4.364 13.229,4.352 C 13.894,4.342 14.15,4.33 14.304,4.3 14.527,4.257 14.684,4.197 14.736,4.133 14.766,4.097 14.759,4.082 14.676,3.995 14.408,3.718 13.909,3.375 13.406,3.12 A 6.067,6.067 0 0 0 10.619,2.461 c -0.387,0 -0.86,0.04 -1.068,0.089 L 9.491,2.564 9.563,2.487 c 0.094,-0.1 0.408,-0.254 0.64,-0.312 0.41,-0.104 0.979,-0.14 1.533,-0.1 0.774,0.058 1.33,0.2 2.077,0.532 0.158,0.07 0.308,0.127 0.333,0.125 0.06,-0.005 0.134,-0.074 0.171,-0.162 l 0.031,-0.072 0.075,0.161 c 0.041,0.09 0.075,0.173 0.075,0.188 0,0.059 0.044,-0.007 0.072,-0.11 a 0.347,0.347 0 0 1 0.052,-0.121 c 0.024,-0.016 0.087,0.125 0.166,0.37 l 0.056,0.173 0.124,-0.123 c 0.147,-0.145 0.151,-0.14 0.172,0.174 l 0.013,0.208 0.11,-0.069 c 0.062,-0.038 0.118,-0.06 0.126,-0.052 0.008,0.01 0.038,0.093 0.068,0.185 0.087,0.27 0.205,0.494 0.342,0.652 0.07,0.081 0.166,0.219 0.212,0.306 0.046,0.087 0.094,0.155 0.105,0.152 C 16.154,4.58 16.32,4.285 16.4,4.09 a 0.733,0.733 0 0 1 0.094,-0.187 c 0.033,0 0.052,0.267 0.04,0.567 a 2.001,2.001 0 0 0 0,0.297 0.97,0.97 0 0 0 0.125,-0.084 0.692,0.692 0 0 1 0.133,-0.084 c 0.051,0 -0.061,0.75 -0.145,0.967 -0.032,0.08 0.035,0.04 0.191,-0.116 0.087,-0.086 0.158,-0.143 0.158,-0.126 0,0.061 -0.141,0.586 -0.192,0.716 a 3.69,3.69 0 0 1 -0.156,0.324 2.98,2.98 0 0 0 -0.237,0.547 l -0.017,0.067 0.117,-0.08 c 0.128,-0.088 0.19,-0.115 0.893,-0.391 0.621,-0.244 0.971,-0.413 1.112,-0.539 0.15,-0.134 0.233,-0.297 0.233,-0.46 V 5.384 L 18.68,5.478 c -0.132,0.181 -0.446,0.44 -0.736,0.61 L 17.848,6.144 17.923,6.062 C 18.241,5.712 18.459,5.226 18.46,4.86 18.46,4.728 18.426,4.536 18.384,4.433 18.353,4.358 18.352,4.36 18.174,4.796 17.969,5.3 17.774,5.704 17.643,5.898 17.449,6.184 17.16,6.442 16.985,6.486 16.925,6.501 16.921,6.498 16.943,6.456 16.984,6.38 17.04,6.135 17.065,5.92 17.079,5.808 17.095,5.251 17.103,4.683 17.116,3.671 17.133,3.402 17.196,3.132 17.227,2.999 17.227,2.996 17.124,2.724 A 5.899,5.899 0 0 0 16.956,2.322 c -0.067,-0.134 -0.215,-0.34 -0.244,-0.34 -0.01,0 -0.07,0.12 -0.137,0.267 L 16.455,2.516 16.443,2.291 C 16.433,2.111 16.421,2.051 16.379,1.993 A 1.697,1.697 0 0 0 15.942,1.608 5.05,5.05 0 0 0 15.221,1.248 c -0.057,-0.017 -0.057,-0.016 -0.04,0.112 0.009,0.07 0.023,0.155 0.03,0.186 0.014,0.055 0.01,0.057 -0.077,0.04 A 0.728,0.728 0 0 1 14.727,1.352 C 14.666,1.286 14.61,1.237 14.603,1.244 a 0.939,0.939 0 0 0 0.06,0.224 c 0.038,0.117 0.066,0.218 0.06,0.224 -0.016,0.016 -0.182,-0.048 -0.254,-0.1 A 1.152,1.152 0 0 1 14.282,1.345 1.473,1.473 0 0 0 14.062,1.058 C 13.906,0.925 13.834,0.908 13.092,0.831 a 1.392,1.392 0 0 1 -0.449,-0.11 c -0.036,-0.015 -0.034,0 0.016,0.114 0.032,0.072 0.066,0.17 0.074,0.216 l 0.016,0.084 -0.104,-0.02 C 12.485,1.085 12.29,1.007 12.111,0.899 11.953,0.803 11.942,0.801 11.66,0.783 a 3.625,3.625 0 0 0 -0.98,0.065 l -0.18,0.044 0.18,0.02 c 0.24,0.025 0.45,0.092 0.577,0.185 0.103,0.074 0.189,0.16 0.19,0.191 0,0.008 -0.19,0.02 -0.425,0.027 C 10.346,1.333 9.92,1.44 9.321,1.74 9.021,1.89 8.197,2.422 7.993,2.596 7.873,2.699 7.654,2.988 7.653,3.043 c 0,0.03 0.046,0.054 0.175,0.09 0.97,0.279 1.577,0.984 1.697,1.97 C 9.612,5.812 9.599,6.251 9.48,6.723 9.297,7.448 8.824,8.147 8.294,8.476 8.099,8.597 7.694,8.753 7.573,8.754 H 7.505 L 7.629,8.618 C 7.919,8.301 8.129,7.898 8.271,7.385 8.35,7.1 8.358,6.799 8.291,6.573 8.243,6.41 8.228,6.408 8.181,6.556 A 2.59,2.59 0 0 1 7.926,7.092 C 7.876,7.169 7.539,7.524 7.16,7.902 6.298,8.758 5.937,9.203 5.6,9.821 a 5.181,5.181 0 0 0 -0.54,1.635 c -0.05,0.396 -0.037,1.068 0.021,1.068 0.01,0 0.094,-0.037 0.188,-0.084 z M 16.696,8.84 C 17.317,8.631 17.799,8.406 18.206,8.137 18.5,7.943 18.887,7.562 19.106,7.253 19.32,6.949 19.631,6.29 19.583,6.241 19.556,6.215 19.133,6.375 18.991,6.465 18.838,6.563 18.746,6.637 18.293,7.026 17.847,7.409 17.758,7.474 17.53,7.583 17.292,7.698 17.15,7.709 16.998,7.623 A 0.33,0.33 0 0 1 16.9,7.555 c 0,-0.007 0.044,-0.04 0.096,-0.072 C 17.1,7.418 17.3,7.225 17.281,7.206 a 2.006,2.006 0 0 0 -0.31,0.158 c -0.812,0.463 -1.238,0.85 -1.308,1.192 -0.02,0.098 0.005,0.1 0.263,0.016 0.628,-0.205 1.372,-0.596 2.308,-1.213 0.272,-0.179 0.406,-0.252 0.528,-0.287 a 0.664,0.664 0 0 1 0.174,-0.036 c 0.03,0.03 -0.27,0.375 -0.513,0.592 -0.608,0.542 -1.16,0.908 -1.798,1.189 -0.16,0.07 -0.279,0.128 -0.265,0.128 0.014,0 0.165,-0.046 0.336,-0.104 z m 0.89,-3.788 c 0.256,-0.385 0.336,-0.674 0.37,-1.33 0.032,-0.619 0.098,-0.988 0.265,-1.47 0.04,-0.114 0.067,-0.21 0.062,-0.216 -0.025,-0.025 -0.266,0.291 -0.35,0.46 -0.24,0.487 -0.428,1.344 -0.517,2.36 -0.02,0.222 -0.036,0.413 -0.036,0.425 0,0.042 0.1,-0.07 0.206,-0.23 z"
       id="path1-5" /></g></svg>
