<?xml version="1.0" encoding="UTF-8" standalone="no"?>
<svg
   width="32"
   height="32"
   viewBox="0 0 32 32"
   fill="none"
   version="1.1"
   id="svg4"
   sodipodi:docname="aws-svgrepo-com.svg"
   xml:space="preserve"
   inkscape:version="1.4 (86a8ad7, 2024-10-11)"
   xmlns:inkscape="http://www.inkscape.org/namespaces/inkscape"
   xmlns:sodipodi="http://sodipodi.sourceforge.net/DTD/sodipodi-0.dtd"
   xmlns="http://www.w3.org/2000/svg"
   xmlns:svg="http://www.w3.org/2000/svg"><defs
     id="defs4"><linearGradient
       id="a"
       x1="-645.732"
       y1="839.188"
       x2="-654.59"
       y2="839.25"
       gradientTransform="matrix(-0.977,-0.323,-0.29,0.877,-375.944,-928.287)"
       gradientUnits="userSpaceOnUse"><stop
         offset="0.231"
         stop-color="#999875"
         id="stop1" /><stop
         offset="0.563"
         stop-color="#9b9977"
         id="stop2" /><stop
         offset="0.683"
         stop-color="#a09f7e"
         id="stop3" /><stop
         offset="0.768"
         stop-color="#a9a889"
         id="stop4" /><stop
         offset="0.837"
         stop-color="#b7b69a"
         id="stop5" /><stop
         offset="0.896"
         stop-color="#c9c7b0"
         id="stop6" /><stop
         offset="0.948"
         stop-color="#deddcb"
         id="stop7" /><stop
         offset="0.994"
         stop-color="#f8f6eb"
         id="stop8" /><stop
         offset="1"
         stop-color="#fbf9ef"
         id="stop9" /></linearGradient><linearGradient
       id="b"
       x1="-644.287"
       y1="823.405"
       x2="-657.028"
       y2="845.476"
       gradientTransform="matrix(-0.977,-0.323,-0.29,0.877,-375.944,-928.287)"
       gradientUnits="userSpaceOnUse"><stop
         offset="0"
         stop-color="#48a547"
         id="stop10" /><stop
         offset="1"
         stop-color="#3f9143"
         id="stop11" /></linearGradient><linearGradient
       id="c"
       x1="-643.386"
       y1="839.485"
       x2="-652.418"
       y2="833.417"
       gradientTransform="matrix(-0.977,-0.323,-0.29,0.877,-375.944,-928.287)"
       gradientUnits="userSpaceOnUse"><stop
         offset="0"
         stop-color="#41a247"
         id="stop12" /><stop
         offset="0.352"
         stop-color="#4ba74b"
         id="stop13" /><stop
         offset="0.956"
         stop-color="#67b554"
         id="stop14" /><stop
         offset="1"
         stop-color="#69b655"
         id="stop15" /></linearGradient><linearGradient
       x1="0%"
       y1="50%"
       x2="100%"
       y2="50%"
       id="linearGradient-1"><stop
         stop-color="#4F4F4F"
         offset="0%"
         id="stop1-1" /><stop
         stop-color="#000000"
         offset="100%"
         id="stop2-5" /></linearGradient><linearGradient
       x1="0%"
       y1="50%"
       x2="100%"
       y2="50%"
       id="linearGradient-2"><stop
         stop-color="#C40000"
         offset="0%"
         id="stop3-2" /><stop
         stop-color="#FF0000"
         offset="100%"
         id="stop4-7" /></linearGradient><filter
       x="-0.066359905"
       y="-0.24764047"
       width="1.1327198"
       height="1.4952809"
       filterUnits="objectBoundingBox"
       id="filter-1"><feOffset
         dx="0"
         dy="0"
         in="SourceAlpha"
         result="shadowOffsetOuter1"
         id="feOffset1" /><feGaussianBlur
         stdDeviation="6.5"
         in="shadowOffsetOuter1"
         result="shadowBlurOuter1"
         id="feGaussianBlur1" /></filter><linearGradient
       x1="289.77636"
       y1="138.69224"
       x2="291.19351"
       y2="96.788173"
       id="linearGradient-2-1"
       gradientTransform="scale(0.61576809,1.623988)"
       gradientUnits="userSpaceOnUse"><stop
         stop-color="#FFEED7"
         offset="0%"
         id="stop1-6" /><stop
         stop-color="#BDBFC2"
         offset="100%"
         id="stop2-8" /></linearGradient><linearGradient
       x1="104.50885"
       y1="5.6628647"
       x2="100.18904"
       y2="51.918793"
       id="linearGradient-3"
       gradientTransform="scale(1.1465328,0.87219488)"
       gradientUnits="userSpaceOnUse"><stop
         stop-color="#FFFFFF"
         stop-opacity="0.8"
         offset="0%"
         id="stop3-5" /><stop
         stop-color="#FFFFFF"
         stop-opacity="0"
         offset="100%"
         id="stop4-76" /></linearGradient><linearGradient
       x1="121.74679"
       y1="53.924801"
       x2="120.81263"
       y2="35.182901"
       id="linearGradient-4"
       gradientTransform="scale(0.80696645,1.2392089)"
       gradientUnits="userSpaceOnUse"><stop
         stop-color="#FFEED7"
         offset="0%"
         id="stop5-1" /><stop
         stop-color="#BDBFC2"
         offset="100%"
         id="stop6-8" /></linearGradient><linearGradient
       x1="148.0832"
       y1="59.380508"
       x2="148.08277"
       y2="37.695564"
       id="linearGradient-5"
       gradientTransform="scale(0.88070839,1.1354496)"
       gradientUnits="userSpaceOnUse"><stop
         stop-color="#FFEED7"
         offset="0%"
         id="stop7-9" /><stop
         stop-color="#BDBFC2"
         offset="100%"
         id="stop8-2" /></linearGradient><linearGradient
       x1="155.58861"
       y1="41.362471"
       x2="154.90092"
       y2="49.220295"
       id="linearGradient-6"
       gradientTransform="scale(0.825109,1.2119611)"
       gradientUnits="userSpaceOnUse"><stop
         stop-color="#FFFFFF"
         stop-opacity="0.65"
         offset="0%"
         id="stop9-7" /><stop
         stop-color="#FFFFFF"
         stop-opacity="0"
         offset="100%"
         id="stop10-9" /></linearGradient><linearGradient
       x1="123.9845"
       y1="40.58489"
       x2="124.62241"
       y2="46.677852"
       id="linearGradient-7"
       gradientTransform="scale(0.78277271,1.27751)"
       gradientUnits="userSpaceOnUse"><stop
         stop-color="#FFFFFF"
         stop-opacity="0.65"
         offset="0%"
         id="stop11-5" /><stop
         stop-color="#FFFFFF"
         stop-opacity="0"
         offset="100%"
         id="stop12-4" /></linearGradient><linearGradient
       x1="148.01524"
       y1="182.55482"
       x2="148.01524"
       y2="114.0479"
       id="linearGradient-8"
       gradientTransform="scale(0.81292571,1.2301247)"
       gradientUnits="userSpaceOnUse"><stop
         stop-color="#FFEED7"
         offset="0%"
         id="stop13-3" /><stop
         stop-color="#BDBFC2"
         offset="100%"
         id="stop14-1" /></linearGradient><linearGradient
       x1="108.99021"
       y1="156.39291"
       x2="101.37504"
       y2="102.29666"
       id="linearGradient-9"
       gradientTransform="scale(0.6927423,1.4435382)"
       gradientUnits="userSpaceOnUse"><stop
         stop-color="#FFEED7"
         offset="0%"
         id="stop15-2" /><stop
         stop-color="#BDBFC2"
         offset="100%"
         id="stop16" /></linearGradient><linearGradient
       x1="104.4003"
       y1="144.85882"
       x2="104.69366"
       y2="204.60102"
       id="linearGradient-10"
       gradientTransform="scale(1.1078988,0.90260955)"
       gradientUnits="userSpaceOnUse"><stop
         stop-color="#FFFFFF"
         stop-opacity="0.8"
         offset="0%"
         id="stop17" /><stop
         stop-color="#FFFFFF"
         stop-opacity="0"
         offset="100%"
         id="stop18" /></linearGradient><linearGradient
       x1="102.8446"
       y1="110.18868"
       x2="103.19609"
       y2="134.55942"
       id="linearGradient-11"
       gradientTransform="scale(1.136719,0.87972488)"
       gradientUnits="userSpaceOnUse"><stop
         stop-color="#FFFFFF"
         stop-opacity="0.65"
         offset="0%"
         id="stop19" /><stop
         stop-color="#FFFFFF"
         stop-opacity="0"
         offset="100%"
         id="stop20" /></linearGradient><linearGradient
       x1="103.1627"
       y1="63.007333"
       x2="103.1627"
       y2="108.0084"
       id="linearGradient-12"
       gradientTransform="scale(0.57191183,1.7485213)"
       gradientUnits="userSpaceOnUse"><stop
         stop-color="#FFFFFF"
         stop-opacity="0.65"
         offset="0%"
         id="stop21" /><stop
         stop-color="#FFFFFF"
         stop-opacity="0"
         offset="100%"
         id="stop22" /></linearGradient><linearGradient
       x1="330.86071"
       y1="58.717891"
       x2="330.8552"
       y2="99.451918"
       id="linearGradient-13"
       gradientTransform="scale(0.5729452,1.7453676)"
       gradientUnits="userSpaceOnUse"><stop
         stop-color="#FFFFFF"
         stop-opacity="0.65"
         offset="0%"
         id="stop23" /><stop
         stop-color="#FFFFFF"
         stop-opacity="0"
         offset="100%"
         id="stop24" /></linearGradient><linearGradient
       x1="54.491842"
       y1="225.12327"
       x2="41.523432"
       y2="269.05216"
       id="linearGradient-14"
       gradientTransform="scale(1.0116266,0.98850707)"
       gradientUnits="userSpaceOnUse"><stop
         stop-color="#FFA63F"
         offset="0%"
         id="stop25" /><stop
         stop-color="#FFFF00"
         offset="100%"
         id="stop26" /></linearGradient><linearGradient
       x1="181.20529"
       y1="222.52386"
       x2="179.43167"
       y2="145.70832"
       id="linearGradient-15"
       gradientTransform="scale(1.0209089,0.97951932)"
       gradientUnits="userSpaceOnUse"><stop
         stop-color="#FFEED7"
         offset="0%"
         id="stop27" /><stop
         stop-color="#BDBFC2"
         offset="100%"
         id="stop28" /></linearGradient><linearGradient
       x1="180.0393"
       y1="200.21823"
       x2="211.41542"
       y2="249.23078"
       id="linearGradient-16"
       gradientTransform="scale(0.95626686,1.0457332)"
       gradientUnits="userSpaceOnUse"><stop
         stop-color="#FFA63F"
         offset="0%"
         id="stop29" /><stop
         stop-color="#FFFF00"
         offset="100%"
         id="stop30" /></linearGradient><linearGradient
       x1="224.73554"
       y1="142.26692"
       x2="218.79766"
       y2="186.40591"
       id="linearGradient-17"
       gradientTransform="scale(0.81152014,1.2322553)"
       gradientUnits="userSpaceOnUse"><stop
         stop-color="#FFFFFF"
         stop-opacity="0.65"
         offset="0%"
         id="stop31" /><stop
         stop-color="#FFFFFF"
         stop-opacity="0"
         offset="100%"
         id="stop32" /></linearGradient><linearGradient
       x1="53.03579"
       y1="186.02083"
       x2="55.101502"
       y2="244.90747"
       id="linearGradient-18"
       gradientTransform="scale(0.98730924,1.0128539)"
       gradientUnits="userSpaceOnUse"><stop
         stop-color="#FFFFFF"
         stop-opacity="0.65"
         offset="0%"
         id="stop33" /><stop
         stop-color="#FFFFFF"
         stop-opacity="0"
         offset="100%"
         id="stop34" /></linearGradient><linearGradient
       x1="172.70965"
       y1="182.05425"
       x2="175.56216"
       y2="200.62123"
       id="linearGradient-19"
       gradientTransform="scale(1.0442251,0.95764792)"
       gradientUnits="userSpaceOnUse"><stop
         stop-color="#FFFFFF"
         stop-opacity="0.65"
         offset="0%"
         id="stop35" /><stop
         stop-color="#FFFFFF"
         stop-opacity="0"
         offset="100%"
         id="stop36" /></linearGradient><linearGradient
       x1="95.570844"
       y1="77.674014"
       x2="95.99155"
       y2="119.35325"
       id="linearGradient-20"
       gradientTransform="scale(1.2107089,0.82596235)"
       gradientUnits="userSpaceOnUse"><stop
         stop-color="#FFA63F"
         offset="0%"
         id="stop37" /><stop
         stop-color="#FFFF00"
         offset="100%"
         id="stop38" /></linearGradient><linearGradient
       x1="89.542682"
       y1="78.129152"
       x2="89.431244"
       y2="98.910096"
       id="linearGradient-21"
       gradientTransform="scale(1.2523967,0.79846905)"
       gradientUnits="userSpaceOnUse"><stop
         stop-color="#FFFFFF"
         stop-opacity="0.65"
         offset="0%"
         id="stop39" /><stop
         stop-color="#FFFFFF"
         stop-opacity="0"
         offset="100%"
         id="stop40" /></linearGradient><linearGradient
       x1="171.69438"
       y1="368.87384"
       x2="58.638207"
       y2="239.06731"
       id="linearGradient-1-1"
       gradientTransform="scale(1.4135425,0.70744247)"
       gradientUnits="userSpaceOnUse"><stop
         stop-color="#0052CC"
         offset="18%"
         id="stop1-3" /><stop
         stop-color="#2684FF"
         offset="100%"
         id="stop2-89" /></linearGradient><linearGradient
       x1="8.9720611"
       y1="-21.81202"
       x2="122.09358"
       y2="108.00993"
       id="linearGradient-2-3"
       gradientTransform="scale(1.4130852,0.70767143)"
       gradientUnits="userSpaceOnUse"><stop
         stop-color="#0052CC"
         offset="18%"
         id="stop3-4" /><stop
         stop-color="#2684FF"
         offset="100%"
         id="stop4-4" /></linearGradient><linearGradient
       id="paint0_linear_87_8204"
       x1="12.4809"
       y1="2"
       x2="12.4809"
       y2="22.7407"
       gradientUnits="userSpaceOnUse"><stop
         stop-color="#327EBD"
         id="stop2-0" /><stop
         offset="1"
         stop-color="#1565A7"
         id="stop3-6" /></linearGradient><linearGradient
       id="paint1_linear_87_8204"
       x1="19.519"
       y1="9.25928"
       x2="19.519"
       y2="30"
       gradientUnits="userSpaceOnUse"><stop
         stop-color="#FFDA4B"
         id="stop4-6" /><stop
         offset="1"
         stop-color="#F9C600"
         id="stop5-18" /></linearGradient></defs><sodipodi:namedview
     id="namedview4"
     pagecolor="#505050"
     bordercolor="#eeeeee"
     borderopacity="1"
     inkscape:showpageshadow="0"
     inkscape:pageopacity="0"
     inkscape:pagecheckerboard="0"
     inkscape:deskcolor="#505050"
     inkscape:zoom="8.82"
     inkscape:cx="16.043084"
     inkscape:cy="14.909297"
     inkscape:window-width="1600"
     inkscape:window-height="829"
     inkscape:window-x="-8"
     inkscape:window-y="-8"
     inkscape:window-maximized="1"
     inkscape:current-layer="svg4" /><g
     style="fill:none"
     id="g11"
     transform="matrix(1.8663794,0,0,1.8001805,1.0180689,0.11503517)"><path
       fill="#252f3e"
       d="m 4.51,7.687 c 0,0.197 0.02,0.357 0.058,0.475 0.042,0.117 0.096,0.245 0.17,0.384 a 0.233,0.233 0 0 1 0.037,0.123 c 0,0.053 -0.032,0.107 -0.1,0.16 L 4.339,9.053 A 0.255,0.255 0 0 1 4.201,9.101 C 4.147,9.101 4.094,9.075 4.041,9.027 A 1.652,1.652 0 0 1 3.849,8.776 4.137,4.137 0 0 1 3.684,8.461 C 3.269,8.952 2.748,9.198 2.12,9.198 1.673,9.198 1.316,9.069 1.056,8.813 0.795,8.557 0.662,8.215 0.662,7.788 0.662,7.334 0.822,6.966 1.146,6.688 1.471,6.41 1.902,6.272 2.45,6.272 c 0.18,0 0.367,0.016 0.564,0.042 0.197,0.027 0.4,0.07 0.612,0.118 V 6.042 C 3.626,5.636 3.541,5.353 3.376,5.188 3.206,5.022 2.918,4.942 2.508,4.942 2.322,4.942 2.131,4.964 1.934,5.012 A 4.23,4.23 0 0 0 1.359,5.193 1.525,1.525 0 0 1 1.173,5.263 0.326,0.326 0 0 1 1.088,5.279 C 1.013,5.279 0.976,5.225 0.976,5.113 V 4.851 c 0,-0.085 0.01,-0.15 0.037,-0.186 a 0.399,0.399 0 0 1 0.15,-0.113 c 0.185,-0.096 0.409,-0.176 0.67,-0.24 0.26,-0.07 0.537,-0.101 0.83,-0.101 0.633,0 1.096,0.144 1.394,0.432 0.293,0.288 0.442,0.726 0.442,1.314 v 1.73 h 0.01 z M 2.349,8.498 C 2.524,8.498 2.705,8.466 2.897,8.402 3.088,8.338 3.259,8.22 3.402,8.06 A 0.848,0.848 0 0 0 3.583,7.719 C 3.615,7.59 3.637,7.436 3.637,7.254 V 7.03 A 4.43,4.43 0 0 0 3.147,6.94 3.996,3.996 0 0 0 2.647,6.907 c -0.357,0 -0.618,0.07 -0.793,0.214 -0.176,0.144 -0.26,0.347 -0.26,0.614 0,0.25 0.063,0.437 0.196,0.566 0.128,0.133 0.314,0.197 0.559,0.197 z M 6.622,9.075 C 6.526,9.075 6.462,9.059 6.42,9.021 6.377,8.989 6.34,8.915 6.308,8.813 L 5.058,4.686 A 0.938,0.938 0 0 1 5.009,4.472 c 0,-0.085 0.043,-0.133 0.128,-0.133 h 0.522 c 0.1,0 0.17,0.016 0.207,0.053 C 5.909,4.424 5.941,4.499 5.973,4.6 L 6.867,8.135 7.697,4.6 C 7.723,4.494 7.755,4.424 7.797,4.392 A 0.365,0.365 0 0 1 8.011,4.339 h 0.425 c 0.102,0 0.17,0.016 0.213,0.053 C 8.692,4.424 8.729,4.499 8.75,4.6 L 9.591,8.178 10.511,4.6 a 0.458,0.458 0 0 1 0.107,-0.208 0.346,0.346 0 0 1 0.208,-0.053 h 0.495 c 0.085,0 0.133,0.043 0.133,0.133 0,0.027 -0.006,0.054 -0.01,0.086 A 0.76,0.76 0 0 1 11.406,4.691 L 10.123,8.818 C 10.091,8.925 10.054,8.995 10.012,9.027 A 0.34,0.34 0 0 1 9.809,9.08 H 9.352 C 9.251,9.08 9.182,9.064 9.139,9.027 9.096,8.989 9.059,8.92 9.038,8.813 L 8.213,5.37 7.393,8.809 C 7.367,8.916 7.335,8.985 7.293,9.022 7.25,9.06 7.175,9.076 7.08,9.076 H 6.622 Z M 13.46,9.219 A 3.51,3.51 0 0 1 12.64,9.123 C 12.374,9.059 12.167,8.989 12.028,8.909 11.943,8.861 11.885,8.808 11.863,8.759 A 0.378,0.378 0 0 1 11.832,8.61 V 8.338 c 0,-0.112 0.042,-0.166 0.122,-0.166 a 0.3,0.3 0 0 1 0.096,0.016 c 0.032,0.011 0.08,0.032 0.133,0.054 0.18,0.08 0.378,0.144 0.585,0.187 0.213,0.042 0.42,0.064 0.633,0.064 0.336,0 0.596,-0.059 0.777,-0.176 A 0.575,0.575 0 0 0 14.455,7.809 0.52,0.52 0 0 0 14.311,7.436 C 14.216,7.334 14.035,7.243 13.774,7.158 L 13.002,6.918 C 12.614,6.795 12.326,6.613 12.151,6.373 A 1.275,1.275 0 0 1 11.885,5.599 c 0,-0.224 0.048,-0.422 0.143,-0.593 0.096,-0.17 0.224,-0.32 0.384,-0.438 0.16,-0.122 0.34,-0.213 0.553,-0.277 0.213,-0.064 0.436,-0.091 0.67,-0.091 0.118,0 0.24,0.005 0.357,0.021 0.122,0.016 0.234,0.038 0.346,0.06 0.106,0.026 0.208,0.052 0.303,0.085 0.096,0.032 0.17,0.064 0.224,0.096 a 0.46,0.46 0 0 1 0.16,0.133 0.289,0.289 0 0 1 0.047,0.176 v 0.251 c 0,0.112 -0.042,0.171 -0.122,0.171 A 0.552,0.552 0 0 1 14.748,5.129 2.427,2.427 0 0 0 13.726,4.921 c -0.303,0 -0.543,0.048 -0.708,0.15 -0.165,0.1 -0.25,0.256 -0.25,0.475 0,0.149 0.053,0.277 0.16,0.379 0.106,0.101 0.303,0.202 0.585,0.293 l 0.756,0.24 c 0.383,0.123 0.66,0.294 0.825,0.513 0.165,0.219 0.244,0.47 0.244,0.748 0,0.23 -0.047,0.437 -0.138,0.619 a 1.436,1.436 0 0 1 -0.388,0.47 c -0.165,0.133 -0.362,0.23 -0.591,0.299 -0.24,0.075 -0.49,0.112 -0.761,0.112 z"
       id="path1-4" /><g
       fill="#ff9900"
       fill-rule="evenodd"
       clip-rule="evenodd"
       id="g3"><path
         d="m 14.465,11.813 c -1.75,1.297 -4.294,1.986 -6.481,1.986 -3.065,0 -5.827,-1.137 -7.913,-3.027 -0.165,-0.15 -0.016,-0.353 0.18,-0.235 2.257,1.313 5.04,2.109 7.92,2.109 1.941,0 4.075,-0.406 6.039,-1.239 0.293,-0.133 0.543,0.192 0.255,0.406 z"
         id="path2" /><path
         d="m 15.194,10.98 c -0.223,-0.287 -1.479,-0.138 -2.048,-0.069 -0.17,0.022 -0.197,-0.128 -0.043,-0.24 1,-0.705 2.645,-0.502 2.836,-0.267 0.192,0.24 -0.053,1.89 -0.99,2.68 -0.143,0.123 -0.281,0.06 -0.218,-0.1 0.213,-0.53 0.687,-1.72 0.463,-2.003 z"
         id="path3" /></g></g></svg>
