<?xml version="1.0" encoding="UTF-8" standalone="no"?>
<svg
   width="32"
   height="32"
   viewBox="0 0 32 32"
   fill="none"
   version="1.1"
   id="svg4"
   sodipodi:docname="chef-svgrepo-com.svg"
   xml:space="preserve"
   inkscape:version="1.4 (86a8ad7, 2024-10-11)"
   xmlns:inkscape="http://www.inkscape.org/namespaces/inkscape"
   xmlns:sodipodi="http://sodipodi.sourceforge.net/DTD/sodipodi-0.dtd"
   xmlns="http://www.w3.org/2000/svg"
   xmlns:svg="http://www.w3.org/2000/svg"><defs
     id="defs4" /><sodipodi:namedview
     id="namedview4"
     pagecolor="#505050"
     bordercolor="#eeeeee"
     borderopacity="1"
     inkscape:showpageshadow="0"
     inkscape:pageopacity="0"
     inkscape:pagecheckerboard="0"
     inkscape:deskcolor="#505050"
     inkscape:zoom="8"
     inkscape:cx="16.4375"
     inkscape:cy="16.4375"
     inkscape:window-width="1600"
     inkscape:window-height="829"
     inkscape:window-x="-8"
     inkscape:window-y="-8"
     inkscape:window-maximized="1"
     inkscape:current-layer="svg4" /><g
     id="g5"
     transform="matrix(1.0406459,0,0,1.0315405,-0.50713195,-0.58846259)"><path
       d="m 11.791,20.247 a 6.1,6.1 0 0 0 4.265,1.773 V 19.5 a 3.438,3.438 0 0 1 -2.483,-1.027 z"
       style="fill:#3f5364"
       id="path1" /><path
       d="m 18.249,10.4 -0.933,2.333 a 3.771,3.771 0 0 1 1.784,1.494 h 2.716 A 6.073,6.073 0 0 0 18.249,10.4 Z"
       style="fill:#3f5364"
       id="path2" /><path
       d="m 10.008,16 a 6.114,6.114 0 0 0 0.513,2.427 l 2.3,-1.027 A 3.41,3.41 0 0 1 12.541,16 3.534,3.534 0 0 1 16.05,12.5 V 9.98 A 6.045,6.045 0 0 0 10.008,16 Z"
       style="fill:#f18b21"
       id="path3" /><path
       d="M 17.307,19.267 18.24,21.6 a 6.048,6.048 0 0 0 3.6,-3.873 h -2.713 a 3.587,3.587 0 0 1 -1.82,1.54 z"
       style="fill:#f18b21"
       id="path4" /><path
       d="m 16.047,22.3 a 6.3,6.3 0 1 1 6.085,-8.027 h 2.436 a 8.657,8.657 0 1 0 0,3.5 H 22.132 A 6.3,6.3 0 0 1 16.047,22.3 Z"
       style="fill:#3f5364"
       id="path5" /><path
       d="m 16.047,7.04 v 0 -2.38 0 A 11.325,11.325 0 0 0 5.463,11.893 l 2.2,0.84 A 9.048,9.048 0 0 1 16.047,7.04 Z"
       style="fill:#3f5364"
       id="path6" /><path
       d="m 16.047,24.96 v 2.38 a 11.373,11.373 0 0 0 11.237,-9.567 h -2.436 a 8.936,8.936 0 0 1 -8.801,7.187 z"
       style="fill:#3f5364"
       id="path7" /><path
       d="m 24.895,14.273 h 2.389 a 11.4,11.4 0 0 0 -7.121,-8.82 l -0.84,2.193 a 9.112,9.112 0 0 1 5.572,6.627 z"
       style="fill:#f18b21"
       id="path8" /><path
       d="m 7.059,16 h -2.39 a 11.361,11.361 0 0 0 7.168,10.547 l 0.887,-2.193 A 9.029,9.029 0 0 1 7.059,16 Z"
       style="fill:#f18b21"
       id="path9" /><path
       d="m 27.564,14.273 h 2.389 A 14.463,14.463 0 0 0 27.937,8.626 l -2.016,1.26 a 10.461,10.461 0 0 1 1.643,4.387 z"
       style="fill:#3f5364"
       id="path10" /><path
       d="m 2,16.009 a 14.74,14.74 0 0 0 1.241,6.048 l 2.315,-0.952 a 12.448,12.448 0 0 1 -1.148,-5.1"
       style="fill:#3f5364"
       id="path11" /><path
       d="M 16.047,27.62 A 11.632,11.632 0 0 1 7.806,24.213 l -1.689,1.68 A 13.846,13.846 0 0 0 16.047,30 14.082,14.082 0 0 0 30,17.727 H 27.611 A 11.719,11.719 0 0 1 16.047,27.62 Z"
       style="fill:#f18b21"
       id="path12" /><path
       d="m 16.047,4.38 a 11.38,11.38 0 0 1 6.972,2.333 L 24.475,4.8 A 13.96,13.96 0 0 0 16.047,2 14.1,14.1 0 0 0 2.933,10.913 L 5.182,11.8 A 11.686,11.686 0 0 1 16.047,4.38 Z"
       style="fill:#f18b21"
       id="path13" /></g></svg>
