<?xml version="1.0" encoding="UTF-8" standalone="no"?>
<svg
   width="32"
   height="32"
   viewBox="0 0 32 32"
   fill="none"
   version="1.1"
   id="svg4"
   sodipodi:docname="elasticsearch-svgrepo-com.svg"
   xml:space="preserve"
   inkscape:version="1.4 (86a8ad7, 2024-10-11)"
   xmlns:inkscape="http://www.inkscape.org/namespaces/inkscape"
   xmlns:sodipodi="http://sodipodi.sourceforge.net/DTD/sodipodi-0.dtd"
   xmlns="http://www.w3.org/2000/svg"
   xmlns:svg="http://www.w3.org/2000/svg"><defs
     id="defs4" /><sodipodi:namedview
     id="namedview4"
     pagecolor="#505050"
     bordercolor="#eeeeee"
     borderopacity="1"
     inkscape:showpageshadow="0"
     inkscape:pageopacity="0"
     inkscape:pagecheckerboard="0"
     inkscape:deskcolor="#505050"
     inkscape:zoom="8.08"
     inkscape:cx="16.274752"
     inkscape:cy="16.274752"
     inkscape:window-width="1600"
     inkscape:window-height="829"
     inkscape:window-x="-8"
     inkscape:window-y="-8"
     inkscape:window-maximized="1"
     inkscape:current-layer="svg4" /><g
     style="fill:#000000"
     id="g5"
     transform="matrix(1.3791145,0,0,1.2686958,-1.0911406,0.8511816)"><path
       d="M 13.394,0 C 8.683,0 4.609,2.716 2.644,6.667 h 15.641 a 4.77,4.77 0 0 0 3.073,-1.11 C 21.804,5.182 22.222,4.772 22.605,4.314 L 22.606,4.312 A 11.974,11.974 0 0 0 13.394,0 Z M 1.804,8.889 a 12.009,12.009 0 0 0 0,6.222 h 14.7 a 3.111,3.111 0 1 0 0,-6.222 z m 0.84,8.444 C 4.61,21.283 8.684,24 13.395,24 c 3.701,0 7.011,-1.677 9.212,-4.312 l -10e-4,-0.002 a 9.958,9.958 0 0 0 -1.247,-1.243 4.77,4.77 0 0 0 -3.073,-1.11 z"
       id="path1" /></g></svg>
