<?xml version="1.0" encoding="UTF-8" standalone="no"?>
<svg
   width="32"
   height="32"
   viewBox="0 0 32 32"
   fill="none"
   version="1.1"
   id="svg4"
   sodipodi:docname="git-svgrepo-com.svg"
   xml:space="preserve"
   inkscape:version="1.4 (86a8ad7, 2024-10-11)"
   xmlns:inkscape="http://www.inkscape.org/namespaces/inkscape"
   xmlns:sodipodi="http://sodipodi.sourceforge.net/DTD/sodipodi-0.dtd"
   xmlns="http://www.w3.org/2000/svg"
   xmlns:svg="http://www.w3.org/2000/svg"><defs
     id="defs4" /><sodipodi:namedview
     id="namedview4"
     pagecolor="#505050"
     bordercolor="#eeeeee"
     borderopacity="1"
     inkscape:showpageshadow="0"
     inkscape:pageopacity="0"
     inkscape:pagecheckerboard="0"
     inkscape:deskcolor="#505050"
     inkscape:zoom="8.02"
     inkscape:cx="16.396509"
     inkscape:cy="16.396509"
     inkscape:window-width="1600"
     inkscape:window-height="829"
     inkscape:window-x="-8"
     inkscape:window-y="-8"
     inkscape:window-maximized="1"
     inkscape:current-layer="svg4" /><g
     style="fill:none"
     id="g4"
     transform="matrix(1.0790479,0,0,1.0790479,-1.3062262,-1.23352)"><path
       d="m 2.58536,17.4132 c -0.78048,-0.7805 -0.78048,-2.0459 0,-2.8264 L 14.5868,2.58536 c 0.7805,-0.78048 2.0459,-0.78048 2.8264,0 L 29.4146,14.5868 c 0.7805,0.7805 0.7805,2.0459 0,2.8264 L 17.4132,29.4146 c -0.7805,0.7805 -2.0459,0.7805 -2.8264,0 z"
       fill="#ee513b"
       id="path1-0" /><path
       d="m 12.1489,5.06152 -1.2153,1.21534 3.1389,3.13891 c -0.127,0.27242 -0.1979,0.57624 -0.1979,0.89663 0,0.9096 0.5715,1.6857 1.375,1.9888 v 7.6786 c -0.8035,0.3031 -1.375,1.0792 -1.375,1.9888 0,1.1736 0.9514,2.125 2.125,2.125 1.1736,0 2.125,-0.9514 2.125,-2.125 0,-0.8246 -0.4697,-1.5396 -1.1562,-1.8918 v -7.7651 l 3.0005,3.0005 c -0.1208,0.2669 -0.188,0.5632 -0.188,0.8752 0,1.1736 0.9514,2.125 2.125,2.125 1.1736,0 2.125,-0.9514 2.125,-2.125 0,-1.1736 -0.9514,-2.125 -2.125,-2.125 -0.2281,0 -0.4477,0.0359 -0.6537,0.1024 l -3.2225,-3.2225 c 0.0617,-0.199 0.0949,-0.4106 0.0949,-0.6299 0,-1.17362 -0.9514,-2.12502 -2.125,-2.12502 -0.2193,0 -0.4308,0.03323 -0.6299,0.09492 z"
       fill="#ffffff"
       id="path2-9" /></g></svg>
