<?xml version="1.0" encoding="UTF-8" standalone="no"?>
<svg
   width="32"
   height="32"
   viewBox="0 0 32 32"
   fill="none"
   version="1.1"
   id="svg4"
   sodipodi:docname="grafana-svgrepo-com.svg"
   xml:space="preserve"
   inkscape:version="1.4 (86a8ad7, 2024-10-11)"
   xmlns:inkscape="http://www.inkscape.org/namespaces/inkscape"
   xmlns:sodipodi="http://sodipodi.sourceforge.net/DTD/sodipodi-0.dtd"
   xmlns="http://www.w3.org/2000/svg"
   xmlns:svg="http://www.w3.org/2000/svg"><defs
     id="defs4"><linearGradient
       id="a"
       x1="-645.732"
       y1="839.188"
       x2="-654.59"
       y2="839.25"
       gradientTransform="matrix(-0.977,-0.323,-0.29,0.877,-375.944,-928.287)"
       gradientUnits="userSpaceOnUse"><stop
         offset="0.231"
         stop-color="#999875"
         id="stop1" /><stop
         offset="0.563"
         stop-color="#9b9977"
         id="stop2" /><stop
         offset="0.683"
         stop-color="#a09f7e"
         id="stop3" /><stop
         offset="0.768"
         stop-color="#a9a889"
         id="stop4" /><stop
         offset="0.837"
         stop-color="#b7b69a"
         id="stop5" /><stop
         offset="0.896"
         stop-color="#c9c7b0"
         id="stop6" /><stop
         offset="0.948"
         stop-color="#deddcb"
         id="stop7" /><stop
         offset="0.994"
         stop-color="#f8f6eb"
         id="stop8" /><stop
         offset="1"
         stop-color="#fbf9ef"
         id="stop9" /></linearGradient><linearGradient
       id="b"
       x1="-644.287"
       y1="823.405"
       x2="-657.028"
       y2="845.476"
       gradientTransform="matrix(-0.977,-0.323,-0.29,0.877,-375.944,-928.287)"
       gradientUnits="userSpaceOnUse"><stop
         offset="0"
         stop-color="#48a547"
         id="stop10" /><stop
         offset="1"
         stop-color="#3f9143"
         id="stop11" /></linearGradient><linearGradient
       id="c"
       x1="-643.386"
       y1="839.485"
       x2="-652.418"
       y2="833.417"
       gradientTransform="matrix(-0.977,-0.323,-0.29,0.877,-375.944,-928.287)"
       gradientUnits="userSpaceOnUse"><stop
         offset="0"
         stop-color="#41a247"
         id="stop12" /><stop
         offset="0.352"
         stop-color="#4ba74b"
         id="stop13" /><stop
         offset="0.956"
         stop-color="#67b554"
         id="stop14" /><stop
         offset="1"
         stop-color="#69b655"
         id="stop15" /></linearGradient><linearGradient
       x1="0%"
       y1="50%"
       x2="100%"
       y2="50%"
       id="linearGradient-1"><stop
         stop-color="#4F4F4F"
         offset="0%"
         id="stop1-1" /><stop
         stop-color="#000000"
         offset="100%"
         id="stop2-5" /></linearGradient><linearGradient
       x1="0%"
       y1="50%"
       x2="100%"
       y2="50%"
       id="linearGradient-2"><stop
         stop-color="#C40000"
         offset="0%"
         id="stop3-2" /><stop
         stop-color="#FF0000"
         offset="100%"
         id="stop4-7" /></linearGradient><filter
       x="-0.066359905"
       y="-0.24764047"
       width="1.1327198"
       height="1.4952809"
       filterUnits="objectBoundingBox"
       id="filter-1"><feOffset
         dx="0"
         dy="0"
         in="SourceAlpha"
         result="shadowOffsetOuter1"
         id="feOffset1" /><feGaussianBlur
         stdDeviation="6.5"
         in="shadowOffsetOuter1"
         result="shadowBlurOuter1"
         id="feGaussianBlur1" /></filter><linearGradient
       x1="289.77636"
       y1="138.69224"
       x2="291.19351"
       y2="96.788173"
       id="linearGradient-2-1"
       gradientTransform="scale(0.61576809,1.623988)"
       gradientUnits="userSpaceOnUse"><stop
         stop-color="#FFEED7"
         offset="0%"
         id="stop1-6" /><stop
         stop-color="#BDBFC2"
         offset="100%"
         id="stop2-8" /></linearGradient><linearGradient
       x1="104.50885"
       y1="5.6628647"
       x2="100.18904"
       y2="51.918793"
       id="linearGradient-3"
       gradientTransform="scale(1.1465328,0.87219488)"
       gradientUnits="userSpaceOnUse"><stop
         stop-color="#FFFFFF"
         stop-opacity="0.8"
         offset="0%"
         id="stop3-5" /><stop
         stop-color="#FFFFFF"
         stop-opacity="0"
         offset="100%"
         id="stop4-76" /></linearGradient><linearGradient
       x1="121.74679"
       y1="53.924801"
       x2="120.81263"
       y2="35.182901"
       id="linearGradient-4"
       gradientTransform="scale(0.80696645,1.2392089)"
       gradientUnits="userSpaceOnUse"><stop
         stop-color="#FFEED7"
         offset="0%"
         id="stop5-1" /><stop
         stop-color="#BDBFC2"
         offset="100%"
         id="stop6-8" /></linearGradient><linearGradient
       x1="148.0832"
       y1="59.380508"
       x2="148.08277"
       y2="37.695564"
       id="linearGradient-5"
       gradientTransform="scale(0.88070839,1.1354496)"
       gradientUnits="userSpaceOnUse"><stop
         stop-color="#FFEED7"
         offset="0%"
         id="stop7-9" /><stop
         stop-color="#BDBFC2"
         offset="100%"
         id="stop8-2" /></linearGradient><linearGradient
       x1="155.58861"
       y1="41.362471"
       x2="154.90092"
       y2="49.220295"
       id="linearGradient-6"
       gradientTransform="scale(0.825109,1.2119611)"
       gradientUnits="userSpaceOnUse"><stop
         stop-color="#FFFFFF"
         stop-opacity="0.65"
         offset="0%"
         id="stop9-7" /><stop
         stop-color="#FFFFFF"
         stop-opacity="0"
         offset="100%"
         id="stop10-9" /></linearGradient><linearGradient
       x1="123.9845"
       y1="40.58489"
       x2="124.62241"
       y2="46.677852"
       id="linearGradient-7"
       gradientTransform="scale(0.78277271,1.27751)"
       gradientUnits="userSpaceOnUse"><stop
         stop-color="#FFFFFF"
         stop-opacity="0.65"
         offset="0%"
         id="stop11-5" /><stop
         stop-color="#FFFFFF"
         stop-opacity="0"
         offset="100%"
         id="stop12-4" /></linearGradient><linearGradient
       x1="148.01524"
       y1="182.55482"
       x2="148.01524"
       y2="114.0479"
       id="linearGradient-8"
       gradientTransform="scale(0.81292571,1.2301247)"
       gradientUnits="userSpaceOnUse"><stop
         stop-color="#FFEED7"
         offset="0%"
         id="stop13-3" /><stop
         stop-color="#BDBFC2"
         offset="100%"
         id="stop14-1" /></linearGradient><linearGradient
       x1="108.99021"
       y1="156.39291"
       x2="101.37504"
       y2="102.29666"
       id="linearGradient-9"
       gradientTransform="scale(0.6927423,1.4435382)"
       gradientUnits="userSpaceOnUse"><stop
         stop-color="#FFEED7"
         offset="0%"
         id="stop15-2" /><stop
         stop-color="#BDBFC2"
         offset="100%"
         id="stop16" /></linearGradient><linearGradient
       x1="104.4003"
       y1="144.85882"
       x2="104.69366"
       y2="204.60102"
       id="linearGradient-10"
       gradientTransform="scale(1.1078988,0.90260955)"
       gradientUnits="userSpaceOnUse"><stop
         stop-color="#FFFFFF"
         stop-opacity="0.8"
         offset="0%"
         id="stop17" /><stop
         stop-color="#FFFFFF"
         stop-opacity="0"
         offset="100%"
         id="stop18" /></linearGradient><linearGradient
       x1="102.8446"
       y1="110.18868"
       x2="103.19609"
       y2="134.55942"
       id="linearGradient-11"
       gradientTransform="scale(1.136719,0.87972488)"
       gradientUnits="userSpaceOnUse"><stop
         stop-color="#FFFFFF"
         stop-opacity="0.65"
         offset="0%"
         id="stop19" /><stop
         stop-color="#FFFFFF"
         stop-opacity="0"
         offset="100%"
         id="stop20" /></linearGradient><linearGradient
       x1="103.1627"
       y1="63.007333"
       x2="103.1627"
       y2="108.0084"
       id="linearGradient-12"
       gradientTransform="scale(0.57191183,1.7485213)"
       gradientUnits="userSpaceOnUse"><stop
         stop-color="#FFFFFF"
         stop-opacity="0.65"
         offset="0%"
         id="stop21" /><stop
         stop-color="#FFFFFF"
         stop-opacity="0"
         offset="100%"
         id="stop22" /></linearGradient><linearGradient
       x1="330.86071"
       y1="58.717891"
       x2="330.8552"
       y2="99.451918"
       id="linearGradient-13"
       gradientTransform="scale(0.5729452,1.7453676)"
       gradientUnits="userSpaceOnUse"><stop
         stop-color="#FFFFFF"
         stop-opacity="0.65"
         offset="0%"
         id="stop23" /><stop
         stop-color="#FFFFFF"
         stop-opacity="0"
         offset="100%"
         id="stop24" /></linearGradient><linearGradient
       x1="54.491842"
       y1="225.12327"
       x2="41.523432"
       y2="269.05216"
       id="linearGradient-14"
       gradientTransform="scale(1.0116266,0.98850707)"
       gradientUnits="userSpaceOnUse"><stop
         stop-color="#FFA63F"
         offset="0%"
         id="stop25" /><stop
         stop-color="#FFFF00"
         offset="100%"
         id="stop26" /></linearGradient><linearGradient
       x1="181.20529"
       y1="222.52386"
       x2="179.43167"
       y2="145.70832"
       id="linearGradient-15"
       gradientTransform="scale(1.0209089,0.97951932)"
       gradientUnits="userSpaceOnUse"><stop
         stop-color="#FFEED7"
         offset="0%"
         id="stop27" /><stop
         stop-color="#BDBFC2"
         offset="100%"
         id="stop28" /></linearGradient><linearGradient
       x1="180.0393"
       y1="200.21823"
       x2="211.41542"
       y2="249.23078"
       id="linearGradient-16"
       gradientTransform="scale(0.95626686,1.0457332)"
       gradientUnits="userSpaceOnUse"><stop
         stop-color="#FFA63F"
         offset="0%"
         id="stop29" /><stop
         stop-color="#FFFF00"
         offset="100%"
         id="stop30" /></linearGradient><linearGradient
       x1="224.73554"
       y1="142.26692"
       x2="218.79766"
       y2="186.40591"
       id="linearGradient-17"
       gradientTransform="scale(0.81152014,1.2322553)"
       gradientUnits="userSpaceOnUse"><stop
         stop-color="#FFFFFF"
         stop-opacity="0.65"
         offset="0%"
         id="stop31" /><stop
         stop-color="#FFFFFF"
         stop-opacity="0"
         offset="100%"
         id="stop32" /></linearGradient><linearGradient
       x1="53.03579"
       y1="186.02083"
       x2="55.101502"
       y2="244.90747"
       id="linearGradient-18"
       gradientTransform="scale(0.98730924,1.0128539)"
       gradientUnits="userSpaceOnUse"><stop
         stop-color="#FFFFFF"
         stop-opacity="0.65"
         offset="0%"
         id="stop33" /><stop
         stop-color="#FFFFFF"
         stop-opacity="0"
         offset="100%"
         id="stop34" /></linearGradient><linearGradient
       x1="172.70965"
       y1="182.05425"
       x2="175.56216"
       y2="200.62123"
       id="linearGradient-19"
       gradientTransform="scale(1.0442251,0.95764792)"
       gradientUnits="userSpaceOnUse"><stop
         stop-color="#FFFFFF"
         stop-opacity="0.65"
         offset="0%"
         id="stop35" /><stop
         stop-color="#FFFFFF"
         stop-opacity="0"
         offset="100%"
         id="stop36" /></linearGradient><linearGradient
       x1="95.570844"
       y1="77.674014"
       x2="95.99155"
       y2="119.35325"
       id="linearGradient-20"
       gradientTransform="scale(1.2107089,0.82596235)"
       gradientUnits="userSpaceOnUse"><stop
         stop-color="#FFA63F"
         offset="0%"
         id="stop37" /><stop
         stop-color="#FFFF00"
         offset="100%"
         id="stop38" /></linearGradient><linearGradient
       x1="89.542682"
       y1="78.129152"
       x2="89.431244"
       y2="98.910096"
       id="linearGradient-21"
       gradientTransform="scale(1.2523967,0.79846905)"
       gradientUnits="userSpaceOnUse"><stop
         stop-color="#FFFFFF"
         stop-opacity="0.65"
         offset="0%"
         id="stop39" /><stop
         stop-color="#FFFFFF"
         stop-opacity="0"
         offset="100%"
         id="stop40" /></linearGradient><linearGradient
       x1="171.69438"
       y1="368.87384"
       x2="58.638207"
       y2="239.06731"
       id="linearGradient-1-1"
       gradientTransform="scale(1.4135425,0.70744247)"
       gradientUnits="userSpaceOnUse"><stop
         stop-color="#0052CC"
         offset="18%"
         id="stop1-3" /><stop
         stop-color="#2684FF"
         offset="100%"
         id="stop2-89" /></linearGradient><linearGradient
       x1="8.9720611"
       y1="-21.81202"
       x2="122.09358"
       y2="108.00993"
       id="linearGradient-2-3"
       gradientTransform="scale(1.4130852,0.70767143)"
       gradientUnits="userSpaceOnUse"><stop
         stop-color="#0052CC"
         offset="18%"
         id="stop3-4" /><stop
         stop-color="#2684FF"
         offset="100%"
         id="stop4-4" /></linearGradient><linearGradient
       id="paint0_linear_87_8204"
       x1="12.4809"
       y1="2"
       x2="12.4809"
       y2="22.7407"
       gradientUnits="userSpaceOnUse"><stop
         stop-color="#327EBD"
         id="stop2-0" /><stop
         offset="1"
         stop-color="#1565A7"
         id="stop3-6" /></linearGradient><linearGradient
       id="paint1_linear_87_8204"
       x1="19.519"
       y1="9.25928"
       x2="19.519"
       y2="30"
       gradientUnits="userSpaceOnUse"><stop
         stop-color="#FFDA4B"
         id="stop4-6" /><stop
         offset="1"
         stop-color="#F9C600"
         id="stop5-18" /></linearGradient><linearGradient
       x1="416.94215"
       y1="937.00769"
       x2="416.94215"
       y2="238.28016"
       id="linearGradient-1-8"
       gradientTransform="matrix(0.11043739,0,0,0.10835784,0.87711431,1.550821)"
       gradientUnits="userSpaceOnUse"><stop
         stop-color="#FFF100"
         offset="0%"
         id="stop1-2" /><stop
         stop-color="#F05A28"
         offset="100%"
         id="stop2-9" /></linearGradient></defs><sodipodi:namedview
     id="namedview4"
     pagecolor="#505050"
     bordercolor="#eeeeee"
     borderopacity="1"
     inkscape:showpageshadow="0"
     inkscape:pageopacity="0"
     inkscape:pagecheckerboard="0"
     inkscape:deskcolor="#505050"
     inkscape:zoom="12.67"
     inkscape:cx="16.140489"
     inkscape:cy="14.798737"
     inkscape:window-width="1600"
     inkscape:window-height="829"
     inkscape:window-x="-8"
     inkscape:window-y="-8"
     inkscape:window-maximized="1"
     inkscape:current-layer="svg4" /><path
     d="M 30.302193,14.312665 C 30.249222,13.826734 30.161021,13.269098 29.98456,12.647735 29.808098,12.034336 29.543402,11.35721 29.155191,10.656183 28.766971,9.9551555 28.264055,9.2302352 27.611139,8.5212462 27.355272,8.242424 27.072934,7.9715718 26.77295,7.7086899 27.222927,6.0915557 26.225916,4.6895006 26.225916,4.6895006 24.505412,4.5939118 23.411338,5.1754403 23.005479,5.4383225 22.934935,5.4144382 22.873134,5.3825926 22.802549,5.3586219 22.511383,5.2550631 22.211398,5.1514955 21.893764,5.0638682 21.584959,4.9762409 21.267325,4.8965835 20.940872,4.8248876 20.614418,4.7531484 20.287964,4.6974274 19.952681,4.6496242 19.890962,4.6418367 19.837986,4.6337012 19.77622,4.6257406 19.026256,2.4589321 16.873414,1.5507869 16.873414,1.5507869 c -2.408708,1.3781535 -2.858686,3.3059728 -2.858686,3.3059728 0,0 -0.0088,0.039807 -0.02649,0.1115288 -0.132343,0.031845 -0.264695,0.071739 -0.397039,0.1035589 -0.185282,0.047768 -0.370572,0.111529 -0.547033,0.1752547 -0.185281,0.063691 -0.361752,0.1274604 -0.547033,0.1991562 -0.361751,0.1433919 -0.723494,0.3027152 -1.076416,0.4779699 -0.344098,0.1752547 -0.679381,0.3664495 -1.005835,0.5655971 -0.04415,-0.015923 -0.08823,-0.031845 -0.08823,-0.031845 C 6.9915116,5.3108448 4.0357694,6.6889984 4.0357694,6.6889984 3.762253,9.8914124 5.3680623,11.90686 5.6856961,12.273299 c -0.079372,0.199156 -0.1499925,0.398314 -0.2205788,0.597469 -0.2470475,0.724921 -0.4323376,1.465782 -0.5470328,2.238504 -0.017657,0.111529 -0.035315,0.223049 -0.044143,0.334579 -3.0880862,1.378154 -3.99687019,4.190217 -3.99687019,4.190217 2.56752219,2.668679 5.56738199,2.835973 5.56738199,2.835973 0,0 0.00883,-0.0078 0.00883,-0.0078 0.3793914,0.613401 0.820549,1.194929 1.3146355,1.744604 0.2117588,0.23102 0.4235176,0.446106 0.6529164,0.661194 -0.9352528,2.421721 0.1323438,4.429205 0.1323438,4.429205 2.858688,0.09559 4.738013,-1.131201 5.135053,-1.410015 0.282338,0.08762 0.573503,0.167284 0.864667,0.231019 0.882307,0.207118 1.782262,0.326608 2.682226,0.358479 0.220579,0.0078 0.449978,0.01592 0.670557,0.0078 h 0.105875 0.07054 0.141164 l 0.141172,-0.0078 v 0.0078 c 1.349942,1.736624 3.714534,1.983584 3.714534,1.983584 1.685215,-1.601211 1.782271,-3.194444 1.782271,-3.536992 0,0 0,-0.0078 0,-0.02388 0,-0.03185 0,-0.04777 0,-0.04777 0,-0.02388 0,-0.04777 0,-0.07174 0.352922,-0.223057 0.688196,-0.462037 1.005829,-0.724928 0.670557,-0.549667 1.261708,-1.178999 1.755803,-1.856124 0.04415,-0.06369 0.08823,-0.12746 0.132344,-0.191187 1.905795,0.0956 3.255727,-1.067467 3.255727,-1.067467 -0.317633,-1.792398 -1.446989,-2.668681 -1.685216,-2.835965 0,0 -0.0088,-0.0078 -0.02649,-0.01592 -0.01765,-0.0078 -0.01765,-0.01592 -0.01765,-0.01592 0,0 0,0 0,0 -0.0088,-0.0078 -0.02649,-0.01592 -0.04415,-0.02388 0.0088,-0.111528 0.01765,-0.215086 0.0265,-0.326617 0.01765,-0.191186 0.01765,-0.390342 0.01765,-0.581536 v -0.143392 -0.07165 -0.0398 c 0,-0.04777 0,-0.03185 0,-0.04777 l -0.0088,-0.11949 -0.0088,-0.159323 c 0,-0.05573 -0.0088,-0.103559 -0.01765,-0.151361 -0.0088,-0.04777 -0.0088,-0.103559 -0.01765,-0.151354 l -0.01765,-0.151362 -0.0265,-0.151353 c -0.03532,-0.199156 -0.07055,-0.390342 -0.123523,-0.589498 -0.202939,-0.772724 -0.538214,-1.505615 -0.970543,-2.166809 -0.441157,-0.661195 -0.98819,-1.242723 -1.614638,-1.736624 -0.61761,-0.49391 -1.314634,-0.892214 -2.038138,-1.186968 -0.732314,-0.294753 -1.491105,-0.485939 -2.249887,-0.573568 -0.379392,-0.04777 -0.758793,-0.06369 -1.138183,-0.05573 h -0.141185 -0.03531 c -0.0088,0 -0.05297,0 -0.04415,0 h -0.06172 l -0.141173,0.0078 c -0.05297,0 -0.105874,0.0078 -0.149992,0.0078 -0.19411,0.01592 -0.388221,0.0398 -0.573502,0.07174 -0.758791,0.127461 -1.473465,0.374412 -2.099904,0.716959 -0.626438,0.342549 -1.173472,0.764754 -1.614629,1.242732 -0.441158,0.47797 -0.785252,1.011705 -1.023479,1.561369 -0.238229,0.549667 -0.370572,1.123234 -0.405861,1.672899 -0.0088,0.135431 -0.0088,0.278822 -0.0088,0.414245 0,0.03185 0,0.07174 0,0.103568 l 0.0088,0.11152 c 0.0088,0.06369 0.0088,0.13543 0.01765,0.199156 0.02649,0.278814 0.08824,0.549666 0.167641,0.804587 0.167643,0.517802 0.432339,0.98781 0.758793,1.386114 0.326454,0.398313 0.723493,0.724929 1.138183,0.98781 0.41468,0.254921 0.864658,0.438146 1.305815,0.557636 0.441158,0.119491 0.882316,0.167286 1.296996,0.167286 0.05297,0 0.105883,0 0.149992,0 0.02649,0 0.05297,0 0.07937,0 0.02649,0 0.05297,0 0.07937,-0.0078 0.04415,0 0.08823,-0.0078 0.132344,-0.0078 0.0088,0 0.0265,0 0.03532,-0.0078 l 0.04415,-0.0078 c 0.02649,0 0.05297,-0.0078 0.07937,-0.0078 0.05297,-0.0078 0.09705,-0.01592 0.150001,-0.02389 0.05297,-0.0078 0.09705,-0.01592 0.141164,-0.03185 0.09705,-0.01592 0.18529,-0.04777 0.273516,-0.07174 0.176462,-0.05573 0.352923,-0.11949 0.502924,-0.191186 0.158813,-0.07174 0.299986,-0.159322 0.441149,-0.238989 0.03532,-0.02389 0.07937,-0.04777 0.114705,-0.07962 0.141172,-0.103567 0.167641,-0.294754 0.05297,-0.422214 -0.09705,-0.111521 -0.273516,-0.143392 -0.414689,-0.07174 -0.03532,0.01592 -0.07054,0.03185 -0.105874,0.04777 -0.123524,0.05573 -0.247048,0.103558 -0.379392,0.143392 -0.132353,0.0398 -0.273516,0.07165 -0.414689,0.09559 -0.07055,0.0078 -0.141172,0.01592 -0.220579,0.02389 -0.03532,0 -0.07054,0.0078 -0.114695,0.0078 -0.03532,0 -0.07937,0 -0.105884,0 -0.03532,0 -0.07054,0 -0.105874,0 -0.04415,0 -0.08824,0 -0.132345,-0.0078 0,0 -0.02649,0 -0.0088,0 h -0.01765 -0.02649 c -0.01765,0 -0.04415,0 -0.06172,-0.0078 -0.04415,-0.0078 -0.07937,-0.0078 -0.123523,-0.01592 -0.326463,-0.0398 -0.652917,-0.127459 -0.961722,-0.25492 -0.317634,-0.127462 -0.617619,-0.302716 -0.891135,-0.525773 -0.273517,-0.223049 -0.511745,-0.485932 -0.697026,-0.788646 -0.185281,-0.302716 -0.317633,-0.637302 -0.379392,-0.987812 -0.02649,-0.175255 -0.04415,-0.358478 -0.03532,-0.533733 0,-0.04777 0.0088,-0.0956 0.0088,-0.143393 0,0.01592 0,-0.0078 0,-0.0078 v -0.01592 -0.0398 c 0,-0.02388 0.0088,-0.04777 0.0088,-0.07174 0.0088,-0.0956 0.0265,-0.191185 0.04415,-0.286782 0.149992,-0.764753 0.573501,-1.513576 1.226409,-2.079182 0.167641,-0.143392 0.344102,-0.270843 0.529383,-0.390343 0.185291,-0.119489 0.388221,-0.223048 0.599979,-0.310677 0.211751,-0.08762 0.423509,-0.159322 0.652909,-0.215085 0.220578,-0.05573 0.449977,-0.08762 0.688204,-0.111531 0.114695,-0.0078 0.2294,-0.01592 0.352922,-0.01592 0.03532,0 0.05297,0 0.07937,0 h 0.09705 0.06172 c 0.02649,0 0,0 0.0088,0 h 0.02649 l 0.09706,0.0078 c 0.255876,0.01592 0.502914,0.04777 0.749962,0.103559 0.494095,0.0956 0.979371,0.262883 1.429348,0.48594 0.899956,0.454076 1.667567,1.155096 2.135194,1.999515 0.238228,0.422206 0.40586,0.876283 0.485267,1.34629 0.01765,0.119491 0.03532,0.238981 0.04415,0.358481 l 0.0088,0.08762 0.0088,0.08762 c 0,0.03185 0,0.06369 0,0.08762 0,0.03185 0,0.06369 0,0.08762 v 0.0797 0.08762 c 0,0.05573 -0.0088,0.151354 -0.0088,0.207118 -0.0088,0.12746 -0.02649,0.262882 -0.04415,0.390342 -0.01765,0.127461 -0.04415,0.254922 -0.07054,0.382382 -0.0265,0.127459 -0.06172,0.254911 -0.09705,0.374411 -0.07054,0.24695 -0.158821,0.493901 -0.264695,0.740851 -0.21176,0.477979 -0.494095,0.940017 -0.82937,1.362222 -0.679385,0.84442 -1.605809,1.529507 -2.664586,1.967652 -0.529383,0.215089 -1.085246,0.374412 -1.658746,0.454069 -0.282337,0.04777 -0.573502,0.07165 -0.864658,0.07971 h -0.05297 -0.04415 -0.09705 -0.141173 -0.07054 c 0.03532,0 -0.0088,0 -0.0088,0 h -0.0265 c -0.158812,0 -0.308804,-0.0078 -0.467617,-0.02388 -0.617619,-0.03989 -1.226419,-0.143478 -1.826388,-0.29483 -0.591125,-0.15124 -1.164626,-0.366328 -1.711659,-0.62124 -1.085245,-0.525773 -2.064607,-1.242731 -2.823398,-2.111043 -0.3794,-0.430348 -0.714674,-0.900356 -0.98819,-1.386297 C 9.832359,19.858086 9.611781,19.340282 9.4529593,18.82248 9.2941467,18.296707 9.1970917,17.762974 9.1529747,17.221269 l -0.00883,-0.103559 v -0.02388 -0.02388 -0.04777 -0.08762 -0.02388 -0.03185 -0.06378 -0.127461 -0.02388 c 0,0 0,0.0078 0,-0.0078 v -0.04777 c 0,-0.06369 0,-0.135422 0,-0.199158 0.00883,-0.262882 0.035315,-0.541703 0.070542,-0.812547 0.035315,-0.270852 0.088227,-0.549674 0.1499925,-0.820518 0.061715,-0.270852 0.1323438,-0.541704 0.2205788,-0.812556 0.167632,-0.533734 0.379391,-1.051537 0.626439,-1.537477 0.502914,-0.971871 1.155823,-1.840191 1.941083,-2.5332487 0.19411,-0.1752547 0.397039,-0.3345779 0.60879,-0.4939012 0.211758,-0.151362 0.432337,-0.2947537 0.661736,-0.4301755 0.220579,-0.1354304 0.458806,-0.2549206 0.697025,-0.3664495 0.114704,-0.055731 0.238229,-0.1115203 0.361751,-0.1593233 0.06172,-0.023884 0.123524,-0.047768 0.185282,-0.071739 0.0618,-0.023884 0.123523,-0.047768 0.185291,-0.071739 0.247046,-0.095588 0.502915,-0.1752545 0.76761,-0.2469507 0.06172,-0.015923 0.132344,-0.031845 0.194102,-0.055731 0.0618,-0.015923 0.132352,-0.031845 0.19411,-0.047768 0.132353,-0.031845 0.264696,-0.063691 0.397041,-0.087628 0.0618,-0.015923 0.132352,-0.023884 0.202929,-0.039807 0.07062,-0.015923 0.132352,-0.023884 0.202939,-0.039807 0.07054,-0.00779 0.132343,-0.023884 0.20293,-0.031845 l 0.09706,-0.015923 0.105875,-0.015923 c 0.07054,-0.00779 0.132344,-0.015923 0.202929,-0.023885 0.07937,-0.00779 0.149995,-0.015923 0.2294,-0.023885 0.0618,-0.00779 0.167641,-0.015923 0.229408,-0.023884 0.04415,-0.00779 0.09705,-0.00779 0.141164,-0.015923 l 0.09705,-0.00779 0.04415,-0.00779 h 0.05297 c 0.07937,-0.00779 0.149993,-0.00779 0.229399,-0.015923 l 0.114704,-0.00779 c 0,0 0.04415,0 0.0088,0 h 0.02648 0.05297 c 0.0618,0 0.132344,-0.00779 0.19411,-0.00779 0.255868,-0.00779 0.520565,-0.00779 0.776432,0 0.511743,0.015923 1.014659,0.07174 1.499933,0.1513618 0.979363,0.1672934 1.896966,0.4461069 2.735164,0.820518 0.83819,0.3664409 1.579332,0.8205178 2.232249,1.3144191 0.04415,0.031845 0.07937,0.063691 0.123523,0.095597 0.03532,0.031845 0.07937,0.063691 0.114696,0.095597 0.07937,0.06369 0.149993,0.127452 0.229398,0.191187 0.07937,0.06369 0.149993,0.127459 0.220579,0.191186 0.07054,0.06369 0.141173,0.12746 0.211759,0.199156 0.273516,0.262881 0.529383,0.525772 0.758783,0.796616 0.458806,0.533743 0.829378,1.075437 1.120534,1.585279 0.01765,0.03185 0.03532,0.06369 0.05297,0.09559 0.01765,0.03185 0.03532,0.06369 0.05297,0.0956 0.03532,0.06369 0.07054,0.12746 0.09706,0.191187 0.03532,0.06369 0.06172,0.119498 0.09706,0.183223 0.02649,0.06369 0.06171,0.11949 0.08822,0.183225 0.105876,0.23898 0.211759,0.470009 0.291166,0.685088 0.132344,0.350517 0.229398,0.661194 0.308805,0.932047 0.0265,0.111529 0.141172,0.183224 0.264696,0.167293 0.132344,-0.0078 0.229399,-0.103559 0.229399,-0.223059 0.0088,-0.286782 0,-0.629322 -0.04415,-1.019664 z"
     fill="url(#linearGradient-1)"
     fill-rule="nonzero"
     id="path2"
     style="fill:url(#linearGradient-1-8);stroke-width:0.109393" /></svg>
