<?xml version="1.0" encoding="UTF-8" standalone="no"?>
<svg
   width="32"
   height="32"
   viewBox="0 0 32 32"
   fill="none"
   version="1.1"
   id="svg4"
   sodipodi:docname="jenkins-svgrepo-com.svg"
   xml:space="preserve"
   inkscape:version="1.4 (86a8ad7, 2024-10-11)"
   xmlns:inkscape="http://www.inkscape.org/namespaces/inkscape"
   xmlns:sodipodi="http://sodipodi.sourceforge.net/DTD/sodipodi-0.dtd"
   xmlns="http://www.w3.org/2000/svg"
   xmlns:svg="http://www.w3.org/2000/svg"><defs
     id="defs4"><linearGradient
       id="a"
       x1="-645.732"
       y1="839.188"
       x2="-654.59"
       y2="839.25"
       gradientTransform="matrix(-0.977,-0.323,-0.29,0.877,-375.944,-928.287)"
       gradientUnits="userSpaceOnUse"><stop
         offset="0.231"
         stop-color="#999875"
         id="stop1" /><stop
         offset="0.563"
         stop-color="#9b9977"
         id="stop2" /><stop
         offset="0.683"
         stop-color="#a09f7e"
         id="stop3" /><stop
         offset="0.768"
         stop-color="#a9a889"
         id="stop4" /><stop
         offset="0.837"
         stop-color="#b7b69a"
         id="stop5" /><stop
         offset="0.896"
         stop-color="#c9c7b0"
         id="stop6" /><stop
         offset="0.948"
         stop-color="#deddcb"
         id="stop7" /><stop
         offset="0.994"
         stop-color="#f8f6eb"
         id="stop8" /><stop
         offset="1"
         stop-color="#fbf9ef"
         id="stop9" /></linearGradient><linearGradient
       id="b"
       x1="-644.287"
       y1="823.405"
       x2="-657.028"
       y2="845.476"
       gradientTransform="matrix(-0.977,-0.323,-0.29,0.877,-375.944,-928.287)"
       gradientUnits="userSpaceOnUse"><stop
         offset="0"
         stop-color="#48a547"
         id="stop10" /><stop
         offset="1"
         stop-color="#3f9143"
         id="stop11" /></linearGradient><linearGradient
       id="c"
       x1="-643.386"
       y1="839.485"
       x2="-652.418"
       y2="833.417"
       gradientTransform="matrix(-0.977,-0.323,-0.29,0.877,-375.944,-928.287)"
       gradientUnits="userSpaceOnUse"><stop
         offset="0"
         stop-color="#41a247"
         id="stop12" /><stop
         offset="0.352"
         stop-color="#4ba74b"
         id="stop13" /><stop
         offset="0.956"
         stop-color="#67b554"
         id="stop14" /><stop
         offset="1"
         stop-color="#69b655"
         id="stop15" /></linearGradient><linearGradient
       x1="0%"
       y1="50%"
       x2="100%"
       y2="50%"
       id="linearGradient-1"><stop
         stop-color="#4F4F4F"
         offset="0%"
         id="stop1-1" /><stop
         stop-color="#000000"
         offset="100%"
         id="stop2-5" /></linearGradient><linearGradient
       x1="0%"
       y1="50%"
       x2="100%"
       y2="50%"
       id="linearGradient-2"><stop
         stop-color="#C40000"
         offset="0%"
         id="stop3-2" /><stop
         stop-color="#FF0000"
         offset="100%"
         id="stop4-7" /></linearGradient><filter
       x="-0.066359905"
       y="-0.24764047"
       width="1.1327198"
       height="1.4952809"
       filterUnits="objectBoundingBox"
       id="filter-1"><feOffset
         dx="0"
         dy="0"
         in="SourceAlpha"
         result="shadowOffsetOuter1"
         id="feOffset1" /><feGaussianBlur
         stdDeviation="6.5"
         in="shadowOffsetOuter1"
         result="shadowBlurOuter1"
         id="feGaussianBlur1" /></filter><linearGradient
       x1="289.77636"
       y1="138.69224"
       x2="291.19351"
       y2="96.788173"
       id="linearGradient-2-1"
       gradientTransform="scale(0.61576809,1.623988)"
       gradientUnits="userSpaceOnUse"><stop
         stop-color="#FFEED7"
         offset="0%"
         id="stop1-6" /><stop
         stop-color="#BDBFC2"
         offset="100%"
         id="stop2-8" /></linearGradient><linearGradient
       x1="104.50885"
       y1="5.6628647"
       x2="100.18904"
       y2="51.918793"
       id="linearGradient-3"
       gradientTransform="scale(1.1465328,0.87219488)"
       gradientUnits="userSpaceOnUse"><stop
         stop-color="#FFFFFF"
         stop-opacity="0.8"
         offset="0%"
         id="stop3-5" /><stop
         stop-color="#FFFFFF"
         stop-opacity="0"
         offset="100%"
         id="stop4-76" /></linearGradient><linearGradient
       x1="121.74679"
       y1="53.924801"
       x2="120.81263"
       y2="35.182901"
       id="linearGradient-4"
       gradientTransform="scale(0.80696645,1.2392089)"
       gradientUnits="userSpaceOnUse"><stop
         stop-color="#FFEED7"
         offset="0%"
         id="stop5-1" /><stop
         stop-color="#BDBFC2"
         offset="100%"
         id="stop6-8" /></linearGradient><linearGradient
       x1="148.0832"
       y1="59.380508"
       x2="148.08277"
       y2="37.695564"
       id="linearGradient-5"
       gradientTransform="scale(0.88070839,1.1354496)"
       gradientUnits="userSpaceOnUse"><stop
         stop-color="#FFEED7"
         offset="0%"
         id="stop7-9" /><stop
         stop-color="#BDBFC2"
         offset="100%"
         id="stop8-2" /></linearGradient><linearGradient
       x1="155.58861"
       y1="41.362471"
       x2="154.90092"
       y2="49.220295"
       id="linearGradient-6"
       gradientTransform="scale(0.825109,1.2119611)"
       gradientUnits="userSpaceOnUse"><stop
         stop-color="#FFFFFF"
         stop-opacity="0.65"
         offset="0%"
         id="stop9-7" /><stop
         stop-color="#FFFFFF"
         stop-opacity="0"
         offset="100%"
         id="stop10-9" /></linearGradient><linearGradient
       x1="123.9845"
       y1="40.58489"
       x2="124.62241"
       y2="46.677852"
       id="linearGradient-7"
       gradientTransform="scale(0.78277271,1.27751)"
       gradientUnits="userSpaceOnUse"><stop
         stop-color="#FFFFFF"
         stop-opacity="0.65"
         offset="0%"
         id="stop11-5" /><stop
         stop-color="#FFFFFF"
         stop-opacity="0"
         offset="100%"
         id="stop12-4" /></linearGradient><linearGradient
       x1="148.01524"
       y1="182.55482"
       x2="148.01524"
       y2="114.0479"
       id="linearGradient-8"
       gradientTransform="scale(0.81292571,1.2301247)"
       gradientUnits="userSpaceOnUse"><stop
         stop-color="#FFEED7"
         offset="0%"
         id="stop13-3" /><stop
         stop-color="#BDBFC2"
         offset="100%"
         id="stop14-1" /></linearGradient><linearGradient
       x1="108.99021"
       y1="156.39291"
       x2="101.37504"
       y2="102.29666"
       id="linearGradient-9"
       gradientTransform="scale(0.6927423,1.4435382)"
       gradientUnits="userSpaceOnUse"><stop
         stop-color="#FFEED7"
         offset="0%"
         id="stop15-2" /><stop
         stop-color="#BDBFC2"
         offset="100%"
         id="stop16" /></linearGradient><linearGradient
       x1="104.4003"
       y1="144.85882"
       x2="104.69366"
       y2="204.60102"
       id="linearGradient-10"
       gradientTransform="scale(1.1078988,0.90260955)"
       gradientUnits="userSpaceOnUse"><stop
         stop-color="#FFFFFF"
         stop-opacity="0.8"
         offset="0%"
         id="stop17" /><stop
         stop-color="#FFFFFF"
         stop-opacity="0"
         offset="100%"
         id="stop18" /></linearGradient><linearGradient
       x1="102.8446"
       y1="110.18868"
       x2="103.19609"
       y2="134.55942"
       id="linearGradient-11"
       gradientTransform="scale(1.136719,0.87972488)"
       gradientUnits="userSpaceOnUse"><stop
         stop-color="#FFFFFF"
         stop-opacity="0.65"
         offset="0%"
         id="stop19" /><stop
         stop-color="#FFFFFF"
         stop-opacity="0"
         offset="100%"
         id="stop20" /></linearGradient><linearGradient
       x1="103.1627"
       y1="63.007333"
       x2="103.1627"
       y2="108.0084"
       id="linearGradient-12"
       gradientTransform="scale(0.57191183,1.7485213)"
       gradientUnits="userSpaceOnUse"><stop
         stop-color="#FFFFFF"
         stop-opacity="0.65"
         offset="0%"
         id="stop21" /><stop
         stop-color="#FFFFFF"
         stop-opacity="0"
         offset="100%"
         id="stop22" /></linearGradient><linearGradient
       x1="330.86071"
       y1="58.717891"
       x2="330.8552"
       y2="99.451918"
       id="linearGradient-13"
       gradientTransform="scale(0.5729452,1.7453676)"
       gradientUnits="userSpaceOnUse"><stop
         stop-color="#FFFFFF"
         stop-opacity="0.65"
         offset="0%"
         id="stop23" /><stop
         stop-color="#FFFFFF"
         stop-opacity="0"
         offset="100%"
         id="stop24" /></linearGradient><linearGradient
       x1="54.491842"
       y1="225.12327"
       x2="41.523432"
       y2="269.05216"
       id="linearGradient-14"
       gradientTransform="scale(1.0116266,0.98850707)"
       gradientUnits="userSpaceOnUse"><stop
         stop-color="#FFA63F"
         offset="0%"
         id="stop25" /><stop
         stop-color="#FFFF00"
         offset="100%"
         id="stop26" /></linearGradient><linearGradient
       x1="181.20529"
       y1="222.52386"
       x2="179.43167"
       y2="145.70832"
       id="linearGradient-15"
       gradientTransform="scale(1.0209089,0.97951932)"
       gradientUnits="userSpaceOnUse"><stop
         stop-color="#FFEED7"
         offset="0%"
         id="stop27" /><stop
         stop-color="#BDBFC2"
         offset="100%"
         id="stop28" /></linearGradient><linearGradient
       x1="180.0393"
       y1="200.21823"
       x2="211.41542"
       y2="249.23078"
       id="linearGradient-16"
       gradientTransform="scale(0.95626686,1.0457332)"
       gradientUnits="userSpaceOnUse"><stop
         stop-color="#FFA63F"
         offset="0%"
         id="stop29" /><stop
         stop-color="#FFFF00"
         offset="100%"
         id="stop30" /></linearGradient><linearGradient
       x1="224.73554"
       y1="142.26692"
       x2="218.79766"
       y2="186.40591"
       id="linearGradient-17"
       gradientTransform="scale(0.81152014,1.2322553)"
       gradientUnits="userSpaceOnUse"><stop
         stop-color="#FFFFFF"
         stop-opacity="0.65"
         offset="0%"
         id="stop31" /><stop
         stop-color="#FFFFFF"
         stop-opacity="0"
         offset="100%"
         id="stop32" /></linearGradient><linearGradient
       x1="53.03579"
       y1="186.02083"
       x2="55.101502"
       y2="244.90747"
       id="linearGradient-18"
       gradientTransform="scale(0.98730924,1.0128539)"
       gradientUnits="userSpaceOnUse"><stop
         stop-color="#FFFFFF"
         stop-opacity="0.65"
         offset="0%"
         id="stop33" /><stop
         stop-color="#FFFFFF"
         stop-opacity="0"
         offset="100%"
         id="stop34" /></linearGradient><linearGradient
       x1="172.70965"
       y1="182.05425"
       x2="175.56216"
       y2="200.62123"
       id="linearGradient-19"
       gradientTransform="scale(1.0442251,0.95764792)"
       gradientUnits="userSpaceOnUse"><stop
         stop-color="#FFFFFF"
         stop-opacity="0.65"
         offset="0%"
         id="stop35" /><stop
         stop-color="#FFFFFF"
         stop-opacity="0"
         offset="100%"
         id="stop36" /></linearGradient><linearGradient
       x1="95.570844"
       y1="77.674014"
       x2="95.99155"
       y2="119.35325"
       id="linearGradient-20"
       gradientTransform="scale(1.2107089,0.82596235)"
       gradientUnits="userSpaceOnUse"><stop
         stop-color="#FFA63F"
         offset="0%"
         id="stop37" /><stop
         stop-color="#FFFF00"
         offset="100%"
         id="stop38" /></linearGradient><linearGradient
       x1="89.542682"
       y1="78.129152"
       x2="89.431244"
       y2="98.910096"
       id="linearGradient-21"
       gradientTransform="scale(1.2523967,0.79846905)"
       gradientUnits="userSpaceOnUse"><stop
         stop-color="#FFFFFF"
         stop-opacity="0.65"
         offset="0%"
         id="stop39" /><stop
         stop-color="#FFFFFF"
         stop-opacity="0"
         offset="100%"
         id="stop40" /></linearGradient></defs><sodipodi:namedview
     id="namedview4"
     pagecolor="#505050"
     bordercolor="#eeeeee"
     borderopacity="1"
     inkscape:showpageshadow="0"
     inkscape:pageopacity="0"
     inkscape:pagecheckerboard="0"
     inkscape:deskcolor="#505050"
     inkscape:zoom="10.65"
     inkscape:cx="16.29108"
     inkscape:cy="22.676056"
     inkscape:window-width="1600"
     inkscape:window-height="829"
     inkscape:window-x="-8"
     inkscape:window-y="-8"
     inkscape:window-maximized="1"
     inkscape:current-layer="svg4" /><g
     id="g66"
     transform="matrix(0.0921745,0,0,0.07424327,4.2087735,0.53730487)"><path
       d="m 250.74108,169.27752 c 0,69.45736 -55.06976,125.81705 -123.03875,125.81705 -67.968997,0 -123.0387641,-56.35969 -123.0387641,-125.81705 0,-69.457365 55.0697671,-125.817055 123.0387641,-125.817055 67.96899,0 123.03875,56.35969 123.03875,125.817055"
       fill="#d33833"
       id="path1-3" /><path
       d="m 9.724031,200.43411 c 0,0 -8.93023255,-131.175195 112.024809,-134.945738 L 113.31473,51.39845 47.727132,73.426357 28.973643,94.95814 12.60155,126.31318 l -9.3271314,36.51473 2.7782946,24.4093"
       fill="#ef3d3a"
       id="path2-3" /><path
       d="M 43.460465,83.448062 C 21.928682,105.57519 8.5333333,136.03721 8.5333333,169.77364 v 0 c 0,33.73644 13.3953487,64.19845 34.9271317,86.32558 v 0 c 21.631008,22.12714 51.299225,35.72093 84.241865,35.72093 v 0 c 32.94263,0 62.61085,-13.59379 84.24186,-35.72093 v 0 c 21.53178,-22.12713 34.92713,-52.58914 34.92713,-86.32558 v 0 c 0,-33.73643 -13.39535,-64.19845 -34.92713,-86.325578 v 0 C 190.31318,61.420155 160.64496,47.727132 127.70233,47.727132 v 0 c -32.843415,0 -62.610857,13.593798 -84.241865,35.72093 z M 38.003101,261.35814 C 15.082171,237.94108 0.89302326,205.49457 0.89302326,169.77364 v 0 c 0,-35.72093 14.18914774,-68.16744 37.11007774,-91.683718 v 0 c 22.92093,-23.417054 54.672868,-38.0031 89.699229,-38.0031 v 0 c 35.02635,0 66.77829,14.586046 89.69922,38.0031 v 0 c 22.92093,23.417058 37.11008,55.863568 37.11008,91.683718 v 0 c 0,35.72093 -14.18915,68.16744 -37.11008,91.5845 v 0 c -22.92093,23.51628 -54.67287,38.0031 -89.69922,38.0031 v 0 c -35.026361,0 -66.778299,-14.48682 -89.699229,-38.0031 z"
       fill="#231f20"
       id="path3-4" /><path
       d="m 179.49767,169.97209 -18.75348,2.7783 -25.30233,2.87752 -16.37209,0.3969 -15.9752,-0.49613 -12.204648,-3.77054 -10.815503,-11.70853 -8.434109,-23.91318 -1.885271,-5.15969 -11.212403,-3.77054 -6.548838,-10.8155 -4.663565,-15.47907 5.159689,-13.5938 12.204652,-4.266667 9.823256,4.663566 4.663565,10.31938 5.655814,-0.893024 L 86.722481,94.75969 84.837209,83.944186 84.341085,70.350388 87.11938,51.596899 87.020155,40.88062 95.553488,27.187597 110.53643,16.372093 136.73178,5.1596899 l 29.07287,4.2666667 25.30233,18.2573644 11.70852,18.753488 7.54109,13.593799 1.88527,33.736434 -5.65581,29.072868 -10.31938,25.79845 -9.72403,13.79225"
       fill="#f0d6b7"
       id="path4-1" /><path
       d="m 163.6217,251.03876 -66.976739,2.77829 v 11.21241 l 5.655819,39.39224 -2.778299,3.27442 -46.834109,-15.97519 -3.274419,-5.65581 -4.663565,-52.98605 -11.013954,-31.75194 -2.381395,-7.54108 37.506976,-25.79845 11.708528,-4.66357 10.319379,12.70078 8.930233,7.93798 10.319375,3.27442 4.66357,1.38915 5.65582,24.4093 4.26666,5.15969 10.8155,-3.77054 -7.54108,14.58604 40.68217,19.24961 -5.06047,2.7783"
       fill="#335061"
       id="path5-1" /><path
       d="m 52.489922,87.516279 12.204652,-4.266667 9.823256,4.663566 4.663565,10.31938 5.655814,-0.893023 1.389148,-5.655814 L 83.448062,80.868217 86.226357,55.069767 83.844961,40.979845 92.27907,31.156589 110.53643,16.669767 105.37674,9.6248062 79.578295,22.325581 68.762791,30.75969 62.710077,43.857364 53.382946,56.55814 50.604651,71.541085 52.489922,87.516279"
       fill="#6d6b6d"
       id="path6-3" /><path
       d="m 71.739535,43.460465 c 0,0 7.044961,-17.364341 35.125585,-25.79845 28.08062,-8.434108 1.38914,-6.052713 1.38914,-6.052713 l -30.462012,11.708527 -11.708527,11.708528 -5.15969,9.327131 10.815504,-0.893023"
       fill="#dcd9d8"
       id="path7-8" /><path
       d="m 57.649612,84.241861 c 0,0 -9.823255,-32.843411 27.683721,-37.506977 l -1.389147,-5.655814 -25.79845,6.052713 -7.541085,24.409302 1.885271,15.975194 5.15969,-3.274418"
       fill="#dcd9d8"
       id="path8-7" /><path
       d="m 72.632558,127.80155 6.151938,-5.95349 c 0,0 2.778295,0.29768 3.274419,3.57209 0.496124,3.27442 1.885271,32.84342 22.027905,48.71938 1.88527,1.48838 -14.982944,-2.38139 -14.982944,-2.38139 L 74.12093,148.34108"
       fill="#f7e4cd"
       id="path9" /><path
       d="m 158.85891,118.87132 c 0,0 1.09148,-14.18915 4.96124,-13.09768 3.86977,1.09148 3.86977,4.96124 3.86977,4.96124 0,0 -9.32713,5.95349 -8.83101,8.13644"
       fill="#f7e4cd"
       id="path10" /><path
       d="m 197.75504,66.877519 c 0,0 -7.73954,1.587597 -8.43411,8.434109 -0.69457,6.846512 8.43411,1.389147 9.82326,0.893023"
       fill="#f7e4cd"
       id="path11" /><path
       d="m 141.09767,67.373643 c 0,0 -10.31937,1.389148 -10.31937,7.937985 0,6.548837 11.70852,6.052713 14.98294,3.274418"
       fill="#f7e4cd"
       id="path12" /><path
       d="m 77.395349,97.835659 c 0,0 -17.76124,-10.815504 -19.646512,-0.496124 -1.885271,10.319375 -6.052713,17.761245 2.778295,28.576745 l -6.052713,-1.88527 -5.655814,-14.48682 -1.885272,-14.089926 10.815504,-11.212403 12.204651,0.893023 7.044962,5.655814 0.396899,7.044961"
       fill="#f7e4cd"
       id="path13" /><path
       d="m 85.829457,68.266667 c 0,0 7.937985,-41.27752 48.223253,-49.215504 33.14109,-6.548837 50.60465,1.389147 57.15349,8.930232 0,0 -29.56899,-35.125581 -57.64961,-24.409302 -28.08062,10.815504 -48.719381,30.462016 -48.223257,43.063566 0.793799,21.631008 0.496124,21.631008 0.496124,21.631008"
       fill="#f7e4cd"
       id="path14" /><path
       d="m 194.48062,32.644961 c 0,0 -13.5938,-0.496124 -14.08992,11.708527 0,0 0,1.885272 0.89302,3.770543 0,0 10.8155,-12.204651 17.36434,-5.655814"
       fill="#f7e4cd"
       id="path15" /><path
       d="m 135.04496,49.413953 c 0,0 -2.38139,-18.654263 -18.25736,-7.838759 -10.31938,7.044961 -9.32713,16.868217 -7.54109,18.753488 1.88527,1.885272 1.38915,5.655814 2.7783,3.075969 1.38914,-2.579845 0.99224,-11.013953 6.15193,-13.395349 5.06047,-2.381395 13.5938,-4.96124 16.86822,-0.595349"
       fill="#f7e4cd"
       id="path16" /><path
       d="m 90.989147,176.02481 -44.055814,19.64651 c 0,0 18.257365,72.63256 8.930233,95.15659 l -6.548837,-2.3814 -0.496124,-27.68372 -12.204652,-52.3907 -5.159689,-14.48682 45.941085,-30.95814 13.593798,13.09768"
       fill="#49728b"
       id="path17" /><path
       d="m 95.454264,216.21085 6.251166,7.64031 v 28.08062 h -7.441864 c 0,0 -0.893023,-19.64651 -0.893023,-22.0279 0,-2.3814 0.893023,-10.81551 0.893023,-10.81551"
       fill="#49728b"
       id="path18" /><path
       d="m 95.652713,256.19845 -21.134883,0.89302 6.052713,4.26667 14.982945,2.38139"
       fill="#49728b"
       id="path19" /><path
       d="m 167.78915,251.53488 17.36434,-0.49612 4.26666,43.06357 -17.76124,2.38139 -3.86976,-44.94884"
       fill="#335061"
       id="path20" /><path
       d="m 172.45271,251.53488 26.19535,-1.38914 c 0,0 10.81551,-27.1876 10.81551,-28.57675 0,-1.38915 9.32713,-39.39225 9.32713,-39.39225 l -21.13489,-22.0279 -4.26666,-3.77055 -11.21241,11.21241 v 43.55969 l -9.72403,40.38449"
       fill="#335061"
       id="path21" /><path
       d="m 184.16124,248.26046 -16.37209,3.27442 2.38139,13.09768 c 6.05272,2.77829 16.3721,-4.66357 16.3721,-4.66357"
       fill="#49728b"
       id="path22" /><path
       d="m 184.65736,166.20155 32.84341,24.4093 0.89303,-11.2124 -24.8062,-22.92093 -8.93024,9.72403"
       fill="#49728b"
       id="path23" /><path
       d="m 111.92558,343.81395 -9.72403,-39.39225 -4.862015,-29.07286 -0.793799,-21.53179 43.956594,-2.38139 h 27.28682 l -2.48062,49.2155 4.26666,38.0031 -0.49612,7.04497 -35.62171,2.77829 -21.53178,-4.66357"
       fill="#ffffff"
       id="path24" /><path
       d="m 161.73643,251.03876 c 0,0 -2.38139,48.71938 4.66357,83.44806 0,0 -14.08992,8.93023 -34.62946,11.21241 l 39.39225,-1.38915 4.66357,-2.7783 -5.65582,-76.8 -1.48837,-16.47132"
       fill="#dcd9d8"
       id="path25" /><path
       d="m 190.11473,290.43101 18.25736,-5.15969 34.62946,-1.88527 5.15969,-15.9752 -9.32713,-27.68372 -10.81551,-1.38915 -14.98294,4.66357 -14.28837,7.04496 -7.64031,-1.38915 -5.95349,2.3814"
       fill="#ffffff"
       id="path26" /><path
       d="m 189.81705,281.00465 c 0,0 12.20465,-5.65581 14.08993,-5.15969 l -5.15969,-25.79845 6.05271,-2.38139 c 0,0 4.26667,24.4093 4.26667,27.18759 0,0 26.19535,1.38915 28.57674,1.38915 0,0 5.65581,-10.8155 4.26667,-22.02791 l 5.15969,14.98295 0.49612,8.43411 -7.54108,11.2124 -8.43411,1.88527 -14.08993,-0.49612 -4.66356,-6.05272 -16.37209,2.3814 -5.15969,1.88527"
       fill="#dcd9d8"
       id="path27" /><path
       d="m 171.36124,247.76434 -10.31938,-26.19535 -10.8155,-15.47907 c 0,0 2.38139,-6.54884 5.65581,-6.54884 h 10.8155 l 10.31938,3.77055 -0.89302,17.36434 -4.76279,27.08837"
       fill="#ffffff"
       id="path28" /><path
       d="m 173.44496,238.83411 c 0,0 -13.09767,-25.30233 -13.09767,-29.07287 0,0 2.38139,-5.65581 5.65581,-4.26667 3.27442,1.38915 10.31938,5.15969 10.31938,5.15969 v -8.93023 l -15.97519,-3.27442 -10.81551,1.38915 18.25737,43.26201 3.77054,0.49613"
       fill="#dcd9d8"
       id="path29" /><path
       d="m 116.09302,177.01705 -12.99845,-1.38914 -12.204648,-3.77055 v 4.26667 l 5.953489,6.54884 18.753489,8.43411"
       fill="#ffffff"
       id="path30" /><path
       d="m 95.156589,178.4062 c 0,0 14.486821,6.05271 19.249611,4.66357 l 0.49613,5.65581 -13.09768,-2.77829 -7.937983,-5.65582 1.289922,-1.88527"
       fill="#dcd9d8"
       id="path31" /><path
       d="m 190.11473,201.12868 c -7.93799,-0.19845 -15.1814,-1.1907 -21.43256,-2.97674 0.3969,-2.57985 -0.3969,-5.06047 0.29767,-6.94574 1.78605,-1.28992 4.66357,-1.28992 7.34264,-1.5876 -2.28217,-1.09147 -5.55659,-1.58759 -8.13643,-0.89302 -0.0992,-1.78605 -0.89303,-2.87752 -1.38915,-4.26667 4.46512,-1.58759 14.98294,-12.0062 20.93643,-8.63255 2.87752,1.68682 4.06822,11.01395 4.26667,15.67752 0.19845,3.77054 -0.3969,7.54108 -1.88527,9.6248"
       fill="#d33833"
       id="path32" /><path
       d="m 190.11473,201.12868 c -7.93799,-0.19845 -15.1814,-1.1907 -21.43256,-2.97674 0.3969,-2.57985 -0.3969,-5.06047 0.29767,-6.94574 1.78605,-1.28992 4.66357,-1.28992 7.34264,-1.5876 -2.28217,-1.09147 -5.55659,-1.58759 -8.13643,-0.89302 -0.0992,-1.78605 -0.89303,-2.87752 -1.38915,-4.26667 4.46512,-1.58759 14.98294,-12.0062 20.93643,-8.63255 2.87752,1.68682 4.06822,11.01395 4.26667,15.67752 0.19845,3.77054 -0.3969,7.54108 -1.88527,9.6248 z"
       stroke="#d33833"
       stroke-width="2"
       id="path33" /><path
       d="m 152.11163,188.13023 c 0,0.59535 0,1.1907 -0.0992,1.78605 -2.48062,1.5876 -6.44961,1.5876 -9.2279,2.97674 3.96899,0.19845 7.14418,1.1907 9.92248,2.48062 -0.0992,1.48838 -0.0992,3.07597 -0.19845,4.56434 -4.56434,3.07597 -8.73179,7.73954 -14.08992,10.71628 -2.57985,1.38915 -11.41086,4.96124 -14.08993,4.26667 -1.48837,-0.3969 -1.68682,-2.28217 -2.28217,-4.06822 -1.28992,-3.77054 -4.26667,-9.92248 -4.56434,-15.67752 -0.29767,-7.24341 -1.09147,-19.44806 6.74729,-17.95969 6.35038,1.1907 13.69302,4.06822 18.55504,6.74729 3.07596,1.78605 4.76279,3.77054 9.32713,4.16744"
       fill="#d33833"
       id="path34" /><path
       d="m 152.11163,188.13023 c 0,0.59535 0,1.1907 -0.0992,1.78605 -2.48062,1.5876 -6.44961,1.5876 -9.2279,2.97674 3.96899,0.19845 7.14418,1.1907 9.92248,2.48062 -0.0992,1.48838 -0.0992,3.07597 -0.19845,4.56434 -4.56434,3.07597 -8.73179,7.73954 -14.08992,10.71628 -2.57985,1.38915 -11.41086,4.96124 -14.08993,4.26667 -1.48837,-0.3969 -1.68682,-2.28217 -2.28217,-4.06822 -1.28992,-3.77054 -4.26667,-9.92248 -4.56434,-15.67752 -0.29767,-7.24341 -1.09147,-19.44806 6.74729,-17.95969 6.35038,1.1907 13.69302,4.06822 18.55504,6.74729 3.07596,1.78605 4.76279,3.77054 9.32713,4.16744 z"
       stroke="#d33833"
       stroke-width="2"
       id="path35" /><path
       d="m 156.57674,196.76279 c -0.69457,-3.96899 -1.48837,-5.06046 -1.19069,-8.53333 10.61705,-7.04496 12.50232,12.10542 1.19069,8.53333"
       fill="#d33833"
       id="path36" /><path
       d="m 156.57674,196.76279 c -0.69457,-3.96899 -1.48837,-5.06046 -1.19069,-8.53333 10.61705,-7.04496 12.50232,12.10542 1.19069,8.53333 z"
       stroke="#d33833"
       stroke-width="2"
       id="path37" /><path
       d="m 171.85736,199.93798 c 0,0 -3.27441,-4.66356 -0.89302,-6.05271 2.3814,-1.38915 4.66357,0 6.05271,-2.38139 1.38915,-2.3814 0,-3.77055 0.49613,-6.54884 0.49612,-2.7783 2.77829,-3.27442 5.15969,-3.77054 2.38139,-0.49613 8.93023,-1.38915 9.82325,0.89302 l -2.77829,-8.43411 -5.65581,-1.88527 -17.76125,10.31938 -0.89302,5.15969 v 10.31938"
       fill="#ef3d3a"
       id="path38" /><path
       d="m 122.64186,215.41705 c -0.59535,-7.34263 -1.1907,-14.58604 -1.78605,-21.92868 -0.99224,-10.91473 2.57985,-9.02946 12.10543,-9.02946 1.48837,0 8.93023,1.68683 9.42636,2.7783 2.57984,5.25891 -4.26667,4.06822 2.97674,8.03721 6.05271,3.27442 16.86822,-1.9845 14.3876,-9.42636 -1.38915,-1.68682 -7.14419,-0.49612 -9.22791,-1.5876 -3.67132,-1.88527 -7.34264,-3.77054 -11.01395,-5.65581 -4.66357,-2.38139 -15.37985,-5.95349 -20.34109,-2.57984 -12.60155,8.53333 0.7938,29.96589 5.25892,38.89612"
       fill="#ef3d3a"
       id="path39" /><path
       d="m 135.04496,49.413953 c -12.8,-2.976744 -19.15039,5.35814 -23.02015,13.990698 -3.47287,-0.793798 -2.08372,-5.556589 -1.1907,-7.937984 2.28217,-6.251163 11.51008,-14.685272 19.05116,-13.494574 3.17519,0.396899 7.54109,3.373643 5.15969,7.44186"
       fill="#231f20"
       id="path40" /><path
       d="m 197.25891,63.900775 h 0.59535 c 2.87752,5.953489 5.35814,12.303876 9.02946,17.662016 -2.48062,5.755039 -18.45581,10.716279 -18.25736,0.595349 3.47286,-1.488373 9.42635,-0.297675 12.50232,-2.282171 -1.78604,-4.862016 -4.26666,-9.029457 -3.86977,-15.975194"
       fill="#231f20"
       id="path41" /><path
       d="m 141.49457,64.099225 c 2.7783,5.060465 3.67132,10.31938 7.54109,14.089922 1.78604,1.686822 5.15969,3.770543 3.47287,8.533334 -0.3969,1.091472 -3.27442,3.572093 -4.96124,4.068217 -6.05272,1.786046 -20.24186,0.396899 -15.47907,-7.243411 5.06046,0.198449 11.80775,3.274418 15.57829,-0.396899 -2.87752,-4.564342 -8.03721,-13.693024 -6.15194,-19.051163"
       fill="#231f20"
       id="path42" /><path
       d="m 194.97674,115.10078 c -9.12868,5.85426 -19.34883,12.30387 -34.431,10.8155 -3.1752,-2.7783 -4.46512,-9.02946 -1.28993,-13.09767 1.5876,2.77829 0.59535,7.93798 5.15969,8.73178 8.53334,1.48837 18.45582,-5.25892 24.60776,-7.54109 3.77054,-6.44961 -0.29768,-8.73178 -3.77055,-12.89922 -7.04496,-8.434111 -16.37209,-18.95194 -16.07442,-31.553491 2.87752,-2.083721 3.07597,3.175194 3.47287,4.068217 3.67132,8.533334 12.89923,19.547287 19.54729,26.889924 1.68682,1.78605 4.36589,3.57209 4.66357,4.76279 0.89302,3.37364 -2.28218,7.54109 -1.88528,9.82326"
       fill="#231f20"
       id="path43" /><path
       d="m 74.12093,108.94884 c -2.877519,-1.68682 -3.572093,-8.83101 -6.945736,-9.02946 -4.862016,-0.297675 -3.968992,9.32713 -3.968992,14.98295 -3.274419,-2.97675 -3.869768,-12.30388 -1.488373,-17.066671 -2.778294,-1.389147 -3.968992,1.488372 -5.556589,2.480621 2.083721,-14.387598 21.134884,-6.648063 17.95969,8.63256"
       fill="#231f20"
       id="path44" /><path
       d="m 200.73178,121.15349 c -4.26666,8.13643 -10.31938,17.06666 -22.8217,17.36434 -0.29768,-2.57985 -0.49613,-6.64806 0,-8.23566 9.6248,-0.99225 15.57829,-5.85426 22.8217,-9.12868"
       fill="#231f20"
       id="path45" /><path
       d="m 140.8,126.4124 c 7.93798,4.16744 22.62326,4.66357 33.53798,4.3659 0.59535,2.38139 0.59535,5.35813 0.59535,8.23565 C 160.94264,139.6093 144.47132,136.13643 140.8,126.4124"
       fill="#231f20"
       id="path46" /><path
       d="m 139.31163,134.15194 c 5.55659,13.89147 24.50852,12.30387 40.48372,11.90698 -0.69458,1.78604 -2.18295,3.96899 -4.16744,4.66356 -5.15969,2.08372 -19.24962,3.67132 -26.3938,-0.0992 -4.46512,-2.3814 -7.44186,-7.83876 -9.92248,-11.01396 -1.09148,-1.48837 -7.04496,-5.35814 0,-5.45736"
       fill="#231f20"
       id="path47" /><path
       d="m 194.28217,210.65426 c -6.44961,11.11318 -12.70078,22.52403 -20.34109,32.24807 3.1752,-9.42636 4.56435,-25.30233 5.06047,-37.40776 6.74729,-3.17519 12.50233,0.69458 15.28062,5.15969"
       fill="#81b0c4"
       id="path48" /><path
       d="m 229.11008,250.54264 c -7.24341,1.48837 -12.30388,8.53333 -19.44806,8.0372 3.96899,-5.45736 10.71627,-7.83876 19.44806,-8.0372"
       fill="#231f20"
       id="path49" /><path
       d="m 232.28527,261.85426 c -5.95349,0.59535 -12.89922,1.5876 -18.85271,1.09148 2.87752,-4.3659 13.79225,-2.7783 18.85271,-1.09148"
       fill="#231f20"
       id="path50" /><path
       d="m 234.36899,271.67752 c -6.64806,0.0992 -14.88372,0 -21.23411,-0.49613 3.77055,-4.06821 16.96745,-1.48837 21.23411,0.49613"
       fill="#231f20"
       id="path51" /><path
       d="m 181.77984,298.46822 c 0.99225,8.33488 4.26667,16.76899 3.86977,25.89767 -3.67132,1.1907 -5.75504,2.28217 -10.71628,2.28217 -0.29767,-7.73953 -1.38914,-19.64651 -1.09147,-27.08837 2.3814,0.19845 5.95349,-1.68682 7.93798,-1.09147"
       fill="#dcd9d8"
       id="path52" /><path
       d="m 171.06357,175.42946 c -3.37365,2.18294 -6.15194,4.86201 -9.42636,7.24341 -7.14419,0.3969 -11.01395,-0.49613 -16.17364,-4.56434 0.0992,-0.29768 0.59535,-0.19845 0.59535,-0.59535 7.64031,3.37364 17.36434,-1.38915 25.00465,-2.08372"
       fill="#f0d6b7"
       id="path53" /><path
       d="m 131.17519,227.32403 c 2.08372,-9.02946 10.31938,-13.79225 17.76124,-18.75349 7.64031,9.72403 12.30388,22.22636 17.46357,34.33179 -12.20465,-3.67132 -24.60775,-9.52559 -35.22481,-15.5783"
       fill="#81b0c4"
       id="path54" /><path
       d="m 173.84186,299.65891 c -0.29767,7.44186 0.69457,19.24962 1.09147,27.08838 4.96124,0 7.04496,-1.09148 10.71628,-2.28217 0.3969,-9.12869 -2.87752,-17.56279 -3.86977,-25.89768 -1.98449,-0.69457 -5.55658,1.1907 -7.93798,1.09147 z M 97.24031,257.5876 c 3.27442,29.86666 7.93799,54.87131 16.57054,81.36434 19.15039,5.85426 42.17054,6.35039 59.13799,1.09147 -3.07597,-14.88372 -1.78605,-33.04186 -3.5721,-49.01705 -1.38914,-12.00621 -0.69457,-24.01241 -2.57984,-36.21706 -20.53954,-4.26666 -49.51318,-0.99225 -69.55659,2.7783 z m 74.4186,-2.57985 c -0.19845,12.8 0.59535,25.50078 1.5876,38.30078 4.96124,-0.69458 8.23566,-1.1907 12.8,-2.28217 -1.48837,-12.30388 -1.28992,-26.29458 -4.36589,-37.20931 -3.47287,0.0992 -6.54884,0 -10.02171,1.1907 z m 24.90543,-2.08372 c -2.38139,-0.49612 -5.06046,0 -7.24341,0 1.09147,10.41861 3.57209,21.92868 4.46512,32.94264 3.47286,0.0992 5.35814,-1.5876 8.23565,-2.08372 0.19845,-9.62481 -0.79379,-22.92093 -5.45736,-30.85892 z m 37.80465,34.53023 c 7.34264,-1.78604 11.90698,-10.71628 9.82326,-19.94418 -1.38915,-6.15194 -3.77055,-17.86047 -6.44961,-21.82946 -1.88528,-2.87752 -7.14419,-6.74729 -11.41086,-4.06822 -6.84651,4.36589 -18.85271,5.65582 -23.81395,10.91473 2.48062,8.33489 3.27442,19.64651 4.26667,30.16434 8.53333,0.49613 18.95193,-2.38139 26.09612,0.69458 -4.96124,1.58759 -11.31163,1.58759 -15.57829,3.96899 3.57209,1.68682 11.70852,1.38915 17.06666,0.0992 v 0 z m -68.06822,-44.55193 c -5.15969,-12.10543 -9.82325,-24.60776 -17.46356,-34.33179 -7.44186,4.96124 -15.5783,9.72403 -17.76124,18.75349 10.71628,6.05271 23.11938,11.90698 35.2248,15.5783 z m 12.70078,-37.40776 c -0.49612,12.10543 -1.88527,27.9814 -5.06047,37.40776 7.64031,-9.82326 13.89148,-21.13489 20.34109,-32.24807 -2.77829,-4.46511 -8.53333,-8.33488 -15.28062,-5.15969 z m -14.3876,-5.06046 c -2.87752,-0.29768 -5.35814,3.37364 -9.12868,1.78604 -0.89302,0.99225 -1.68682,1.9845 -2.57984,2.97675 8.33488,10.12093 12.20465,24.4093 18.65426,36.21705 3.47287,-11.41085 3.07597,-23.81395 3.86977,-36.21705 -4.76279,0.19845 -7.44186,-4.46512 -10.81551,-4.76279 z m -9.2279,-12.20465 c -0.29768,3.47287 0.49612,4.56434 1.19069,8.53333 11.31163,3.57209 9.42636,-15.57829 -1.19069,-8.53333 z m -12.60155,-4.16744 c -4.86202,-2.67907 -12.20466,-5.55659 -18.55504,-6.74729 -7.83876,-1.48837 -7.04496,10.71628 -6.74729,17.95969 0.29767,5.75504 3.27442,11.80775 4.56434,15.67752 0.59535,1.78604 0.7938,3.67132 2.28217,4.06821 2.67907,0.59535 11.6093,-2.87751 14.08993,-4.26666 5.35813,-2.87752 9.52558,-7.54109 14.08992,-10.71628 0.0992,-1.48837 0.0992,-3.07597 0.19845,-4.56434 -2.7783,-1.38915 -5.85427,-2.28217 -9.92248,-2.48062 2.67907,-1.38915 6.74728,-1.38915 9.2279,-2.97675 0,-0.59535 0,-1.19069 0.0992,-1.78604 -4.56434,-0.49613 -6.25117,-2.48062 -9.32713,-4.16744 z m -46.635663,-8.43411 c -4.068217,4.16744 11.410853,9.72403 16.272873,10.0217 0,-2.57984 1.48837,-5.06046 1.19069,-6.94573 -5.85426,-0.99225 -13.49457,-0.29768 -17.463563,-3.07597 z m 50.009303,1.88527 c 0,0.3969 -0.49612,0.29767 -0.59535,0.59535 5.25891,4.06821 9.12868,4.96124 16.17364,4.56434 3.1752,-2.28217 6.05272,-5.06047 9.42636,-7.24341 -7.73953,0.69457 -17.46356,5.45736 -25.00465,2.08372 z M 192,191.40465 c -0.19845,-4.56434 -1.38915,-13.9907 -4.26667,-15.67752 -5.95349,-3.47287 -16.47131,7.04496 -20.93643,8.63256 0.49612,1.38915 1.28992,2.48062 1.38915,4.26667 2.67907,-0.69458 5.85426,-0.19845 8.13643,0.89302 -2.67907,0.29767 -5.55659,0.29767 -7.34264,1.5876 -0.59534,1.88527 0.19845,4.36589 -0.29767,6.94573 6.25116,1.78605 13.49457,2.67907 21.43256,2.97675 1.48837,-1.9845 2.08372,-5.75504 1.88527,-9.62481 z M 89.302326,179.5969 c -1.289923,-0.89302 -9.922481,-12.10543 -11.113179,-11.6093 -15.578294,6.15193 -30.164341,16.76899 -43.16279,26.88992 12.4031,26.69147 17.463565,59.33643 18.356589,90.7907 14.189147,6.64806 26.691473,16.27286 46.04031,17.26511 -2.282171,-15.77674 -4.266667,-29.96589 -5.556589,-44.84961 -4.862016,-2.08372 -11.807752,0.0992 -16.372093,-0.59535 0,-5.45736 6.945736,-2.38139 7.541085,-6.05271 0.396899,-2.7783 -3.869768,-2.97675 -2.48062,-7.34264 3.572093,1.28993 5.457364,4.16744 9.227907,5.25892 3.472868,-7.54109 0,-20.93644 0.496124,-27.28682 0.09922,-1.1907 0.595349,-6.54884 3.274418,-5.65582 2.381396,0.7938 -0.09922,14.3876 0.09923,20.34109 0.19845,5.55659 -0.694573,10.8155 1.587597,14.28837 18.654255,-2.57985 37.606195,-4.16744 57.848055,-4.76279 -4.46511,-1.88527 -9.72403,-3.67132 -15.47907,-6.94574 -3.17519,-1.78604 -12.99845,-5.45736 -13.89147,-8.43411 -1.48837,-4.76279 3.77054,-7.24341 4.66356,-11.31162 -9.42635,5.15969 -11.2124,-4.96124 -13.49457,-12.00621 -1.98449,-6.44961 -3.17519,-11.31162 -3.67132,-14.98294 -8.23566,-4.16744 -16.967433,-8.03721 -23.913169,-12.99845 v 0 z m 94.462014,-10.31938 c 12.99845,-6.25116 15.37985,23.51628 10.22016,33.14109 0.7938,2.87751 3.47286,3.96899 4.56434,6.54883 -7.24341,12.99845 -15.28062,25.10388 -22.72248,37.90388 5.45736,-3.47287 13.39534,-0.59535 19.84496,-3.1752 2.38139,-0.89302 4.06821,-6.35038 5.85426,-10.71628 4.96124,-11.90697 10.12093,-26.98914 12.4031,-38.30077 0.49613,-2.57985 1.9845,-8.23566 1.5876,-10.51783 -0.59535,-4.16744 -6.15194,-7.24341 -9.02946,-9.72403 -5.25891,-4.76279 -8.53333,-8.83101 -14.08992,-13.29613 -2.08372,3.27442 -6.84651,5.45737 -8.63256,8.13644 z M 59.634109,54.077519 c -6.151938,6.846512 -4.862016,19.547287 -4.167442,28.675969 11.212403,-7.044961 25.996899,0.595349 25.897674,12.502326 5.35814,-0.09923 1.984496,-6.648062 0.992248,-10.914729 -3.175194,-13.792248 5.35814,-28.675969 0.396899,-41.277519 -9.624806,0.793798 -17.463565,4.663566 -23.119379,11.013953 z M 103.88837,14.486822 C 89.897674,18.455814 71.937984,28.675969 66.182946,41.277519 70.648062,40.582946 73.724031,38.4 78.089922,38.102326 c 1.686822,-0.09922 3.869768,0.694573 5.755039,0.198449 3.770543,-0.992248 7.044961,-9.525581 9.922481,-12.700775 2.778294,-3.075969 6.151938,-4.465116 8.434108,-7.243411 1.48837,-0.694574 3.67132,-0.694574 3.77054,-2.877519 -0.59535,-0.694574 -1.28992,-1.190698 -2.08372,-0.992248 z m 72.93023,3.770542 C 162.23256,10.021705 137.62481,3.8697674 122.14574,11.609302 109.64341,17.860465 92.775194,28.179845 87.020155,41.178295 c 5.35814,12.60155 -1.587597,24.111628 -2.083721,36.911627 -0.19845,6.846512 3.175194,12.700776 3.472868,20.142636 -1.885271,3.075972 -7.44186,3.373642 -11.311628,3.175192 -1.289922,-6.548835 -3.572093,-13.891471 -10.319379,-14.685269 -9.525582,-1.091473 -16.570543,6.846511 -16.967442,15.082169 -0.496124,9.72403 7.44186,25.79845 18.753488,24.70698 4.365892,-0.3969 5.457364,-4.76279 10.220155,-4.76279 2.579845,5.15969 -3.968992,6.74728 -4.663566,10.4186 -0.198449,0.99225 0.496124,4.66357 0.992248,6.44961 2.083721,8.43411 6.648062,19.44807 11.113179,25.89768 5.755038,8.23566 16.967443,9.42635 29.072873,10.22015 2.18294,-4.66356 10.12092,-4.26666 15.28061,-3.07597 -6.25116,-2.48062 -12.0062,-8.4341 -16.76899,-13.69302 -5.45736,-6.05271 -11.01395,-12.50232 -11.31163,-20.44031 10.41861,14.3876 18.95194,26.98915 37.80466,33.33954 14.28837,4.76279 30.95814,-2.18295 41.97209,-9.92248 4.56434,-3.1752 7.24341,-8.33489 10.51783,-12.89923 12.10542,-17.46357 17.76124,-42.26977 16.57054,-66.381395 -0.49612,-9.92248 -0.49612,-19.844961 -3.86977,-26.493023 -3.47287,-6.945736 -15.28062,-13.296124 -22.22635,-6.945736 -1.28993,-6.846512 5.75504,-11.013954 13.99069,-8.533333 -5.85426,-7.640311 -12.0062,-16.669768 -20.44031,-21.432559 z m 27.1876,224.347286 c 11.41085,-5.65581 32.64496,-15.18139 39.68992,0 2.67907,5.65581 5.75504,15.08217 7.04496,20.93643 1.88528,8.13644 -2.08372,25.40156 -10.51782,28.08063 -7.44187,2.38139 -16.07442,2.28217 -25.00466,0.49612 -1.09147,-0.89302 -2.18294,-2.3814 -3.07596,-3.96899 -6.35039,-0.19845 -12.40311,0.29767 -17.36434,2.97674 0.49612,4.76279 -2.67908,5.45737 -5.75504,6.44961 -2.18295,8.83101 4.46511,20.34109 2.87751,28.27907 -1.09147,5.75504 -8.13643,6.64807 -13.29612,7.64031 -0.19845,3.1752 0.19845,5.85427 0.59535,8.53334 -1.1907,4.36589 -6.44961,6.84651 -11.51008,7.44186 -16.57054,1.98449 -41.67442,2.87752 -57.55039,-2.87752 -4.46511,-10.91473 -7.93798,-24.11163 -11.609297,-36.51473 -15.47907,1.68682 -28.080621,-6.64806 -39.888373,-12.20465 -4.068217,-1.88527 -9.72403,-2.97675 -11.311627,-6.25116 -1.488372,-3.1752 -0.893024,-9.22791 -1.289923,-14.88373 -0.893023,-14.58604 -1.786046,-28.67596 -5.556589,-43.55969 -1.686822,-6.74728 -4.762791,-12.60155 -6.846512,-19.05116 -1.984496,-5.95349 -5.358139,-13.39535 -6.251163,-19.34883 -1.289922,-8.83101 7.044962,-9.32714 12.303877,-13.19691 8.235658,-5.95348 14.685271,-9.2279 23.615503,-14.58604 2.67907,-1.5876 10.617055,-5.55659 11.510078,-7.44186 1.786046,-3.67132 -3.075969,-8.83101 -4.365892,-11.70853 -2.08372,-4.56434 -3.175193,-8.43411 -3.472868,-12.89922 -7.44186,-1.1907 -13.196899,-5.65582 -16.570542,-10.61706 -5.655814,-8.33488 -9.624807,-23.71473 -4.663566,-35.324029 0.396899,-0.893023 2.28217,-2.778294 2.579845,-4.167442 0.595349,-2.778294 -1.091473,-6.449612 -1.190698,-9.426356 -0.496124,-15.181396 2.579845,-28.27907 12.8,-32.843411 4.167442,-16.570543 19.051163,-22.027907 33.04186,-30.263566 5.258915,-3.075969 11.013957,-5.0604652 16.967447,-7.2434109 21.33333,-7.8387597 54.17674,-6.3503876 71.93798,7.0449609 7.54108,5.655814 19.54729,17.662016 23.81395,26.393799 11.41086,22.92093 10.51783,61.32093 2.57985,89.302325 -1.09148,3.77054 -2.57985,9.22791 -4.76279,13.79225 -1.48838,3.17519 -6.15194,9.42635 -5.65582,12.20465 0.59535,2.87752 10.71628,10.51783 12.89923,12.60155 3.86977,3.77054 11.31163,8.73178 11.90697,13.49457 0.69458,5.06047 -2.18294,12.0062 -3.67131,16.86822 -4.76279,16.27287 -9.52558,31.25581 -14.98295,45.84186 z"
       fill="#231f20"
       id="path55" /><path
       d="m 128.09922,129.88527 c 0.59535,-0.7938 3.969,-2.08372 8.73179,0.19845 0,0 -5.65582,0.89302 -5.15969,10.31938 l -2.3814,-0.49612 c 0.0992,0.0992 -2.38139,-8.43411 -1.1907,-10.02171"
       fill="#f7e4cd"
       id="path56" /><path
       d="m 169.17829,210.45581 c 0,1.38915 -1.19069,2.57985 -2.57984,2.57985 -1.38915,0 -2.57985,-1.1907 -2.57985,-2.57985 0,-1.38914 1.1907,-2.57984 2.57985,-2.57984 1.48837,0 2.57984,1.1907 2.57984,2.57984"
       fill="#1d1919"
       id="path57" /><path
       d="m 171.75814,222.46202 c 0,1.38914 -1.1907,2.57984 -2.57985,2.57984 -1.38914,0 -2.57984,-1.1907 -2.57984,-2.57984 0,-1.38915 1.1907,-2.57985 2.57984,-2.57985 1.48838,0 2.57985,1.09147 2.57985,2.57985"
       fill="#1d1919"
       id="path58" /><g
       transform="translate(0.992248,367.13178)"
       fill="#231f20"
       id="g65"><path
         d="m 35.621705,7.144186 c -0.793798,0.099225 -1.488372,0.1984497 -2.083721,0.2976745 -0.595348,0.099225 -1.190697,0.1984496 -1.984496,0.3968992 -0.893023,0.1984496 -1.389147,0.5953488 -1.587596,1.1906977 -0.19845,0.5953488 -0.3969,1.1906976 -0.3969,1.9844966 v 24.210852 c 0,2.182946 -0.496124,4.266667 -1.389147,6.151938 -0.893023,1.885271 -2.083721,3.373644 -3.671318,4.663566 -1.587597,1.190698 -3.373643,2.182946 -5.358139,2.778295 -1.984497,0.595348 -4.068217,0.992248 -6.251163,0.992248 -3.8697676,0 -6.9457366,-0.893023 -9.327132,-2.778295 C 1.1906977,45.147287 0,42.666667 0,39.392248 0,37.506977 0.49612403,35.91938 1.5875969,34.629457 c 1.0914729,-1.289922 2.579845,-1.885271 4.4651163,-1.885271 1.7860465,0 3.1751938,0.496124 4.2666668,1.587597 1.091473,1.091473 1.587597,2.381395 1.587597,3.869767 0,1.289923 -0.496124,2.579845 -1.389147,3.671318 -0.8930238,1.091473 -1.9844967,2.182946 -3.1751943,3.075969 v 0.396899 c 0.1984496,0.3969 0.5953488,0.793799 1.1906976,1.091473 0.5953489,0.297675 1.2899225,0.396899 1.8852717,0.396899 2.48062,0 4.465116,-0.893023 5.854263,-2.679069 1.389147,-1.786047 2.083721,-4.465116 2.083721,-8.03721 V 11.311628 c 0,-0.694574 -0.09923,-1.3891474 -0.297674,-1.8852714 C 17.860465,8.9302326 17.265116,8.5333333 16.372093,8.1364341 15.776744,7.8387597 14.982946,7.6403101 14.089923,7.4418605 13.196899,7.2434108 12.502326,7.144186 11.906977,7.0449612 V 4.6635659 H 35.324031 V 7.144186 Z"
         id="path59" /><path
         d="m 72.334884,41.277519 c -0.694574,1.190698 -1.587597,2.282171 -2.579845,3.373644 -0.992248,1.091473 -2.182946,1.885271 -3.472868,2.67907 -1.389148,0.793798 -2.778295,1.389147 -4.167442,1.786046 -1.389148,0.396899 -3.075969,0.595349 -4.862016,0.595349 -3.075969,0 -5.655814,-0.396899 -7.937984,-1.289923 -2.182946,-0.893023 -4.068217,-1.984496 -5.457365,-3.472868 -1.488372,-1.488372 -2.48062,-3.175194 -3.274418,-5.15969 -0.694574,-1.984496 -1.091473,-4.167442 -1.091473,-6.449612 0,-2.083721 0.396899,-4.167442 1.190697,-6.052713 0.793799,-1.885272 1.885272,-3.671318 3.274419,-5.15969 1.389147,-1.488372 3.175194,-2.67907 5.35814,-3.572093 2.182945,-0.893024 4.564341,-1.389148 7.144186,-1.389148 2.877519,0 5.258914,0.3969 7.144186,1.091473 1.885271,0.694574 3.373643,1.686822 4.564341,2.87752 1.190697,1.190697 1.984496,2.579845 2.579845,4.167442 0.496124,1.587596 0.793798,3.274418 0.793798,5.060465 v 1.984496 H 50.604651 c 0,4.266666 0.793799,7.44186 2.48062,9.624806 1.587597,2.182946 4.266667,3.274419 7.739535,3.274419 1.984496,0 3.671318,-0.496124 5.258915,-1.587597 1.587597,-1.091473 2.877519,-2.381396 3.968992,-4.068217 z M 60.527132,29.469767 c 0,-1.190697 -0.09923,-2.48062 -0.19845,-3.770542 -0.09923,-1.289923 -0.297674,-2.381396 -0.694573,-3.175194 -0.3969,-0.992248 -0.793799,-1.686822 -1.488373,-2.182946 -0.595348,-0.496124 -1.389147,-0.694573 -2.28217,-0.694573 -1.587597,0 -2.87752,0.793798 -3.770543,2.381395 -0.992248,1.587597 -1.488372,4.167442 -1.587597,7.64031 z"
         id="path60" /><path
         d="M 116.09302,48.620155 H 97.43876 v -2.282171 c 0.396899,0 0.893023,-0.09922 1.389147,-0.198449 0.595349,-0.09923 0.992248,-0.19845 1.289923,-0.297674 0.3969,-0.19845 0.69457,-0.595349 0.89302,-0.992249 0.19845,-0.396899 0.29768,-1.091473 0.29768,-1.885271 V 28.477519 c 0,-2.083721 -0.3969,-3.671317 -1.1907,-4.76279 -0.793799,-1.091473 -1.885272,-1.587597 -3.472869,-1.587597 -0.793798,0 -1.587597,0.09923 -2.28217,0.396899 -0.694574,0.19845 -1.389148,0.595349 -2.083721,1.091473 -0.595349,0.396899 -1.091473,0.793798 -1.488372,1.289922 -0.3969,0.3969 -0.694574,0.793799 -0.893024,1.190698 v 16.570543 c 0,0.694573 0.09923,1.289922 0.297675,1.786046 0.198449,0.496124 0.595349,0.893023 0.992248,1.091473 0.297674,0.19845 0.694573,0.396899 1.190698,0.496124 0.496124,0.09923 0.992248,0.19845 1.488372,0.297674 v 2.282171 H 75.013953 v -2.282171 c 0.496124,0 0.992249,-0.09922 1.587597,-0.198449 0.496124,-0.09923 0.992248,-0.19845 1.389148,-0.297674 0.694573,-0.19845 1.091473,-0.595349 1.389147,-1.091473 0.19845,-0.496124 0.396899,-1.091473 0.396899,-1.885272 V 24.806202 c 0,-0.595349 -0.198449,-1.289923 -0.496124,-1.885272 -0.297674,-0.595349 -0.793798,-1.091473 -1.289922,-1.488372 -0.3969,-0.198449 -0.793799,-0.496124 -1.389148,-0.595349 -0.595348,-0.198449 -1.190697,-0.297674 -1.885271,-0.297674 v -2.282171 l 14.784496,-0.793798 0.496124,0.496124 v 4.465116 h 0.09923 c 0.595349,-0.496124 1.289923,-1.091473 2.083721,-1.885271 0.793798,-0.694574 1.587597,-1.289923 2.282171,-1.786047 0.793798,-0.496124 1.786046,-0.893023 2.976744,-1.289922 1.190697,-0.396899 2.579845,-0.496124 3.968995,-0.496124 3.37365,0 5.85427,0.992248 7.54109,2.877519 1.68682,1.885272 2.48062,4.465116 2.48062,7.64031 v 15.181396 c 0,0.793798 0.0992,1.389147 0.29767,1.786046 0.19844,0.496124 0.69458,0.793799 1.28992,1.091473 0.29768,0.09922 0.69458,0.297675 1.1907,0.396899 0.49613,0.09922 0.99225,0.19845 1.68682,0.297675 v 2.381395 z"
         id="path61" /><path
         d="M 158.75969,48.620155 H 144.17364 C 142.3876,45.444961 140.70077,42.765892 139.2124,40.582946 137.72403,38.4 136.33488,36.316279 135.04496,34.530233 l -1.78605,1.587596 v 6.747287 c 0,0.694574 0.0992,1.389148 0.29768,1.786047 0.19845,0.496124 0.59535,0.793798 1.28992,1.091473 0.3969,0.198449 0.7938,0.297674 1.28992,0.396899 0.49613,0.09922 0.99225,0.198449 1.48838,0.198449 v 2.282171 h -19.24962 v -2.282171 c 0.49613,0 0.99225,-0.09922 1.5876,-0.198449 0.49613,-0.09923 0.99225,-0.19845 1.38915,-0.297674 0.69457,-0.19845 1.09147,-0.595349 1.38914,-1.091473 0.19846,-0.496124 0.3969,-1.091473 0.3969,-1.885272 V 8.3348837 c 0,-0.6945736 -0.19844,-1.3891473 -0.49612,-2.0837209 -0.29767,-0.6945737 -0.69457,-1.2899225 -1.28992,-1.6868217 -0.3969,-0.1984496 -0.99225,-0.496124 -1.78605,-0.5953488 -0.7938,-0.1984497 -1.48837,-0.2976745 -2.18294,-0.2976745 V 1.3891473 l 15.37984,-0.79379846 0.49612,0.49612406 V 33.04186 c 1.48838,-1.389147 3.27442,-2.976744 5.1597,-4.76279 1.88527,-1.786047 3.47286,-3.274419 4.56434,-4.465117 0.69457,-0.694573 1.09147,-1.190697 1.09147,-1.587596 0.0992,-0.3969 0.0992,-0.595349 0.0992,-0.694574 0,-0.396899 -0.29767,-0.694574 -0.99225,-0.893023 -0.69457,-0.19845 -1.58759,-0.496124 -2.97674,-0.694574 V 17.76124 h 15.67752 v 2.182946 c -2.08372,0.595349 -3.67132,1.091473 -4.76279,1.587597 -1.09147,0.496124 -2.28217,1.190698 -3.57209,1.984496 -0.89303,0.595349 -1.68683,1.190698 -2.48062,1.786047 -0.7938,0.595348 -1.68683,1.389147 -2.7783,2.28217 1.9845,2.976744 3.86977,5.655814 5.55659,8.136434 1.68682,2.48062 3.47287,5.15969 5.35814,7.937985 0.59535,0.992248 1.38915,1.587597 2.3814,1.984496 0.99224,0.297674 1.88527,0.496124 2.87752,0.595349 v 2.381395 z"
         id="path62" /><path
         d="m 178.60465,48.620155 h -19.54729 v -2.282171 c 0.49613,0 1.09148,-0.09922 1.5876,-0.198449 0.49612,-0.09923 0.99225,-0.19845 1.28992,-0.297674 0.69458,-0.19845 1.09148,-0.595349 1.38915,-1.091473 0.29767,-0.496124 0.3969,-1.091473 0.3969,-1.885272 V 24.806202 c 0,-0.694574 -0.19845,-1.389148 -0.49612,-1.885272 -0.29768,-0.595349 -0.69458,-0.992248 -1.1907,-1.289922 -0.3969,-0.19845 -0.89303,-0.496124 -1.68682,-0.694574 -0.7938,-0.19845 -1.48838,-0.396899 -2.08372,-0.396899 v -2.282171 l 15.18139,-0.793798 0.49612,0.496124 v 24.607752 c 0,0.694573 0.19845,1.289922 0.49613,1.885271 0.29767,0.496124 0.7938,0.893023 1.28992,1.091473 0.3969,0.19845 0.89302,0.396899 1.38915,0.496124 0.49612,0.09923 0.99225,0.19845 1.5876,0.297674 v 2.282171 z M 174.13953,6.4496124 c 0,1.5875969 -0.59534,2.8775194 -1.78604,3.9689926 -1.1907,1.091473 -2.67907,1.686821 -4.26667,1.686821 -1.68682,0 -3.07597,-0.595348 -4.36589,-1.686821 -1.1907,-1.0914732 -1.78605,-2.4806205 -1.78605,-3.9689926 0,-1.5875969 0.59535,-2.8775194 1.78605,-4.068217 1.1907,-1.0914729 2.67907,-1.68682176 4.36589,-1.68682176 1.68682,0 3.07597,0.59534886 4.26667,1.68682176 1.1907,1.0914728 1.78604,2.4806201 1.78604,4.068217 z"
         id="path63" /><path
         d="m 222.36279,48.620155 h -18.65426 v -2.282171 c 0.3969,0 0.89302,-0.09922 1.38914,-0.198449 0.59535,-0.09923 0.99225,-0.19845 1.28993,-0.297674 0.3969,-0.19845 0.69457,-0.595349 0.89302,-0.992249 0.19845,-0.396899 0.29767,-1.091473 0.29767,-1.885271 V 28.477519 c 0,-2.083721 -0.3969,-3.671317 -1.19069,-4.76279 -0.7938,-1.091473 -1.88527,-1.587597 -3.47287,-1.587597 -0.7938,0 -1.5876,0.09923 -2.28217,0.396899 -0.69458,0.297674 -1.38915,0.595349 -2.08372,1.091473 -0.59535,0.396899 -1.09148,0.793798 -1.48838,1.289922 -0.39689,0.3969 -0.69457,0.793799 -0.89302,1.190698 v 16.570543 c 0,0.694573 0.0992,1.289922 0.29768,1.786046 0.19845,0.496124 0.59534,0.893023 0.99224,1.091473 0.29768,0.19845 0.69458,0.396899 1.1907,0.496124 0.49613,0.09923 0.99225,0.19845 1.48837,0.297674 v 2.282171 h -18.85271 v -2.282171 c 0.49612,0 0.99225,-0.09922 1.5876,-0.198449 0.49612,-0.09923 0.99225,-0.19845 1.38914,-0.297674 0.69458,-0.19845 1.09148,-0.595349 1.38915,-1.091473 0.19845,-0.496124 0.3969,-1.091473 0.3969,-1.885272 V 24.806202 c 0,-0.595349 -0.19845,-1.289923 -0.49612,-1.885272 -0.29768,-0.595349 -0.7938,-1.091473 -1.28993,-1.488372 -0.39689,-0.198449 -0.79379,-0.496124 -1.38914,-0.595349 -0.59535,-0.198449 -1.1907,-0.297674 -1.88527,-0.297674 v -2.282171 l 14.78449,-0.793798 0.49613,0.496124 v 4.465116 h 0.0992 c 0.59535,-0.496124 1.28992,-1.091473 2.08372,-1.885271 0.7938,-0.694574 1.5876,-1.289923 2.28217,-1.786047 0.7938,-0.496124 1.78605,-0.893023 2.97675,-1.289922 1.19069,-0.396899 2.57984,-0.496124 3.96899,-0.496124 3.37364,0 5.85426,0.992248 7.54108,2.877519 1.68683,1.885272 2.48063,4.465116 2.48063,7.64031 v 15.181396 c 0,0.793798 0.0992,1.389147 0.29767,1.786046 0.19845,0.496124 0.69457,0.793799 1.28992,1.091473 0.29768,0.09922 0.69457,0.297675 1.1907,0.396899 0.49612,0.09922 0.99225,0.19845 1.68682,0.297675 v 2.381395 z"
         id="path64" /><path
         d="m 239.52868,49.711628 c -1.98449,0 -3.96899,-0.297675 -5.85426,-0.893023 -1.88527,-0.595349 -3.37365,-1.190698 -4.46512,-1.885272 l -0.89302,2.083721 h -2.3814 l -0.3969,-11.510077 h 2.28217 c 0.29768,0.893023 0.7938,1.984496 1.5876,3.175193 0.69458,1.190698 1.5876,2.182946 2.48062,3.175194 0.99225,0.893024 2.08372,1.686822 3.37365,2.381396 1.28992,0.595348 2.57984,0.992248 3.96899,0.992248 1.88527,0 3.27442,-0.3969 4.16744,-1.091473 0.89302,-0.694574 1.38915,-1.885271 1.38915,-3.373643 0,-0.793799 -0.19845,-1.488373 -0.59535,-2.083722 -0.3969,-0.496123 -0.99225,-0.992247 -1.68682,-1.389147 -0.7938,-0.396899 -1.68683,-0.793798 -2.67907,-1.091473 -0.99225,-0.297674 -2.18295,-0.595348 -3.5721,-1.091472 -1.38914,-0.3969 -2.57984,-0.793799 -3.57209,-1.289923 -0.99225,-0.396899 -2.08372,-1.091473 -3.07597,-1.984496 -0.89302,-0.793799 -1.68682,-1.786047 -2.18294,-2.877519 -0.59535,-1.091473 -0.7938,-2.480621 -0.7938,-4.068218 0,-2.877519 1.19069,-5.258914 3.67131,-7.044961 2.48062,-1.786046 5.65582,-2.67907 9.62481,-2.67907 1.88527,0 3.57209,0.19845 5.15969,0.595349 1.5876,0.396899 2.87752,0.793799 3.96899,1.289923 l 0.69458,-1.786047 h 2.38139 l 0.49613,10.51783 h -2.18295 c -0.69457,-2.182946 -1.9845,-3.968993 -3.67132,-5.556589 -1.78604,-1.587597 -3.67132,-2.381396 -5.65581,-2.381396 -1.5876,0 -2.87752,0.297675 -3.77054,0.992248 -0.89303,0.694574 -1.38915,1.587597 -1.38915,2.778295 0,1.587597 0.69457,2.67907 1.98449,3.373643 1.28993,0.694574 3.1752,1.389148 5.55659,1.984496 3.67132,0.992249 6.35039,2.282171 8.13644,3.869768 1.68682,1.686822 2.57984,3.770542 2.57984,6.251163 0,3.373643 -1.28992,6.052713 -3.96899,7.838759 -2.97674,1.786047 -6.44961,2.778295 -10.71628,2.778295 z"
         id="path65" /></g></g></svg>
