<?xml version="1.0" encoding="UTF-8" standalone="no"?>
<svg
   width="32"
   height="32"
   viewBox="0 0 32 32"
   fill="none"
   version="1.1"
   id="svg4"
   sodipodi:docname="kafka-icon-svgrepo-com.svg"
   xml:space="preserve"
   inkscape:version="1.4 (86a8ad7, 2024-10-11)"
   xmlns:inkscape="http://www.inkscape.org/namespaces/inkscape"
   xmlns:sodipodi="http://sodipodi.sourceforge.net/DTD/sodipodi-0.dtd"
   xmlns="http://www.w3.org/2000/svg"
   xmlns:svg="http://www.w3.org/2000/svg"><defs
     id="defs4" /><sodipodi:namedview
     id="namedview4"
     pagecolor="#505050"
     bordercolor="#eeeeee"
     borderopacity="1"
     inkscape:showpageshadow="0"
     inkscape:pageopacity="0"
     inkscape:pagecheckerboard="0"
     inkscape:deskcolor="#505050"
     inkscape:zoom="10.65"
     inkscape:cx="16.29108"
     inkscape:cy="16.29108"
     inkscape:window-width="1600"
     inkscape:window-height="829"
     inkscape:window-x="-8"
     inkscape:window-y="-8"
     inkscape:window-maximized="1"
     inkscape:current-layer="svg4" /><path
     d="m 13.363981,3.6945784 c -0.398235,-0.3294356 -0.953816,-0.5328883 -1.57148,-0.5328883 -0.615315,0 -1.166601,0.2034527 -1.560154,0.5328883 h -0.01134 C 9.8239412,4.0224157 9.5768005,4.4800945 9.5768005,4.9866286 c 0,0.5084635 0.2471407,0.9622837 0.6442065,1.2881916 l 0.01134,0.0074 c 0.393553,0.3278316 0.944839,0.5293494 1.560155,0.5293494 0.617663,0 1.173244,-0.2015178 1.571479,-0.5293494 l 0.0059,-0.0074 c 0.399023,-0.3259079 0.64382,-0.7797281 0.64382,-1.2881916 0,-0.5065341 -0.244797,-0.9642129 -0.64382,-1.2920502 z m -1.57148,24.9805366 c 0.617664,0 1.173245,-0.206986 1.57148,-0.530959 l 0.0059,-0.0096 c 0.399022,-0.323328 0.64382,-0.781012 0.64382,-1.284007 0,-0.508464 -0.244798,-0.964213 -0.64382,-1.293654 h -0.0059 c -0.398235,-0.3333 -0.953816,-0.534818 -1.57148,-0.534818 -0.615315,0 -1.166601,0.201523 -1.560154,0.534818 h -0.01134 c -0.3970661,0.329441 -0.6442068,0.78519 -0.6442068,1.293654 0,0.502995 0.2471407,0.960679 0.6442068,1.284007 l 0.01134,0.0096 c 0.393553,0.323973 0.944839,0.530959 1.560154,0.530959 z m 12.078337,-5.528803 c 0.549334,-0.118596 1.046742,-0.408829 1.350109,-0.847545 l 0.04099,-0.06396 c 0.269785,-0.416216 0.318982,-0.896396 0.174912,-1.321938 -0.145234,-0.455749 -0.502089,-0.85879 -1.033852,-1.111092 l -0.03086,-0.01705 c -0.5181,-0.23366 -1.108427,-0.284439 -1.650737,-0.163913 -0.551286,0.113134 -1.04635,0.416215 -1.348152,0.851398 -0.305706,0.431006 -0.369735,0.928219 -0.223327,1.385898 0.151099,0.449967 0.504436,0.856866 1.032687,1.111098 h 0.0035 c 0.529424,0.250373 1.129125,0.29569 1.684706,0.177093 z M 14.067535,14.04831 c -0.58252,-0.478251 -1.385242,-0.777799 -2.275034,-0.777799 -0.886274,0 -1.687044,0.299548 -2.2683951,0.777799 -0.5786167,0.476641 -0.9354717,1.135843 -0.9354717,1.866396 0,0.732483 0.356855,1.393614 0.9354717,1.875718 0.5813511,0.474392 1.3821211,0.772016 2.2683951,0.772016 0.889792,0 1.692514,-0.297624 2.275034,-0.772016 0.579791,-0.482104 0.936641,-1.143235 0.936641,-1.875718 0,-0.730553 -0.35685,-1.389755 -0.936641,-1.866396 z M 12.78849,10.937754 c 1.289196,0.174844 2.449164,0.683308 3.334269,1.417719 h 0.007 c 0.140562,0.116668 0.277993,0.242981 0.404883,0.370899 l 2.213342,-1.054206 c -0.297507,-0.740194 -0.31117,-1.51414 -0.07223,-2.2392246 0.315857,-0.9719302 1.081102,-1.8419714 2.228185,-2.3880397 l 0.03788,-0.01862 c 1.134589,-0.5293493 2.424567,-0.6386303 3.589217,-0.3786106 1.1791,0.2596944 2.243021,0.8925367 2.905191,1.8361835 v 0.00168 c 0.659043,0.9378588 0.792962,2.0148864 0.478275,2.9829574 -0.313508,0.971288 -1.082266,1.847117 -2.22818,2.389327 l -0.302188,0.147199 h -0.03086 c -1.060011,0.415902 -2.225835,0.48018 -3.296395,0.24845 -0.879249,-0.192202 -1.685875,-0.595244 -2.317201,-1.169595 l -2.209835,1.050993 c 0.253784,0.55346 0.394727,1.150632 0.394727,1.779622 0,0.62706 -0.140943,1.231619 -0.394727,1.788937 l 2.209835,1.047135 c 0.631326,-0.581744 1.437952,-0.977393 2.317201,-1.16959 1.179095,-0.265482 2.486645,-0.152348 3.629433,0.395649 l 0.07301,0.02827 v 0.0039 c 1.104138,0.549602 1.845173,1.401006 2.155174,2.361361 0.314687,0.962289 0.180768,2.039636 -0.478275,2.979424 l -0.03984,0.06589 -0.0045,-0.0058 c -0.662169,0.906037 -1.705398,1.519922 -2.857167,1.779617 -1.18183,0.256161 -2.488989,0.14688 -3.630607,-0.3934 v -0.0077 c -1.147088,-0.546068 -1.912329,-1.418039 -2.228185,-2.38772 -0.238947,-0.723155 -0.225279,-1.497421 0.07223,-2.237295 l -2.213365,-1.05096 c -0.126889,0.128243 -0.264321,0.248769 -0.404873,0.365436 l -0.007,0.0056 c -0.88511,0.730877 -2.045078,1.239335 -3.334279,1.408716 v 2.105525 c 0.918683,0.15813 1.742097,0.536741 2.387478,1.067706 l 0.003,0.0058 c 0.864799,0.708058 1.400079,1.694772 1.400079,2.779511 0,1.081206 -0.53528,2.061812 -1.400079,2.773723 l -0.003,0.01127 c -0.870655,0.71191 -2.065761,1.152556 -3.383461,1.152556 -1.310676,0 -2.5073425,-0.440646 -3.375659,-1.152556 H 8.413982 V 29.62426 C 7.5480092,28.912325 7.0115602,27.931719 7.0115602,26.850513 c 0,-1.084739 0.536449,-2.071453 1.4024223,-2.779511 v -0.0058 h 0.00301 C 9.0612045,23.534261 9.8857928,23.15565 10.802132,22.99752 V 20.891995 C 9.5117577,20.722614 8.3553069,20.214156 7.4713758,19.483277 l -0.00938,-0.0056 c -1.1049151,-0.913426 -1.7955843,-2.169476 -1.7955843,-3.56309 0,-1.389755 0.6906692,-2.645804 1.7955844,-3.559233 h 0.00938 c 0.883931,-0.734411 2.0403868,-1.242875 3.3307561,-1.417719 V 8.8414278 C 9.8857928,8.6775092 9.0612045,8.2992182 8.416998,7.7717925 h -0.00301 v -0.00578 C 7.5480138,7.0505686 7.0115648,6.0712464 7.0115648,4.9865075 c 0,-1.0792762 0.536449,-2.0679196 1.4024222,-2.7798302 l 0.00301,-0.00336 c 0.8683165,-0.7138416 2.064983,-1.1544875 3.375654,-1.1544875 1.3177,0 2.512806,0.4406459 3.383466,1.1544858 v 0.00336 h 0.003 c 0.864804,0.7119106 1.400084,1.700554 1.400084,2.7798302 0,1.0847389 -0.53528,2.0640611 -1.400084,2.779505 l -0.003,0.00578 c -0.645381,0.5274257 -1.4688,0.9057167 -2.387478,1.0696353 z m 12.432457,-1.3974666 -0.01836,-0.02249 C 24.896881,9.0938647 24.409624,8.8113495 23.870832,8.6888942 23.315251,8.5683683 22.71555,8.6194722 22.182614,8.8698458 h 0.0035 c -0.531768,0.2484438 -0.887448,0.6553435 -1.036199,1.1110931 -0.146413,0.4518961 -0.08238,0.9510391 0.223327,1.3858971 l 0.01014,0.01155 c 0.306484,0.429076 0.793741,0.717053 1.338002,0.833726 0.546991,0.126314 1.156451,0.0736 1.68158,-0.178702 l 0.0285,-0.01127 c 0.516931,-0.254226 0.861292,-0.655344 1.005356,-1.09599 0.146413,-0.45382 0.08824,-0.9510328 -0.215906,-1.3858963 z"
     fill="#1a1919"
     id="path1"
     style="stroke-width:0.0794272" /></svg>
