<?xml version="1.0" encoding="UTF-8" standalone="no"?>
<svg
   width="32"
   height="32"
   viewBox="0 0 32 32"
   fill="none"
   version="1.1"
   id="svg4"
   sodipodi:docname="kubernetes-svgrepo-com.svg"
   xml:space="preserve"
   inkscape:version="1.4 (86a8ad7, 2024-10-11)"
   xmlns:inkscape="http://www.inkscape.org/namespaces/inkscape"
   xmlns:sodipodi="http://sodipodi.sourceforge.net/DTD/sodipodi-0.dtd"
   xmlns="http://www.w3.org/2000/svg"
   xmlns:svg="http://www.w3.org/2000/svg"><defs
     id="defs4"><linearGradient
       id="a"
       x1="-645.732"
       y1="839.188"
       x2="-654.59"
       y2="839.25"
       gradientTransform="matrix(-0.977,-0.323,-0.29,0.877,-375.944,-928.287)"
       gradientUnits="userSpaceOnUse"><stop
         offset="0.231"
         stop-color="#999875"
         id="stop1" /><stop
         offset="0.563"
         stop-color="#9b9977"
         id="stop2" /><stop
         offset="0.683"
         stop-color="#a09f7e"
         id="stop3" /><stop
         offset="0.768"
         stop-color="#a9a889"
         id="stop4" /><stop
         offset="0.837"
         stop-color="#b7b69a"
         id="stop5" /><stop
         offset="0.896"
         stop-color="#c9c7b0"
         id="stop6" /><stop
         offset="0.948"
         stop-color="#deddcb"
         id="stop7" /><stop
         offset="0.994"
         stop-color="#f8f6eb"
         id="stop8" /><stop
         offset="1"
         stop-color="#fbf9ef"
         id="stop9" /></linearGradient><linearGradient
       id="b"
       x1="-644.287"
       y1="823.405"
       x2="-657.028"
       y2="845.476"
       gradientTransform="matrix(-0.977,-0.323,-0.29,0.877,-375.944,-928.287)"
       gradientUnits="userSpaceOnUse"><stop
         offset="0"
         stop-color="#48a547"
         id="stop10" /><stop
         offset="1"
         stop-color="#3f9143"
         id="stop11" /></linearGradient><linearGradient
       id="c"
       x1="-643.386"
       y1="839.485"
       x2="-652.418"
       y2="833.417"
       gradientTransform="matrix(-0.977,-0.323,-0.29,0.877,-375.944,-928.287)"
       gradientUnits="userSpaceOnUse"><stop
         offset="0"
         stop-color="#41a247"
         id="stop12" /><stop
         offset="0.352"
         stop-color="#4ba74b"
         id="stop13" /><stop
         offset="0.956"
         stop-color="#67b554"
         id="stop14" /><stop
         offset="1"
         stop-color="#69b655"
         id="stop15" /></linearGradient><linearGradient
       x1="0%"
       y1="50%"
       x2="100%"
       y2="50%"
       id="linearGradient-1"><stop
         stop-color="#4F4F4F"
         offset="0%"
         id="stop1-1" /><stop
         stop-color="#000000"
         offset="100%"
         id="stop2-5" /></linearGradient><linearGradient
       x1="0%"
       y1="50%"
       x2="100%"
       y2="50%"
       id="linearGradient-2"><stop
         stop-color="#C40000"
         offset="0%"
         id="stop3-2" /><stop
         stop-color="#FF0000"
         offset="100%"
         id="stop4-7" /></linearGradient><filter
       x="-0.066359905"
       y="-0.24764047"
       width="1.1327198"
       height="1.4952809"
       filterUnits="objectBoundingBox"
       id="filter-1"><feOffset
         dx="0"
         dy="0"
         in="SourceAlpha"
         result="shadowOffsetOuter1"
         id="feOffset1" /><feGaussianBlur
         stdDeviation="6.5"
         in="shadowOffsetOuter1"
         result="shadowBlurOuter1"
         id="feGaussianBlur1" /></filter><linearGradient
       x1="289.77636"
       y1="138.69224"
       x2="291.19351"
       y2="96.788173"
       id="linearGradient-2-1"
       gradientTransform="scale(0.61576809,1.623988)"
       gradientUnits="userSpaceOnUse"><stop
         stop-color="#FFEED7"
         offset="0%"
         id="stop1-6" /><stop
         stop-color="#BDBFC2"
         offset="100%"
         id="stop2-8" /></linearGradient><linearGradient
       x1="104.50885"
       y1="5.6628647"
       x2="100.18904"
       y2="51.918793"
       id="linearGradient-3"
       gradientTransform="scale(1.1465328,0.87219488)"
       gradientUnits="userSpaceOnUse"><stop
         stop-color="#FFFFFF"
         stop-opacity="0.8"
         offset="0%"
         id="stop3-5" /><stop
         stop-color="#FFFFFF"
         stop-opacity="0"
         offset="100%"
         id="stop4-76" /></linearGradient><linearGradient
       x1="121.74679"
       y1="53.924801"
       x2="120.81263"
       y2="35.182901"
       id="linearGradient-4"
       gradientTransform="scale(0.80696645,1.2392089)"
       gradientUnits="userSpaceOnUse"><stop
         stop-color="#FFEED7"
         offset="0%"
         id="stop5-1" /><stop
         stop-color="#BDBFC2"
         offset="100%"
         id="stop6-8" /></linearGradient><linearGradient
       x1="148.0832"
       y1="59.380508"
       x2="148.08277"
       y2="37.695564"
       id="linearGradient-5"
       gradientTransform="scale(0.88070839,1.1354496)"
       gradientUnits="userSpaceOnUse"><stop
         stop-color="#FFEED7"
         offset="0%"
         id="stop7-9" /><stop
         stop-color="#BDBFC2"
         offset="100%"
         id="stop8-2" /></linearGradient><linearGradient
       x1="155.58861"
       y1="41.362471"
       x2="154.90092"
       y2="49.220295"
       id="linearGradient-6"
       gradientTransform="scale(0.825109,1.2119611)"
       gradientUnits="userSpaceOnUse"><stop
         stop-color="#FFFFFF"
         stop-opacity="0.65"
         offset="0%"
         id="stop9-7" /><stop
         stop-color="#FFFFFF"
         stop-opacity="0"
         offset="100%"
         id="stop10-9" /></linearGradient><linearGradient
       x1="123.9845"
       y1="40.58489"
       x2="124.62241"
       y2="46.677852"
       id="linearGradient-7"
       gradientTransform="scale(0.78277271,1.27751)"
       gradientUnits="userSpaceOnUse"><stop
         stop-color="#FFFFFF"
         stop-opacity="0.65"
         offset="0%"
         id="stop11-5" /><stop
         stop-color="#FFFFFF"
         stop-opacity="0"
         offset="100%"
         id="stop12-4" /></linearGradient><linearGradient
       x1="148.01524"
       y1="182.55482"
       x2="148.01524"
       y2="114.0479"
       id="linearGradient-8"
       gradientTransform="scale(0.81292571,1.2301247)"
       gradientUnits="userSpaceOnUse"><stop
         stop-color="#FFEED7"
         offset="0%"
         id="stop13-3" /><stop
         stop-color="#BDBFC2"
         offset="100%"
         id="stop14-1" /></linearGradient><linearGradient
       x1="108.99021"
       y1="156.39291"
       x2="101.37504"
       y2="102.29666"
       id="linearGradient-9"
       gradientTransform="scale(0.6927423,1.4435382)"
       gradientUnits="userSpaceOnUse"><stop
         stop-color="#FFEED7"
         offset="0%"
         id="stop15-2" /><stop
         stop-color="#BDBFC2"
         offset="100%"
         id="stop16" /></linearGradient><linearGradient
       x1="104.4003"
       y1="144.85882"
       x2="104.69366"
       y2="204.60102"
       id="linearGradient-10"
       gradientTransform="scale(1.1078988,0.90260955)"
       gradientUnits="userSpaceOnUse"><stop
         stop-color="#FFFFFF"
         stop-opacity="0.8"
         offset="0%"
         id="stop17" /><stop
         stop-color="#FFFFFF"
         stop-opacity="0"
         offset="100%"
         id="stop18" /></linearGradient><linearGradient
       x1="102.8446"
       y1="110.18868"
       x2="103.19609"
       y2="134.55942"
       id="linearGradient-11"
       gradientTransform="scale(1.136719,0.87972488)"
       gradientUnits="userSpaceOnUse"><stop
         stop-color="#FFFFFF"
         stop-opacity="0.65"
         offset="0%"
         id="stop19" /><stop
         stop-color="#FFFFFF"
         stop-opacity="0"
         offset="100%"
         id="stop20" /></linearGradient><linearGradient
       x1="103.1627"
       y1="63.007333"
       x2="103.1627"
       y2="108.0084"
       id="linearGradient-12"
       gradientTransform="scale(0.57191183,1.7485213)"
       gradientUnits="userSpaceOnUse"><stop
         stop-color="#FFFFFF"
         stop-opacity="0.65"
         offset="0%"
         id="stop21" /><stop
         stop-color="#FFFFFF"
         stop-opacity="0"
         offset="100%"
         id="stop22" /></linearGradient><linearGradient
       x1="330.86071"
       y1="58.717891"
       x2="330.8552"
       y2="99.451918"
       id="linearGradient-13"
       gradientTransform="scale(0.5729452,1.7453676)"
       gradientUnits="userSpaceOnUse"><stop
         stop-color="#FFFFFF"
         stop-opacity="0.65"
         offset="0%"
         id="stop23" /><stop
         stop-color="#FFFFFF"
         stop-opacity="0"
         offset="100%"
         id="stop24" /></linearGradient><linearGradient
       x1="54.491842"
       y1="225.12327"
       x2="41.523432"
       y2="269.05216"
       id="linearGradient-14"
       gradientTransform="scale(1.0116266,0.98850707)"
       gradientUnits="userSpaceOnUse"><stop
         stop-color="#FFA63F"
         offset="0%"
         id="stop25" /><stop
         stop-color="#FFFF00"
         offset="100%"
         id="stop26" /></linearGradient><linearGradient
       x1="181.20529"
       y1="222.52386"
       x2="179.43167"
       y2="145.70832"
       id="linearGradient-15"
       gradientTransform="scale(1.0209089,0.97951932)"
       gradientUnits="userSpaceOnUse"><stop
         stop-color="#FFEED7"
         offset="0%"
         id="stop27" /><stop
         stop-color="#BDBFC2"
         offset="100%"
         id="stop28" /></linearGradient><linearGradient
       x1="180.0393"
       y1="200.21823"
       x2="211.41542"
       y2="249.23078"
       id="linearGradient-16"
       gradientTransform="scale(0.95626686,1.0457332)"
       gradientUnits="userSpaceOnUse"><stop
         stop-color="#FFA63F"
         offset="0%"
         id="stop29" /><stop
         stop-color="#FFFF00"
         offset="100%"
         id="stop30" /></linearGradient><linearGradient
       x1="224.73554"
       y1="142.26692"
       x2="218.79766"
       y2="186.40591"
       id="linearGradient-17"
       gradientTransform="scale(0.81152014,1.2322553)"
       gradientUnits="userSpaceOnUse"><stop
         stop-color="#FFFFFF"
         stop-opacity="0.65"
         offset="0%"
         id="stop31" /><stop
         stop-color="#FFFFFF"
         stop-opacity="0"
         offset="100%"
         id="stop32" /></linearGradient><linearGradient
       x1="53.03579"
       y1="186.02083"
       x2="55.101502"
       y2="244.90747"
       id="linearGradient-18"
       gradientTransform="scale(0.98730924,1.0128539)"
       gradientUnits="userSpaceOnUse"><stop
         stop-color="#FFFFFF"
         stop-opacity="0.65"
         offset="0%"
         id="stop33" /><stop
         stop-color="#FFFFFF"
         stop-opacity="0"
         offset="100%"
         id="stop34" /></linearGradient><linearGradient
       x1="172.70965"
       y1="182.05425"
       x2="175.56216"
       y2="200.62123"
       id="linearGradient-19"
       gradientTransform="scale(1.0442251,0.95764792)"
       gradientUnits="userSpaceOnUse"><stop
         stop-color="#FFFFFF"
         stop-opacity="0.65"
         offset="0%"
         id="stop35" /><stop
         stop-color="#FFFFFF"
         stop-opacity="0"
         offset="100%"
         id="stop36" /></linearGradient><linearGradient
       x1="95.570844"
       y1="77.674014"
       x2="95.99155"
       y2="119.35325"
       id="linearGradient-20"
       gradientTransform="scale(1.2107089,0.82596235)"
       gradientUnits="userSpaceOnUse"><stop
         stop-color="#FFA63F"
         offset="0%"
         id="stop37" /><stop
         stop-color="#FFFF00"
         offset="100%"
         id="stop38" /></linearGradient><linearGradient
       x1="89.542682"
       y1="78.129152"
       x2="89.431244"
       y2="98.910096"
       id="linearGradient-21"
       gradientTransform="scale(1.2523967,0.79846905)"
       gradientUnits="userSpaceOnUse"><stop
         stop-color="#FFFFFF"
         stop-opacity="0.65"
         offset="0%"
         id="stop39" /><stop
         stop-color="#FFFFFF"
         stop-opacity="0"
         offset="100%"
         id="stop40" /></linearGradient></defs><sodipodi:namedview
     id="namedview4"
     pagecolor="#505050"
     bordercolor="#eeeeee"
     borderopacity="1"
     inkscape:showpageshadow="0"
     inkscape:pageopacity="0"
     inkscape:pagecheckerboard="0"
     inkscape:deskcolor="#505050"
     inkscape:zoom="18.46"
     inkscape:cx="16.332611"
     inkscape:cy="16.820152"
     inkscape:window-width="1600"
     inkscape:window-height="829"
     inkscape:window-x="-8"
     inkscape:window-y="-8"
     inkscape:window-maximized="1"
     inkscape:current-layer="svg4" /><g
     id="g10"
     transform="matrix(0.04157168,0,0,0.04295875,0.73994913,0.66868813)"><path
       d="M 358.986,10.06 A 46.725,46.342 0 0 0 341.08,14.591 L 96.736,131.341 a 46.725,46.342 0 0 0 -25.28,31.438 l -60.282,262.25 a 46.725,46.342 0 0 0 6.344,35.531 46.725,46.342 0 0 0 2.656,3.688 l 169.125,210.28 a 46.725,46.342 0 0 0 36.531,17.438 l 271.219,-0.062 A 46.725,46.342 0 0 0 533.58,674.498 L 702.643,464.185 a 46.725,46.342 0 0 0 9.03,-39.219 L 651.3,162.716 A 46.725,46.342 0 0 0 626.019,131.279 L 381.643,14.59 a 46.725,46.342 0 0 0 -22.657,-4.53 z"
       fill="#326ce5"
       id="path1" /><path
       d="m 361.408,99.307 c -8.077,0.001 -14.626,7.276 -14.625,16.25 0,0.138 0.028,0.27 0.03,0.406 -0.011,1.22 -0.07,2.689 -0.03,3.75 0.192,5.176 1.32,9.138 2,13.907 1.23,10.206 2.26,18.667 1.625,26.531 -0.62,2.965 -2.803,5.677 -4.75,7.562 l -0.344,6.188 a 190.337,190.337 0 0 0 -26.438,4.062 c -37.974,8.623 -70.67,28.184 -95.562,54.594 a 245.167,245.167 0 0 1 -5.281,-3.75 c -2.612,0.353 -5.25,1.159 -8.688,-0.844 -6.545,-4.405 -12.506,-10.486 -19.719,-17.812 -3.305,-3.504 -5.698,-6.841 -9.625,-10.219 -0.891,-0.767 -2.252,-1.804 -3.25,-2.594 -3.07,-2.447 -6.69,-3.724 -10.187,-3.843 -4.496,-0.154 -8.824,1.604 -11.656,5.156 -5.036,6.315 -3.424,15.968 3.593,21.562 0.071,0.057 0.147,0.101 0.219,0.157 0.964,0.781 2.145,1.783 3.031,2.437 4.167,3.077 7.973,4.652 12.125,7.094 8.747,5.402 15.999,9.88 21.75,15.281 2.246,2.394 2.639,6.613 2.938,8.438 l 4.687,4.187 c -25.093,37.764 -36.707,84.41 -29.843,131.938 l -6.125,1.781 c -1.615,2.085 -3.896,5.365 -6.282,6.344 -7.525,2.37 -15.994,3.24 -26.218,4.312 -4.8,0.4 -8.943,0.161 -14.032,1.125 -1.12,0.212 -2.68,0.619 -3.906,0.906 l -0.125,0.032 c -0.067,0.015 -0.155,0.048 -0.219,0.062 -8.62,2.083 -14.157,10.006 -12.375,17.813 1.783,7.808 10.203,12.556 18.875,10.687 0.063,-0.014 0.154,-0.017 0.219,-0.031 0.098,-0.022 0.184,-0.07 0.281,-0.094 1.21,-0.265 2.724,-0.56 3.782,-0.843 5.003,-1.34 8.626,-3.308 13.125,-5.032 9.676,-3.47 17.691,-6.37 25.5,-7.5 3.26,-0.255 6.697,2.012 8.406,2.969 l 6.375,-1.094 c 14.67,45.483 45.414,82.245 84.344,105.313 l -2.657,6.375 c 0.958,2.475 2.014,5.824 1.3,8.27 -2.838,7.36 -7.7,15.13 -13.237,23.792 -2.681,4.002 -5.425,7.108 -7.844,11.688 -0.579,1.096 -1.316,2.78 -1.875,3.937 -3.759,8.043 -1.002,17.305 6.219,20.782 7.266,3.497 16.284,-0.192 20.187,-8.25 0.006,-0.012 0.026,-0.02 0.031,-0.032 0.004,-0.009 -0.004,-0.022 0,-0.03 0.556,-1.143 1.344,-2.645 1.813,-3.72 2.072,-4.747 2.762,-8.815 4.219,-13.406 3.87,-9.72 5.995,-19.919 11.322,-26.274 1.459,-1.74 3.837,-2.41 6.303,-3.07 l 3.312,-6 c 33.938,13.027 71.927,16.523 109.875,7.907 a 189.77,189.77 0 0 0 25.094,-7.563 c 0.93,1.651 2.661,4.826 3.125,5.625 2.506,0.815 5.24,1.236 7.469,4.531 3.985,6.81 6.71,14.865 10.031,24.594 1.457,4.591 2.178,8.66 4.25,13.406 0.472,1.082 1.256,2.605 1.812,3.75 3.895,8.085 12.943,11.787 20.22,8.282 7.219,-3.478 9.979,-12.74 6.218,-20.782 -0.559,-1.158 -1.327,-2.841 -1.906,-3.937 -2.42,-4.58 -5.163,-7.655 -7.844,-11.656 -5.537,-8.662 -10.13,-15.858 -12.969,-23.22 -1.187,-3.796 0.2,-6.157 1.125,-8.624 -0.554,-0.635 -1.739,-4.22 -2.437,-5.906 40.457,-23.889 70.298,-62.022 84.312,-106.063 1.893,0.298 5.182,0.88 6.25,1.094 2.2,-1.45 4.222,-3.344 8.188,-3.031 7.808,1.129 15.823,4.03 25.5,7.5 4.498,1.723 8.121,3.723 13.125,5.062 1.057,0.283 2.572,0.547 3.781,0.813 0.097,0.023 0.183,0.071 0.281,0.093 0.066,0.015 0.156,0.017 0.219,0.032 8.672,1.866 17.094,-2.88 18.875,-10.688 1.78,-7.807 -3.754,-15.732 -12.375,-17.812 -1.254,-0.286 -3.032,-0.77 -4.25,-1 -5.09,-0.964 -9.231,-0.727 -14.031,-1.125 -10.225,-1.072 -18.694,-1.943 -26.219,-4.313 -3.068,-1.19 -5.251,-4.841 -6.313,-6.344 l -5.906,-1.718 c 3.062,-22.155 2.237,-45.212 -3.062,-68.282 -5.349,-23.284 -14.8,-44.58 -27.407,-63.343 1.515,-1.378 4.377,-3.911 5.188,-4.657 0.237,-2.624 0.033,-5.375 2.75,-8.281 5.751,-5.4 13.003,-9.879 21.75,-15.281 4.152,-2.443 7.99,-4.017 12.156,-7.094 0.942,-0.696 2.23,-1.798 3.219,-2.594 7.015,-5.596 8.63,-15.248 3.594,-21.562 -5.037,-6.314 -14.797,-6.91 -21.813,-1.313 -0.998,0.791 -2.353,1.823 -3.25,2.594 -3.926,3.378 -6.351,6.714 -9.656,10.219 -7.213,7.326 -13.174,13.438 -19.719,17.844 -2.836,1.65 -6.99,1.08 -8.875,0.968 l -5.562,3.969 c -31.72,-33.26 -74.905,-54.525 -121.406,-58.656 -0.13,-1.949 -0.3,-5.471 -0.344,-6.532 -1.904,-1.821 -4.204,-3.376 -4.781,-7.312 -0.637,-7.864 0.426,-16.325 1.656,-26.531 0.679,-4.769 1.807,-8.73 2,-13.907 0.044,-1.176 -0.027,-2.884 -0.031,-4.156 -0.001,-8.974 -6.548,-16.25 -14.625,-16.25 z m -18.313,113.438 -4.344,76.718 -0.312,0.157 c -0.292,6.863 -5.94,12.343 -12.875,12.343 -2.841,0 -5.463,-0.912 -7.594,-2.468 l -0.125,0.062 -62.906,-44.594 c 19.333,-19.01 44.063,-33.06 72.562,-39.53 a 154.125,154.125 0 0 1 15.594,-2.688 z m 36.656,0 c 33.274,4.092 64.045,19.159 87.625,42.25 l -62.5,44.312 -0.218,-0.093 c -5.548,4.051 -13.364,3.046 -17.688,-2.375 a 12.807,12.807 0 0 1 -2.812,-7.47 l -0.063,-0.03 z m -147.625,70.875 57.438,51.375 -0.063,0.312 c 5.185,4.507 5.95,12.328 1.625,17.75 a 12.892,12.892 0 0 1 -6.687,4.406 l -0.063,0.25 -73.625,21.25 c -3.747,-34.265 4.329,-67.573 21.375,-95.343 z m 258.157,0.03 c 8.534,13.833 14.996,29.283 18.843,46.032 3.801,16.548 4.755,33.067 3.188,49.031 l -74,-21.312 -0.063,-0.313 c -6.626,-1.81 -10.699,-8.551 -9.156,-15.312 a 12.786,12.786 0 0 1 4.094,-6.844 l -0.031,-0.156 57.125,-51.125 z m -140.657,55.313 h 23.532 l 14.625,18.282 -5.25,22.812 -21.125,10.156 -21.188,-10.187 -5.25,-22.813 z m 75.438,62.563 c 1,-0.05 1.995,0.04 2.969,0.219 l 0.125,-0.157 76.156,12.875 c -11.146,31.314 -32.473,58.44 -60.969,76.594 l -29.562,-71.406 0.093,-0.125 c -2.715,-6.31 0.002,-13.71 6.25,-16.719 1.6,-0.77 3.271,-1.197 4.938,-1.281 z m -127.906,0.312 c 5.811,0.082 11.024,4.116 12.375,10.032 0.632,2.77 0.324,5.513 -0.72,7.937 l 0.22,0.281 -29.25,70.688 c -27.348,-17.549 -49.13,-43.824 -60.782,-76.063 l 75.5,-12.812 0.125,0.156 c 0.845,-0.155 1.701,-0.23 2.532,-0.219 z m 63.78,30.97 a 12.764,12.764 0 0 1 6.032,1.28 c 2.56,1.233 4.537,3.174 5.781,5.5 h 0.282 l 37.218,67.25 a 154.256,154.256 0 0 1 -14.875,4.157 c -28.464,6.463 -56.838,4.504 -82.53,-4.25 L 349.97,439.62 h 0.063 a 12.91,12.91 0 0 1 10.906,-6.813 z"
       style="line-height:normal;-inkscape-font-specification:Sans;text-indent:0;text-align:start;text-transform:none;marker:none"
       font-weight="400"
       color="#000000"
       fill="#ffffff"
       stroke="#ffffff"
       stroke-width="0.25"
       overflow="visible"
       font-family="Sans"
       id="path2" /></g></svg>
