<?xml version="1.0" encoding="UTF-8" standalone="no"?>
<svg
   width="32"
   height="32"
   viewBox="0 0 32 32"
   fill="none"
   version="1.1"
   id="svg4"
   sodipodi:docname="mongo-svgrepo-com.svg"
   xml:space="preserve"
   inkscape:version="1.4 (86a8ad7, 2024-10-11)"
   xmlns:inkscape="http://www.inkscape.org/namespaces/inkscape"
   xmlns:sodipodi="http://sodipodi.sourceforge.net/DTD/sodipodi-0.dtd"
   xmlns="http://www.w3.org/2000/svg"
   xmlns:svg="http://www.w3.org/2000/svg"><defs
     id="defs4"><linearGradient
       id="a"
       x1="-645.732"
       y1="839.188"
       x2="-654.59"
       y2="839.25"
       gradientTransform="matrix(-0.977,-0.323,-0.29,0.877,-375.944,-928.287)"
       gradientUnits="userSpaceOnUse"><stop
         offset="0.231"
         stop-color="#999875"
         id="stop1" /><stop
         offset="0.563"
         stop-color="#9b9977"
         id="stop2" /><stop
         offset="0.683"
         stop-color="#a09f7e"
         id="stop3" /><stop
         offset="0.768"
         stop-color="#a9a889"
         id="stop4" /><stop
         offset="0.837"
         stop-color="#b7b69a"
         id="stop5" /><stop
         offset="0.896"
         stop-color="#c9c7b0"
         id="stop6" /><stop
         offset="0.948"
         stop-color="#deddcb"
         id="stop7" /><stop
         offset="0.994"
         stop-color="#f8f6eb"
         id="stop8" /><stop
         offset="1"
         stop-color="#fbf9ef"
         id="stop9" /></linearGradient><linearGradient
       id="b"
       x1="-644.287"
       y1="823.405"
       x2="-657.028"
       y2="845.476"
       gradientTransform="matrix(-0.977,-0.323,-0.29,0.877,-375.944,-928.287)"
       gradientUnits="userSpaceOnUse"><stop
         offset="0"
         stop-color="#48a547"
         id="stop10" /><stop
         offset="1"
         stop-color="#3f9143"
         id="stop11" /></linearGradient><linearGradient
       id="c"
       x1="-643.386"
       y1="839.485"
       x2="-652.418"
       y2="833.417"
       gradientTransform="matrix(-0.977,-0.323,-0.29,0.877,-375.944,-928.287)"
       gradientUnits="userSpaceOnUse"><stop
         offset="0"
         stop-color="#41a247"
         id="stop12" /><stop
         offset="0.352"
         stop-color="#4ba74b"
         id="stop13" /><stop
         offset="0.956"
         stop-color="#67b554"
         id="stop14" /><stop
         offset="1"
         stop-color="#69b655"
         id="stop15" /></linearGradient></defs><sodipodi:namedview
     id="namedview4"
     pagecolor="#505050"
     bordercolor="#eeeeee"
     borderopacity="1"
     inkscape:showpageshadow="0"
     inkscape:pageopacity="0"
     inkscape:pagecheckerboard="0"
     inkscape:deskcolor="#505050"
     inkscape:zoom="8"
     inkscape:cx="16.4375"
     inkscape:cy="16.4375"
     inkscape:window-width="1600"
     inkscape:window-height="829"
     inkscape:window-x="-8"
     inkscape:window-y="-8"
     inkscape:window-maximized="1"
     inkscape:current-layer="svg4" /><g
     id="g5"
     transform="matrix(1.7596295,0,0,1.1205358,-11.968043,-1.8660757)"><path
       d="m 16.62,30 -0.751,-0.249 c 0,0 0.1,-3.8 -1.275,-4.067 -0.9,-1.048 0.133,-44.741 3.423,-0.149 A 2.712,2.712 0 0 0 16.684,27.058 14.1,14.1 0 0 0 16.62,30 Z"
       style="fill:url(#a)"
       id="path15" /><path
       d="m 17.026,26.329 a 13.223,13.223 0 0 0 5,-13.225 C 20.556,6.619 17.075,4.487 16.7,3.673 a 9.792,9.792 0 0 1 -0.825,-1.6 l 0.277,18.069 c 0,0 -0.574,5.522 0.874,6.187 z"
       style="fill:url(#b)"
       id="path16" /><path
       d="m 15.487,26.569 c 0,0 -6.121,-4.169 -5.767,-11.544 A 15.54,15.54 0 0 1 15.239,3.377 1.725,1.725 0 0 0 15.846,2 c 0.381,0.82 0.319,12.243 0.359,13.579 0.155,5.197 -0.289,10.009 -0.718,10.99 z"
       style="fill:url(#c)"
       id="path17" /></g></svg>
