<?xml version="1.0" encoding="UTF-8" standalone="no"?>
<svg
   width="32"
   height="32"
   viewBox="0 0 32 32"
   fill="none"
   version="1.1"
   id="svg4"
   sodipodi:docname="powershell-file-svgrepo-com.svg"
   xml:space="preserve"
   inkscape:version="1.4 (86a8ad7, 2024-10-11)"
   xmlns:inkscape="http://www.inkscape.org/namespaces/inkscape"
   xmlns:sodipodi="http://sodipodi.sourceforge.net/DTD/sodipodi-0.dtd"
   xmlns="http://www.w3.org/2000/svg"
   xmlns:svg="http://www.w3.org/2000/svg"><defs
     id="defs4" /><sodipodi:namedview
     id="namedview4"
     pagecolor="#505050"
     bordercolor="#eeeeee"
     borderopacity="1"
     inkscape:showpageshadow="0"
     inkscape:pageopacity="0"
     inkscape:pagecheckerboard="0"
     inkscape:deskcolor="#505050"
     inkscape:zoom="11.42"
     inkscape:cx="16.243433"
     inkscape:cy="16.243433"
     inkscape:window-width="1600"
     inkscape:window-height="829"
     inkscape:window-x="-8"
     inkscape:window-y="-8"
     inkscape:window-maximized="1"
     inkscape:current-layer="svg4" /><path
     d="M 3.279261,31.917201 C 2.453591,31.713258 1.884251,31.3986 1.252951,30.797484 0.81722098,30.382556 0.63505098,30.15228 0.42638098,29.752455 c -0.54686997,-1.047934 -0.50585997,0.05712 -0.50585997,-13.630547 0,-11.5738076 0.006,-12.1682893 0.12001,-12.6352543 C 0.33877101,2.2687631 1.216081,1.2112333 2.370591,0.67789459 3.476821,0.16688992 2.658181,0.19886903 14.629781,0.19886903 h 10.63859 l 3.35394,3.16900747 3.3539,3.1689993 -0.019,10.9899752 c -0.0209,12.315633 0.0276,11.156699 -0.51123,12.207685 -0.21932,0.427797 -0.381,0.633869 -0.8336,1.062353 -0.64228,0.608035 -1.21413,0.920604 -2.05563,1.123584 -0.50634,0.122148 -0.74033,0.124376 -12.65225,0.121006 -11.7826,-0.0049 -12.15063,-0.0065 -12.62547,-0.124278 z m 24.75456,-2.524308 c 0.40125,-0.114632 0.75721,-0.391902 0.99016,-0.771342 l 0.17931,-0.292007 0.0171,-10.162631 0.0171,-10.1626297 h -2.67466 -2.67471 V 5.4128826 2.8214818 h -9.92937 c -6.45974,0 -10.012,0.022276 -10.1657,0.063159 -0.33606,0.089393 -0.83109,0.5307518 -1.01163,0.9019591 L 2.628431,4.101209 V 16.09804 c 0,13.099901 -0.0247,12.255584 0.36456,12.744345 0.19233,0.241463 0.56649,0.483113 0.88306,0.57032 0.13717,0.03778 4.63678,0.0625 12.02804,0.06602 10.21697,0.0049 11.8522,-0.0065 12.13048,-0.08625 z m -12.3306,-4.837568 c -0.0717,-0.02823 -0.21109,-0.128382 -0.30964,-0.222957 -0.47384,-0.454863 -0.3398,-1.290032 0.28988,-1.806088 0.4966,-0.407005 0.59371,-0.41683 3.90932,-0.396634 2.83819,0.0173 2.96757,0.02318 3.18655,0.145027 0.33126,0.184327 0.47304,0.480887 0.42657,0.892306 -0.0482,0.426525 -0.21761,0.740326 -0.55946,1.036061 -0.4889,0.422885 -0.38442,0.411559 -3.76179,0.407193 -1.67804,0 -3.10968,-0.02685 -3.18143,-0.05492 z m -6.69549,-0.06814 c -0.26312,-0.04275 -0.54506,-0.199251 -0.71962,-0.399091 -0.2693,-0.308252 -0.19951,-0.854052 0.15902,-1.244181 0.11693,-0.127199 2.41368,-1.70196 5.10388,-3.499497 2.69024,-1.797537 4.89135,-3.296197 4.89135,-3.330273 0,-0.03411 -1.39401,-1.554386 -3.09786,-3.378353 -2.08683,-2.234065 -3.12698,-3.3934078 -3.18713,-3.5524465 -0.12158,-0.3214884 -0.0114,-0.6943766 0.30475,-1.0299654 0.41616,-0.4419465 0.91732,-0.5848773 1.35443,-0.3862625 0.27938,0.1269209 7.17157,7.4912044 7.38124,7.8868434 0.19575,0.369297 0.19575,0.827344 0,1.181856 -0.1309,0.237105 -0.72689,0.653526 -5.52721,3.862012 -2.95921,1.977955 -5.4843,3.648344 -5.61121,3.712033 -0.2995597,0.150307 -0.75079,0.226415 -1.05164,0.177325 z"
     fill="#00bcf2"
     id="path1-8"
     style="stroke-width:0.464909" /></svg>
