<?xml version="1.0" encoding="UTF-8" standalone="no"?>
<svg
   width="32"
   height="32"
   viewBox="0 0 32 32"
   fill="none"
   version="1.1"
   id="svg4"
   sodipodi:docname="scala-svgrepo-com.svg"
   xml:space="preserve"
   inkscape:version="1.4 (86a8ad7, 2024-10-11)"
   xmlns:inkscape="http://www.inkscape.org/namespaces/inkscape"
   xmlns:sodipodi="http://sodipodi.sourceforge.net/DTD/sodipodi-0.dtd"
   xmlns:xlink="http://www.w3.org/1999/xlink"
   xmlns="http://www.w3.org/2000/svg"
   xmlns:svg="http://www.w3.org/2000/svg"><defs
     id="defs4"><linearGradient
       id="a"
       x1="-645.732"
       y1="839.188"
       x2="-654.59"
       y2="839.25"
       gradientTransform="matrix(-0.977,-0.323,-0.29,0.877,-375.944,-928.287)"
       gradientUnits="userSpaceOnUse"><stop
         offset="0.231"
         stop-color="#999875"
         id="stop1" /><stop
         offset="0.563"
         stop-color="#9b9977"
         id="stop2" /><stop
         offset="0.683"
         stop-color="#a09f7e"
         id="stop3" /><stop
         offset="0.768"
         stop-color="#a9a889"
         id="stop4" /><stop
         offset="0.837"
         stop-color="#b7b69a"
         id="stop5" /><stop
         offset="0.896"
         stop-color="#c9c7b0"
         id="stop6" /><stop
         offset="0.948"
         stop-color="#deddcb"
         id="stop7" /><stop
         offset="0.994"
         stop-color="#f8f6eb"
         id="stop8" /><stop
         offset="1"
         stop-color="#fbf9ef"
         id="stop9" /></linearGradient><linearGradient
       id="b"
       x1="-644.287"
       y1="823.405"
       x2="-657.028"
       y2="845.476"
       gradientTransform="matrix(-0.977,-0.323,-0.29,0.877,-375.944,-928.287)"
       gradientUnits="userSpaceOnUse"><stop
         offset="0"
         stop-color="#48a547"
         id="stop10" /><stop
         offset="1"
         stop-color="#3f9143"
         id="stop11" /></linearGradient><linearGradient
       id="c"
       x1="-643.386"
       y1="839.485"
       x2="-652.418"
       y2="833.417"
       gradientTransform="matrix(-0.977,-0.323,-0.29,0.877,-375.944,-928.287)"
       gradientUnits="userSpaceOnUse"><stop
         offset="0"
         stop-color="#41a247"
         id="stop12" /><stop
         offset="0.352"
         stop-color="#4ba74b"
         id="stop13" /><stop
         offset="0.956"
         stop-color="#67b554"
         id="stop14" /><stop
         offset="1"
         stop-color="#69b655"
         id="stop15" /></linearGradient><linearGradient
       x1="0%"
       y1="50%"
       x2="100%"
       y2="50%"
       id="linearGradient-1"><stop
         stop-color="#4F4F4F"
         offset="0%"
         id="stop1-1" /><stop
         stop-color="#000000"
         offset="100%"
         id="stop2-5" /></linearGradient><linearGradient
       x1="0%"
       y1="50%"
       x2="100%"
       y2="50%"
       id="linearGradient-2"><stop
         stop-color="#C40000"
         offset="0%"
         id="stop3-2" /><stop
         stop-color="#FF0000"
         offset="100%"
         id="stop4-7" /></linearGradient><linearGradient
       inkscape:collect="always"
       xlink:href="#linearGradient-1"
       id="linearGradient5"
       x1="0"
       y1="444.17414"
       x2="156.76734"
       y2="444.17414"
       gradientTransform="scale(1.6329932,0.61237244)"
       gradientUnits="userSpaceOnUse" /><linearGradient
       inkscape:collect="always"
       xlink:href="#linearGradient-1"
       id="linearGradient6"
       x1="0"
       y1="235.15102"
       x2="156.76734"
       y2="235.15102"
       gradientTransform="scale(1.6329932,0.61237244)"
       gradientUnits="userSpaceOnUse" /><linearGradient
       inkscape:collect="always"
       xlink:href="#linearGradient-2"
       id="linearGradient7"
       x1="0"
       y1="263.1015"
       x2="202.38577"
       y2="263.1015"
       gradientTransform="scale(1.2649111,0.79056942)"
       gradientUnits="userSpaceOnUse" /><linearGradient
       inkscape:collect="always"
       xlink:href="#linearGradient-2"
       id="linearGradient8"
       x1="0"
       y1="101.19289"
       x2="202.38577"
       y2="101.19289"
       gradientTransform="scale(1.2649111,0.79056942)"
       gradientUnits="userSpaceOnUse" /><linearGradient
       inkscape:collect="always"
       xlink:href="#linearGradient-2"
       id="linearGradient9"
       x1="0"
       y1="425.01012"
       x2="202.38577"
       y2="425.01012"
       gradientTransform="scale(1.2649111,0.79056942)"
       gradientUnits="userSpaceOnUse" /></defs><sodipodi:namedview
     id="namedview4"
     pagecolor="#505050"
     bordercolor="#eeeeee"
     borderopacity="1"
     inkscape:showpageshadow="0"
     inkscape:pageopacity="0"
     inkscape:pagecheckerboard="0"
     inkscape:deskcolor="#505050"
     inkscape:zoom="10.64"
     inkscape:cx="16.400376"
     inkscape:cy="16.400376"
     inkscape:window-width="1600"
     inkscape:window-height="829"
     inkscape:window-x="-8"
     inkscape:window-y="-8"
     inkscape:window-maximized="1"
     inkscape:current-layer="svg4" /><g
     id="g8"
     transform="matrix(0.1050006,0,0,0.07174811,2.4968559,0.78539425)"><path
       d="m 0,288 v -32 c 0,-5.39378 116.37689,-14.42844 192.19911,-32 v 0 C 228.82844,232.49067 256,242.96889 256,256 v 0 32 c 0,13.024 -27.17156,23.50933 -63.80089,32 v 0 C 116.37689,302.42489 0,293.39022 0,288"
       fill="url(#linearGradient-1)"
       transform="matrix(1,0,0,-1,0,544)"
       id="path4"
       style="fill:url(#linearGradient5)" /><path
       d="m 0,160 v -32 c 0,-5.39378 116.37689,-14.42844 192.19911,-32 v 0 C 228.82844,104.49067 256,114.96889 256,128 v 0 32 c 0,13.024 -27.17156,23.50933 -63.80089,32 v 0 C 116.37689,174.42489 0,165.39022 0,160"
       fill="url(#linearGradient-1)"
       transform="matrix(1,0,0,-1,0,288)"
       id="path5"
       style="fill:url(#linearGradient6)" /><path
       d="m 0,224 v -96 c 0,8 256,24 256,64 v 0 96 C 256,248 0,232 0,224"
       fill="url(#linearGradient-2)"
       transform="matrix(1,0,0,-1,0,416)"
       id="path6"
       style="fill:url(#linearGradient7)" /><path
       d="M 0,96 V 0 c 0,8 256,24 256,64 v 0 96 C 256,120 0,104 0,96"
       fill="url(#linearGradient-2)"
       transform="matrix(1,0,0,-1,0,160)"
       id="path7"
       style="fill:url(#linearGradient8)" /><path
       d="m 0,352 v -96 c 0,8 256,24 256,64 v 0 96 C 256,376 0,360 0,352"
       fill="url(#linearGradient-2)"
       transform="matrix(1,0,0,-1,0,672)"
       id="path8"
       style="fill:url(#linearGradient9)" /></g></svg>
