<?xml version="1.0" encoding="UTF-8" standalone="no"?>
<svg
   fill="none"
   height="48"
   viewBox="0 0 120 48"
   width="120"
   version="1.1"
   id="svg6"
   sodipodi:docname="Ansible.svg"
   xml:space="preserve"
   inkscape:version="1.4 (86a8ad7, 2024-10-11)"
   xmlns:inkscape="http://www.inkscape.org/namespaces/inkscape"
   xmlns:sodipodi="http://sodipodi.sourceforge.net/DTD/sodipodi-0.dtd"
   xmlns="http://www.w3.org/2000/svg"
   xmlns:svg="http://www.w3.org/2000/svg"><defs
     id="defs6"><clipPath
       clipPathUnits="userSpaceOnUse"
       id="clipPath2"><path
         d="M 0,1536 H 2048 V 0 H 0 Z"
         transform="translate(-575.83621,-847.97922)"
         id="path2-0" /></clipPath><clipPath
       clipPathUnits="userSpaceOnUse"
       id="clipPath4"><path
         d="M 0,1536 H 2048 V 0 H 0 Z"
         transform="translate(-291.4852,-743.55954)"
         id="path4-9" /></clipPath><clipPath
       clipPathUnits="userSpaceOnUse"
       id="clipPath6"><path
         d="M 0,1536 H 2048 V 0 H 0 Z"
         transform="translate(-326.35021,-833.43752)"
         id="path6-4" /></clipPath><clipPath
       clipPathUnits="userSpaceOnUse"
       id="clipPath2-4"><path
         d="M 0,2500 H 1535 V 0 H 0 Z"
         transform="translate(-1435.5166,-1463.4269)"
         id="path2" /></clipPath><clipPath
       clipPathUnits="userSpaceOnUse"
       id="clipPath4-5"><path
         d="M 0,2500 H 1535 V 0 H 0 Z"
         transform="translate(-123.61431,-1293.839)"
         id="path4" /></clipPath><clipPath
       clipPathUnits="userSpaceOnUse"
       id="clipPath6-5"><path
         d="M 0,2500 H 1535 V 0 H 0 Z"
         transform="translate(-277.54251,-962.21735)"
         id="path6" /></clipPath><clipPath
       clipPathUnits="userSpaceOnUse"
       id="clipPath8"><path
         d="M 0,2500 H 1535 V 0 H 0 Z"
         transform="translate(-1047.7266,-1459.6495)"
         id="path8" /></clipPath><clipPath
       clipPathUnits="userSpaceOnUse"
       id="clipPath10"><path
         d="M 0,2500 H 1535 V 0 H 0 Z"
         transform="translate(-961.3105,-1018.3864)"
         id="path10" /></clipPath><clipPath
       clipPathUnits="userSpaceOnUse"
       id="clipPath12"><path
         d="M 0,2500 H 1535 V 0 H 0 Z"
         transform="translate(-356.39791,-1908.4733)"
         id="path12" /></clipPath><clipPath
       clipPathUnits="userSpaceOnUse"
       id="clipPath14"><path
         d="M 0,2500 H 1535 V 0 H 0 Z"
         transform="translate(-384.48491,-1926.2941)"
         id="path14" /></clipPath><clipPath
       clipPathUnits="userSpaceOnUse"
       id="clipPath16"><path
         d="M 0,2500 H 1535 V 0 H 0 Z"
         transform="translate(-1129.2765,-2207.1466)"
         id="path16" /></clipPath><clipPath
       clipPathUnits="userSpaceOnUse"
       id="clipPath18"><path
         d="M 0,2500 H 1535 V 0 H 0 Z"
         transform="translate(-805.76072,-2115.8697)"
         id="path18" /></clipPath><clipPath
       clipPathUnits="userSpaceOnUse"
       id="clipPath20"><path
         d="M 0,2500 H 1535 V 0 H 0 Z"
         transform="translate(-591.34231,-990.30432)"
         id="path20" /></clipPath><clipPath
       clipPathUnits="userSpaceOnUse"
       id="clipPath22"><path
         d="M 0,2500 H 1535 V 0 H 0 Z"
         transform="translate(-983.998,-1015.6861)"
         id="path22" /></clipPath><clipPath
       clipPathUnits="userSpaceOnUse"
       id="clipPath24"><path
         d="M 0,2500 H 1535 V 0 H 0 Z"
         transform="translate(-1009.38,-1015.6861)"
         id="path24" /></clipPath><clipPath
       clipPathUnits="userSpaceOnUse"
       id="clipPath26"><path
         d="M 0,2500 H 1535 V 0 H 0 Z"
         transform="translate(-1075.8087,-1480.1701)"
         id="path26" /></clipPath><clipPath
       clipPathUnits="userSpaceOnUse"
       id="clipPath28"><path
         d="M 0,2500 H 1535 V 0 H 0 Z"
         transform="translate(-679.91942,-513.39409)"
         id="path28" /></clipPath><clipPath
       clipPathUnits="userSpaceOnUse"
       id="clipPath30"><path
         d="M 0,2500 H 1535 V 0 H 0 Z"
         transform="translate(-951.04495,-1018.3864)"
         id="path30" /></clipPath><clipPath
       clipPathUnits="userSpaceOnUse"
       id="clipPath32"><path
         d="M 0,2500 H 1535 V 0 H 0 Z"
         transform="translate(-1105.5177,-803.96735)"
         id="path32" /></clipPath><clipPath
       clipPathUnits="userSpaceOnUse"
       id="clipPath34"><path
         d="M 0,2500 H 1535 V 0 H 0 Z"
         transform="translate(-1103.8956,-855.275)"
         id="path34" /></clipPath><clipPath
       clipPathUnits="userSpaceOnUse"
       id="clipPath36"><path
         d="M 0,2500 H 1535 V 0 H 0 Z"
         transform="translate(-1003.4355,-1036.2125)"
         id="path36" /></clipPath><clipPath
       clipPathUnits="userSpaceOnUse"
       id="clipPath38"><path
         d="M 0,2500 H 1535 V 0 H 0 Z"
         transform="translate(-1014.7794,-1084.8199)"
         id="path38" /></clipPath><clipPath
       clipPathUnits="userSpaceOnUse"
       id="clipPath40"><path
         d="M 0,2500 H 1535 V 0 H 0 Z"
         transform="translate(-702.60162,-1421.302)"
         id="path40" /></clipPath><clipPath
       clipPathUnits="userSpaceOnUse"
       id="clipPath42"><path
         d="M 0,2500 H 1535 V 0 H 0 Z"
         transform="translate(-588.64261,-1413.7414)"
         id="path42" /></clipPath><clipPath
       clipPathUnits="userSpaceOnUse"
       id="clipPath44"><path
         d="M 0,2500 H 1535 V 0 H 0 Z"
         transform="translate(-1105.5177,-1290.0559)"
         id="path44" /></clipPath><clipPath
       clipPathUnits="userSpaceOnUse"
       id="clipPath46"><path
         d="M 0,2500 H 1535 V 0 H 0 Z"
         transform="translate(-1105.5177,-1290.0559)"
         id="path46" /></clipPath><clipPath
       clipPathUnits="userSpaceOnUse"
       id="clipPath48"><path
         d="M 0,2500 H 1535 V 0 H 0 Z"
         transform="translate(-898.66022,-1360.8116)"
         id="path48" /></clipPath><clipPath
       clipPathUnits="userSpaceOnUse"
       id="clipPath50"><path
         d="M 0,2500 H 1535 V 0 H 0 Z"
         transform="translate(-898.66022,-1360.8116)"
         id="path50" /></clipPath><clipPath
       clipPathUnits="userSpaceOnUse"
       id="clipPath52"><path
         d="M 0,2500 H 1535 V 0 H 0 Z"
         transform="translate(-922.9639,-1313.821)"
         id="path52" /></clipPath><clipPath
       clipPathUnits="userSpaceOnUse"
       id="clipPath54"><path
         d="M 0,2500 H 1535 V 0 H 0 Z"
         transform="translate(-922.9639,-1313.821)"
         id="path54" /></clipPath><clipPath
       clipPathUnits="userSpaceOnUse"
       id="clipPath56"><path
         d="M 0,2500 H 1535 V 0 H 0 Z"
         transform="translate(-738.24902,-1212.2839)"
         id="path56" /></clipPath><clipPath
       clipPathUnits="userSpaceOnUse"
       id="clipPath58"><path
         d="M 0,2500 H 1535 V 0 H 0 Z"
         transform="translate(-828.98635,-1654.6246)"
         id="path58" /></clipPath><clipPath
       clipPathUnits="userSpaceOnUse"
       id="clipPath60"><path
         d="M 0,2500 H 1535 V 0 H 0 Z"
         transform="translate(-1128.1992,-1238.2096)"
         id="path60" /></clipPath><clipPath
       clipPathUnits="userSpaceOnUse"
       id="clipPath62"><path
         d="M 0,2500 H 1535 V 0 H 0 Z"
         transform="translate(-1346.4004,-906.04355)"
         id="path62" /></clipPath><clipPath
       clipPathUnits="userSpaceOnUse"
       id="clipPath64"><path
         d="M 0,2500 H 1535 V 0 H 0 Z"
         transform="translate(-1060.1484,-760.22134)"
         id="path64" /></clipPath><clipPath
       clipPathUnits="userSpaceOnUse"
       id="clipPath66"><path
         d="M 0,2500 H 1535 V 0 H 0 Z"
         transform="translate(-1001.8194,-1429.9406)"
         id="path66" /></clipPath><clipPath
       clipPathUnits="userSpaceOnUse"
       id="clipPath68"><path
         d="M 0,2500 H 1535 V 0 H 0 Z"
         transform="translate(-784.69532,-1147.4713)"
         id="path68" /></clipPath><clipPath
       clipPathUnits="userSpaceOnUse"
       id="clipPath70"><path
         d="M 0,2500 H 1535 V 0 H 0 Z"
         transform="translate(-1181.1289,-1064.2936)"
         id="path70" /></clipPath><clipPath
       clipPathUnits="userSpaceOnUse"
       id="clipPath72"><path
         d="M 0,2500 H 1535 V 0 H 0 Z"
         transform="translate(-767.95802,-1677.8507)"
         id="path72" /></clipPath><clipPath
       clipPathUnits="userSpaceOnUse"
       id="clipPath74"><path
         d="M 0,2500 H 1535 V 0 H 0 Z"
         transform="translate(-1005.5967,-1173.9362)"
         id="path74" /></clipPath><clipPath
       clipPathUnits="userSpaceOnUse"
       id="clipPath76"><path
         d="M 0,2500 H 1535 V 0 H 0 Z"
         transform="translate(-1379.8818,-115.88343)"
         id="path76" /></clipPath></defs><sodipodi:namedview
     id="namedview6"
     pagecolor="#505050"
     bordercolor="#eeeeee"
     borderopacity="1"
     inkscape:showpageshadow="0"
     inkscape:pageopacity="0"
     inkscape:pagecheckerboard="0"
     inkscape:deskcolor="#505050"
     inkscape:zoom="7.23"
     inkscape:cx="72.544952"
     inkscape:cy="25.656985"
     inkscape:window-width="1600"
     inkscape:window-height="829"
     inkscape:window-x="-8"
     inkscape:window-y="-8"
     inkscape:window-maximized="1"
     inkscape:current-layer="layer-MC0"><inkscape:page
       x="0"
       y="0"
       width="120"
       height="48"
       id="page6"
       margin="0"
       bleed="0" /><inkscape:page
       x="130"
       y="0"
       width="2730.6667"
       height="2048"
       id="page7"
       margin="855.45734 253.16 855.45734 253.15866"
       bleed="0" /><inkscape:page
       x="2870.6667"
       y="0"
       width="2046.6667"
       height="3333.3333"
       id="page8"
       margin="153.78534 100.24 155.69333 100.72747"
       bleed="0" /></sodipodi:namedview><clipPath
     id="a"><path
       d="m0 11h120v25.632h-120z"
       id="path1" /></clipPath><g
     id="layer-MC0"
     inkscape:groupmode="layer"
     inkscape:label="katman 1"
     transform="matrix(0.00927975,0,0,0.00802468,3.7077293,16.966962)"><g
       id="g8"
       transform="matrix(1.8169291,0,0,1.9787938,-1677.5651,-1199.3747)"><g
         id="g1"
         transform="matrix(3.1202724,0,0,3.3151768,21.264952,-5851.2588)">
	<path
   class="st0"
   d="m 1248.6,2196.3 c -3.4,0 -7.1,-0.9 -9.7,-4.4 l -110.4,-145.1 v 148 h -25.2 v -182.3 c 0,-7.3 6,-13.1 12.9,-13.1 4,0 7.4,1.2 10,4.6 l 110.1,144.8 v -147.4 h 25.2 v 182 c 0,7.7 -6,12.9 -12.9,12.9 m 208.2,1.7 c -25.1,0 -51.5,-5.2 -76,-14.5 l 6,-20.9 c 22.6,7.3 47.2,12.5 70,12.5 31.7,0 48.3,-11.3 48.3,-27.3 0,-14.5 -12.9,-21.8 -57.2,-42.7 -44.3,-20.9 -61.7,-34.2 -61.7,-60.4 0,-32.8 25.1,-46.1 72.6,-46.1 19.7,0 50,4.1 67.5,9.3 l -4,21.5 c -19.2,-4.6 -43.2,-7.8 -62.9,-7.8 -33.4,0 -47.2,6.4 -47.2,22.3 0,15.7 10,22.3 56.9,44.1 49.5,22.9 62,34.5 62,58.3 0,34.6 -32.6,51.7 -74.3,51.7 m 193.5,-196.5 h 26 v 193.3 h -26 z m 247.3,105.7 H 1833 v 65.6 h 64.6 c 22,0 35.4,-13.9 35.4,-33.4 0.1,-18.3 -13.9,-32.2 -35.4,-32.2 m -12.5,-83.6 h -52 v 61.8 h 52 c 20.9,0 36,-13.4 36,-31.9 0,-18.3 -13.2,-29.9 -36,-29.9 m 12.8,171.2 h -77.8 c -7.2,0.1 -13.1,-5.6 -13.2,-12.8 0,-0.1 0,-0.2 0,-0.3 v -167.2 c 0,-7 5.7,-13.1 13.2,-13.1 h 64.3 c 39.5,0 62.9,19.4 62.9,49.9 0,16.5 -9.7,31.9 -24.6,40.9 22,6.7 36.9,25 36.9,47 0.1,31 -25.4,55.6 -61.7,55.6 m 186.7,0 c -7.1,0 -12.9,-6.1 -12.9,-13.1 v -180.2 h 26 v 169.8 h 103.5 v 23.5 z m 294,3.2 c -53.2,0 -85.2,-19.7 -85.2,-59.5 0,-18.9 10.6,-36.9 31.2,-45.3 -16.6,-10.4 -25.2,-25.3 -25.2,-41.5 0,-36 27.7,-53.1 79.8,-53.1 17.4,0 42,2 62.6,6.7 l -2.9,21.5 c -21.7,-3.5 -42,-5.5 -61.8,-5.5 -33.7,0 -51.7,9.3 -51.7,31.6 0,17.7 16.6,31.6 38.6,31.6 h 44.6 c 6.3,0 11.2,4.9 11.2,11 0,6.4 -4.9,11.3 -11.2,11.3 h -48 c -25.2,0 -41.2,12.5 -41.2,31.6 0,28.2 26,36.6 58.6,36.6 17.7,0 41.7,-2.3 61.2,-7 l 3.7,21.2 c -18.5,5.3 -42.9,8.8 -64.3,8.8 M 909.8,2037.8 955.4,2152 886.6,2097 Z m 80.9,140.4 -70,-171.2 c -2,-4.9 -6,-7.6 -10.9,-7.6 -4.9,-0.1 -9.4,2.9 -11.1,7.6 l -76.9,187.8 H 848 l 30.5,-77.4 90.9,74.5 c 3.7,3 6.3,4.4 9.7,4.4 6.9,0 12.9,-5.2 12.9,-12.8 0,-1.2 -0.5,-3.2 -1.3,-5.3 z"
   id="path1-2"
   style="fill:#94a3b8;fill-opacity:1" />
</g><path
         class="st0"
         d="m 2444.3,1015.6 c 0,447.2 -362.5,809.8 -809.8,809.8 -447.2,0 -809.8,-362.5 -809.8,-809.8 0,-447.2 362.6,-809.8 809.8,-809.8 447.3,0.1 809.8,362.6 809.8,809.8"
         id="path2-3"
         style="fill:#94a3b8;fill-opacity:1" /><path
         class="st1"
         d="m 1648.2,700.5 209.5,517.2 -316.5,-249.3 z m 372.3,636.4 -322.3,-775.7 c -9.2,-22.4 -27.6,-34.2 -49.9,-34.2 -22.4,0 -42.1,11.8 -51.3,34.2 L 1243.1,1412 h 121 l 140,-350.8 417.9,337.6 c 16.8,13.6 28.9,19.7 44.7,19.7 31.6,0 59.2,-23.7 59.2,-57.8 0.1,-5.5 -1.9,-14.3 -5.4,-23.8 z"
         id="path3" /></g></g><style
     type="text/css"
     id="style1">
	.st0{fill:#010202;}
</style><style
     type="text/css"
     id="style1-1">
	.st0{fill:url(#SVGID_1_);}
	.st1{fill:url(#SVGID_2_);}
	.st2{fill:#253858;}
</style><style
     type="text/css"
     id="style1-4">
	.st0{fill:#1A1918;}
	.st1{fill:#FFFFFF;}
</style></svg>
