<?xml version="1.0" encoding="UTF-8" standalone="no"?>
<svg
   fill="none"
   height="48"
   viewBox="0 0 120 48"
   width="120"
   version="1.1"
   id="svg6"
   sodipodi:docname="AWS Partner Network.svg"
   xml:space="preserve"
   inkscape:version="1.4 (86a8ad7, 2024-10-11)"
   xmlns:inkscape="http://www.inkscape.org/namespaces/inkscape"
   xmlns:sodipodi="http://sodipodi.sourceforge.net/DTD/sodipodi-0.dtd"
   xmlns="http://www.w3.org/2000/svg"
   xmlns:svg="http://www.w3.org/2000/svg"><defs
     id="defs6"><clipPath
       clipPathUnits="userSpaceOnUse"
       id="clipPath2"><path
         d="M 0,1536 H 2048 V 0 H 0 Z"
         transform="translate(-575.83621,-847.97922)"
         id="path2-0" /></clipPath><clipPath
       clipPathUnits="userSpaceOnUse"
       id="clipPath4"><path
         d="M 0,1536 H 2048 V 0 H 0 Z"
         transform="translate(-291.4852,-743.55954)"
         id="path4-9" /></clipPath><clipPath
       clipPathUnits="userSpaceOnUse"
       id="clipPath6"><path
         d="M 0,1536 H 2048 V 0 H 0 Z"
         transform="translate(-326.35021,-833.43752)"
         id="path6-4" /></clipPath><clipPath
       clipPathUnits="userSpaceOnUse"
       id="clipPath2-4"><path
         d="M 0,2500 H 1535 V 0 H 0 Z"
         transform="translate(-1435.5166,-1463.4269)"
         id="path2" /></clipPath><clipPath
       clipPathUnits="userSpaceOnUse"
       id="clipPath4-5"><path
         d="M 0,2500 H 1535 V 0 H 0 Z"
         transform="translate(-123.61431,-1293.839)"
         id="path4" /></clipPath><clipPath
       clipPathUnits="userSpaceOnUse"
       id="clipPath6-5"><path
         d="M 0,2500 H 1535 V 0 H 0 Z"
         transform="translate(-277.54251,-962.21735)"
         id="path6" /></clipPath><clipPath
       clipPathUnits="userSpaceOnUse"
       id="clipPath8"><path
         d="M 0,2500 H 1535 V 0 H 0 Z"
         transform="translate(-1047.7266,-1459.6495)"
         id="path8" /></clipPath><clipPath
       clipPathUnits="userSpaceOnUse"
       id="clipPath10"><path
         d="M 0,2500 H 1535 V 0 H 0 Z"
         transform="translate(-961.3105,-1018.3864)"
         id="path10" /></clipPath><clipPath
       clipPathUnits="userSpaceOnUse"
       id="clipPath12"><path
         d="M 0,2500 H 1535 V 0 H 0 Z"
         transform="translate(-356.39791,-1908.4733)"
         id="path12" /></clipPath><clipPath
       clipPathUnits="userSpaceOnUse"
       id="clipPath14"><path
         d="M 0,2500 H 1535 V 0 H 0 Z"
         transform="translate(-384.48491,-1926.2941)"
         id="path14" /></clipPath><clipPath
       clipPathUnits="userSpaceOnUse"
       id="clipPath16"><path
         d="M 0,2500 H 1535 V 0 H 0 Z"
         transform="translate(-1129.2765,-2207.1466)"
         id="path16" /></clipPath><clipPath
       clipPathUnits="userSpaceOnUse"
       id="clipPath18"><path
         d="M 0,2500 H 1535 V 0 H 0 Z"
         transform="translate(-805.76072,-2115.8697)"
         id="path18" /></clipPath><clipPath
       clipPathUnits="userSpaceOnUse"
       id="clipPath20"><path
         d="M 0,2500 H 1535 V 0 H 0 Z"
         transform="translate(-591.34231,-990.30432)"
         id="path20" /></clipPath><clipPath
       clipPathUnits="userSpaceOnUse"
       id="clipPath22"><path
         d="M 0,2500 H 1535 V 0 H 0 Z"
         transform="translate(-983.998,-1015.6861)"
         id="path22" /></clipPath><clipPath
       clipPathUnits="userSpaceOnUse"
       id="clipPath24"><path
         d="M 0,2500 H 1535 V 0 H 0 Z"
         transform="translate(-1009.38,-1015.6861)"
         id="path24" /></clipPath><clipPath
       clipPathUnits="userSpaceOnUse"
       id="clipPath26"><path
         d="M 0,2500 H 1535 V 0 H 0 Z"
         transform="translate(-1075.8087,-1480.1701)"
         id="path26" /></clipPath><clipPath
       clipPathUnits="userSpaceOnUse"
       id="clipPath28"><path
         d="M 0,2500 H 1535 V 0 H 0 Z"
         transform="translate(-679.91942,-513.39409)"
         id="path28" /></clipPath><clipPath
       clipPathUnits="userSpaceOnUse"
       id="clipPath30"><path
         d="M 0,2500 H 1535 V 0 H 0 Z"
         transform="translate(-951.04495,-1018.3864)"
         id="path30" /></clipPath><clipPath
       clipPathUnits="userSpaceOnUse"
       id="clipPath32"><path
         d="M 0,2500 H 1535 V 0 H 0 Z"
         transform="translate(-1105.5177,-803.96735)"
         id="path32" /></clipPath><clipPath
       clipPathUnits="userSpaceOnUse"
       id="clipPath34"><path
         d="M 0,2500 H 1535 V 0 H 0 Z"
         transform="translate(-1103.8956,-855.275)"
         id="path34" /></clipPath><clipPath
       clipPathUnits="userSpaceOnUse"
       id="clipPath36"><path
         d="M 0,2500 H 1535 V 0 H 0 Z"
         transform="translate(-1003.4355,-1036.2125)"
         id="path36" /></clipPath><clipPath
       clipPathUnits="userSpaceOnUse"
       id="clipPath38"><path
         d="M 0,2500 H 1535 V 0 H 0 Z"
         transform="translate(-1014.7794,-1084.8199)"
         id="path38" /></clipPath><clipPath
       clipPathUnits="userSpaceOnUse"
       id="clipPath40"><path
         d="M 0,2500 H 1535 V 0 H 0 Z"
         transform="translate(-702.60162,-1421.302)"
         id="path40" /></clipPath><clipPath
       clipPathUnits="userSpaceOnUse"
       id="clipPath42"><path
         d="M 0,2500 H 1535 V 0 H 0 Z"
         transform="translate(-588.64261,-1413.7414)"
         id="path42" /></clipPath><clipPath
       clipPathUnits="userSpaceOnUse"
       id="clipPath44"><path
         d="M 0,2500 H 1535 V 0 H 0 Z"
         transform="translate(-1105.5177,-1290.0559)"
         id="path44" /></clipPath><clipPath
       clipPathUnits="userSpaceOnUse"
       id="clipPath46"><path
         d="M 0,2500 H 1535 V 0 H 0 Z"
         transform="translate(-1105.5177,-1290.0559)"
         id="path46" /></clipPath><clipPath
       clipPathUnits="userSpaceOnUse"
       id="clipPath48"><path
         d="M 0,2500 H 1535 V 0 H 0 Z"
         transform="translate(-898.66022,-1360.8116)"
         id="path48" /></clipPath><clipPath
       clipPathUnits="userSpaceOnUse"
       id="clipPath50"><path
         d="M 0,2500 H 1535 V 0 H 0 Z"
         transform="translate(-898.66022,-1360.8116)"
         id="path50" /></clipPath><clipPath
       clipPathUnits="userSpaceOnUse"
       id="clipPath52"><path
         d="M 0,2500 H 1535 V 0 H 0 Z"
         transform="translate(-922.9639,-1313.821)"
         id="path52" /></clipPath><clipPath
       clipPathUnits="userSpaceOnUse"
       id="clipPath54"><path
         d="M 0,2500 H 1535 V 0 H 0 Z"
         transform="translate(-922.9639,-1313.821)"
         id="path54" /></clipPath><clipPath
       clipPathUnits="userSpaceOnUse"
       id="clipPath56"><path
         d="M 0,2500 H 1535 V 0 H 0 Z"
         transform="translate(-738.24902,-1212.2839)"
         id="path56" /></clipPath><clipPath
       clipPathUnits="userSpaceOnUse"
       id="clipPath58"><path
         d="M 0,2500 H 1535 V 0 H 0 Z"
         transform="translate(-828.98635,-1654.6246)"
         id="path58" /></clipPath><clipPath
       clipPathUnits="userSpaceOnUse"
       id="clipPath60"><path
         d="M 0,2500 H 1535 V 0 H 0 Z"
         transform="translate(-1128.1992,-1238.2096)"
         id="path60" /></clipPath><clipPath
       clipPathUnits="userSpaceOnUse"
       id="clipPath62"><path
         d="M 0,2500 H 1535 V 0 H 0 Z"
         transform="translate(-1346.4004,-906.04355)"
         id="path62" /></clipPath><clipPath
       clipPathUnits="userSpaceOnUse"
       id="clipPath64"><path
         d="M 0,2500 H 1535 V 0 H 0 Z"
         transform="translate(-1060.1484,-760.22134)"
         id="path64" /></clipPath><clipPath
       clipPathUnits="userSpaceOnUse"
       id="clipPath66"><path
         d="M 0,2500 H 1535 V 0 H 0 Z"
         transform="translate(-1001.8194,-1429.9406)"
         id="path66" /></clipPath><clipPath
       clipPathUnits="userSpaceOnUse"
       id="clipPath68"><path
         d="M 0,2500 H 1535 V 0 H 0 Z"
         transform="translate(-784.69532,-1147.4713)"
         id="path68" /></clipPath><clipPath
       clipPathUnits="userSpaceOnUse"
       id="clipPath70"><path
         d="M 0,2500 H 1535 V 0 H 0 Z"
         transform="translate(-1181.1289,-1064.2936)"
         id="path70" /></clipPath><clipPath
       clipPathUnits="userSpaceOnUse"
       id="clipPath72"><path
         d="M 0,2500 H 1535 V 0 H 0 Z"
         transform="translate(-767.95802,-1677.8507)"
         id="path72" /></clipPath><clipPath
       clipPathUnits="userSpaceOnUse"
       id="clipPath74"><path
         d="M 0,2500 H 1535 V 0 H 0 Z"
         transform="translate(-1005.5967,-1173.9362)"
         id="path74" /></clipPath><clipPath
       clipPathUnits="userSpaceOnUse"
       id="clipPath76"><path
         d="M 0,2500 H 1535 V 0 H 0 Z"
         transform="translate(-1379.8818,-115.88343)"
         id="path76" /></clipPath><style
       id="style1-2">
      .cls-1 {
        fill: #1d63ed;
        stroke-width: 0px;
      }
    </style></defs><sodipodi:namedview
     id="namedview6"
     pagecolor="#505050"
     bordercolor="#eeeeee"
     borderopacity="1"
     inkscape:showpageshadow="0"
     inkscape:pageopacity="0"
     inkscape:pagecheckerboard="0"
     inkscape:deskcolor="#505050"
     inkscape:zoom="5.77"
     inkscape:cx="72.183709"
     inkscape:cy="26.083189"
     inkscape:window-width="1600"
     inkscape:window-height="829"
     inkscape:window-x="-8"
     inkscape:window-y="-8"
     inkscape:window-maximized="1"
     inkscape:current-layer="layer-MC0"><inkscape:page
       x="0"
       y="0"
       width="120"
       height="48"
       id="page6"
       margin="0"
       bleed="0" /><inkscape:page
       x="130"
       y="0"
       width="2730.6667"
       height="2048"
       id="page7"
       margin="855.45734 253.16 855.45734 253.15866"
       bleed="0" /><inkscape:page
       x="2870.6667"
       y="0"
       width="2046.6667"
       height="3333.3333"
       id="page8"
       margin="153.78534 100.24 155.69333 100.72747"
       bleed="0" /></sodipodi:namedview><clipPath
     id="a"><path
       d="m0 11h120v25.632h-120z"
       id="path1" /></clipPath><g
     id="layer-MC0"
     inkscape:groupmode="layer"
     inkscape:label="katman 1"
     transform="matrix(0.00927975,0,0,0.00802468,3.7077293,16.966962)"><g
       id="g4"
       transform="matrix(17.446979,0,0,29.101925,-1314.8657,-7863.2625)">
	<path
   d="m 306.25519,296.13819 c 2.85798,1.10455 7.1353,1.9882 12.49401,2.65092 5.35871,0.88365 11.06501,1.10456 16.78097,1.10456 5.71596,0 10.70777,-0.44182 15.35199,-1.32546 4.64422,-0.88365 8.56428,-2.20911 12.13676,-3.75549 3.57247,-1.54636 6.07321,-3.75547 7.84979,-5.95861 1.78624,-2.2091 2.85798,-4.85406 2.85798,-7.72589 0,-3.53457 -1.78624,-6.62135 -5.00147,-9.49319 -3.21522,-2.65092 -8.92153,-4.85405 -16.78097,-6.40043 l -15.35199,-3.09275 c -5.71596,-1.10455 -9.99327,-2.43002 -12.13676,-3.75548 -2.14348,-1.32546 -3.21523,-2.65093 -3.21523,-4.85405 0,-2.65094 1.78624,-4.85407 5.00147,-5.95862 3.21523,-1.10455 8.20704,-1.98819 14.63749,-1.98819 7.84979,0 14.63749,0.88364 21.05829,2.65092 1.78624,0.44182 3.21523,0.88364 4.28697,0.88364 1.78624,0 2.50073,-0.66273 2.50073,-2.2091 v -3.09275 c 0,-0.88364 -0.35724,-1.76728 -1.07174,-2.2091 -0.71449,-0.44182 -1.78624,-1.10456 -3.21523,-1.76729 -1.07174,-0.44182 -2.85798,-0.88364 -4.64421,-1.10455 -1.78624,-0.44182 -3.92973,-0.66273 -6.07321,-1.10456 -2.14349,-0.22091 -4.64422,-0.66273 -7.1353,-0.88364 -2.50073,-0.22091 -5.00146,-0.22091 -7.49254,-0.22091 -4.64421,0 -9.27878,0.44182 -13.56575,1.10455 -4.28697,0.88365 -8.20703,1.9882 -11.42226,3.53458 -3.21523,1.76728 -6.07321,3.53457 -7.84979,5.73769 -1.78624,2.20911 -2.85798,4.63316 -2.85798,7.50499 0,3.53457 1.78624,6.84226 5.35871,9.71409 3.57248,3.09275 9.27878,5.29589 17.49547,6.84226 l 15.70924,3.09275 c 5.35871,1.10455 8.92153,2.20911 11.06501,3.53457 2.14349,1.32546 2.85798,2.87183 2.85798,4.63315 0,2.65092 -1.78623,4.85406 -5.71595,6.40043 -3.92973,1.54638 -8.92154,2.20911 -16.06649,2.20911 -4.28697,0 -8.56428,-0.22091 -12.85125,-0.88365 -4.28697,-0.66272 -8.20704,-1.32546 -12.13676,-2.43001 -1.07174,-0.22091 -2.14348,-0.44182 -2.85798,-0.66273 -0.71449,-0.22091 -1.42899,-0.22091 -2.14348,-0.22091 -1.78624,0 -2.50074,0.66273 -2.50074,2.20911 v 3.31365 c 0,0.66273 0.35725,1.32546 0.7145,1.9882 0.71449,0.88364 2.14348,1.32546 3.92972,1.98819 z M 122.04101,263.46732 c -3.92972,-0.44183 -7.84979,-0.44183 -11.42227,-0.44183 -11.065019,0 -19.986547,1.76729 -26.774249,5.29589 -6.430455,3.53457 -9.993274,8.16771 -9.993274,13.90542 0,5.51679 2.500732,9.71409 7.849789,13.02178 5.358713,3.31366 12.494005,4.85406 21.772784,4.85406 12.85126,0 23.55903,-3.09275 32.13297,-9.27227 1.07174,1.54637 2.14348,2.87183 3.21523,3.97639 1.07174,1.10455 2.50073,2.2091 3.92972,3.09274 1.07174,0.66274 2.14348,0.88364 3.21522,0.88364 0.7145,0 1.78624,-0.2209 2.85798,-0.66272 l 6.77805,-2.87184 c 1.42899,-0.66274 2.14349,-1.32547 2.14349,-1.9882 0,-0.44182 -0.35725,-0.88364 -0.7145,-1.54637 -1.42899,-1.76728 -2.85798,-3.31366 -3.57247,-4.85406 -0.7145,-1.54637 -1.42899,-3.53457 -1.42899,-5.95861 v -22.07315 c 0,-7.28407 -3.21523,-12.80086 -8.92153,-16.55634 -5.71596,-3.75548 -15.70924,-5.51679 -28.56049,-5.51679 -6.07321,0 -11.77952,0.44182 -17.138229,1.32546 -5.358713,0.88364 -9.993275,1.98819 -13.56575,3.09274 -1.42899,0.44183 -2.500732,0.88365 -2.85798,1.32547 -0.357247,0.44182 -0.714495,1.32546 -0.714495,2.43002 v 3.31365 c 0,1.32546 0.714495,2.2091 2.143485,2.2091 0.357248,0 1.071743,0 1.786238,-0.2209 0.714495,-0.22092 2.143485,-0.44182 3.929722,-0.88364 3.929722,-0.88365 7.84979,-1.76729 11.77951,-2.20911 3.929719,-0.66273 7.849789,-0.88364 11.779519,-0.88364 8.20703,0 14.28024,1.10455 17.85272,3.09275 3.57247,1.98819 5.00146,5.73769 5.00146,10.81864 v 4.85406 c -4.65387,-0.6687 -8.57394,-1.11052 -12.50366,-1.55234 z m 12.49401,11.92319 c 0,2.20911 -0.35725,4.19133 -1.07175,5.73771 -0.71449,1.54637 -1.78623,3.09275 -3.57247,4.41223 -2.85798,1.9882 -6.43046,3.53458 -10.35052,4.19134 -3.92973,0.66272 -7.84979,1.32546 -11.42227,1.32546 -5.00147,0 -8.921529,-0.88364 -11.422269,-2.43002 -2.85798,-1.54637 -3.929718,-3.97639 -3.929718,-7.06317 0,-3.31365 1.786238,-5.95861 5.358708,-7.72589 3.572479,-1.76729 8.921539,-2.65093 16.066489,-2.65093 3.21523,0 6.77805,0.22091 10.35052,0.44182 3.57248,0.22091 6.77805,0.66273 9.99328,1.10455 z m 54.62024,19.64313 c 0.71449,1.32546 1.42899,2.2091 2.14348,2.65092 0.7145,0.44183 2.14349,0.66273 4.28697,0.66273 h 9.27878 c 2.14349,0 3.57248,-0.2209 4.28697,-0.66273 0.7145,-0.44182 1.42899,-1.32546 2.14349,-2.65092 l 16.78097,-43.48952 17.13823,43.48952 c 0.35725,1.32546 1.07174,2.2091 2.14348,2.65092 1.07175,0.44183 2.50074,0.66273 4.28697,0.66273 h 9.27878 c 1.78624,0 3.21523,-0.2209 4.28697,-0.66273 0.7145,-0.44182 1.78624,-1.32546 2.14349,-2.65092 l 26.417,-52.09906 c 0.35725,-0.66273 0.71449,-1.32546 0.71449,-1.76728 0,-0.44182 0.35725,-0.66274 0.35725,-1.10456 0,-1.10455 -0.71449,-1.76728 -2.85798,-1.76728 h -9.99327 c -2.14349,0 -3.57248,0.22091 -4.28697,0.66273 -0.7145,0.44182 -1.42899,1.32547 -2.14349,2.65093 l -18.92446,45.25083 -17.13822,-45.02993 c -0.35725,-1.32546 -1.07174,-2.2091 -2.14349,-2.65092 -0.71449,-0.44182 -2.50073,-0.66273 -4.28697,-0.66273 h -8.92153 c -2.14348,0 -3.57247,0.22091 -4.28697,0.66273 -0.71449,0.44182 -1.78624,1.10456 -2.14348,2.65092 l -17.13823,44.59408 -18.20996,-44.81498 c -0.7145,-1.32546 -1.42899,-2.20911 -2.14349,-2.65093 -0.71449,-0.44182 -2.14348,-0.66273 -4.28697,-0.66273 h -10.70777 c -1.78623,0 -2.85798,0.44182 -2.85798,1.76728 0,0.44182 0.35725,1.32546 1.07175,2.65093 0.01,0.006 25.71216,52.31997 25.71216,52.31997 z"
   id="path1-2"
   style="fill:#94a3b8;fill-opacity:1;stroke-width:0.759261" />
	<path
   class="st0"
   d="m 360.76122,337.2897 c -41.78,17.75 -86.89,26.25 -128.3,26.25 -61.01,0 -120.16,-16.64 -167.860003,-44.74 -4.07,-2.59 -7.39,1.85 -3.7,4.81 44.370003,39.93 102.780003,63.96 167.860003,63.96 46.22,0 100.2,-14.42 137.54,-42.15 5.93,-4.06 0.75,-10.72 -5.54,-8.13 z"
   id="path2-7" />
	<path
   class="st0"
   d="m 337.47122,321.7597 c -3.33,2.22 -2.59,5.55 0.74,5.18 11.83,-1.48 38.45,-4.44 43.26,1.48 4.81,6.29 -5.18,31.06 -9.61,42.52 -1.48,3.33 1.48,4.81 4.44,2.22 19.97,-16.64 25.14,-51.76 21.07,-56.57 -3.7,-5.55 -38.82,-9.99 -59.9,5.17 z"
   id="path3" />
	<path
   d="m 421.80128,291.14677 c -0.86885,0 -1.7377,-0.25185 -1.7377,-1.00742 v -41.52892 c 0,-0.50371 0.43443,-1.00742 1.7377,-1.00742 h 2.17213 c 1.30328,0 1.73771,0.25185 1.73771,1.00742 l 0.43441,2.51855 c 3.04099,-1.51113 6.5164,-2.51855 9.54564,-3.27412 3.02923,-0.75556 6.08196,-1.00742 9.54563,-1.00742 6.95081,0 12.15218,1.51113 16.06201,4.28154 3.90983,2.77041 6.08197,6.79329 6.08197,11.57855 0,5.0303 -2.17214,9.05999 -6.08197,12.08225 -3.90983,3.02227 -9.54562,4.5334 -16.93087,4.5334 -6.51638,0 -12.15218,-1.51113 -17.79972,-4.28154 v 15.09771 c 0,0.50371 -0.43442,1.00742 -1.7377,1.00742 z m 21.69782,-15.09771 c 5.64753,0 9.98005,-1.00742 13.02103,-3.27412 3.04098,-2.2667 4.34426,-5.53401 4.34426,-9.81556 0,-8.55628 -5.64754,-12.83782 -16.93088,-12.83782 -5.64752,0 -11.71775,1.25928 -17.36529,3.77783 v 17.86813 c 3.04099,1.51113 5.64754,2.51855 8.24236,3.02226 2.61829,0.75557 5.64753,1.00742 8.68852,1.25928 z m 49.48932,3.02227 c -4.77868,0 -8.67678,-0.75557 -11.71776,-2.51856 -2.60656,-1.51113 -4.34426,-3.77783 -4.34426,-6.54143 0,-3.02227 1.7377,-5.28216 5.21311,-7.04515 3.47541,-1.76299 8.24236,-2.51856 14.32432,-2.51856 4.77868,0 9.54563,0.50372 15.19316,1.51114 v -5.0303 c 0,-2.51856 -0.86885,-4.28155 -3.04098,-5.28216 -2.17212,-1.00742 -5.21311,-1.51114 -9.98005,-1.51114 -4.77868,0 -9.98005,0.50372 -15.19316,1.51114 -0.43443,0 -1.30329,0.25185 -1.73771,0.25185 -0.86885,0 -0.86885,-0.25185 -0.86885,-0.75556 v -1.00743 c 0,-0.25185 0,-0.50371 0.43442,-0.75556 l 0.86885,-0.50371 c 5.64754,-1.25928 11.28334,-2.01485 17.79972,-2.01485 6.51639,0 10.84891,0.75557 13.88989,2.2667 3.04098,1.51114 4.34426,3.77783 4.34426,6.79329 V 277.567 c 0,0.50371 -0.43442,1.00742 -1.7377,1.00742 h -2.17213 c -0.86886,0 -1.7377,-0.25185 -1.7377,-1.00742 l -0.43443,-2.51856 c -6.08196,2.76361 -12.58661,4.27474 -19.103,4.02289 z m 0.86886,-3.02227 c 2.60655,0 5.64753,-0.25186 8.67677,-1.00742 3.04098,-0.75557 6.08196,-1.51113 9.54562,-2.77041 v -7.54886 c -4.53211,-0.70792 -9.20512,-1.04146 -13.88988,-1.00742 -9.98005,0 -14.75874,2.2667 -14.75874,6.54143 0,2.01485 0.86885,3.27413 2.60655,4.28155 1.73771,1.00742 4.34427,1.25927 7.81968,1.51113 z m 42.10408,2.51855 c -0.86885,0 -1.7377,-0.25185 -1.7377,-1.00742 v -28.94295 c 0,-0.50372 0.43442,-1.00743 1.7377,-1.00743 h 2.17213 c 1.30328,0 1.7377,0.25186 1.7377,1.00743 l 0.43443,3.52597 c 2.60656,-1.76299 5.21311,-3.02226 7.81967,-3.52597 2.60655,-0.75557 5.64753,-1.00743 8.67678,-1.00743 h 2.60655 c 0.86885,0 1.7377,0.25186 1.7377,1.00743 v 1.51113 c 0,0.25185 0,0.25185 -0.43443,0.50371 0,0.25185 -0.43442,0.25185 -0.86884,0.25185 h -3.90984 c -3.04098,0 -6.08196,0.25186 -8.67678,1.00743 -2.60655,0.75556 -4.77868,1.76298 -7.38524,3.27412 V 277.567 c 0,0.50371 -0.43442,1.00742 -1.7377,1.00742 0,-0.007 -2.17213,-0.007 -2.17213,-0.007 z m 52.96473,0.25186 c -4.34425,0 -7.38523,-0.50371 -9.54562,-2.01484 -2.17213,-1.25928 -3.47541,-3.02227 -3.47541,-5.53402 v -20.38668 h -8.24235 c -0.86885,0 -1.73771,-0.25185 -1.73771,-1.00742 v -0.50371 c 0,-0.25185 0,-0.50371 0.43443,-0.75556 0.43443,-0.25186 0.43443,-0.25186 1.30328,-0.25186 l 8.67677,-0.50371 0.86886,-8.05257 c 0,-0.25185 0.43443,-0.50371 0.43443,-0.75557 0,-0.25185 0.43442,-0.25185 1.30327,-0.25185 h 1.73771 c 0.86884,0 1.7377,0.25185 1.7377,1.00742 v 8.05257 h 15.19316 c 0.86886,0 1.73771,0.25185 1.73771,1.00742 v 1.25928 c 0,0.50371 -0.43443,1.00742 -1.73771,1.00742 h -15.19316 v 19.88297 c 0,1.76299 0.43443,2.77041 1.7377,3.52597 1.30328,0.75557 3.47541,1.00743 6.08196,1.00743 2.17213,0 3.90984,0 5.21311,-0.25186 0.86886,0 1.30329,-0.25186 1.73771,-0.25186 h 0.86885 c 0.86885,0 1.30328,0.25186 1.30328,0.75557 v 1.00742 c 0,0.75557 -0.43443,1.00742 -1.30328,1.25928 -2.6183,0.4969 -5.65928,0.74876 -9.13469,0.74876 z m 23.44727,-0.25186 c -0.86886,0 -1.73771,-0.25185 -1.73771,-1.00742 v -28.94295 c 0,-0.50372 0.43442,-1.00743 1.73771,-1.00743 h 2.17212 c 1.30328,0 1.7377,0.25186 1.7377,1.00743 l 0.43443,2.51855 c 3.47541,-1.51113 6.95082,-2.51855 10.84891,-3.27412 3.90984,-0.75557 7.38524,-1.25928 11.28334,-1.25928 5.21311,0 9.11119,0.75557 11.71775,2.2667 2.60655,1.51113 3.90984,3.77783 3.90984,7.04515 v 21.3941 c 0,0.50371 -0.43443,1.00742 -1.73771,1.00742 h -2.60656 c -0.86884,0 -1.7377,-0.25186 -1.7377,-1.00742 v -19.88297 c 0,-2.51856 -0.86885,-4.5334 -2.60655,-5.78587 -1.73771,-1.25928 -4.77869,-1.76299 -8.24236,-1.76299 -6.95081,0 -13.88989,1.25928 -20.40627,3.77783 v 23.654 c 0,0.50371 -0.43443,1.00742 -1.73771,1.00742 z m 80.7445,0.75557 c -8.24235,0 -14.75873,-1.25928 -19.103,-4.02969 -4.34425,-2.77041 -6.51638,-6.79329 -6.51638,-12.33411 0,-5.0303 2.17213,-9.05999 6.51638,-12.08225 4.34427,-2.77041 10.41448,-4.28155 17.79973,-4.28155 6.51638,0 11.28333,1.00743 14.75874,3.27413 3.47541,2.01484 5.21311,5.28215 5.21311,9.05999 0,1.76298 0,2.77041 -0.43443,3.77783 -0.43443,0.50371 -0.86885,1.00742 -1.7377,1.00742 h -35.59945 c 0,4.28154 1.73771,7.54886 4.7787,9.5637 3.04097,2.01484 8.24234,3.02227 14.75873,3.02227 5.21311,0 9.98005,-0.50372 14.32431,-1.51114 0.86885,-0.25185 1.73771,-0.25185 1.73771,-0.25185 0.43443,0 0.43443,0 0.86885,0.25185 0.43442,0.25186 0.43442,0.25186 0.43442,0.50371 v 0.75557 c 0,0.75557 -0.43442,1.00742 -1.30327,1.25928 -4.76694,1.25927 -10.41448,2.01484 -16.49645,2.01484 z m 13.03278,-18.37183 v -2.01485 c 0,-3.02226 -1.30327,-5.28216 -3.90983,-6.79329 -2.60655,-1.51113 -6.08196,-2.2667 -10.84891,-2.2667 -11.28333,0 -16.93087,3.77783 -17.79972,10.82298 h 32.55846 z m 20.82896,17.61626 c -0.86885,0 -1.7377,-0.25185 -1.7377,-1.00742 v -28.94295 c 0,-0.50372 0.43443,-1.00743 1.7377,-1.00743 h 2.17213 c 1.30328,0 1.73771,0.25186 1.73771,1.00743 l 0.43442,3.52597 c 2.60656,-1.76299 5.21311,-3.02226 7.81967,-3.52597 2.60655,-0.75557 5.64754,-1.00743 8.67677,-1.00743 h 2.60655 c 0.86886,0 1.73771,0.25186 1.73771,1.00743 v 1.51113 c 0,0.25185 0,0.25185 -0.43442,0.50371 0,0.25185 -0.43443,0.25185 -0.86886,0.25185 h -3.90983 c -3.04098,0 -6.08196,0.25186 -8.67678,1.00743 -2.60655,0.75556 -4.77868,1.76298 -7.38523,3.27412 V 277.567 c 0,0.50371 -0.43443,1.00742 -1.73771,1.00742 -0.0118,-0.007 -2.17213,-0.007 -2.17213,-0.007 z m -305.17832,67.70148 c -0.86885,0 -1.7377,-0.25186 -1.7377,-1.00743 v -28.6911 c 0,-0.50371 0.43443,-1.00742 1.7377,-1.00742 h 2.17213 c 1.30328,0 1.73771,0.25185 1.73771,1.00742 l 0.43441,2.51856 c 3.47541,-1.51114 6.95082,-2.51856 10.84891,-3.27413 3.90984,-0.75556 7.38525,-1.25927 11.28334,-1.25927 5.21311,0 9.1112,0.75556 11.71775,2.2667 2.60656,1.51113 3.90984,3.77783 3.90984,7.04514 v 21.3941 c 0,0.50371 -0.43443,1.00743 -1.7377,1.00743 h -3.04098 c -0.86886,0 -1.73771,-0.25186 -1.73771,-1.00743 V 325.3787 c 0,-2.77041 -0.86885,-4.5334 -2.60656,-5.78587 -1.7377,-1.25928 -4.77868,-1.76299 -8.24234,-1.76299 -6.95082,0 -13.88989,1.25928 -20.40628,4.02969 v 23.65399 c 0,0.50371 -0.43443,1.00742 -1.7377,1.00742 0.43442,-0.25185 -2.59482,-0.25185 -2.59482,-0.25185 z m 80.73277,1.00061 c -8.24236,0 -14.75874,-1.25928 -19.103,-4.02969 -4.34426,-2.77041 -6.51638,-6.79329 -6.51638,-12.33411 0,-5.0303 2.17212,-9.05999 6.51638,-12.08225 4.34426,-2.77041 10.41448,-4.28155 17.79973,-4.28155 6.51638,0 11.28332,1.00743 14.75873,3.27412 3.47541,2.01485 5.21311,5.03031 5.21311,9.05999 0,1.76299 0,2.77041 -0.43443,3.77784 -0.43442,0.50371 -0.86884,1.00742 -1.7377,1.00742 h -35.59944 c 0,4.28154 1.73771,7.54886 4.77869,9.5637 3.04098,2.01484 8.24234,3.02226 14.75874,3.02226 5.21311,0 9.98005,-0.50371 14.32431,-1.51113 0.86885,-0.25185 1.7377,-0.25185 1.7377,-0.25185 0.43443,0 0.43443,0 0.86886,0.25185 0.43442,0.25186 0.43442,0.25186 0.43442,0.50371 v 1.00742 c 0,0.75557 -0.43442,1.00743 -1.30328,1.25928 -4.76694,1.00742 -10.41448,1.76299 -16.49644,1.76299 z m 13.03277,-18.62369 v -2.01484 c 0,-3.02227 -1.30327,-5.28216 -3.90983,-6.79329 -2.60655,-1.51114 -6.08196,-2.2667 -10.8489,-2.2667 -11.28334,0 -16.93088,3.52597 -17.79972,10.82297 z m 35.58771,18.11998 c -4.34427,0 -7.38525,-0.50371 -9.54564,-2.01484 -2.17212,-1.25928 -3.4754,-3.02227 -3.4754,-5.53402 V 318.5786 h -8.24235 c -0.86885,0 -1.7377,-0.25186 -1.7377,-1.00742 v -0.50371 c 0,-0.25186 0,-0.50372 0.43442,-0.75557 0.43443,-0.25186 0.43443,-0.25186 1.30328,-0.25186 l 8.67678,-0.50371 0.86885,-8.05257 c 0,-0.25185 0.43442,-0.50371 0.43442,-0.75556 0.43443,-0.25186 0.43443,-0.25186 1.30329,-0.25186 h 1.7377 c 0.86885,0 1.7377,0.25186 1.7377,1.00742 v 8.05257 h 15.19317 c 0.86884,0 1.7377,0.25186 1.7377,1.00742 v 1.25928 c 0,0.50371 -0.43443,1.00742 -1.7377,1.00742 h -15.19317 v 20.13483 c 0,1.76298 0.43442,2.77041 1.73771,3.52597 1.30327,0.75557 3.4754,1.00742 6.08196,1.00742 2.17213,0 3.90983,0 5.21311,-0.25185 0.86884,0 1.30327,-0.25186 1.7377,-0.25186 h 0.86885 c 0.86885,0 1.30328,0.25186 1.30328,0.75557 v 1.00742 c 0,0.75557 -0.43443,1.00742 -1.30328,1.25928 -2.6183,0.50371 -5.65928,0.74876 -9.13468,0.74876 z m 34.29616,-0.4969 c -0.86885,0 -1.73771,-0.25186 -2.17213,-0.75557 l -16.49644,-28.43925 c -0.43443,-0.50371 -0.43443,-0.75556 -0.43443,-1.00742 0,-0.50371 0.43443,-0.50371 1.30327,-0.50371 h 3.47541 c 0.86886,0 1.73771,0.25185 1.73771,0.75557 l 14.32431,25.92069 12.58661,-25.92069 c 0.43443,-0.50372 0.86886,-0.75557 2.17213,-0.75557 h 3.90983 c 0.86886,0 1.7377,0.25185 2.17213,0.75557 l 12.58661,25.92069 14.75875,-26.17255 c 0.43442,-0.50371 0.86885,-0.75557 1.7377,-0.75557 h 3.04098 c 0.86885,0 1.30328,0.25186 1.30328,0.50371 0,0.25186 0,0.50372 -0.43443,1.00743 l -17.3653,28.43924 c -0.43442,0.50371 -0.86884,0.75557 -2.17212,0.75557 h -3.47541 c -0.86885,0 -1.7377,-0.25186 -2.17213,-0.75557 l -12.58661,-25.92069 -12.58661,25.92069 c -0.43443,0.50371 -0.86885,0.75557 -2.17213,0.75557 z m 87.2609,1.00061 c -7.81966,0 -13.88989,-1.51113 -17.79973,-4.28154 -3.90982,-2.77041 -6.51638,-6.79329 -6.51638,-12.08226 0,-5.28896 2.17213,-9.05999 6.51638,-12.08225 4.34427,-3.02227 10.41448,-4.28155 17.79973,-4.28155 7.38524,0 13.88988,1.51114 17.79972,4.28155 4.34425,2.77041 6.51639,6.79329 6.51639,12.08225 0,5.28897 -2.17214,9.05999 -6.51639,12.08226 -3.90984,2.77721 -9.99179,4.28154 -17.79972,4.28154 z m 0,-3.26731 c 12.15218,0 18.23415,-4.28155 18.23415,-13.08968 0,-8.80814 -6.08197,-13.08968 -18.23415,-13.08968 -12.15219,0 -18.23414,4.28154 -18.23414,13.08968 0,8.80813 6.08195,13.08968 18.23414,13.08968 z m 39.9437,2.2667 c -0.86885,0 -1.73771,-0.25186 -1.73771,-1.00743 v -28.6911 c 0,-0.50371 0.43443,-1.00742 1.73771,-1.00742 h 2.17213 c 1.30327,0 1.7377,0.25185 1.7377,1.00742 l 0.43443,3.52598 c 2.60655,-1.76299 5.21311,-3.02227 7.81966,-3.52598 2.60656,-0.75557 5.64754,-1.00742 8.67678,-1.00742 h 2.60656 c 0.86885,0 1.7377,0.25185 1.7377,1.00742 v 1.51113 c 0,0.25186 0,0.25186 -0.43443,0.50372 0,0 -0.43442,0.25185 -0.86885,0.25185 h -3.90983 c -3.04099,0 -6.08197,0.25186 -8.67677,1.00742 -2.60656,0.75557 -4.7787,1.76299 -7.38525,3.27412 v 22.40153 c 0,0.50371 -0.43443,1.00742 -1.7377,1.00742 0,-0.0136 -2.17213,-0.25866 -2.17213,-0.25866 z m 36.02213,0 c -0.86886,0 -1.73771,-0.25186 -1.73771,-1.00743 v -43.2851 c 0,-0.50371 0.43442,-1.00742 1.73771,-1.00742 h 3.04098 c 0.86884,0 1.7377,0.25185 1.7377,1.00742 v 27.17997 l 25.17321,-13.08968 c 0.86886,-0.50371 1.73771,-0.50371 2.60657,-0.50371 h 3.90983 c 0.86885,0 1.30328,0.25185 1.30328,0.50371 0,0.25186 -0.43443,0.50371 -1.30328,1.00742 l -25.60765,13.08968 27.77977,14.84586 c 0.43443,0.25185 0.86886,0.50371 0.86886,0.75556 0,0.50372 -0.43443,0.50372 -1.30328,0.50372 h -4.34426 c -0.86885,0 -1.7377,-0.25186 -2.17213,-0.50372 L 753.4561,331.42323 v 14.09029 c 0,0.50371 -0.43443,1.00742 -1.7377,1.00742 z"
   id="path4-95"
   style="fill:#94a3b8;fill-opacity:1;stroke-width:0.893988" />
</g></g><style
     type="text/css"
     id="style1">
	.st0{fill:#010202;}
</style><style
     type="text/css"
     id="style1-1">
	.st0{fill:url(#SVGID_1_);}
	.st1{fill:url(#SVGID_2_);}
	.st2{fill:#253858;}
</style><style
     type="text/css"
     id="style1-4">
	.st0{fill:#1A1918;}
	.st1{fill:#FFFFFF;}
</style><style
     type="text/css"
     id="style1-6">
	.st0{fill-rule:evenodd;clip-rule:evenodd;fill:#7B42BC;}
</style><style
     type="text/css"
     id="style1-9">
	.st0{fill:#F49819;}
</style></svg>
