<?xml version="1.0" encoding="UTF-8" standalone="no"?>
<svg
   fill="none"
   height="48"
   viewBox="0 0 120 48"
   width="120"
   version="1.1"
   id="svg6"
   sodipodi:docname="confluence.svg"
   xml:space="preserve"
   inkscape:version="1.4 (86a8ad7, 2024-10-11)"
   xmlns:inkscape="http://www.inkscape.org/namespaces/inkscape"
   xmlns:sodipodi="http://sodipodi.sourceforge.net/DTD/sodipodi-0.dtd"
   xmlns="http://www.w3.org/2000/svg"
   xmlns:svg="http://www.w3.org/2000/svg"><defs
     id="defs6"><clipPath
       clipPathUnits="userSpaceOnUse"
       id="clipPath2"><path
         d="M 0,1536 H 2048 V 0 H 0 Z"
         transform="translate(-575.83621,-847.97922)"
         id="path2-0" /></clipPath><clipPath
       clipPathUnits="userSpaceOnUse"
       id="clipPath4"><path
         d="M 0,1536 H 2048 V 0 H 0 Z"
         transform="translate(-291.4852,-743.55954)"
         id="path4-9" /></clipPath><clipPath
       clipPathUnits="userSpaceOnUse"
       id="clipPath6"><path
         d="M 0,1536 H 2048 V 0 H 0 Z"
         transform="translate(-326.35021,-833.43752)"
         id="path6-4" /></clipPath></defs><sodipodi:namedview
     id="namedview6"
     pagecolor="#505050"
     bordercolor="#eeeeee"
     borderopacity="1"
     inkscape:showpageshadow="0"
     inkscape:pageopacity="0"
     inkscape:pagecheckerboard="0"
     inkscape:deskcolor="#505050"
     inkscape:zoom="6.37"
     inkscape:cx="59.89011"
     inkscape:cy="24.097331"
     inkscape:window-width="1600"
     inkscape:window-height="829"
     inkscape:window-x="-8"
     inkscape:window-y="-8"
     inkscape:window-maximized="1"
     inkscape:current-layer="svg6"><inkscape:page
       x="0"
       y="0"
       width="120"
       height="48"
       id="page6"
       margin="0"
       bleed="0" /><inkscape:page
       x="130"
       y="0"
       width="2730.6667"
       height="2048"
       id="page7"
       margin="855.45734 253.16 855.45734 253.15866"
       bleed="0" /></sodipodi:namedview><clipPath
     id="a"><path
       d="m0 11h120v25.632h-120z"
       id="path1" /></clipPath><path
     id="path1-8"
     d="m 0,0 c 13.14,0 31.186,-1.752 48.355,-4.73 1.402,-0.176 2.979,0.175 4.205,1.051 1.227,0.876 1.927,2.277 2.278,3.679 l 3.679,28.733 c 0.35,2.803 -1.402,5.431 -4.205,6.132 -17.345,4.205 -36.967,6.482 -55.538,6.482 -51.685,0 -77.965,-21.549 -77.965,-63.948 v -95.66 c 0,-42.398 26.28,-63.948 77.965,-63.948 18.571,0 38.193,2.278 55.538,6.483 2.804,0.7 4.556,3.328 4.205,6.132 l -3.679,28.732 c -0.175,1.577 -1.051,2.804 -2.278,3.68 -1.226,0.876 -2.803,1.226 -4.205,1.051 -17.169,-2.978 -35.215,-4.731 -48.355,-4.731 -25.579,0 -34.339,7.534 -34.339,29.785 v 81.118 C -34.339,-7.534 -25.579,0 0,0 m 1195.746,-80.067 v 5.256 c 0,15.418 7.533,22.426 23.477,22.426 17.695,0 21.199,-8.585 21.199,-22.426 v -5.256 z m 23.126,64.474 c -43.625,0 -66.751,-21.725 -66.751,-62.897 v -41.172 c 0,-42.574 21.55,-62.372 67.978,-62.372 18.922,0 39.07,3.329 55.363,9.111 2.628,0.876 4.03,3.679 3.504,6.307 l -4.905,23.302 c -0.351,1.577 -1.227,2.803 -2.453,3.679 -1.227,0.876 -2.979,1.051 -4.38,0.526 -14.892,-4.205 -29.259,-6.308 -43.625,-6.308 -23.827,0 -27.857,7.709 -27.857,23.828 v 5.606 h 80.943 c 2.978,0 5.606,2.453 5.606,5.431 v 29.96 c -0.175,44.325 -20.148,64.999 -63.423,64.999 m -82.519,-129.473 c -0.175,1.576 -1.051,2.803 -2.278,3.679 -1.226,0.876 -2.803,1.226 -4.38,0.876 -9.285,-2.103 -19.097,-3.329 -28.382,-3.329 -20.674,0 -26.631,5.256 -26.631,23.477 v 43.099 c 0,18.221 5.957,23.477 26.631,23.477 5.606,0 17.87,-0.876 28.382,-3.328 1.577,-0.351 3.154,0 4.38,0.876 1.227,0.876 2.103,2.277 2.278,3.679 l 3.854,25.754 c 0.351,2.803 -1.226,5.256 -3.854,6.132 -12.615,3.68 -27.156,5.081 -35.916,5.081 -49.232,0 -69.38,-18.046 -69.38,-62.021 v -42.399 c 0,-43.975 20.148,-62.021 69.38,-62.021 11.913,0 25.754,1.928 36.091,5.081 2.628,0.876 4.205,3.329 3.854,6.132 z M 973.416,-15.593 c -17.345,0 -40.822,-5.957 -60.619,-15.242 l -2.453,8.059 c -0.701,2.278 -2.803,4.029 -5.256,4.029 H 880.91 c -2.978,0 -5.606,-2.452 -5.606,-5.606 v -148.921 c 0,-2.978 2.452,-5.431 5.606,-5.431 h 32.587 c 2.979,0 5.607,2.453 5.607,5.431 v 103.018 c 11.738,5.957 28.207,12.089 38.193,12.089 7.359,0 9.987,-2.803 9.987,-9.986 v -105.296 c 0,-2.978 2.453,-5.431 5.607,-5.431 h 32.587 c 2.978,0 5.606,2.453 5.606,5.431 v 109.501 c -0.35,32.061 -12.965,48.355 -37.668,48.355 M 769.132,-80.067 v 5.256 c 0,15.418 7.533,22.426 23.477,22.426 17.695,0 21.199,-8.585 21.199,-22.426 v -5.256 z m 23.126,64.474 c -43.625,0 -66.751,-21.725 -66.751,-62.897 v -41.172 c 0,-42.574 21.55,-62.372 67.978,-62.372 18.921,0 39.069,3.329 55.363,9.111 2.628,0.876 4.03,3.679 3.504,6.307 l -4.905,23.302 c -0.351,1.577 -1.227,2.803 -2.453,3.679 -1.227,0.876 -2.979,1.051 -4.38,0.526 -14.892,-4.205 -29.259,-6.308 -43.625,-6.308 -23.828,0 -27.857,7.709 -27.857,23.828 v 5.606 h 80.942 c 2.979,0 5.607,2.453 5.607,5.431 v 29.96 c -0.175,44.325 -20.148,64.999 -63.423,64.999 z m -91.279,-3.329 h -32.588 c -2.978,0 -5.606,-2.453 -5.606,-5.606 v -103.193 c -11.738,-5.957 -28.207,-12.089 -38.194,-12.089 -7.358,0 -9.986,2.803 -9.986,9.986 v 105.471 c 0,2.978 -2.453,5.607 -5.607,5.607 h -32.587 c -2.979,0 -5.607,-2.453 -5.607,-5.607 v -109.325 c 0,-32.062 12.615,-48.356 37.493,-48.356 17.345,0 40.822,5.957 60.62,15.243 l 2.453,-8.059 c 0.701,-2.278 2.803,-4.03 5.256,-4.03 h 24.178 c 2.978,0 5.606,2.453 5.606,5.431 v 148.921 c 0.175,3.153 -2.278,5.606 -5.431,5.606 z M 541.371,42.223 h -32.588 c -2.978,0 -5.606,-2.452 -5.606,-5.606 v -210.066 c 0,-2.978 2.453,-5.431 5.606,-5.431 h 32.588 c 2.978,0 5.606,2.453 5.606,5.431 V 36.617 c 0,2.978 -2.628,5.606 -5.606,5.606 m -58.868,0.701 c -8.76,2.278 -18.921,3.504 -28.382,3.504 -34.865,0 -51.86,-16.469 -51.86,-50.458 v -19.272 h -18.045 c -2.979,0 -5.607,-2.453 -5.607,-5.606 v -24.703 c 0,-2.979 2.453,-5.432 5.607,-5.432 h 18.045 v -114.231 c 0,-2.978 2.453,-5.431 5.431,-5.431 h 32.588 c 2.978,0 5.431,2.453 5.431,5.431 v 114.231 h 32.062 c 2.803,0 5.256,2.278 5.431,5.081 v 24.703 c 0,1.752 -0.35,2.979 -1.402,4.205 -1.051,1.051 -2.452,1.752 -4.029,1.752 h -32.062 v 17.17 c 0,11.914 2.278,16.118 15.243,16.118 4.029,0 9.986,-0.7 15.768,-1.576 1.401,-0.176 2.978,0.175 4.205,1.051 1.226,0.876 1.927,2.277 2.277,3.679 l 3.329,23.652 c 0.35,2.803 -1.402,5.431 -4.03,6.132 M 327.45,-15.593 c -17.344,0 -40.821,-5.957 -60.619,-15.242 l -2.453,8.059 c -0.701,2.278 -2.803,4.029 -5.256,4.029 h -24.178 c -2.978,0 -5.606,-2.452 -5.606,-5.606 v -148.921 c 0,-2.978 2.453,-5.431 5.606,-5.431 h 32.588 c 2.978,0 5.606,2.453 5.606,5.431 v 103.018 c 11.739,5.957 28.208,12.089 38.194,12.089 7.358,0 9.986,-2.803 9.986,-9.986 v -105.296 c 0,-2.978 2.453,-5.431 5.607,-5.431 h 32.587 c 2.979,0 5.607,2.453 5.607,5.431 v 109.501 c -0.176,32.061 -12.79,48.355 -37.668,48.355 z M 112.829,-77.964 c 0,17.169 7.884,24.353 26.28,24.353 18.397,0 26.281,-7.359 26.281,-24.353 v -41.698 c 0,-17.17 -7.884,-24.353 -26.281,-24.353 -18.396,0 -26.28,7.358 -26.28,24.353 z m 26.28,62.371 c -45.727,0 -69.905,-22.075 -69.905,-63.598 v -39.245 c 0,-41.522 24.178,-63.598 69.905,-63.598 45.728,0 69.906,22.076 69.906,63.598 v 39.245 c 0,41.523 -24.178,63.598 -69.906,63.598 z"
     style="fill:#94a3b8;fill-opacity:1;fill-rule:nonzero;stroke:none"
     transform="matrix(0.0702103,0,0,-0.06162285,27.977904,19.468804)"
     clip-path="url(#clipPath2)" /><path
     id="path3-8"
     d="m 0,0 c -0.701,0.701 -2.278,1.752 -4.205,1.752 -2.628,0 -4.38,-1.752 -4.905,-2.628 -4.03,-5.957 -7.359,-11.914 -10.337,-17.871 -49.232,-7.708 -82.17,-24.878 -82.17,-43.975 0,-16.118 24.178,-30.485 61.146,-39.07 0.35,-0.175 0.876,-0.175 1.401,-0.175 3.154,0 5.782,2.628 5.782,5.782 0,2.628 -1.752,4.73 -4.205,5.431 -27.331,8.059 -44.151,18.922 -44.151,26.105 0,7.709 18.747,14.542 48.356,18.922 h 0.35 c 1.402,0 2.453,-1.052 2.453,-2.453 v -0.526 c -1.577,-6.482 -2.453,-12.965 -2.803,-19.447 0,-1.577 0.525,-3.329 1.577,-4.38 1.051,-1.227 2.628,-1.927 4.38,-1.927 H 8.76 c 3.154,0 5.782,2.452 5.957,5.606 0.876,10.687 4.029,21.199 10.162,32.412 2.102,3.855 0.525,7.534 -0.701,9.111 C 18.221,-19.622 10.862,-11.213 0,0 m 97.412,-18.571 c -3.504,7.008 -7.709,14.016 -12.615,21.199 -3.504,5.081 -7.183,10.162 -11.213,15.067 -1.576,1.927 -0.876,4.38 0.351,5.607 l 3.679,3.679 c 16.819,17.17 34.164,34.865 47.479,53.962 14.192,20.323 22.076,39.595 24.003,59.568 0.175,1.927 -0.701,4.03 -2.278,5.256 -1.051,0.876 -2.277,1.226 -3.679,1.226 -0.701,0 -1.402,-0.175 -2.102,-0.35 -12.965,-4.906 -25.93,-8.76 -38.019,-11.388 -2.453,-0.526 -4.38,-2.453 -5.256,-4.555 -8.76,-23.828 -31.011,-46.604 -54.312,-70.431 -0.876,-0.876 -2.278,-2.102 -4.38,-2.102 -2.103,0 -3.504,1.051 -4.38,2.102 -23.302,23.827 -45.552,46.428 -54.313,70.431 -0.876,2.102 -2.803,4.029 -5.256,4.555 -11.913,2.803 -25.053,6.833 -38.018,11.738 -0.701,0.351 -1.402,0.351 -2.103,0.351 -1.226,0 -2.628,-0.351 -3.679,-1.227 -1.577,-1.226 -2.453,-3.328 -2.277,-5.256 1.927,-19.797 9.811,-39.42 24.002,-59.743 13.315,-19.097 30.66,-36.792 47.48,-53.962 31.01,-31.536 60.094,-61.32 62.721,-95.835 0.186,-3.152 2.8,-5.612 5.957,-5.606 h 36.267 c 1.577,0 3.154,0.701 4.38,1.927 1.051,1.226 1.752,2.803 1.577,4.38 -0.351,6.482 -1.227,12.965 -2.803,19.623 v 0.525 c 0,1.402 1.051,2.453 2.452,2.453 h 0.351 c 29.609,-4.38 48.355,-11.213 48.53,-18.922 0,-7.183 -16.819,-18.045 -44.325,-26.105 -2.453,-0.7 -4.205,-2.978 -4.205,-5.431 0,-3.154 2.628,-5.782 5.781,-5.782 0.526,0 0.876,0 1.227,0.176 36.792,8.584 61.32,22.776 61.32,39.069 -0.175,18.922 -33.113,35.917 -82.344,43.801 z"
     style="fill:#94a3b8;fill-opacity:1;fill-rule:nonzero;stroke:none"
     transform="matrix(0.0601676,0,0,-0.06162285,9.8187753,25.903442)"
     clip-path="url(#clipPath4)" /><path
     id="path5-2"
     d="m 0,0 c 1.402,-1.402 2.978,-1.577 4.205,-1.577 1.051,0 2.803,0.175 4.205,1.577 12.789,12.439 19.622,26.981 21.199,31.011 0.175,0.525 0.526,1.226 0.526,2.277 0,3.154 -2.628,5.607 -5.432,5.607 -2.277,0 -8.935,-0.701 -20.323,-0.701 -11.388,0 -18.046,0.701 -20.323,0.701 -2.803,0 -5.431,-2.278 -5.431,-5.607 0,-0.876 0.175,-1.577 0.525,-2.277 C -19.798,26.981 -12.79,12.439 0,0 Z"
     style="fill:#94a3b8;fill-opacity:1;fill-rule:nonzero;stroke:none"
     transform="matrix(0.0601676,0,0,-0.06162285,11.916519,20.364905)"
     clip-path="url(#clipPath6)" /><g
     clip-path="url(#a)"
     fill="#94a3b8"
     id="g6" /></svg>
