<?xml version="1.0" encoding="UTF-8" standalone="no"?>
<svg
   fill="none"
   height="48"
   viewBox="0 0 120 48"
   width="120"
   version="1.1"
   id="svg6"
   sodipodi:docname="Docker Applicaton Development.svg"
   xml:space="preserve"
   inkscape:version="1.4 (86a8ad7, 2024-10-11)"
   xmlns:inkscape="http://www.inkscape.org/namespaces/inkscape"
   xmlns:sodipodi="http://sodipodi.sourceforge.net/DTD/sodipodi-0.dtd"
   xmlns="http://www.w3.org/2000/svg"
   xmlns:svg="http://www.w3.org/2000/svg"><defs
     id="defs6"><clipPath
       clipPathUnits="userSpaceOnUse"
       id="clipPath2"><path
         d="M 0,1536 H 2048 V 0 H 0 Z"
         transform="translate(-575.83621,-847.97922)"
         id="path2-0" /></clipPath><clipPath
       clipPathUnits="userSpaceOnUse"
       id="clipPath4"><path
         d="M 0,1536 H 2048 V 0 H 0 Z"
         transform="translate(-291.4852,-743.55954)"
         id="path4-9" /></clipPath><clipPath
       clipPathUnits="userSpaceOnUse"
       id="clipPath6"><path
         d="M 0,1536 H 2048 V 0 H 0 Z"
         transform="translate(-326.35021,-833.43752)"
         id="path6-4" /></clipPath><clipPath
       clipPathUnits="userSpaceOnUse"
       id="clipPath2-4"><path
         d="M 0,2500 H 1535 V 0 H 0 Z"
         transform="translate(-1435.5166,-1463.4269)"
         id="path2" /></clipPath><clipPath
       clipPathUnits="userSpaceOnUse"
       id="clipPath4-5"><path
         d="M 0,2500 H 1535 V 0 H 0 Z"
         transform="translate(-123.61431,-1293.839)"
         id="path4" /></clipPath><clipPath
       clipPathUnits="userSpaceOnUse"
       id="clipPath6-5"><path
         d="M 0,2500 H 1535 V 0 H 0 Z"
         transform="translate(-277.54251,-962.21735)"
         id="path6" /></clipPath><clipPath
       clipPathUnits="userSpaceOnUse"
       id="clipPath8"><path
         d="M 0,2500 H 1535 V 0 H 0 Z"
         transform="translate(-1047.7266,-1459.6495)"
         id="path8" /></clipPath><clipPath
       clipPathUnits="userSpaceOnUse"
       id="clipPath10"><path
         d="M 0,2500 H 1535 V 0 H 0 Z"
         transform="translate(-961.3105,-1018.3864)"
         id="path10" /></clipPath><clipPath
       clipPathUnits="userSpaceOnUse"
       id="clipPath12"><path
         d="M 0,2500 H 1535 V 0 H 0 Z"
         transform="translate(-356.39791,-1908.4733)"
         id="path12" /></clipPath><clipPath
       clipPathUnits="userSpaceOnUse"
       id="clipPath14"><path
         d="M 0,2500 H 1535 V 0 H 0 Z"
         transform="translate(-384.48491,-1926.2941)"
         id="path14" /></clipPath><clipPath
       clipPathUnits="userSpaceOnUse"
       id="clipPath16"><path
         d="M 0,2500 H 1535 V 0 H 0 Z"
         transform="translate(-1129.2765,-2207.1466)"
         id="path16" /></clipPath><clipPath
       clipPathUnits="userSpaceOnUse"
       id="clipPath18"><path
         d="M 0,2500 H 1535 V 0 H 0 Z"
         transform="translate(-805.76072,-2115.8697)"
         id="path18" /></clipPath><clipPath
       clipPathUnits="userSpaceOnUse"
       id="clipPath20"><path
         d="M 0,2500 H 1535 V 0 H 0 Z"
         transform="translate(-591.34231,-990.30432)"
         id="path20" /></clipPath><clipPath
       clipPathUnits="userSpaceOnUse"
       id="clipPath22"><path
         d="M 0,2500 H 1535 V 0 H 0 Z"
         transform="translate(-983.998,-1015.6861)"
         id="path22" /></clipPath><clipPath
       clipPathUnits="userSpaceOnUse"
       id="clipPath24"><path
         d="M 0,2500 H 1535 V 0 H 0 Z"
         transform="translate(-1009.38,-1015.6861)"
         id="path24" /></clipPath><clipPath
       clipPathUnits="userSpaceOnUse"
       id="clipPath26"><path
         d="M 0,2500 H 1535 V 0 H 0 Z"
         transform="translate(-1075.8087,-1480.1701)"
         id="path26" /></clipPath><clipPath
       clipPathUnits="userSpaceOnUse"
       id="clipPath28"><path
         d="M 0,2500 H 1535 V 0 H 0 Z"
         transform="translate(-679.91942,-513.39409)"
         id="path28" /></clipPath><clipPath
       clipPathUnits="userSpaceOnUse"
       id="clipPath30"><path
         d="M 0,2500 H 1535 V 0 H 0 Z"
         transform="translate(-951.04495,-1018.3864)"
         id="path30" /></clipPath><clipPath
       clipPathUnits="userSpaceOnUse"
       id="clipPath32"><path
         d="M 0,2500 H 1535 V 0 H 0 Z"
         transform="translate(-1105.5177,-803.96735)"
         id="path32" /></clipPath><clipPath
       clipPathUnits="userSpaceOnUse"
       id="clipPath34"><path
         d="M 0,2500 H 1535 V 0 H 0 Z"
         transform="translate(-1103.8956,-855.275)"
         id="path34" /></clipPath><clipPath
       clipPathUnits="userSpaceOnUse"
       id="clipPath36"><path
         d="M 0,2500 H 1535 V 0 H 0 Z"
         transform="translate(-1003.4355,-1036.2125)"
         id="path36" /></clipPath><clipPath
       clipPathUnits="userSpaceOnUse"
       id="clipPath38"><path
         d="M 0,2500 H 1535 V 0 H 0 Z"
         transform="translate(-1014.7794,-1084.8199)"
         id="path38" /></clipPath><clipPath
       clipPathUnits="userSpaceOnUse"
       id="clipPath40"><path
         d="M 0,2500 H 1535 V 0 H 0 Z"
         transform="translate(-702.60162,-1421.302)"
         id="path40" /></clipPath><clipPath
       clipPathUnits="userSpaceOnUse"
       id="clipPath42"><path
         d="M 0,2500 H 1535 V 0 H 0 Z"
         transform="translate(-588.64261,-1413.7414)"
         id="path42" /></clipPath><clipPath
       clipPathUnits="userSpaceOnUse"
       id="clipPath44"><path
         d="M 0,2500 H 1535 V 0 H 0 Z"
         transform="translate(-1105.5177,-1290.0559)"
         id="path44" /></clipPath><clipPath
       clipPathUnits="userSpaceOnUse"
       id="clipPath46"><path
         d="M 0,2500 H 1535 V 0 H 0 Z"
         transform="translate(-1105.5177,-1290.0559)"
         id="path46" /></clipPath><clipPath
       clipPathUnits="userSpaceOnUse"
       id="clipPath48"><path
         d="M 0,2500 H 1535 V 0 H 0 Z"
         transform="translate(-898.66022,-1360.8116)"
         id="path48" /></clipPath><clipPath
       clipPathUnits="userSpaceOnUse"
       id="clipPath50"><path
         d="M 0,2500 H 1535 V 0 H 0 Z"
         transform="translate(-898.66022,-1360.8116)"
         id="path50" /></clipPath><clipPath
       clipPathUnits="userSpaceOnUse"
       id="clipPath52"><path
         d="M 0,2500 H 1535 V 0 H 0 Z"
         transform="translate(-922.9639,-1313.821)"
         id="path52" /></clipPath><clipPath
       clipPathUnits="userSpaceOnUse"
       id="clipPath54"><path
         d="M 0,2500 H 1535 V 0 H 0 Z"
         transform="translate(-922.9639,-1313.821)"
         id="path54" /></clipPath><clipPath
       clipPathUnits="userSpaceOnUse"
       id="clipPath56"><path
         d="M 0,2500 H 1535 V 0 H 0 Z"
         transform="translate(-738.24902,-1212.2839)"
         id="path56" /></clipPath><clipPath
       clipPathUnits="userSpaceOnUse"
       id="clipPath58"><path
         d="M 0,2500 H 1535 V 0 H 0 Z"
         transform="translate(-828.98635,-1654.6246)"
         id="path58" /></clipPath><clipPath
       clipPathUnits="userSpaceOnUse"
       id="clipPath60"><path
         d="M 0,2500 H 1535 V 0 H 0 Z"
         transform="translate(-1128.1992,-1238.2096)"
         id="path60" /></clipPath><clipPath
       clipPathUnits="userSpaceOnUse"
       id="clipPath62"><path
         d="M 0,2500 H 1535 V 0 H 0 Z"
         transform="translate(-1346.4004,-906.04355)"
         id="path62" /></clipPath><clipPath
       clipPathUnits="userSpaceOnUse"
       id="clipPath64"><path
         d="M 0,2500 H 1535 V 0 H 0 Z"
         transform="translate(-1060.1484,-760.22134)"
         id="path64" /></clipPath><clipPath
       clipPathUnits="userSpaceOnUse"
       id="clipPath66"><path
         d="M 0,2500 H 1535 V 0 H 0 Z"
         transform="translate(-1001.8194,-1429.9406)"
         id="path66" /></clipPath><clipPath
       clipPathUnits="userSpaceOnUse"
       id="clipPath68"><path
         d="M 0,2500 H 1535 V 0 H 0 Z"
         transform="translate(-784.69532,-1147.4713)"
         id="path68" /></clipPath><clipPath
       clipPathUnits="userSpaceOnUse"
       id="clipPath70"><path
         d="M 0,2500 H 1535 V 0 H 0 Z"
         transform="translate(-1181.1289,-1064.2936)"
         id="path70" /></clipPath><clipPath
       clipPathUnits="userSpaceOnUse"
       id="clipPath72"><path
         d="M 0,2500 H 1535 V 0 H 0 Z"
         transform="translate(-767.95802,-1677.8507)"
         id="path72" /></clipPath><clipPath
       clipPathUnits="userSpaceOnUse"
       id="clipPath74"><path
         d="M 0,2500 H 1535 V 0 H 0 Z"
         transform="translate(-1005.5967,-1173.9362)"
         id="path74" /></clipPath><clipPath
       clipPathUnits="userSpaceOnUse"
       id="clipPath76"><path
         d="M 0,2500 H 1535 V 0 H 0 Z"
         transform="translate(-1379.8818,-115.88343)"
         id="path76" /></clipPath><style
       id="style1-2">
      .cls-1 {
        fill: #1d63ed;
        stroke-width: 0px;
      }
    </style></defs><sodipodi:namedview
     id="namedview6"
     pagecolor="#505050"
     bordercolor="#eeeeee"
     borderopacity="1"
     inkscape:showpageshadow="0"
     inkscape:pageopacity="0"
     inkscape:pagecheckerboard="0"
     inkscape:deskcolor="#505050"
     inkscape:zoom="6.75"
     inkscape:cx="72.518519"
     inkscape:cy="25.703704"
     inkscape:window-width="1600"
     inkscape:window-height="829"
     inkscape:window-x="-8"
     inkscape:window-y="-8"
     inkscape:window-maximized="1"
     inkscape:current-layer="layer-MC0"><inkscape:page
       x="0"
       y="0"
       width="120"
       height="48"
       id="page6"
       margin="0"
       bleed="0" /><inkscape:page
       x="130"
       y="0"
       width="2730.6667"
       height="2048"
       id="page7"
       margin="855.45734 253.16 855.45734 253.15866"
       bleed="0" /><inkscape:page
       x="2870.6667"
       y="0"
       width="2046.6667"
       height="3333.3333"
       id="page8"
       margin="153.78534 100.24 155.69333 100.72747"
       bleed="0" /></sodipodi:namedview><clipPath
     id="a"><path
       d="m0 11h120v25.632h-120z"
       id="path1" /></clipPath><g
     id="layer-MC0"
     inkscape:groupmode="layer"
     inkscape:label="katman 1"
     transform="matrix(0.00927975,0,0,0.00802468,3.7077293,16.966962)"><path
       class="cls-1"
       d="M 3389.2756,529.99433 C 3300.9368,463.5146 3069.0891,435.1053 2900.5352,485.86415 2891.3962,297.98 2804.9193,139.45285 2646.3494,1.380599 l -58.5544,-44.13018 -39.0919,66.10021 c -76.8315,130.496631 -109.1545,304.365141 -97.8165,462.513521 9.139,97.3511 39.2621,206.82393 97.8165,286.37173 -219.4936,142.4283 -421.7253,110.041 -1317.4669,110.041 H -151.55494 c -4.06104,226.33232 28.43129,661.76142 275.84728,1016.31702 27.24669,39.2057 57.20047,77.0855 89.86214,113.4502 201.21646,225.3852 505.15636,390.7309 959.54252,391.1098 693.3414,0.7575 1287.3438,-418.762 1648.6527,-1432.80642 118.97,2.2728 432.7254,23.8644 586.3876,-308.3421 3.7231,-5.6817 39.0919,-88.071 39.0919,-88.071 l -58.5536,-44.12944 v 0 z M 750.95725,296.27549 H 362.06297 v 435.23949 h 388.89428 z m 502.27835,0 H 864.34212 v 435.23949 h 388.89348 z m 502.4485,0 h -388.8935 v 435.23949 h 388.8935 z m 502.4484,0 h -388.8942 v 435.23949 h 388.8942 z m -2009.62371,0 h -389.06361 v 435.23949 h 388.89426 v -435.23949 0 z M 750.95725,-253.36205 H 362.06297 v 435.23983 h 388.89428 z m 502.44765,0 H 864.51147 v 435.23983 h 388.89343 z m 502.4485,0 h -388.8943 v 435.23983 h 388.8943 z m -0.1693,-549.82617 h -388.8935 v 435.23981 h 388.8935 z M 12273.589,1731.7331 c 0,113.0714 -79.369,201.7103 -182.431,201.7103 -103.063,0 -183.616,-88.8283 -183.616,-201.7103 0,-112.8821 81.399,-199.4376 183.616,-199.4376 102.215,0 182.431,88.8283 182.431,199.4376 z m -320.355,0 c 0,88.8283 58.723,159.2849 139.108,159.2849 80.385,0 135.724,-70.4566 135.724,-157.9591 0,-87.5025 -57.539,-160.4213 -136.739,-160.4213 -79.201,0 -137.924,71.7823 -137.924,159.2848 v 0 z m 109.662,104.5485 h -41.293 V 1636.844 c 16.247,-3.5986 39.093,-6.0608 68.37,-6.0608 33.677,0 48.907,6.0608 61.939,14.5838 9.815,8.5229 17.43,24.2431 17.43,43.7512 0,21.9703 -15.23,38.8269 -36.892,46.2135 v 2.4621 c 17.261,7.1972 27.077,21.781 32.493,48.6757 5.414,30.3039 8.63,42.6149 13.03,49.8121 h -44.508 c -5.415,-7.1972 -8.8,-25.569 -14.215,-48.6757 -3.216,-21.7809 -14.216,-31.6297 -36.893,-31.6297 h -19.461 z m 1.184,-113.0715 h 19.462 c 22.846,0 41.293,-8.523 41.293,-29.1675 0,-18.1824 -11.847,-30.4933 -38.078,-30.4933 -10.83,0 -18.446,1.3258 -22.846,2.6516 v 57.0092 z M 5275.1909,-285.74928 c -25.5541,-27.84113 -56.1852,-42.04615 -92.9079,-42.04615 -36.7235,0 -68.37,14.20502 -92.9087,42.04615 -24.7074,27.84186 -36.7227,63.82752 -36.7227,106.44257 V 533.40336 C 4926.2352,416.54357 4780.3581,357.45154 4614.5112,357.45154 c -192.9243,0 -357.7551,78.03254 -494.3248,234.4764 -136.5705,155.87544 -204.4324,344.51714 -204.4324,565.73566 0,221.2184 68.3699,409.292 204.4324,565.7359 136.5697,155.8756 301.0626,234.4765 494.3248,234.4765 193.2621,0 355.8939,-78.0326 494.3247,-234.4765 136.5697,-154.3606 204.4316,-342.8128 204.4316,-565.7359 V -179.30671 c 0,-42.61505 -12.5226,-78.41132 -38.0766,-106.44257 z M 5018.2972,1350.2828 v 1.1364 c -22.8461,60.6077 -53.9845,113.8289 -93.4159,159.0954 -39.4306,45.8347 -85.9688,81.6311 -138.9389,108.5258 -53.4773,26.8948 -110.1697,39.9633 -170.9232,39.9633 -60.7543,0 -118.97,-13.258 -172.4473,-39.9633 -53.4773,-26.7053 -99.5083,-62.6911 -138.4317,-107.9576 -39.0919,-45.2664 -70.0609,-98.4876 -92.9079,-159.0955 -22.8461,-61.1759 -34.3535,-125.9505 -34.3535,-194.3237 0,-68.3732 11.6767,-133.3372 34.3535,-194.32372 22.847,-61.1761 53.9854,-113.8292 92.9079,-159.0955 39.0928,-45.2665 85.4624,-81.0631 138.4317,-107.9579 53.4773,-26.8949 110.6778,-39.9628 172.4473,-39.9628 61.7687,0 117.6152,13.2573 170.9232,39.9628 53.308,26.7055 99.5083,62.6914 138.9389,108.526 39.4314,45.8347 70.5698,99.0559 93.4159,159.0955 22.8462,60.60782 34.3544,124.81432 34.3544,193.37682 0,68.5625 -11.6775,133.3372 -34.3544,193.3767 z M 11048.861,850.45778 c -33.847,-94.8891 -85.631,-180.6867 -153.324,-257.58288 l -0.846,-0.56818 c -138.093,-155.87568 -303.094,-234.47639 -494.325,-234.47639 -191.231,0 -357.755,78.03254 -494.4948,234.47639 -136.5697,155.87536 -204.4316,344.51716 -204.4316,565.73568 0,221.2184 68.3699,409.292 204.4316,565.7358 136.5698,155.8758 301.2318,234.4765 494.4948,234.4765 175.493,0 327.463,-64.7746 456.756,-194.3238 25.046,-29.5462 37.569,-65.3426 37.569,-107.0105 0,-41.668 -12.015,-78.4114 -36.723,-106.4425 -24.539,-27.8417 -55.677,-42.0466 -92.908,-42.0466 -32.493,1.1362 -61.262,13.2578 -85.97,37.5009 -39.093,37.8799 -81.4,66.858 -127.262,85.7981 -46.031,18.9397 -96.123,28.4098 -150.954,28.4098 -48.401,0 -94.77,-8.3336 -138.939,-25.7583 -44.17,-17.4247 -85.463,-41.0997 -122.185,-72.1611 -37.231,-31.0616 -69.216,-67.9944 -96.631,-111.7457 -27.417,-43.1831 -48.4009,-91.1011 -62.2783,-143.7541 h 988.3123 c 36.554,0 67.354,-14.205 92.908,-42.0467 25.554,-27.8418 38.077,-63.8276 38.077,-106.4424 0,-110.6092 -17.262,-213.26362 -51.108,-307.58462 v 0 z M 9979.6561,1009.3639 c 13.5387,-52.08482 33.8459,-100.00292 61.2619,-143.75422 27.416,-43.183 59.908,-80.4947 97.139,-111.7456 37.569,-31.0615 78.523,-54.736 123.539,-72.1614 45.016,-17.4246 91.047,-25.7578 138.432,-25.7578 47.385,0 93.415,8.3332 137.923,25.7578 44.677,17.4254 85.631,41.0999 122.185,72.1614 37.231,31.0615 69.724,67.9943 97.139,111.7456 27.923,43.1831 48.908,91.1011 63.293,143.75422 h -841.0812 v 0 z M 12263.266,458.02228 c -23.185,-25.75857 -52.462,-45.83469 -87.831,-60.60788 -35.37,-14.77319 -73.785,-24.81162 -116.093,-30.49333 -41.8,-5.87111 -81.401,-8.33318 -117.954,-8.33318 -83.262,0 -161.278,15.34136 -234.724,45.83469 -73.447,30.49333 -141.309,74.244 -203.586,131.06407 v -28.41004 c 0,-41.09993 -12.523,-75.94924 -38.076,-104.73806 -25.554,-28.97747 -55.678,-43.75066 -91.386,-43.75066 -35.707,0 -67.354,14.77319 -92.908,43.75066 -25.554,28.97821 -38.077,64.20704 -38.077,104.73806 V 1809.7656 c 0,41.0997 12.523,75.9492 38.077,104.7378 25.554,28.9782 56.185,43.7513 92.908,43.7513 36.724,0 66.339,-14.7731 91.386,-43.7513 25.553,-28.9781 38.076,-64.2064 38.076,-104.7378 v -651.5338 c 0,-69.5095 11.677,-134.8524 34.355,-196.02832 22.676,-61.176 53.984,-113.8291 93.415,-159.0956 39.6,-45.2664 85.969,-81.063 138.939,-107.0108 53.477,-26.326 110.169,-39.5841 171.093,-39.5841 60.924,0 118.462,12.1218 170.924,35.7963 20.816,10.6064 39.092,15.9095 54.83,15.9095 18.108,0 35.37,-3.7879 51.108,-11.5535 15.739,-7.765 29.786,-18.3716 41.462,-32.1979 11.677,-13.6368 20.816,-29.5463 27.754,-47.9179 6.939,-17.9929 10.662,-37.50082 10.662,-58.52463 0,-41.0992 -11.677,-74.244 -34.862,-100.00257 z m -5455.6845,392.8142 c -33.8463,-94.3207 -84.6157,-180.6866 -152.8163,-258.52976 -137.9228,-155.87568 -302.9238,-234.47639 -494.3248,-234.47639 -191.4009,0 -357.755,78.03254 -494.3247,234.47639 -136.5706,155.87536 -204.4316,344.51716 -204.4316,565.73568 0,221.2184 68.3691,409.292 204.4316,565.7358 136.5697,155.8758 301.0626,234.4765 494.3247,234.4765 193.2622,0 355.8939,-78.0326 494.3248,-234.4765 136.5705,-154.3603 204.4316,-342.8127 204.4316,-565.7358 -1.0153,-110.6092 -18.1078,-212.69552 -51.6153,-307.01652 v 0 z m -243.5243,499.44632 v 1.1364 c -22.8462,60.6077 -53.9846,113.8289 -93.4152,159.0954 -39.4314,45.8347 -85.9696,81.6311 -138.9389,108.5258 -52.9701,26.8948 -110.1697,39.9633 -170.924,39.9633 -60.7543,0 -118.97,-13.258 -172.4473,-39.9633 -53.4765,-26.7053 -99.5083,-62.6911 -138.4308,-107.9576 -39.0928,-45.2664 -70.0618,-98.4876 -92.908,-159.0955 -22.8469,-61.1759 -34.3543,-125.9505 -34.3543,-194.3237 0,-68.3732 11.6767,-133.3372 34.3543,-194.32372 22.8462,-61.1761 53.9846,-113.8292 92.908,-159.0955 39.0919,-45.2665 85.4616,-81.0631 138.4308,-107.9579 53.4773,-26.8949 110.6778,-39.9628 172.4473,-39.9628 61.7696,0 117.6161,13.2573 170.924,39.9628 53.3072,26.7055 99.5075,62.6914 138.9389,108.526 39.4306,45.8347 70.569,99.0559 93.4152,159.0955 22.8461,60.60782 34.3543,124.81432 34.3543,193.37682 0,68.5625 -11.6767,133.3372 -34.3543,193.3767 v 0 z M 9602.778,506.31905 c 0,-20.07612 -3.7231,-39.0159 -10.6614,-56.81934 -6.9391,-17.99356 -16.2466,-34.28187 -27.9233,-47.91872 -11.6775,-13.63611 -25.554,-24.81088 -41.2925,-32.19785 -15.7386,-7.38622 -33.0004,-11.55281 -51.1081,-11.55281 -26.0613,0 -49.2462,7.38622 -69.7231,22.72758 L 8655.9275,936.25568 V -178.35975 c 0,-42.04689 -12.5226,-77.46437 -38.0767,-106.44258 -25.554,-28.97821 -55.6771,-43.75066 -91.5539,-43.75066 -35.8776,0 -67.3547,14.77245 -92.9087,43.75066 -25.5541,28.97821 -38.0767,64.2063 -38.0767,106.44258 V 1807.4928 c 0,41.0997 12.5226,76.328 38.0767,105.8742 25.554,29.5465 56.1852,44.3196 92.9087,44.3196 36.7227,0 66.5079,-14.7731 91.5539,-44.3196 25.5541,-29.5462 38.0767,-64.7745 38.0767,-105.8742 v -515.7344 l 152.4776,-114.2078 576.572,741.1197 c 23.1849,25.7583 52.4613,38.448 87.3236,38.448 18.1077,0 35.3688,-3.788 51.1073,-11.5533 15.7385,-7.3866 29.7852,-18.3717 41.2926,-32.198 11.6775,-13.6367 20.985,-29.5462 27.9232,-47.918 6.9383,-17.9929 10.6615,-37.501 10.6615,-56.8198 0,-39.0163 -12.0154,-73.8657 -36.2155,-104.3591 l -536.6326,-691.4971 522.756,-388.64722 c 33.5076,-25.7586 49.7542,-65.34337 49.7542,-118.56429 v 1.13634 0 z M 7393.461,802.91858 c 39.9386,-45.2664 86.4769,-81.0631 139.9542,-107.0109 53.4773,-26.3267 110.1697,-39.584 170.924,-39.584 54.8312,0 105.4313,10.6058 152.4775,31.6296 46.3697,21.0232 91.0468,52.0846 133.3546,92.6162 25.046,22.5384 53.4765,34.2812 84.9544,34.2812 37.5686,0 68.3693,-14.205 92.9081,-42.6148 24.5379,-28.41 36.7227,-64.2064 36.7227,-107.0109 0,-42.8037 -14.8918,-82.19912 -45.0158,-112.69246 -128.2768,-129.54894 -280.0778,-194.32341 -455.4015,-194.32341 -192.9243,0 -357.7551,78.03254 -494.3248,234.4764 -136.5705,155.87537 -204.4324,344.51717 -204.4324,565.73569 0,221.2185 68.3699,409.292 204.4324,565.7359 136.5697,155.8757 301.0627,234.4764 494.3248,234.4764 174.6471,0 326.6167,-64.7746 455.4015,-194.3237 27.4161,-31.6297 41.462,-67.9944 41.462,-110.0411 0,-42.0466 -12.1848,-78.4113 -36.7227,-106.4424 -24.7082,-27.8418 -55.6774,-42.0467 -92.9089,-42.0467 -31.6456,1.1364 -59.0617,11.5534 -82.2465,31.6297 -41.7998,41.0997 -85.4616,71.5929 -132.3385,92.2375 -46.3697,20.4551 -97.1391,30.4933 -152.4776,30.4933 -60.9236,0 -117.616,-13.258 -170.924,-39.5844 -53.3079,-26.3266 -99.8462,-62.123 -139.9541,-106.8213 -39.9387,-44.6982 -71.5851,-98.4877 -94.2619,-159.0955 -22.847,-61.1759 -34.3543,-126.3294 -34.3543,-196.0283 0,-69.6989 11.6767,-134.8524 34.3543,-196.02842 22.8462,-61.1759 54.3232,-113.829 94.2619,-159.0955 v -0.5681 0 z"
       id="path1-21"
       style="fill:#94a3b8;fill-opacity:1" /></g><style
     type="text/css"
     id="style1">
	.st0{fill:#010202;}
</style><style
     type="text/css"
     id="style1-1">
	.st0{fill:url(#SVGID_1_);}
	.st1{fill:url(#SVGID_2_);}
	.st2{fill:#253858;}
</style><style
     type="text/css"
     id="style1-4">
	.st0{fill:#1A1918;}
	.st1{fill:#FFFFFF;}
</style></svg>
