<?xml version="1.0" encoding="UTF-8" standalone="no"?>
<svg
   fill="none"
   height="48"
   viewBox="0 0 120 48"
   width="120"
   version="1.1"
   id="svg6"
   sodipodi:docname="Google.svg"
   xml:space="preserve"
   inkscape:version="1.4 (86a8ad7, 2024-10-11)"
   xmlns:inkscape="http://www.inkscape.org/namespaces/inkscape"
   xmlns:sodipodi="http://sodipodi.sourceforge.net/DTD/sodipodi-0.dtd"
   xmlns="http://www.w3.org/2000/svg"
   xmlns:svg="http://www.w3.org/2000/svg"><defs
     id="defs6"><clipPath
       clipPathUnits="userSpaceOnUse"
       id="clipPath2"><path
         d="M 0,229.274 H 627.794 V 0 H 0 Z"
         transform="translate(-111.8232,-218.50341)"
         id="path2-0" /></clipPath><linearGradient
       x1="0"
       y1="0"
       x2="1"
       y2="0"
       gradientUnits="userSpaceOnUse"
       gradientTransform="matrix(0,-258.62232,240.27183,0,128.04058,283.40516)"
       spreadMethod="pad"
       id="linearGradient3"><stop
         style="stop-opacity:1;stop-color:#3974c3"
         offset="0"
         id="stop2" /><stop
         style="stop-opacity:1;stop-color:#38bdef"
         offset="1"
         id="stop3" /></linearGradient><linearGradient
       x1="0"
       y1="0"
       x2="1"
       y2="0"
       gradientUnits="userSpaceOnUse"
       gradientTransform="matrix(0,-98.269754,151.53264,0,700.67802,227.20576)"
       spreadMethod="pad"
       id="linearGradient5"><stop
         style="stop-opacity:1;stop-color:#38bdef"
         offset="0"
         id="stop4" /><stop
         style="stop-opacity:1;stop-color:#3974c3"
         offset="1"
         id="stop5" /></linearGradient><clipPath
       clipPathUnits="userSpaceOnUse"
       id="clipPath7"><path
         d="M 0,229.274 H 627.794 V 0 H 0 Z"
         transform="translate(-135.4204,-80.864205)"
         id="path7" /></clipPath><clipPath
       clipPathUnits="userSpaceOnUse"
       id="clipPath9"><path
         d="M 0,229.274 H 627.794 V 0 H 0 Z"
         transform="translate(-142.9351,-101.67281)"
         id="path9" /></clipPath><clipPath
       clipPathUnits="userSpaceOnUse"
       id="clipPath2-2"><path
         d="M 0,512 H 512 V 0 H 0 Z"
         transform="translate(-83.000005,-243.40041)"
         id="path2-3" /></clipPath><clipPath
       clipPathUnits="userSpaceOnUse"
       id="clipPath4"><path
         d="M 0,512 H 512 V 0 H 0 Z"
         transform="translate(-43.200201,-288.10011)"
         id="path4-7" /></clipPath><clipPath
       clipPathUnits="userSpaceOnUse"
       id="clipPath6"><path
         d="M 0,512 H 512 V 0 H 0 Z"
         id="path6-2" /></clipPath><clipPath
       clipPathUnits="userSpaceOnUse"
       id="clipPath8"><path
         d="M 0,512 H 512 V 0 H 0 Z"
         transform="translate(-23.799801,-243.40041)"
         id="path8-4" /></clipPath><clipPath
       clipPathUnits="userSpaceOnUse"
       id="clipPath10"><path
         d="M 0,512 H 512 V 0 H 0 Z"
         transform="translate(-85.500002,-281.70021)"
         id="path10" /></clipPath><clipPath
       clipPathUnits="userSpaceOnUse"
       id="clipPath12"><path
         d="M 0,512 H 512 V 0 H 0 Z"
         transform="translate(-67.000001,-243.40041)"
         id="path12" /></clipPath><clipPath
       clipPathUnits="userSpaceOnUse"
       id="clipPath14"><path
         d="M 0,512 H 512 V 0 H 0 Z"
         transform="translate(-85.500002,-271.5)"
         id="path14" /></clipPath><clipPath
       clipPathUnits="userSpaceOnUse"
       id="clipPath16"><path
         d="M 0,512 H 512 V 0 H 0 Z"
         transform="translate(-358.09961,-232.5)"
         id="path16" /></clipPath><clipPath
       clipPathUnits="userSpaceOnUse"
       id="clipPath18"><path
         d="M 0,512 H 512 V 0 H 0 Z"
         transform="translate(-407.59961,-251.40041)"
         id="path18" /></clipPath><clipPath
       clipPathUnits="userSpaceOnUse"
       id="clipPath20"><path
         d="M 0,512 H 512 V 0 H 0 Z"
         transform="translate(-441.20021,-251.40041)"
         id="path20" /></clipPath><clipPath
       clipPathUnits="userSpaceOnUse"
       id="clipPath22"><path
         d="M 0,512 H 512 V 0 H 0 Z"
         transform="translate(-481.20021,-232.00001)"
         id="path22" /></clipPath><clipPath
       clipPathUnits="userSpaceOnUse"
       id="clipPath24"><path
         d="M 0,512 H 512 V 0 H 0 Z"
         transform="translate(-163.7998,-251.2998)"
         id="path24" /></clipPath><clipPath
       clipPathUnits="userSpaceOnUse"
       id="clipPath26"><path
         d="M 0,512 H 512 V 0 H 0 Z"
         transform="translate(-214.50001,-247.09961)"
         id="path26" /></clipPath><clipPath
       clipPathUnits="userSpaceOnUse"
       id="clipPath28"><path
         d="M 0,512 H 512 V 0 H 0 Z"
         transform="translate(-249.6001,-247.09961)"
         id="path28" /></clipPath><clipPath
       clipPathUnits="userSpaceOnUse"
       id="clipPath30"><path
         d="M 0,512 H 512 V 0 H 0 Z"
         transform="translate(-284.09961,-247.09961)"
         id="path30" /></clipPath><clipPath
       clipPathUnits="userSpaceOnUse"
       id="clipPath32"><path
         d="M 0,512 H 512 V 0 H 0 Z"
         id="path32" /></clipPath><clipPath
       clipPathUnits="userSpaceOnUse"
       id="clipPath34"><path
         d="M 0,512 H 512 V 0 H 0 Z"
         transform="translate(-312.50001,-247.5996)"
         id="path34" /></clipPath><clipPath
       clipPathUnits="userSpaceOnUse"
       id="clipPath34-1"><path
         d="M 0,512 H 512 V 0 H 0 Z"
         transform="translate(-312.50001,-247.5996)"
         id="path34-1" /></clipPath><clipPath
       clipPathUnits="userSpaceOnUse"
       id="clipPath32-5"><path
         d="M 0,512 H 512 V 0 H 0 Z"
         id="path32-2" /></clipPath><clipPath
       clipPathUnits="userSpaceOnUse"
       id="clipPath30-7"><path
         d="M 0,512 H 512 V 0 H 0 Z"
         transform="translate(-284.09961,-247.09961)"
         id="path30-6" /></clipPath><clipPath
       clipPathUnits="userSpaceOnUse"
       id="clipPath28-1"><path
         d="M 0,512 H 512 V 0 H 0 Z"
         transform="translate(-249.6001,-247.09961)"
         id="path28-4" /></clipPath><clipPath
       clipPathUnits="userSpaceOnUse"
       id="clipPath26-2"><path
         d="M 0,512 H 512 V 0 H 0 Z"
         transform="translate(-214.50001,-247.09961)"
         id="path26-3" /></clipPath><clipPath
       clipPathUnits="userSpaceOnUse"
       id="clipPath24-2"><path
         d="M 0,512 H 512 V 0 H 0 Z"
         transform="translate(-163.7998,-251.2998)"
         id="path24-2" /></clipPath><clipPath
       clipPathUnits="userSpaceOnUse"
       id="clipPath22-1"><path
         d="M 0,512 H 512 V 0 H 0 Z"
         transform="translate(-481.20021,-232.00001)"
         id="path22-6" /></clipPath><clipPath
       clipPathUnits="userSpaceOnUse"
       id="clipPath20-8"><path
         d="M 0,512 H 512 V 0 H 0 Z"
         transform="translate(-441.20021,-251.40041)"
         id="path20-5" /></clipPath><clipPath
       clipPathUnits="userSpaceOnUse"
       id="clipPath18-7"><path
         d="M 0,512 H 512 V 0 H 0 Z"
         transform="translate(-407.59961,-251.40041)"
         id="path18-6" /></clipPath><clipPath
       clipPathUnits="userSpaceOnUse"
       id="clipPath16-1"><path
         d="M 0,512 H 512 V 0 H 0 Z"
         transform="translate(-358.09961,-232.5)"
         id="path16-8" /></clipPath><clipPath
       clipPathUnits="userSpaceOnUse"
       id="clipPath14-9"><path
         d="M 0,512 H 512 V 0 H 0 Z"
         transform="translate(-85.500002,-271.5)"
         id="path14-2" /></clipPath><clipPath
       clipPathUnits="userSpaceOnUse"
       id="clipPath12-7"><path
         d="M 0,512 H 512 V 0 H 0 Z"
         transform="translate(-67.000001,-243.40041)"
         id="path12-9" /></clipPath><clipPath
       clipPathUnits="userSpaceOnUse"
       id="clipPath10-5"><path
         d="M 0,512 H 512 V 0 H 0 Z"
         transform="translate(-85.500002,-281.70021)"
         id="path10-4" /></clipPath><clipPath
       clipPathUnits="userSpaceOnUse"
       id="clipPath8-3"><path
         d="M 0,512 H 512 V 0 H 0 Z"
         transform="translate(-23.799801,-243.40041)"
         id="path8-4-1" /></clipPath><clipPath
       clipPathUnits="userSpaceOnUse"
       id="clipPath6-2"><path
         d="M 0,512 H 512 V 0 H 0 Z"
         id="path6-3" /></clipPath><clipPath
       clipPathUnits="userSpaceOnUse"
       id="clipPath4-3"><path
         d="M 0,512 H 512 V 0 H 0 Z"
         transform="translate(-43.200201,-288.10011)"
         id="path4-4" /></clipPath><clipPath
       clipPathUnits="userSpaceOnUse"
       id="clipPath2-2-1"><path
         d="M 0,512 H 512 V 0 H 0 Z"
         transform="translate(-83.000005,-243.40041)"
         id="path2-1" /></clipPath></defs><sodipodi:namedview
     id="namedview6"
     pagecolor="#505050"
     bordercolor="#eeeeee"
     borderopacity="1"
     inkscape:showpageshadow="0"
     inkscape:pageopacity="0"
     inkscape:pagecheckerboard="0"
     inkscape:deskcolor="#505050"
     inkscape:zoom="6.49"
     inkscape:cx="59.861325"
     inkscape:cy="23.959938"
     inkscape:window-width="1600"
     inkscape:window-height="829"
     inkscape:window-x="-8"
     inkscape:window-y="-8"
     inkscape:window-maximized="1"
     inkscape:current-layer="svg6" /><clipPath
     id="a"><path
       d="m0 9h120v29.088h-120z"
       id="path1" /></clipPath><g
     style="fill:none"
     id="g7"
     transform="translate(-3.9976523,-1.9407993)"
     inkscape:label="g7"><g
       id="layer-MC0"
       inkscape:label="Capa 1"
       transform="matrix(0.1216911,0,0,0.11309814,7.9428812,6.5510142)"><path
         id="path1-5"
         d="M 0,0 V 2.3 5.399 20.1 23.2 l 2.4,5 12,9.5 c 1.6,1.3 4,0.199 4,-1.9 V -9.801 C 18.4,-11.9 15.9,-13 14.3,-11.7 Z"
         style="fill:#00ac47;fill-opacity:1;fill-rule:nonzero;stroke:none"
         transform="matrix(2.8012742,0,0,-3.0790487,141.28294,205.76921)"
         clip-path="url(#clipPath2-2-1)" /><path
         id="path3-6"
         d="M 0,0 -19.4,-19.4 H 0 Z"
         style="fill:#ea4335;fill-opacity:1;fill-rule:nonzero;stroke:none"
         transform="matrix(2.8012742,0,0,-3.0790487,29.792777,68.136648)"
         clip-path="url(#clipPath4-3)" /><path
         id="path5-5"
         d="M 43.2,268.6 H 23.8 v -25.3 h 19.4 z"
         style="fill:#2684fc;fill-opacity:1;fill-rule:nonzero;stroke:none"
         transform="matrix(2.8012742,0,0,-3.0790487,-91.222844,955.21086)"
         clip-path="url(#clipPath6-2)" /><path
         id="path7-1"
         d="m 0,0 v -13 c 0,-3.601 2.9,-6.5 6.5,-6.5 h 13 V -0.101 H 0 Z"
         style="fill:#0066da;fill-opacity:1;fill-rule:nonzero;stroke:none"
         transform="matrix(2.8012742,0,0,-3.0790487,-24.553065,205.76921)"
         clip-path="url(#clipPath8-3)" /><path
         id="path9-7"
         d="M 0,0 C 0,3.5 -2.9,6.4 -6.3,6.4 H -19 -42.3 V -13 h 23.8 V -25.7 L 0,-25.1 Z"
         style="fill:#ffba00;fill-opacity:1;fill-rule:nonzero;stroke:none"
         transform="matrix(2.8012742,0,0,-3.0790487,148.28611,87.842247)"
         clip-path="url(#clipPath10-5)" /><path
         id="path11"
         d="m 0,0 h -23.8 v -19.4 h 23.2 12.7 c 3.5,0 6.3,2.9 6.3,6.4 V 12.6 H 0 Z"
         style="fill:#00ac47;fill-opacity:1;fill-rule:nonzero;stroke:none"
         transform="matrix(2.8012742,0,0,-3.0790487,96.462537,205.76921)"
         clip-path="url(#clipPath12-7)" /><path
         id="path13"
         d="m 0,0 v -30.1 l -18.5,14.6 z"
         style="fill:#00832d;fill-opacity:1;fill-rule:nonzero;stroke:none"
         transform="matrix(2.8012742,0,0,-3.0790487,148.28611,119.24918)"
         clip-path="url(#clipPath14-9)" /><path
         id="path15"
         d="M 0,0 H -5.699 V 44.5 H 0 L 15.5,17.4 h 0.2 l 15.5,27.1 h 5.7 V 0 h -5.7 v 26.4 l 0.2,7.5 H 31.2 L 17.301,9.5 H 13.9 L 0,33.9 H -0.199 L 0,26.4 Z"
         style="fill:#94a3b8;fill-opacity:1;fill-rule:nonzero;stroke:none"
         transform="matrix(1.9880208,0,0,-1.9456173,672.44311,213.72792)"
         clip-path="url(#clipPath16-1)" /><path
         id="path17"
         d="m 0,0 h 17.4 c -0.2,2.1 -1,3.899 -2.599,5.2 -1.5,1.4 -3.601,2.1 -6.2,2.1 C 6.4,7.3 4.601,6.6 3,5.3 1.5,4 0.5,2.199 0,0 m 9.101,-19.9 c -4.5,0 -8.201,1.5 -11.101,4.599 -2.899,3.101 -4.399,6.901 -4.399,11.601 0,4.599 1.399,8.5 4.2,11.599 2.8,3.101 6.399,4.701 10.8,4.701 4.5,0 8.099,-1.5 10.799,-4.4 2.701,-2.9 4,-7.001 4,-12.301 L 23.301,-4.7 H -0.6 c 0.1,-3 1.1,-5.401 3,-7.2 1.901,-1.8 4.201,-2.701 6.8,-2.701 3.601,0 6.5,1.8 8.601,5.5 l 5.099,-2.5 c -1.4,-2.599 -3.299,-4.599 -5.7,-6 -2.3,-1.599 -5,-2.299 -8.099,-2.299"
         style="fill:#94a3b8;fill-opacity:1;fill-rule:nonzero;stroke:none"
         transform="matrix(1.9880208,0,0,-1.9456173,770.85015,176.95499)"
         clip-path="url(#clipPath18-7)" /><path
         id="path19"
         d="M 0,0 H 17.5 C 17.3,2.1 16.5,3.899 14.899,5.2 13.399,6.6 11.3,7.3 8.7,7.3 6.5,7.3 4.7,6.6 3.1,5.3 1.5,4 0.5,2.199 0,0 m 9.1,-19.9 c -4.5,0 -8.201,1.5 -11.1,4.599 C -4.9,-12.2 -6.4,-8.4 -6.4,-3.7 -6.4,0.899 -5,4.8 -2.2,7.899 0.6,11 4.2,12.6 8.6,12.6 c 4.5,0 8.1,-1.5 10.799,-4.4 2.701,-2.9 4,-7.001 4,-12.301 L 23.3,-4.7 H -0.601 c 0.101,-3 1.101,-5.401 3,-7.2 1.901,-1.8 4.201,-2.701 6.801,-2.701 3.6,0 6.5,1.8 8.6,5.5 l 5.099,-2.5 C 21.5,-14.2 19.6,-16.2 17.2,-17.601 15,-19.2 12.2,-19.9 9.1,-19.9"
         style="fill:#94a3b8;fill-opacity:1;fill-rule:nonzero;stroke:none"
         transform="matrix(1.9880208,0,0,-1.9456173,837.64887,176.95499)"
         clip-path="url(#clipPath20-8)" /><path
         id="path21"
         d="M 0,0 C -2.5,0 -4.601,0.8 -6.2,2.3 -7.8,3.8 -8.601,6 -8.7,8.7 v 17 H -14 V 31 h 5.3 v 9.3 H -3 V 31 H 4.5 V 25.8 H -3 V 10.6 c 0,-2 0.399,-3.4 1.2,-4.2 0.8,-0.7 1.699,-1.1 2.699,-1.1 0.5,0 0.901,0 1.301,0.1 0.5,0.1 0.9,0.3 1.199,0.4 L 5.2,0.7 C 3.7,0.3 1.899,0 0,0"
         style="fill:#94a3b8;fill-opacity:1;fill-rule:nonzero;stroke:none"
         transform="matrix(1.9880208,0,0,-1.9456173,917.16965,214.70072)"
         clip-path="url(#clipPath22-1)" /><path
         id="path23"
         d="M 0,0 V 6.8 H 22.8 C 23,5.6 23.2,4.2 23.2,2.601 23.2,-2.5 21.8,-8.8 17.3,-13.3 c -4.4,-4.599 -10,-7 -17.4,-7 -13.7,0 -25.2,11.2 -25.2,24.9 0,13.7 11.5,24.9 25.2,24.9 7.6,0 13,-3 17,-6.9 l -4.8,-4.8 c -2.9,2.7 -6.9,4.9 -12.3,4.9 -10,0 -17.8,-8.1 -17.8,-18.1 0,-9.999 7.8,-18.1 17.8,-18.1 6.5,0 10.2,2.601 12.6,5 1.9,1.9 3.2,4.7 3.7,8.5 z"
         style="fill:#94a3b8;fill-opacity:1;fill-rule:nonzero;stroke:none"
         transform="matrix(1.9880208,0,0,-1.9456173,286.17107,177.15072)"
         clip-path="url(#clipPath24-2)" /><path
         id="path25"
         d="m 0,0 c 0,5.801 -4.2,9.7 -9,9.7 -4.9,0 -9,-3.899 -9,-9.7 0,-5.699 4.2,-9.699 9,-9.699 4.8,0 9,4 9,9.699 m 7.1,0 c 0,-9.199 -7.2,-16 -16.1,-16 -8.9,0 -16.1,6.801 -16.1,16 0,9.3 7.2,16 16.1,16 C -0.2,16 7.1,9.3 7.1,0"
         style="fill:#94a3b8;fill-opacity:1;fill-rule:nonzero;stroke:none"
         transform="matrix(1.9880208,0,0,-1.9456173,386.96414,185.32268)"
         clip-path="url(#clipPath26-2)" /><path
         id="path27"
         d="m 0,0 c 0,5.801 -4.2,9.7 -9,9.7 -4.9,0 -9,-3.899 -9,-9.7 0,-5.699 4.2,-9.699 9,-9.699 4.8,0 9,4 9,9.699 m 7,0 c 0,-9.199 -7.2,-16 -16.1,-16 -8.9,0 -16.1,6.801 -16.1,16 0,9.3 7.2,16 16.1,16 C -0.2,16 7,9.3 7,0"
         style="fill:#94a3b8;fill-opacity:1;fill-rule:nonzero;stroke:none"
         transform="matrix(1.9880208,0,0,-1.9456173,456.74384,185.32268)"
         clip-path="url(#clipPath28-1)" /><path
         id="path29"
         d="m 0,0 c 0,5.601 -3.8,9.8 -8.6,9.8 -4.9,0 -8.9,-4.1 -8.9,-9.8 0,-5.6 4.101,-9.699 8.9,-9.699 C -3.8,-9.699 0,-5.6 0,0 m 6.2,15.101 v -28.8 c 0,-11.801 -7,-16.7 -15.2,-16.7 -7.8,0 -12.399,5.2 -14.199,9.5 l 6.099,2.5 C -16,-21 -13.3,-24.1 -9,-24.1 c 5.301,0 8.601,3.3 8.601,9.401 v 2.3 H -0.6 C -2.199,-14.3 -5.199,-16 -9,-16 c -8,0 -15.399,7 -15.399,16 0,9 7.299,16.101 15.399,16.101 3.801,0 6.9,-1.701 8.4,-3.601 h 0.201 v 2.601 z"
         style="fill:#94a3b8;fill-opacity:1;fill-rule:nonzero;stroke:none"
         transform="matrix(1.9880208,0,0,-1.9456173,525.32959,185.32268)"
         clip-path="url(#clipPath30-7)" /><path
         id="path31"
         d="m 302.2,232.1 h -7 V 279 h 7 z"
         style="fill:#94a3b8;fill-opacity:1;fill-rule:nonzero;stroke:none"
         transform="matrix(1.9880208,0,0,-1.9456173,-39.466356,666.08399)"
         clip-path="url(#clipPath32-5)" /><path
         id="path33"
         d="M 0,0 14.3,5.9 C 13.5,7.9 11.1,9.3 8.4,9.3 4.8,9.4 -0.1,6.2 0,0 m 16.9,-5.8 5.5,-3.599 C 20.6,-12 16.4,-16.5 9.1,-16.5 c -9.1,0 -15.9,7 -15.9,16 0,9.5 6.9,16 15.1,16 8.3,0 12.4,-6.6 13.7,-10.199 L 22.7,3.5 1.3,-5.399 C 2.9,-8.6 5.5,-10.3 9.1,-10.3 c 3.4,0.101 5.9,1.901 7.8,4.5"
         style="fill:#94a3b8;fill-opacity:1;fill-rule:nonzero;stroke:none"
         transform="matrix(1.9880208,0,0,-1.9456173,581.79017,184.34988)"
         clip-path="url(#clipPath34-1)" /></g></g></svg>
