<?xml version="1.0" encoding="UTF-8" standalone="no"?>
<svg
   fill="none"
   height="48"
   viewBox="0 0 120 48"
   width="120"
   version="1.1"
   id="svg6"
   sodipodi:docname="Grafana.svg"
   xml:space="preserve"
   inkscape:version="1.4 (86a8ad7, 2024-10-11)"
   xmlns:inkscape="http://www.inkscape.org/namespaces/inkscape"
   xmlns:sodipodi="http://sodipodi.sourceforge.net/DTD/sodipodi-0.dtd"
   xmlns:xlink="http://www.w3.org/1999/xlink"
   xmlns="http://www.w3.org/2000/svg"
   xmlns:svg="http://www.w3.org/2000/svg"><defs
     id="defs6"><clipPath
       clipPathUnits="userSpaceOnUse"
       id="clipPath2"><path
         d="M 0,1536 H 2048 V 0 H 0 Z"
         transform="translate(-575.83621,-847.97922)"
         id="path2-0" /></clipPath><clipPath
       clipPathUnits="userSpaceOnUse"
       id="clipPath4"><path
         d="M 0,1536 H 2048 V 0 H 0 Z"
         transform="translate(-291.4852,-743.55954)"
         id="path4-9" /></clipPath><clipPath
       clipPathUnits="userSpaceOnUse"
       id="clipPath6"><path
         d="M 0,1536 H 2048 V 0 H 0 Z"
         transform="translate(-326.35021,-833.43752)"
         id="path6-4" /></clipPath><clipPath
       clipPathUnits="userSpaceOnUse"
       id="clipPath2-4"><path
         d="M 0,2500 H 1535 V 0 H 0 Z"
         transform="translate(-1435.5166,-1463.4269)"
         id="path2" /></clipPath><clipPath
       clipPathUnits="userSpaceOnUse"
       id="clipPath4-5"><path
         d="M 0,2500 H 1535 V 0 H 0 Z"
         transform="translate(-123.61431,-1293.839)"
         id="path4" /></clipPath><clipPath
       clipPathUnits="userSpaceOnUse"
       id="clipPath6-5"><path
         d="M 0,2500 H 1535 V 0 H 0 Z"
         transform="translate(-277.54251,-962.21735)"
         id="path6" /></clipPath><clipPath
       clipPathUnits="userSpaceOnUse"
       id="clipPath8"><path
         d="M 0,2500 H 1535 V 0 H 0 Z"
         transform="translate(-1047.7266,-1459.6495)"
         id="path8" /></clipPath><clipPath
       clipPathUnits="userSpaceOnUse"
       id="clipPath10"><path
         d="M 0,2500 H 1535 V 0 H 0 Z"
         transform="translate(-961.3105,-1018.3864)"
         id="path10" /></clipPath><clipPath
       clipPathUnits="userSpaceOnUse"
       id="clipPath12"><path
         d="M 0,2500 H 1535 V 0 H 0 Z"
         transform="translate(-356.39791,-1908.4733)"
         id="path12" /></clipPath><clipPath
       clipPathUnits="userSpaceOnUse"
       id="clipPath14"><path
         d="M 0,2500 H 1535 V 0 H 0 Z"
         transform="translate(-384.48491,-1926.2941)"
         id="path14" /></clipPath><clipPath
       clipPathUnits="userSpaceOnUse"
       id="clipPath16"><path
         d="M 0,2500 H 1535 V 0 H 0 Z"
         transform="translate(-1129.2765,-2207.1466)"
         id="path16" /></clipPath><clipPath
       clipPathUnits="userSpaceOnUse"
       id="clipPath18"><path
         d="M 0,2500 H 1535 V 0 H 0 Z"
         transform="translate(-805.76072,-2115.8697)"
         id="path18" /></clipPath><clipPath
       clipPathUnits="userSpaceOnUse"
       id="clipPath20"><path
         d="M 0,2500 H 1535 V 0 H 0 Z"
         transform="translate(-591.34231,-990.30432)"
         id="path20" /></clipPath><clipPath
       clipPathUnits="userSpaceOnUse"
       id="clipPath22"><path
         d="M 0,2500 H 1535 V 0 H 0 Z"
         transform="translate(-983.998,-1015.6861)"
         id="path22" /></clipPath><clipPath
       clipPathUnits="userSpaceOnUse"
       id="clipPath24"><path
         d="M 0,2500 H 1535 V 0 H 0 Z"
         transform="translate(-1009.38,-1015.6861)"
         id="path24" /></clipPath><clipPath
       clipPathUnits="userSpaceOnUse"
       id="clipPath26"><path
         d="M 0,2500 H 1535 V 0 H 0 Z"
         transform="translate(-1075.8087,-1480.1701)"
         id="path26" /></clipPath><clipPath
       clipPathUnits="userSpaceOnUse"
       id="clipPath28"><path
         d="M 0,2500 H 1535 V 0 H 0 Z"
         transform="translate(-679.91942,-513.39409)"
         id="path28" /></clipPath><clipPath
       clipPathUnits="userSpaceOnUse"
       id="clipPath30"><path
         d="M 0,2500 H 1535 V 0 H 0 Z"
         transform="translate(-951.04495,-1018.3864)"
         id="path30" /></clipPath><clipPath
       clipPathUnits="userSpaceOnUse"
       id="clipPath32"><path
         d="M 0,2500 H 1535 V 0 H 0 Z"
         transform="translate(-1105.5177,-803.96735)"
         id="path32" /></clipPath><clipPath
       clipPathUnits="userSpaceOnUse"
       id="clipPath34"><path
         d="M 0,2500 H 1535 V 0 H 0 Z"
         transform="translate(-1103.8956,-855.275)"
         id="path34" /></clipPath><clipPath
       clipPathUnits="userSpaceOnUse"
       id="clipPath36"><path
         d="M 0,2500 H 1535 V 0 H 0 Z"
         transform="translate(-1003.4355,-1036.2125)"
         id="path36" /></clipPath><clipPath
       clipPathUnits="userSpaceOnUse"
       id="clipPath38"><path
         d="M 0,2500 H 1535 V 0 H 0 Z"
         transform="translate(-1014.7794,-1084.8199)"
         id="path38" /></clipPath><clipPath
       clipPathUnits="userSpaceOnUse"
       id="clipPath40"><path
         d="M 0,2500 H 1535 V 0 H 0 Z"
         transform="translate(-702.60162,-1421.302)"
         id="path40" /></clipPath><clipPath
       clipPathUnits="userSpaceOnUse"
       id="clipPath42"><path
         d="M 0,2500 H 1535 V 0 H 0 Z"
         transform="translate(-588.64261,-1413.7414)"
         id="path42" /></clipPath><clipPath
       clipPathUnits="userSpaceOnUse"
       id="clipPath44"><path
         d="M 0,2500 H 1535 V 0 H 0 Z"
         transform="translate(-1105.5177,-1290.0559)"
         id="path44" /></clipPath><clipPath
       clipPathUnits="userSpaceOnUse"
       id="clipPath46"><path
         d="M 0,2500 H 1535 V 0 H 0 Z"
         transform="translate(-1105.5177,-1290.0559)"
         id="path46" /></clipPath><clipPath
       clipPathUnits="userSpaceOnUse"
       id="clipPath48"><path
         d="M 0,2500 H 1535 V 0 H 0 Z"
         transform="translate(-898.66022,-1360.8116)"
         id="path48" /></clipPath><clipPath
       clipPathUnits="userSpaceOnUse"
       id="clipPath50"><path
         d="M 0,2500 H 1535 V 0 H 0 Z"
         transform="translate(-898.66022,-1360.8116)"
         id="path50" /></clipPath><clipPath
       clipPathUnits="userSpaceOnUse"
       id="clipPath52"><path
         d="M 0,2500 H 1535 V 0 H 0 Z"
         transform="translate(-922.9639,-1313.821)"
         id="path52" /></clipPath><clipPath
       clipPathUnits="userSpaceOnUse"
       id="clipPath54"><path
         d="M 0,2500 H 1535 V 0 H 0 Z"
         transform="translate(-922.9639,-1313.821)"
         id="path54" /></clipPath><clipPath
       clipPathUnits="userSpaceOnUse"
       id="clipPath56"><path
         d="M 0,2500 H 1535 V 0 H 0 Z"
         transform="translate(-738.24902,-1212.2839)"
         id="path56" /></clipPath><clipPath
       clipPathUnits="userSpaceOnUse"
       id="clipPath58"><path
         d="M 0,2500 H 1535 V 0 H 0 Z"
         transform="translate(-828.98635,-1654.6246)"
         id="path58" /></clipPath><clipPath
       clipPathUnits="userSpaceOnUse"
       id="clipPath60"><path
         d="M 0,2500 H 1535 V 0 H 0 Z"
         transform="translate(-1128.1992,-1238.2096)"
         id="path60" /></clipPath><clipPath
       clipPathUnits="userSpaceOnUse"
       id="clipPath62"><path
         d="M 0,2500 H 1535 V 0 H 0 Z"
         transform="translate(-1346.4004,-906.04355)"
         id="path62" /></clipPath><clipPath
       clipPathUnits="userSpaceOnUse"
       id="clipPath64"><path
         d="M 0,2500 H 1535 V 0 H 0 Z"
         transform="translate(-1060.1484,-760.22134)"
         id="path64" /></clipPath><clipPath
       clipPathUnits="userSpaceOnUse"
       id="clipPath66"><path
         d="M 0,2500 H 1535 V 0 H 0 Z"
         transform="translate(-1001.8194,-1429.9406)"
         id="path66" /></clipPath><clipPath
       clipPathUnits="userSpaceOnUse"
       id="clipPath68"><path
         d="M 0,2500 H 1535 V 0 H 0 Z"
         transform="translate(-784.69532,-1147.4713)"
         id="path68" /></clipPath><clipPath
       clipPathUnits="userSpaceOnUse"
       id="clipPath70"><path
         d="M 0,2500 H 1535 V 0 H 0 Z"
         transform="translate(-1181.1289,-1064.2936)"
         id="path70" /></clipPath><clipPath
       clipPathUnits="userSpaceOnUse"
       id="clipPath72"><path
         d="M 0,2500 H 1535 V 0 H 0 Z"
         transform="translate(-767.95802,-1677.8507)"
         id="path72" /></clipPath><clipPath
       clipPathUnits="userSpaceOnUse"
       id="clipPath74"><path
         d="M 0,2500 H 1535 V 0 H 0 Z"
         transform="translate(-1005.5967,-1173.9362)"
         id="path74" /></clipPath><clipPath
       clipPathUnits="userSpaceOnUse"
       id="clipPath76"><path
         d="M 0,2500 H 1535 V 0 H 0 Z"
         transform="translate(-1379.8818,-115.88343)"
         id="path76" /></clipPath><style
       id="style1-2">
      .cls-1 {
        fill: #1d63ed;
        stroke-width: 0px;
      }
    </style><rect
       id="SVGID_1_"
       x="34.7"
       y="69.1"
       width="206.3"
       height="47.9" /><clipPath
       id="SVGID_2_">
		<use
   xlink:href="#SVGID_1_"
   style="overflow:visible"
   id="use1" />
	</clipPath><linearGradient
       id="SVGID_3_"
       gradientUnits="userSpaceOnUse"
       x1="56.787701"
       y1="60.380699"
       x2="56.787701"
       y2="104.1627"
       gradientTransform="matrix(1.1100529,0,0,-0.99461975,-3.6897373,187.64744)">
			<stop
   offset="0"
   style="stop-color:#FFF100"
   id="stop7" />
			<stop
   offset="1"
   style="stop-color:#F05A28"
   id="stop8" />
		</linearGradient><rect
       id="rect8"
       x="34.700001"
       y="69.099998"
       width="206.3"
       height="47.900002" /></defs><sodipodi:namedview
     id="namedview6"
     pagecolor="#505050"
     bordercolor="#eeeeee"
     borderopacity="1"
     inkscape:showpageshadow="0"
     inkscape:pageopacity="0"
     inkscape:pagecheckerboard="0"
     inkscape:deskcolor="#505050"
     inkscape:zoom="7.63"
     inkscape:cx="89.580603"
     inkscape:cy="26.015727"
     inkscape:window-width="1600"
     inkscape:window-height="829"
     inkscape:window-x="-8"
     inkscape:window-y="-8"
     inkscape:window-maximized="1"
     inkscape:current-layer="layer-MC0"><inkscape:page
       x="0"
       y="0"
       width="120"
       height="48"
       id="page6"
       margin="0"
       bleed="0" /><inkscape:page
       x="130"
       y="0"
       width="2730.6667"
       height="2048"
       id="page7"
       margin="855.45734 253.16 855.45734 253.15866"
       bleed="0" /><inkscape:page
       x="2870.6667"
       y="0"
       width="2046.6667"
       height="3333.3333"
       id="page8"
       margin="153.78534 100.24 155.69333 100.72747"
       bleed="0" /></sodipodi:namedview><clipPath
     id="a"><path
       d="m0 11h120v25.632h-120z"
       id="path1" /></clipPath><g
     id="layer-MC0"
     inkscape:groupmode="layer"
     inkscape:label="katman 1"
     transform="matrix(0.00927975,0,0,0.00802468,3.7077293,16.966962)"><g
       id="g9"
       transform="matrix(57.388658,0,0,73.065786,-2133.6415,-5805.3911)">
	<defs
   id="defs2">
		<rect
   id="rect9"
   x="34.700001"
   y="69.099998"
   width="206.3"
   height="47.900002" />
	</defs>
	<clipPath
   id="clipPath2-8">
		<use
   xlink:href="#SVGID_1_"
   style="overflow:visible"
   id="use2" />
	</clipPath>
	<g
   class="st0"
   clip-path="url(#SVGID_2_)"
   id="g8"
   style="clip-rule:evenodd;fill:#ffffff;fill-rule:evenodd;stroke:#ffffff;stroke-width:5;stroke-miterlimit:10">
		<path
   class="st1"
   d="m 115.37983,91.570777 c -0.23345,6.177532 -5.36937,10.957763 -11.75036,10.957763 -6.770072,0 -11.750358,-5.147941 -11.750358,-11.399015 0,-6.251071 5.447188,-11.399012 12.061628,-11.399012 2.95704,0 5.91408,1.250214 8.40422,3.382932 l -1.94541,2.206261 c -1.86761,-1.544382 -4.20213,-2.57397 -6.45881,-2.57397 -4.82465,0 -8.793315,3.750642 -8.793315,8.383789 0,4.706693 3.735214,8.310254 8.559865,8.310254 4.27993,0 7.70388,-2.941691 8.32641,-6.765872 h -9.72711 v -2.721055 h 13.15106 z"
   id="path1-3"
   style="fill:#94a3b8;stroke-width:3.78247;fill-opacity:1" />
		<path
   class="st1"
   d="m 129.50789,90.099937 h -1.78979 c -1.94543,0 -3.57958,1.544381 -3.57958,3.382931 v 8.825042 h -3.19049 V 87.231798 h 2.64576 v 1.250214 c 0.856,-0.808962 2.2567,-1.250214 3.81304,-1.250214 h 3.50176 z"
   id="path2-4"
   style="fill:#94a3b8;stroke-width:3.78247;fill-opacity:1" />
		<path
   class="st1"
   d="m 151.15771,102.09855 h -2.7236 v -1.9121 c -2.10105,1.9121 -5.44718,2.86814 -8.79331,1.47084 -2.49014,-1.02959 -4.35775,-3.162311 -4.82465,-5.736282 -0.93381,-4.927319 3.03486,-9.266298 8.09296,-9.266298 2.17888,0 4.04648,0.808963 5.44719,2.132719 v -1.838551 h 2.72359 z m -3.26832,-6.545252 c 0.77817,-3.088768 -1.71197,-5.883366 -4.90246,-5.883366 -2.80141,0 -5.0581,2.13272 -5.0581,4.780236 0,2.941681 2.72359,5.221491 5.91409,4.706691 1.94542,-0.29416 3.57957,-1.76501 4.04647,-3.603561 z"
   id="path3"
   style="fill:#94a3b8;stroke-width:3.78247;fill-opacity:1" />
		<path
   class="st1"
   d="m 161.57166,86.254987 v 0.882505 h 5.13592 v 2.647512 h -5.13592 v 12.502156 h -3.19049 V 86.32853 c 0,-3.309391 2.56796,-5.295026 5.68064,-5.295026 h 3.81303 l -1.32288,2.868139 h -2.41233 c -1.40071,0 -2.56797,1.029588 -2.56797,2.353344 z"
   id="path4-1"
   style="fill:#94a3b8;stroke-width:3.78247;fill-opacity:1" />
		<path
   class="st1"
   d="m 188.39589,101.81561 h -2.72359 v -1.912091 c -2.10106,1.912091 -5.4472,2.868151 -8.79332,1.470851 -2.49014,-1.02959 -4.35775,-3.162311 -4.82466,-5.736282 -0.9338,-4.927318 3.03487,-9.266297 8.09297,-9.266297 2.17888,0 4.04649,0.808962 5.44718,2.132718 v -1.838551 h 2.7236 z m -3.26832,-6.545232 c 0.77818,-3.088768 -1.71197,-5.883365 -4.90247,-5.883365 -2.8014,0 -5.05809,2.132718 -5.05809,4.780235 0,2.941681 2.72359,5.221491 5.91408,4.706691 1.94543,-0.29417 3.57959,-1.76501 4.04648,-3.603561 z"
   id="path5"
   style="fill:#94a3b8;stroke-width:3.78247;fill-opacity:1" />
		<path
   class="st1"
   d="m 212.26687,93.027863 v 8.972127 h -3.1905 v -8.972127 c 0,-1.912092 -1.63415,-3.382932 -3.57958,-3.382932 -2.02324,0 -3.6574,1.544382 -3.6574,3.382932 v 8.972127 H 198.6489 V 86.850334 h 2.64578 v 1.323757 c 1.16725,-0.956047 2.72359,-1.544383 4.27992,-1.544383 3.73523,-0.07354 6.69227,2.794597 6.69227,6.398155 z"
   id="path6-1"
   style="fill:#94a3b8;stroke-width:3.78247;fill-opacity:1" />
		<path
   class="st1"
   d="m 236.00229,101.55551 h -2.72359 v -1.912091 c -2.10107,1.912091 -5.44719,2.868131 -8.79332,1.470831 -2.49014,-1.02959 -4.35775,-3.162301 -4.82466,-5.736282 -0.9338,-4.927319 3.03487,-9.266298 8.09297,-9.266298 2.17887,0 4.04649,0.808962 5.44718,2.132719 v -1.83855 h 2.72361 z m -3.34613,-6.545252 c 0.77816,-3.088769 -1.71198,-5.883365 -4.90247,-5.883365 -2.80141,0 -5.0581,2.132718 -5.0581,4.780235 0,2.941691 2.72359,5.221491 5.91409,4.706701 2.02324,-0.29417 3.6574,-1.76501 4.04648,-3.603571 z"
   id="path7"
   style="fill:#94a3b8;stroke-width:3.78247;fill-opacity:1" />
		
			<linearGradient
   id="linearGradient3"
   gradientUnits="userSpaceOnUse"
   x1="56.787701"
   y1="60.380699"
   x2="56.787701"
   y2="104.1627"
   gradientTransform="matrix(1,0,0,-1,0,188.16)">
			<stop
   offset="0"
   style="stop-color:#FFF100"
   id="stop2" />
			<stop
   offset="1"
   style="stop-color:#F05A28"
   id="stop3" />
		</linearGradient>
		<path
   class="st2"
   d="m 83.782431,90.214489 c -0.111006,-0.795695 -0.222011,-1.690853 -0.555027,-2.784935 -0.333016,-0.99462 -0.777037,-2.088701 -1.332063,-3.282245 -0.666032,-1.193544 -1.443069,-2.387087 -2.553122,-3.481169 -0.444021,-0.49731 -0.888042,-0.895158 -1.443069,-1.392468 0.777037,-2.685473 -0.888042,-4.973098 -0.888042,-4.973098 -2.886138,-0.198924 -4.662222,0.795695 -5.328254,1.193543 -0.111005,0 -0.22201,-0.09946 -0.333016,-0.09946 -0.444021,-0.198924 -0.999047,-0.298386 -1.554074,-0.49731 -0.555026,-0.09946 -0.999047,-0.298386 -1.554074,-0.397848 -0.555026,-0.09946 -1.110053,-0.198923 -1.665079,-0.298385 -0.111005,0 -0.222011,0 -0.333016,0 -1.221058,-3.580632 -4.884233,-5.072561 -4.884233,-5.072561 -3.99619,2.287625 -4.773227,5.470408 -4.773227,5.470408 0,0 0,0.09946 0,0.198924 -0.222011,0.09946 -0.444021,0.09946 -0.666032,0.198924 -0.333016,0.09946 -0.555026,0.198924 -0.888042,0.298386 -0.333016,0.09946 -0.555027,0.198924 -0.888043,0.298386 -0.555026,0.198924 -1.221058,0.49731 -1.776084,0.795696 -0.555027,0.298386 -1.110053,0.596772 -1.66508,0.895158 -0.111005,0 -0.111005,-0.09946 -0.111005,-0.09946 -5.550264,-1.889778 -10.434497,0.397848 -10.434497,0.397848 -0.444021,5.271484 2.220106,8.55373 2.775132,9.249963 -0.111005,0.298386 -0.22201,0.696234 -0.333016,0.99462 -0.444021,1.193544 -0.666031,2.387087 -0.888042,3.680093 0,0.198924 0,0.397848 -0.111005,0.596772 -5.106244,2.287625 -6.660318,6.862876 -6.660318,6.862876 4.218201,4.376323 9.213439,4.674713 9.213439,4.674713 0,0 0,0 0,0 0.666032,0.99462 1.332064,1.98924 2.220106,2.88439 0.333016,0.39785 0.666032,0.69624 1.110053,1.09409 -1.554074,3.97847 0.222011,7.26072 0.222011,7.26072 4.773227,0.19892 7.881375,-1.88978 8.547407,-2.28763 0.444021,0.0995 0.999047,0.29839 1.443069,0.39785 1.443068,0.29839 2.997142,0.49731 4.440211,0.59677 0.333016,0 0.777037,0 1.110053,0 h 0.222011 0.111005 0.222011 0.22201 v 0 c 2.220106,2.8844 6.216296,3.28225 6.216296,3.28225 2.775133,-2.68547 2.997143,-5.27149 2.997143,-5.86826 0,0 0,0 0,0 0,0 0,-0.0995 0,-0.0995 0,0 0,-0.0995 0,-0.0995 0.555027,-0.39785 1.110053,-0.7957 1.665079,-1.19355 1.110053,-0.89515 2.109101,-1.98923 2.886138,-3.08332 0.111005,-0.0995 0.111005,-0.19892 0.222011,-0.29838 3.219153,0.19892 5.439259,-1.79032 5.439259,-1.79032 -0.555027,-2.98386 -2.442117,-4.37633 -2.775132,-4.674707 0,0 0,0 0,0 0,0 0,0 0,0 0,0 0,0 -0.111006,0 0,-0.198924 0,-0.397848 0,-0.49731 0,-0.298386 0,-0.596772 0,-0.99462 v -0.298385 -0.09946 -0.09946 c 0,-0.09946 0,-0.09946 0,-0.09946 v -0.198924 -0.298386 c 0,-0.09946 0,-0.198924 0,-0.298386 0,-0.09946 0,-0.198924 0,-0.198924 V 96.480594 96.28167 c 0,-0.298386 -0.111005,-0.596772 -0.22201,-0.99462 -0.333016,-1.293005 -0.888043,-2.486549 -1.66508,-3.580631 -0.777037,-1.094082 -1.665079,-2.088701 -2.664127,-2.884397 -0.999047,-0.795696 -2.220105,-1.49193 -3.441164,-1.98924 -1.221058,-0.49731 -2.442116,-0.795695 -3.774179,-0.895157 -0.666032,-0.09946 -1.221059,-0.09946 -1.88709,-0.09946 h -0.222011 -0.111005 c 0,0 -0.111005,0 -0.111005,0 H 66.3546 66.13259 c -0.111006,0 -0.222011,0 -0.222011,0 -0.333016,0 -0.666032,0.09946 -0.999048,0.09946 -1.221058,0.198924 -2.442116,0.596771 -3.441164,1.193543 -0.999047,0.596772 -1.998095,1.293006 -2.664126,2.088702 -0.777037,0.795696 -1.332064,1.690853 -1.66508,2.586011 -0.444021,0.895158 -0.666032,1.889778 -0.666032,2.784935 0,0.198924 0,0.49731 0,0.696234 0,0.09946 0,0.09946 0,0.198924 v 0.198924 c 0,0.09946 0,0.198924 0,0.298386 0,0.49731 0.111006,0.895158 0.333016,1.293006 0.222011,0.895157 0.666032,1.591391 1.221059,2.287625 0.555026,0.696235 1.221058,1.193545 1.887089,1.591395 0.666032,0.39784 1.443069,0.69623 2.109101,0.89515 0.777037,0.19893 1.443069,0.29839 2.1091,0.29839 0.111006,0 0.222011,0 0.222011,0 0,0 0.111005,0 0.111005,0 0,0 0.111006,0 0.111006,0 0.111005,0 0.111005,0 0.22201,0 0,0 0,0 0.111005,0 h 0.111006 c 0,0 0.111005,0 0.111005,0 0.111005,0 0.111005,0 0.222011,0 0.111005,0 0.111005,0 0.22201,0 0.111005,0 0.333016,-0.0995 0.444021,-0.0995 0.333016,-0.0995 0.555027,-0.19893 0.888043,-0.29839 0.22201,-0.0995 0.555026,-0.29838 0.777037,-0.39785 0.111005,0 0.111005,-0.0995 0.22201,-0.0995 0.222011,-0.19892 0.333016,-0.49731 0.111006,-0.69623 -0.111006,-0.19893 -0.444022,-0.19893 -0.666032,-0.0995 -0.111005,0 -0.111005,0.0995 -0.222011,0.0995 -0.22201,0.0995 -0.444021,0.19892 -0.666031,0.19892 -0.222011,0.0995 -0.444022,0.0995 -0.666032,0.19893 -0.111006,0 -0.222011,0 -0.333016,0 -0.111005,0 -0.111005,0 -0.222011,0 -0.111005,0 -0.111005,0 -0.22201,0 -0.111006,0 -0.111006,0 -0.222011,0 -0.111005,0 -0.111005,0 -0.22201,0 0,0 0,0 0,0 v 0 0 c 0,0 -0.111006,0 -0.111006,0 -0.111005,0 -0.111005,0 -0.22201,0 -0.555027,-0.0995 -1.110053,-0.19893 -1.554074,-0.39785 -0.555027,-0.19893 -0.999048,-0.49731 -1.443069,-0.895159 -0.444021,-0.397848 -0.888042,-0.795696 -1.110053,-1.293006 -0.333016,-0.497309 -0.555026,-1.094081 -0.666032,-1.591391 0,-0.298386 -0.111005,-0.596772 -0.111005,-0.895158 0,-0.09946 0,-0.198924 0,-0.198924 0,0 0,0 0,0 v 0 -0.09946 c 0,0 0,-0.09946 0,-0.09946 0,-0.198924 0,-0.298386 0.111005,-0.49731 0.222011,-1.293005 0.999048,-2.486549 1.998095,-3.381707 0.222011,-0.198924 0.555027,-0.49731 0.888043,-0.596772 0.333016,-0.198924 0.666032,-0.397848 0.999047,-0.49731 0.333016,-0.09946 0.666032,-0.298386 1.110053,-0.397848 0.333016,-0.09946 0.777037,-0.09946 1.110053,-0.198923 0.222011,0 0.444021,0 0.555027,0 0,0 0.111005,0 0.111005,0 h 0.111005 0.111006 c 0,0 0,0 0,0 v 0 h 0.111005 c 0.444021,0 0.888042,0.09946 1.221058,0.198923 0.777037,0.198924 1.665079,0.397848 2.331111,0.795696 1.443069,0.696234 2.775132,1.889778 3.552169,3.282245 0.444021,0.696234 0.666032,1.49193 0.777037,2.188164 0,0.198924 0.111006,0.397848 0.111006,0.596772 v 0.09946 0.09946 c 0,0.09946 0,0.09946 0,0.09946 0,0.09946 0,0.09946 0,0.09946 v 0.09946 0.09946 c 0,0.09946 0,0.298386 0,0.397847 0,0.198924 0,0.397848 -0.111006,0.596772 0,0.198924 -0.111005,0.397848 -0.111005,0.596772 0,0.198924 -0.111005,0.397848 -0.111005,0.596772 -0.111006,0.397845 -0.222011,0.795695 -0.444021,1.193545 -0.333016,0.79569 -0.777037,1.59139 -1.332064,2.28762 -1.110053,1.39247 -2.664127,2.48655 -4.440211,3.28225 -0.888043,0.39785 -1.776085,0.59677 -2.775133,0.79569 -0.444021,0.0995 -0.999047,0.0995 -1.443068,0.0995 h -0.111006 -0.111005 -0.111005 -0.222011 -0.111005 c 0.111005,0 0,0 0,0 v 0 c -0.222011,0 -0.555027,0 -0.777037,0 -0.999048,-0.0995 -1.998095,-0.19893 -2.997143,-0.49731 -0.999048,-0.29839 -1.88709,-0.59678 -2.886138,-0.99462 -1.776084,-0.89516 -3.441163,-2.08871 -4.662222,-3.48117 -0.666031,-0.69624 -1.221058,-1.49193 -1.665079,-2.28763 -0.444021,-0.795693 -0.777037,-1.690851 -1.110053,-2.486546 -0.22201,-0.895158 -0.444021,-1.790316 -0.444021,-2.685474 v -0.198924 0 0 -0.09946 -0.09946 0 -0.09946 -0.09946 -0.198924 0 c 0,0 0,0 0,0 v -0.09946 c 0,-0.09946 0,-0.198923 0,-0.298385 0,-0.397848 0.111005,-0.895158 0.111005,-1.392468 0.111006,-0.49731 0.111006,-0.895158 0.222011,-1.392468 0.111005,-0.49731 0.22201,-0.895158 0.333016,-1.293005 0.333016,-0.895158 0.666031,-1.690854 0.999047,-2.48655 0.777037,-1.591391 1.88709,-2.983859 3.219154,-4.177403 0.333016,-0.298386 0.666031,-0.596772 0.999047,-0.795696 0.333016,-0.298385 0.666032,-0.497309 1.110053,-0.696233 0.333016,-0.198924 0.777037,-0.397848 1.110053,-0.596772 0.222011,-0.09946 0.444021,-0.198924 0.555026,-0.298386 0.111006,0 0.222011,-0.09946 0.333016,-0.09946 0.111006,0 0.222011,-0.09946 0.333016,-0.09946 0.444021,-0.198924 0.888043,-0.298386 1.221058,-0.397848 0.111006,0 0.222011,-0.09946 0.333016,-0.09946 0.111006,0 0.222011,-0.09946 0.333016,-0.09946 0.222011,-0.09946 0.444021,-0.09946 0.666032,-0.09946 0.111005,0 0.22201,0 0.333016,-0.09946 0.111005,-0.09946 0.22201,0 0.333016,-0.09946 0.111005,0 0.22201,0 0.333015,-0.09946 h 0.111006 0.111005 c 0.111005,0 0.222011,0 0.333016,0 0.111005,0 0.222011,0 0.333016,0 0.111005,0 0.22201,0 0.333016,0 0.111005,0 0.111005,0 0.22201,0 h 0.111006 0.111005 0.111005 c 0.111005,0 0.222011,0 0.333016,0 h 0.222011 c 0,0 0.111005,0 0,0 v 0 h 0.111005 c 0.111005,0 0.22201,0 0.333016,0 0.444021,0 0.888042,0 1.332063,0 0.888043,0 1.66508,0.09946 2.553122,0.298386 1.665079,0.298386 3.108148,0.696234 4.551217,1.392468 1.332063,0.596772 2.664127,1.392467 3.663174,2.188163 0.111006,0.09946 0.111006,0.09946 0.222011,0.198924 0.111005,0.09946 0.111005,0.09946 0.22201,0.198924 0.111006,0.09946 0.222011,0.198924 0.333016,0.298386 0.111006,0.09946 0.222011,0.198924 0.333016,0.298386 0.111005,0.09946 0.222011,0.198924 0.333016,0.298386 0.444021,0.397848 0.888042,0.895158 1.221058,1.293006 0.777037,0.895157 1.332064,1.790315 1.88709,2.586011 0,0.09946 0.111005,0.09946 0.111005,0.198924 0,0.09946 0.111006,0.09946 0.111006,0.198924 0.111005,0.09946 0.111005,0.198924 0.111005,0.298386 0,0.09946 0.111005,0.198924 0.111005,0.298386 0,0.09946 0.111006,0.198924 0.111006,0.298386 0.22201,0.397847 0.333015,0.795695 0.444021,1.094081 0.22201,0.596772 0.444021,1.094082 0.555026,1.49193 0,0.198924 0.222011,0.298386 0.444021,0.298386 0.222011,0 0.333016,-0.198924 0.333016,-0.397848 0.555027,-1.094082 0.555027,-1.591392 0.555027,-2.287626 z"
   id="path8-3"
   style="fill:url(#SVGID_3_);stroke-width:5.25376" />
	</g>
</g></g><style
     type="text/css"
     id="style1">
	.st0{fill:#010202;}
</style><style
     type="text/css"
     id="style1-1">
	.st0{fill:url(#SVGID_1_);}
	.st1{fill:url(#SVGID_2_);}
	.st2{fill:#253858;}
</style><style
     type="text/css"
     id="style1-4">
	.st0{fill:#1A1918;}
	.st1{fill:#FFFFFF;}
</style><style
     type="text/css"
     id="style1-6">
	.st0{fill-rule:evenodd;clip-rule:evenodd;fill:#7B42BC;}
</style><style
     type="text/css"
     id="style1-9">
	.st0{fill:#F49819;}
</style><style
     type="text/css"
     id="style1-43">
	.st0{fill:#FFFFFF;stroke:#FFFFFF;stroke-width:5;stroke-miterlimit:10;}
	.st1{fill:#326DE6;}
	.st2{fill:#FFFFFF;}
	.st3{fill:#1D1D1B;}
</style><style
     type="text/css"
     id="style1-3">
	.st0{clip-path:url(#SVGID_2_);}
	.st1{fill:#0A0A0A;}
	.st2{fill:url(#SVGID_3_);}
</style></svg>
