<?xml version="1.0" encoding="UTF-8" standalone="no"?>
<svg
   fill="none"
   height="48"
   viewBox="0 0 120 48"
   width="120"
   version="1.1"
   id="svg6"
   sodipodi:docname="Jenkins.svg"
   xml:space="preserve"
   inkscape:version="1.4 (86a8ad7, 2024-10-11)"
   xmlns:inkscape="http://www.inkscape.org/namespaces/inkscape"
   xmlns:sodipodi="http://sodipodi.sourceforge.net/DTD/sodipodi-0.dtd"
   xmlns="http://www.w3.org/2000/svg"
   xmlns:svg="http://www.w3.org/2000/svg"><defs
     id="defs6"><clipPath
       clipPathUnits="userSpaceOnUse"
       id="clipPath2"><path
         d="M 0,1536 H 2048 V 0 H 0 Z"
         transform="translate(-575.83621,-847.97922)"
         id="path2-0" /></clipPath><clipPath
       clipPathUnits="userSpaceOnUse"
       id="clipPath4"><path
         d="M 0,1536 H 2048 V 0 H 0 Z"
         transform="translate(-291.4852,-743.55954)"
         id="path4-9" /></clipPath><clipPath
       clipPathUnits="userSpaceOnUse"
       id="clipPath6"><path
         d="M 0,1536 H 2048 V 0 H 0 Z"
         transform="translate(-326.35021,-833.43752)"
         id="path6-4" /></clipPath><clipPath
       clipPathUnits="userSpaceOnUse"
       id="clipPath2-4"><path
         d="M 0,2500 H 1535 V 0 H 0 Z"
         transform="translate(-1435.5166,-1463.4269)"
         id="path2" /></clipPath><clipPath
       clipPathUnits="userSpaceOnUse"
       id="clipPath4-5"><path
         d="M 0,2500 H 1535 V 0 H 0 Z"
         transform="translate(-123.61431,-1293.839)"
         id="path4" /></clipPath><clipPath
       clipPathUnits="userSpaceOnUse"
       id="clipPath6-5"><path
         d="M 0,2500 H 1535 V 0 H 0 Z"
         transform="translate(-277.54251,-962.21735)"
         id="path6" /></clipPath><clipPath
       clipPathUnits="userSpaceOnUse"
       id="clipPath8"><path
         d="M 0,2500 H 1535 V 0 H 0 Z"
         transform="translate(-1047.7266,-1459.6495)"
         id="path8" /></clipPath><clipPath
       clipPathUnits="userSpaceOnUse"
       id="clipPath10"><path
         d="M 0,2500 H 1535 V 0 H 0 Z"
         transform="translate(-961.3105,-1018.3864)"
         id="path10" /></clipPath><clipPath
       clipPathUnits="userSpaceOnUse"
       id="clipPath12"><path
         d="M 0,2500 H 1535 V 0 H 0 Z"
         transform="translate(-356.39791,-1908.4733)"
         id="path12" /></clipPath><clipPath
       clipPathUnits="userSpaceOnUse"
       id="clipPath14"><path
         d="M 0,2500 H 1535 V 0 H 0 Z"
         transform="translate(-384.48491,-1926.2941)"
         id="path14" /></clipPath><clipPath
       clipPathUnits="userSpaceOnUse"
       id="clipPath16"><path
         d="M 0,2500 H 1535 V 0 H 0 Z"
         transform="translate(-1129.2765,-2207.1466)"
         id="path16" /></clipPath><clipPath
       clipPathUnits="userSpaceOnUse"
       id="clipPath18"><path
         d="M 0,2500 H 1535 V 0 H 0 Z"
         transform="translate(-805.76072,-2115.8697)"
         id="path18" /></clipPath><clipPath
       clipPathUnits="userSpaceOnUse"
       id="clipPath20"><path
         d="M 0,2500 H 1535 V 0 H 0 Z"
         transform="translate(-591.34231,-990.30432)"
         id="path20" /></clipPath><clipPath
       clipPathUnits="userSpaceOnUse"
       id="clipPath22"><path
         d="M 0,2500 H 1535 V 0 H 0 Z"
         transform="translate(-983.998,-1015.6861)"
         id="path22" /></clipPath><clipPath
       clipPathUnits="userSpaceOnUse"
       id="clipPath24"><path
         d="M 0,2500 H 1535 V 0 H 0 Z"
         transform="translate(-1009.38,-1015.6861)"
         id="path24" /></clipPath><clipPath
       clipPathUnits="userSpaceOnUse"
       id="clipPath26"><path
         d="M 0,2500 H 1535 V 0 H 0 Z"
         transform="translate(-1075.8087,-1480.1701)"
         id="path26" /></clipPath><clipPath
       clipPathUnits="userSpaceOnUse"
       id="clipPath28"><path
         d="M 0,2500 H 1535 V 0 H 0 Z"
         transform="translate(-679.91942,-513.39409)"
         id="path28" /></clipPath><clipPath
       clipPathUnits="userSpaceOnUse"
       id="clipPath30"><path
         d="M 0,2500 H 1535 V 0 H 0 Z"
         transform="translate(-951.04495,-1018.3864)"
         id="path30" /></clipPath><clipPath
       clipPathUnits="userSpaceOnUse"
       id="clipPath32"><path
         d="M 0,2500 H 1535 V 0 H 0 Z"
         transform="translate(-1105.5177,-803.96735)"
         id="path32" /></clipPath><clipPath
       clipPathUnits="userSpaceOnUse"
       id="clipPath34"><path
         d="M 0,2500 H 1535 V 0 H 0 Z"
         transform="translate(-1103.8956,-855.275)"
         id="path34" /></clipPath><clipPath
       clipPathUnits="userSpaceOnUse"
       id="clipPath36"><path
         d="M 0,2500 H 1535 V 0 H 0 Z"
         transform="translate(-1003.4355,-1036.2125)"
         id="path36" /></clipPath><clipPath
       clipPathUnits="userSpaceOnUse"
       id="clipPath38"><path
         d="M 0,2500 H 1535 V 0 H 0 Z"
         transform="translate(-1014.7794,-1084.8199)"
         id="path38" /></clipPath><clipPath
       clipPathUnits="userSpaceOnUse"
       id="clipPath40"><path
         d="M 0,2500 H 1535 V 0 H 0 Z"
         transform="translate(-702.60162,-1421.302)"
         id="path40" /></clipPath><clipPath
       clipPathUnits="userSpaceOnUse"
       id="clipPath42"><path
         d="M 0,2500 H 1535 V 0 H 0 Z"
         transform="translate(-588.64261,-1413.7414)"
         id="path42" /></clipPath><clipPath
       clipPathUnits="userSpaceOnUse"
       id="clipPath44"><path
         d="M 0,2500 H 1535 V 0 H 0 Z"
         transform="translate(-1105.5177,-1290.0559)"
         id="path44" /></clipPath><clipPath
       clipPathUnits="userSpaceOnUse"
       id="clipPath46"><path
         d="M 0,2500 H 1535 V 0 H 0 Z"
         transform="translate(-1105.5177,-1290.0559)"
         id="path46" /></clipPath><clipPath
       clipPathUnits="userSpaceOnUse"
       id="clipPath48"><path
         d="M 0,2500 H 1535 V 0 H 0 Z"
         transform="translate(-898.66022,-1360.8116)"
         id="path48" /></clipPath><clipPath
       clipPathUnits="userSpaceOnUse"
       id="clipPath50"><path
         d="M 0,2500 H 1535 V 0 H 0 Z"
         transform="translate(-898.66022,-1360.8116)"
         id="path50" /></clipPath><clipPath
       clipPathUnits="userSpaceOnUse"
       id="clipPath52"><path
         d="M 0,2500 H 1535 V 0 H 0 Z"
         transform="translate(-922.9639,-1313.821)"
         id="path52" /></clipPath><clipPath
       clipPathUnits="userSpaceOnUse"
       id="clipPath54"><path
         d="M 0,2500 H 1535 V 0 H 0 Z"
         transform="translate(-922.9639,-1313.821)"
         id="path54" /></clipPath><clipPath
       clipPathUnits="userSpaceOnUse"
       id="clipPath56"><path
         d="M 0,2500 H 1535 V 0 H 0 Z"
         transform="translate(-738.24902,-1212.2839)"
         id="path56" /></clipPath><clipPath
       clipPathUnits="userSpaceOnUse"
       id="clipPath58"><path
         d="M 0,2500 H 1535 V 0 H 0 Z"
         transform="translate(-828.98635,-1654.6246)"
         id="path58" /></clipPath><clipPath
       clipPathUnits="userSpaceOnUse"
       id="clipPath60"><path
         d="M 0,2500 H 1535 V 0 H 0 Z"
         transform="translate(-1128.1992,-1238.2096)"
         id="path60" /></clipPath><clipPath
       clipPathUnits="userSpaceOnUse"
       id="clipPath62"><path
         d="M 0,2500 H 1535 V 0 H 0 Z"
         transform="translate(-1346.4004,-906.04355)"
         id="path62" /></clipPath><clipPath
       clipPathUnits="userSpaceOnUse"
       id="clipPath64"><path
         d="M 0,2500 H 1535 V 0 H 0 Z"
         transform="translate(-1060.1484,-760.22134)"
         id="path64" /></clipPath><clipPath
       clipPathUnits="userSpaceOnUse"
       id="clipPath66"><path
         d="M 0,2500 H 1535 V 0 H 0 Z"
         transform="translate(-1001.8194,-1429.9406)"
         id="path66" /></clipPath><clipPath
       clipPathUnits="userSpaceOnUse"
       id="clipPath68"><path
         d="M 0,2500 H 1535 V 0 H 0 Z"
         transform="translate(-784.69532,-1147.4713)"
         id="path68" /></clipPath><clipPath
       clipPathUnits="userSpaceOnUse"
       id="clipPath70"><path
         d="M 0,2500 H 1535 V 0 H 0 Z"
         transform="translate(-1181.1289,-1064.2936)"
         id="path70" /></clipPath><clipPath
       clipPathUnits="userSpaceOnUse"
       id="clipPath72"><path
         d="M 0,2500 H 1535 V 0 H 0 Z"
         transform="translate(-767.95802,-1677.8507)"
         id="path72" /></clipPath><clipPath
       clipPathUnits="userSpaceOnUse"
       id="clipPath74"><path
         d="M 0,2500 H 1535 V 0 H 0 Z"
         transform="translate(-1005.5967,-1173.9362)"
         id="path74" /></clipPath><clipPath
       clipPathUnits="userSpaceOnUse"
       id="clipPath76"><path
         d="M 0,2500 H 1535 V 0 H 0 Z"
         transform="translate(-1379.8818,-115.88343)"
         id="path76" /></clipPath></defs><sodipodi:namedview
     id="namedview6"
     pagecolor="#505050"
     bordercolor="#eeeeee"
     borderopacity="1"
     inkscape:showpageshadow="0"
     inkscape:pageopacity="0"
     inkscape:pagecheckerboard="0"
     inkscape:deskcolor="#505050"
     inkscape:zoom="7.28"
     inkscape:cx="73.008242"
     inkscape:cy="25.480769"
     inkscape:window-width="1600"
     inkscape:window-height="829"
     inkscape:window-x="-8"
     inkscape:window-y="-8"
     inkscape:window-maximized="1"
     inkscape:current-layer="layer-MC0"><inkscape:page
       x="0"
       y="0"
       width="120"
       height="48"
       id="page6"
       margin="0"
       bleed="0" /><inkscape:page
       x="130"
       y="0"
       width="2730.6667"
       height="2048"
       id="page7"
       margin="855.45734 253.16 855.45734 253.15866"
       bleed="0" /><inkscape:page
       x="2870.6667"
       y="0"
       width="2046.6667"
       height="3333.3333"
       id="page8"
       margin="153.78534 100.24 155.69333 100.72747"
       bleed="0" /></sodipodi:namedview><clipPath
     id="a"><path
       d="m0 11h120v25.632h-120z"
       id="path1" /></clipPath><g
     id="layer-MC0"
     inkscape:groupmode="layer"
     inkscape:label="katman 1"
     transform="matrix(0.00927975,0,0,0.00802468,2.7395412,13.924085)"><path
       id="path1-1"
       d="m 0,0 c 0,-378.068 -299.757,-684.846 -669.725,-684.846 -369.968,0 -669.72,306.778 -669.72,684.846 0,378.073 299.757,684.851 669.72,684.851 C -299.752,684.851 0.005,378.073 0.005,0"
       style="fill:#d33833;fill-opacity:1;fill-rule:nonzero;stroke:none"
       transform="matrix(1.3333333,0,0,-1.3333333,1914.0221,1382.0975)"
       clip-path="url(#clipPath2-4)" /><path
       id="path3"
       d="M 0,0 C 0,0 -48.607,714.005 609.774,734.537 L 563.866,811.231 206.858,691.329 104.782,574.126 15.666,403.455 -35.108,204.697 -19.982,71.828"
       style="fill:#ef3d3a;fill-opacity:1;fill-rule:nonzero;stroke:none"
       transform="matrix(1.3333333,0,0,-1.3333333,164.81907,1608.2147)"
       clip-path="url(#clipPath4-5)" /><path
       id="path5"
       d="m 0,0 c -124.758,127.464 -201.997,304.073 -201.997,498.51 0,194.436 77.239,371.051 201.997,499.054 124.763,127.462 297.596,206.857 488.254,206.857 190.654,0 363.486,-79.395 488.249,-206.857 C 1101.261,870.1 1178.5,693.49 1178.5,498.51 1178.5,304.079 1101.261,127.464 976.503,0 851.74,-128.002 678.908,-206.857 488.249,-206.857 297.596,-206.857 124.764,-128.002 0,0 M 29.704,968.399 C -87.494,847.957 -160.411,682.141 -160.411,498.51 c 0,-183.632 72.917,-349.443 190.115,-469.884 117.741,-120.441 279.235,-194.437 458.545,-194.437 179.315,0 340.803,73.996 458.545,194.432 117.204,120.446 190.115,286.257 190.115,469.889 0,183.637 -72.911,349.447 -190.115,469.888 -117.736,119.903 -279.23,194.432 -458.545,194.432 -178.771,0 -340.798,-73.99 -458.545,-194.432 z"
       style="fill:#231f20;fill-opacity:1;fill-rule:nonzero;stroke:none"
       transform="matrix(1.3333333,0,0,-1.3333333,370.05667,2050.3769)"
       clip-path="url(#clipPath6-5)" /><path
       id="path7"
       d="m 0,0 -102.081,-15.122 -137.724,-15.665 -89.116,-2.161 -86.955,2.7 -66.434,20.521 -58.874,63.74 -45.907,130.163 -10.261,28.087 -61.029,20.52 -35.653,58.868 -25.382,84.261 28.087,73.989 66.434,23.226 53.469,-25.387 25.382,-56.173 30.786,4.866 10.261,12.96 -10.261,58.874 -2.7,73.995 15.122,102.076 -0.539,58.329 46.447,74.534 81.555,58.873 142.59,61.029 158.25,-23.221 L 63.19,774.5 126.925,672.424 167.967,598.43 178.232,414.798 147.445,256.548 91.271,116.12 38.348,41.047"
       style="fill:#f0d6b7;fill-opacity:1;fill-rule:nonzero;stroke:none"
       transform="matrix(1.3333333,0,0,-1.3333333,1396.9688,1387.134)"
       clip-path="url(#clipPath8)" /><path
       id="path9"
       d="M 0,0 -364.568,-15.121 V -76.15 l 30.786,-214.424 -15.126,-17.822 -254.927,86.956 -17.821,30.787 -25.387,288.413 -59.951,172.832 -12.961,41.047 204.159,140.424 63.734,25.386 56.168,-69.128 48.608,-43.214 56.174,-17.82 25.381,-7.567 30.787,-132.863 23.226,-28.086 58.868,20.526 -41.047,-79.389 L 27.543,15.126 0,0.005"
       style="fill:#335061;fill-opacity:1;fill-rule:nonzero;stroke:none"
       transform="matrix(1.3333333,0,0,-1.3333333,1281.7473,1975.4849)"
       clip-path="url(#clipPath10)" /><path
       id="path11"
       d="m 0,0 66.434,23.221 53.469,-25.382 25.381,-56.174 30.787,4.861 7.566,30.787 -15.127,58.873 15.121,140.424 -12.96,76.694 45.908,53.469 99.377,78.855 -28.087,38.347 L 147.445,354.847 88.577,308.933 55.629,237.644 4.861,168.51 -10.26,86.955 Z"
       style="fill:#6d6b6d;fill-opacity:1;fill-rule:nonzero;stroke:none"
       transform="matrix(1.3333333,0,0,-1.3333333,475.1972,788.70227)"
       clip-path="url(#clipPath12)" /><path
       id="path13"
       d="m 0,0 c 0,0 -53.474,178.776 150.684,204.158 l -7.56,30.787 L 2.7,201.997 -38.347,69.129 -28.087,-17.821 0,0 m 76.694,221.984 c 0,0 38.343,94.516 191.193,140.424 152.845,45.908 7.566,32.947 7.566,32.947 L 109.631,331.621 45.908,267.892 17.821,217.123 l 58.873,4.861"
       style="fill:#dcd9d8;fill-opacity:1;fill-rule:nonzero;stroke:none"
       transform="matrix(1.3333333,0,0,-1.3333333,512.64653,764.9412)"
       clip-path="url(#clipPath14)" /><path
       id="path15"
       d="m 0,0 c 0,0 -73.989,2.7 -76.694,-63.729 0,0 0,-10.266 4.866,-20.526 0,0 58.868,66.434 94.515,30.786 m -614.089,-140.428 c 0,0 43.202,224.684 262.487,267.892 180.387,35.647 275.447,-7.566 311.095,-48.608 0,0 -160.951,191.192 -313.8,132.863 -152.845,-58.874 -265.188,-165.811 -262.487,-234.406 4.321,-117.736 2.699,-117.736 2.699,-117.736 m -45.908,-160.955 c 0,0 -96.671,58.873 -106.931,2.7 -10.261,-56.168 -32.948,-96.671 15.121,-155.545 l -32.948,10.26 -30.781,78.856 -10.266,76.695 58.874,61.029 66.429,-4.861 38.347,-30.787 2.161,-38.347 m 346.742,165.811 c 0,0 -56.173,-7.561 -56.173,-43.209 0,-35.642 63.733,-32.942 81.554,-17.821 m 283.014,63.729 c 0,0 -42.131,-8.638 -45.908,-45.908 -3.783,-37.264 45.908,-7.56 53.469,-4.86 m -219.28,-232.24 c 0,0 5.939,77.234 27.004,71.29 21.066,-5.939 21.066,-26.999 21.066,-26.999 0,0 -50.77,-32.408 -48.07,-44.291 m -469.344,-48.613 33.481,32.409 c 0,0 15.127,-1.622 17.826,-19.443 2.7,-17.826 10.261,-178.776 119.903,-265.192 10.26,-8.1 -81.556,12.965 -81.556,12.965 l -81.56,127.464"
       style="fill:#f7e4cd;fill-opacity:1;fill-rule:nonzero;stroke:none"
       transform="matrix(1.3333333,0,0,-1.3333333,1505.7019,390.47133)"
       clip-path="url(#clipPath16)" /><path
       id="path17"
       d="m 0,0 c 0,0 -12.96,101.537 -99.376,42.669 -56.174,-38.347 -50.774,-91.815 -41.047,-102.082 10.26,-10.26 7.56,-30.781 15.121,-16.743 7.56,14.044 5.399,59.951 33.486,72.917 C -64.273,9.722 -17.821,23.759 0,0"
       style="fill:#f7e4cd;fill-opacity:1;fill-rule:nonzero;stroke:none"
       transform="matrix(1.3333333,0,0,-1.3333333,1074.3476,512.17387)"
       clip-path="url(#clipPath18)" /><path
       id="path19"
       d="m 0,0 -115.042,-4.86 32.948,-23.227 81.55,-12.965 M -1.083,217.663 32.942,176.071 V 23.227 H -7.561 c 0,0 -4.86,106.936 -4.86,119.896 0,12.966 4.86,58.874 4.86,58.874 m -17.82,234.401 -239.817,-106.932 c 0,0 99.382,-395.356 48.608,-517.958 l -35.642,12.961 -2.7,150.688 -66.434,285.17 -28.087,78.861 250.066,168.51 73.995,-71.295"
       style="fill:#49728b;fill-opacity:1;fill-rule:nonzero;stroke:none"
       transform="matrix(1.3333333,0,0,-1.3333333,788.4564,2012.9276)"
       clip-path="url(#clipPath20)" /><path
       id="path21"
       d="M 0,0 94.51,2.7 117.736,-231.7 21.06,-244.666 -0.006,0.006"
       style="fill:#335061;fill-opacity:1;fill-rule:nonzero;stroke:none"
       transform="matrix(1.3333333,0,0,-1.3333333,1311.9973,1979.0852)"
       clip-path="url(#clipPath22)" /><path
       id="path23"
       d="m 0,0 142.584,7.566 c 0,0 58.874,147.984 58.874,155.544 0,7.567 50.769,214.419 50.769,214.419 L 137.185,497.432 113.958,517.953 52.93,456.923 V 219.818 L 0,0"
       style="fill:#335061;fill-opacity:1;fill-rule:nonzero;stroke:none"
       transform="matrix(1.3333333,0,0,-1.3333333,1345.8399,1979.0852)"
       clip-path="url(#clipPath24)" /><path
       id="path25"
       d="m 0,0 178.776,-132.863 4.861,61.035 L 48.613,52.93 0.005,0 m -2.705,-446.658 -89.116,-17.826 12.965,-71.295 c 32.943,-15.121 89.117,25.387 89.117,25.387"
       style="fill:#49728b;fill-opacity:1;fill-rule:nonzero;stroke:none"
       transform="matrix(1.3333333,0,0,-1.3333333,1434.4115,1359.7733)"
       clip-path="url(#clipPath26)" /><path
       id="path27"
       d="m 0,0 -52.93,214.418 -26.464,158.25 -4.322,117.203 239.26,12.96 h 148.53 L 290.574,234.944 313.794,28.087 311.095,-10.261 117.198,-25.388 0,0"
       style="fill:#ffffff;fill-opacity:1;fill-rule:nonzero;stroke:none"
       transform="matrix(1.3333333,0,0,-1.3333333,906.5592,2648.8079)"
       clip-path="url(#clipPath28)" /><path
       id="path29"
       d="m 0,0 c 0,0 -12.96,-265.192 25.387,-454.224 0,0 -76.695,-48.607 -188.497,-61.029 l 214.423,7.561 25.381,15.121 -30.781,418.037 -8.104,89.66"
       style="fill:#dcd9d8;fill-opacity:1;fill-rule:nonzero;stroke:none"
       transform="matrix(1.3333333,0,0,-1.3333333,1268.0599,1975.4849)"
       clip-path="url(#clipPath30)" /><path
       id="path31"
       d="m 0,0 99.376,28.087 188.498,10.261 28.087,86.955 -50.774,150.689 -58.869,7.561 -81.554,-25.387 -77.779,-38.348 -41.586,7.567 -32.409,-12.966"
       style="fill:#ffffff;fill-opacity:1;fill-rule:nonzero;stroke:none"
       transform="matrix(1.3333333,0,0,-1.3333333,1474.0235,2261.3769)"
       clip-path="url(#clipPath32)" /><path
       id="path33"
       d="m 0,0 c 0,0 66.434,30.787 76.694,28.087 l -28.087,140.424 32.948,12.966 c 0,0 23.226,-132.869 23.226,-147.99 0,0 142.584,-7.561 155.545,-7.561 0,0 30.786,58.874 23.226,119.903 l 28.087,-81.556 2.7,-45.907 -41.048,-61.029 -45.907,-10.266 -76.695,2.7 -25.387,32.948 L 36.187,-30.242 8.1,-40.508"
       style="fill:#dcd9d8;fill-opacity:1;fill-rule:nonzero;stroke:none"
       transform="matrix(1.3333333,0,0,-1.3333333,1471.8607,2192.9667)"
       clip-path="url(#clipPath34)" /><path
       id="path35"
       d="m 0,0 -56.174,142.584 -58.868,84.261 c 0,0 12.966,35.642 30.787,35.642 h 58.873 L 30.792,241.966 25.926,147.445 0,0"
       style="fill:#ffffff;fill-opacity:1;fill-rule:nonzero;stroke:none"
       transform="matrix(1.3333333,0,0,-1.3333333,1337.914,1951.7167)"
       clip-path="url(#clipPath36)" /><path
       id="path37"
       d="m 0,0 c 0,0 -71.295,137.724 -71.295,158.25 0,0 12.966,30.787 30.787,23.221 17.826,-7.561 56.174,-28.087 56.174,-28.087 v 48.613 l -86.961,17.821 -58.868,-7.561 99.377,-235.483 20.52,-2.7"
       style="fill:#dcd9d8;fill-opacity:1;fill-rule:nonzero;stroke:none"
       transform="matrix(1.3333333,0,0,-1.3333333,1353.0391,1886.9068)"
       clip-path="url(#clipPath38)" /><path
       id="path39"
       d="m 0,0 -70.751,7.566 -66.434,20.521 V 4.861 L -104.782,-30.787 -2.7,-76.694"
       style="fill:#ffffff;fill-opacity:1;fill-rule:nonzero;stroke:none"
       transform="matrix(1.3333333,0,0,-1.3333333,936.80213,1438.2641)"
       clip-path="url(#clipPath40)" /><path
       id="path41"
       d="M 0,0 C 0,0 78.85,-32.948 104.782,-25.387 L 107.476,-56.174 36.187,-41.047 -7.021,-10.26 0,0"
       style="fill:#dcd9d8;fill-opacity:1;fill-rule:nonzero;stroke:none"
       transform="matrix(1.3333333,0,0,-1.3333333,784.8568,1448.3449)"
       clip-path="url(#clipPath42)" /><path
       id="path43"
       d="m 0,0 c -43.208,1.083 -82.639,6.483 -116.664,16.205 2.161,14.043 -2.161,27.542 1.622,37.808 9.722,7.022 25.382,7.022 39.964,8.638 -12.422,5.944 -30.242,8.644 -44.286,4.861 -0.544,9.721 -4.861,15.666 -7.566,23.226 24.309,8.644 81.561,65.351 113.964,46.991 C 2.699,128.546 9.183,77.778 10.26,52.391 11.338,31.87 8.1,11.344 0,0"
       style="fill:#d33833;fill-opacity:1;fill-rule:nonzero;stroke:none"
       transform="matrix(1.3333333,0,0,-1.3333333,1474.0235,1613.2589)"
       clip-path="url(#clipPath44)" /><path
       id="path45"
       d="m 0,0 c -43.208,1.083 -82.639,6.483 -116.664,16.205 2.161,14.043 -2.161,27.542 1.622,37.808 9.722,7.022 25.382,7.022 39.964,8.638 -12.422,5.944 -30.242,8.644 -44.286,4.861 -0.544,9.721 -4.861,15.666 -7.566,23.226 24.309,8.644 81.561,65.351 113.964,46.991 C 2.699,128.546 9.183,77.778 10.26,52.391 11.338,31.87 8.1,11.344 0,0"
       style="fill:#000000;fill-opacity:1;fill-rule:nonzero;stroke:#d33833;stroke-width:10.886;stroke-linecap:butt;stroke-linejoin:miter;stroke-miterlimit:23.981;stroke-dasharray:none;stroke-opacity:1"
       transform="matrix(1.3333333,0,0,-1.3333333,1474.0235,1613.2589)"
       clip-path="url(#clipPath46)" /><path
       id="path47"
       d="m 0,0 c 0,-3.244 0,-6.477 -0.545,-9.721 -13.499,-8.644 -35.108,-8.644 -50.229,-16.205 21.609,-1.077 38.891,-6.477 54.012,-13.499 -0.544,-8.105 -0.544,-16.748 -1.078,-24.848 -24.847,-16.743 -47.529,-42.13 -76.694,-58.329 -14.043,-7.566 -62.112,-27.01 -76.695,-23.227 -8.104,2.162 -9.182,12.422 -12.421,22.144 -7.022,20.52 -23.226,54.012 -24.848,85.338 -1.622,39.425 -5.939,105.859 36.725,97.76 C -117.209,52.93 -77.239,37.264 -50.774,22.682 -34.031,12.96 -24.849,2.161 0,0"
       style="fill:#d33833;fill-opacity:1;fill-rule:nonzero;stroke:none"
       transform="matrix(1.3333333,0,0,-1.3333333,1198.2136,1518.9179)"
       clip-path="url(#clipPath48)" /><path
       id="path49"
       d="m 0,0 c 0,-3.244 0,-6.477 -0.545,-9.721 -13.499,-8.644 -35.108,-8.644 -50.229,-16.205 21.609,-1.077 38.891,-6.477 54.012,-13.499 -0.544,-8.105 -0.544,-16.748 -1.078,-24.848 -24.847,-16.743 -47.529,-42.13 -76.694,-58.329 -14.043,-7.566 -62.112,-27.01 -76.695,-23.227 -8.104,2.162 -9.182,12.422 -12.421,22.144 -7.022,20.52 -23.226,54.012 -24.848,85.338 -1.622,39.425 -5.939,105.859 36.725,97.76 C -117.209,52.93 -77.239,37.264 -50.774,22.682 -34.031,12.96 -24.849,2.161 0,0"
       style="fill:#000000;fill-opacity:1;fill-rule:nonzero;stroke:#d33833;stroke-width:10.886;stroke-linecap:butt;stroke-linejoin:miter;stroke-miterlimit:23.981;stroke-dasharray:none;stroke-opacity:1"
       transform="matrix(1.3333333,0,0,-1.3333333,1198.2136,1518.9179)"
       clip-path="url(#clipPath50)" /><path
       id="path51"
       d="M 0,0 C -3.783,21.609 -8.105,27.542 -6.483,46.452 51.308,84.799 61.567,-19.443 -0.006,0"
       style="fill:#d33833;fill-opacity:1;fill-rule:nonzero;stroke:none"
       transform="matrix(1.3333333,0,0,-1.3333333,1230.6185,1581.5721)"
       clip-path="url(#clipPath52)" /><path
       id="path53"
       d="M 0,0 C -3.783,21.609 -8.105,27.542 -6.483,46.452 51.308,84.799 61.567,-19.443 -0.006,0 Z"
       style="fill:#000000;fill-opacity:1;fill-rule:nonzero;stroke:#d33833;stroke-width:10.886;stroke-linecap:butt;stroke-linejoin:miter;stroke-miterlimit:23.981;stroke-dasharray:none;stroke-opacity:1"
       transform="matrix(1.3333333,0,0,-1.3333333,1230.6185,1581.5721)"
       clip-path="url(#clipPath54)" /><path
       id="path55"
       d="m 0,0 c -3.239,39.969 -6.478,79.394 -9.722,119.363 -5.4,59.408 14.044,49.153 65.89,49.153 8.105,0 48.607,-9.189 51.313,-15.133 14.043,-28.62 -23.226,-22.137 16.199,-43.741 32.948,-17.827 91.821,10.799 78.317,51.307 -7.566,9.183 -38.887,2.7 -50.23,8.644 L 91.815,200.375 C 66.434,213.34 8.099,232.783 -18.904,214.418 -87.5,167.971 -14.583,51.307 9.721,2.699 m 258.166,81.556 c 0,0 -17.822,25.387 -4.862,32.948 12.966,7.56 25.388,0 32.949,12.96 7.565,12.965 0,20.521 2.699,35.647 2.7,15.121 15.121,17.821 28.087,20.521 12.961,2.705 48.608,7.566 53.469,-4.861 l -15.122,45.913 -30.787,10.261 -96.676,-56.174 -4.861,-28.087 V 97.215"
       style="fill:#ef3d3a;fill-opacity:1;fill-rule:nonzero;stroke:none"
       transform="matrix(1.3333333,0,0,-1.3333333,984.332,1716.9549)"
       clip-path="url(#clipPath56)" /><path
       id="path57"
       d="M 0,0 C 30.243,-75.611 133.402,-66.973 220.357,-64.812 216.58,-74.534 208.475,-86.416 197.676,-90.194 169.589,-101.538 92.894,-110.181 54.008,-89.655 29.704,-76.695 13.5,-46.986 0,-29.704 -5.943,-21.604 -38.347,-0.539 0,0 M 8.1,42.13 C 51.308,19.443 131.241,16.743 190.653,18.365 c 3.24,-12.966 3.24,-29.164 3.24,-44.83 C 117.742,-29.704 28.082,-10.799 8.1,42.13 m 326.221,28.626 c -23.225,-44.291 -56.174,-92.899 -124.224,-94.521 -1.622,14.043 -2.701,36.186 0,44.83 52.39,5.399 84.794,31.864 124.224,49.691 m -689.173,66.429 c -15.66,9.182 -19.438,48.068 -37.803,49.151 -26.465,1.617 -21.604,-50.774 -21.604,-81.555 -17.821,16.199 -21.065,66.973 -8.099,92.894 -15.121,7.566 -21.61,-8.1 -30.248,-13.499 11.343,78.311 115.042,36.186 97.759,-46.991 M 302.996,103.704 C 253.305,71.833 197.67,36.725 115.581,44.83 98.299,59.951 91.277,93.982 108.56,116.12 c 8.638,-15.122 3.238,-43.209 28.086,-47.525 46.448,-8.105 100.455,28.626 133.941,41.042 20.521,35.108 -1.616,47.53 -20.521,70.217 -38.347,45.908 -89.116,103.159 -87.499,171.749 15.665,11.343 16.744,-17.282 18.904,-22.143 19.982,-46.447 70.217,-106.398 106.398,-146.368 9.183,-9.721 23.765,-19.443 25.387,-25.925 4.861,-18.36 -12.421,-41.042 -10.26,-53.469 M 11.883,381.306 C 27.004,353.764 31.859,325.138 52.925,304.612 62.651,295.435 81.012,284.091 71.834,258.17 69.673,252.227 54.008,238.722 44.825,236.022 11.883,226.3 -65.356,233.861 -39.43,275.453 -11.888,274.37 24.843,257.626 45.369,277.614 29.704,302.456 1.617,352.147 11.883,381.306 m 303.534,1.089 h 3.239 c 15.665,-32.409 29.164,-66.978 49.152,-96.143 -13.499,-31.326 -100.459,-58.33 -99.382,-3.239 18.904,8.1 51.313,1.622 68.056,12.422 -9.721,26.464 -23.226,49.151 -21.065,86.955 m -338.643,78.855 c -69.672,16.204 -104.237,-29.165 -125.302,-76.15 -18.904,4.316 -11.344,30.242 -6.477,43.202 12.416,34.026 62.651,79.939 103.692,73.456 17.283,-2.161 41.047,-18.365 28.087,-40.508"
       style="fill:#231f20;fill-opacity:1;fill-rule:nonzero;stroke:none"
       transform="matrix(1.3333333,0,0,-1.3333333,1105.3151,1127.1672)"
       clip-path="url(#clipPath58)" /><path
       id="path59"
       d="m 0,0 c -35.108,-60.49 -69.129,-122.603 -110.715,-175.532 17.277,51.307 24.838,137.723 27.543,203.613 C -46.447,45.369 -15.121,24.304 0,-0.006"
       style="fill:#81b0c4;fill-opacity:1;fill-rule:nonzero;stroke:none"
       transform="matrix(1.3333333,0,0,-1.3333333,1504.2656,1682.3872)"
       clip-path="url(#clipPath60)" /><path
       id="path61"
       d="M 0,0 C -36.187,-0.538 -81.017,0 -115.581,2.706 -95.06,24.849 -23.227,10.806 0,0 M -11.344,53.475 C -43.747,50.23 -81.556,44.83 -113.959,47.53 c 15.66,23.765 75.073,15.127 102.615,5.945 m -17.282,61.567 c -39.425,-8.1 -66.973,-46.446 -105.859,-43.746 21.604,29.709 58.33,42.669 105.859,43.746"
       style="fill:#231f20;fill-opacity:1;fill-rule:nonzero;stroke:none"
       transform="matrix(1.3333333,0,0,-1.3333333,1795.2005,2125.2753)"
       clip-path="url(#clipPath62)" /><path
       id="path63"
       d="m 0,0 c 5.399,-45.369 23.226,-91.282 21.065,-140.968 -19.988,-6.477 -31.326,-12.422 -58.335,-12.422 -1.617,42.13 -7.56,106.937 -5.938,147.446 C -30.248,-7.022 -10.805,3.238 0,0"
       style="fill:#dcd9d8;fill-opacity:1;fill-rule:nonzero;stroke:none"
       transform="matrix(1.3333333,0,0,-1.3333333,1413.5312,2319.7049)"
       clip-path="url(#clipPath64)" /><path
       id="path65"
       d="m 0,0 c -18.365,-11.877 -33.486,-26.459 -51.313,-39.425 -38.886,-2.161 -59.952,2.7 -88.033,24.842 0.538,1.623 3.239,1.084 3.239,3.245 C -94.521,-29.704 -41.592,-3.778 0,0.005"
       style="fill:#f0d6b7;fill-opacity:1;fill-rule:nonzero;stroke:none"
       transform="matrix(1.3333333,0,0,-1.3333333,1335.7591,1426.7459)"
       clip-path="url(#clipPath66)" /><path
       id="path67"
       d="m 0,0 c 11.344,49.152 56.174,75.072 96.677,102.076 41.586,-52.93 66.972,-120.98 95.059,-186.87 C 125.303,-64.813 57.791,-32.947 0,0"
       style="fill:#81b0c4;fill-opacity:1;fill-rule:nonzero;stroke:none"
       transform="matrix(1.3333333,0,0,-1.3333333,1046.2604,1803.3716)"
       clip-path="url(#clipPath68)" /><path
       id="path69"
       d="m 0,0 c 62.112,30.787 177.693,82.639 216.04,0 14.588,-30.781 31.326,-82.094 38.348,-113.958 10.259,-44.292 -11.344,-138.269 -57.252,-152.845 -40.508,-12.966 -87.493,-12.427 -136.102,-2.706 -5.943,4.861 -11.882,12.966 -16.743,21.61 -34.564,1.078 -67.512,-1.627 -94.52,-16.209 2.699,-25.921 -14.584,-29.705 -31.327,-35.11 -11.882,-48.063 24.304,-110.714 15.666,-153.922 -5.944,-31.326 -44.292,-36.186 -72.373,-41.586 -1.083,-17.288 1.078,-31.87 3.239,-46.452 -6.477,-23.765 -35.109,-37.264 -62.651,-40.509 -90.194,-10.798 -226.84,-15.66 -313.256,15.666 -24.309,59.407 -43.208,131.241 -63.195,198.752 -84.255,-9.176 -152.845,36.193 -217.118,66.435 -22.143,10.261 -52.93,16.204 -61.574,34.025 -8.099,17.283 -4.861,50.23 -7.021,81.017 -4.861,79.394 -9.722,156.089 -30.243,237.105 -9.183,36.725 -25.926,68.59 -37.27,103.693 -10.798,32.409 -29.164,72.917 -34.025,105.326 -7.021,48.064 38.348,50.769 66.973,71.834 44.83,32.403 79.934,50.23 128.541,79.394 14.588,8.639 57.791,30.243 62.652,40.508 9.727,19.977 -16.738,48.064 -23.76,63.729 -11.343,24.843 -17.288,45.908 -18.904,70.217 -40.508,6.478 -71.834,30.781 -90.194,57.785 -30.792,45.369 -52.396,129.086 -25.387,192.276 2.161,4.861 12.421,15.126 14.043,22.687 3.239,15.121 -5.943,35.109 -6.483,51.307 -2.699,82.639 14.044,153.934 69.673,178.777 22.682,90.193 103.693,119.897 179.854,164.727 28.626,16.743 59.952,27.543 92.355,39.43 116.119,42.664 294.896,34.565 391.573,-38.347 C -79.395,1223.87 -14.044,1158.518 9.183,1110.989 71.289,986.225 66.434,777.207 23.226,624.895 17.282,604.375 9.183,574.671 -2.7,549.823 -10.8,532.541 -36.187,498.515 -33.486,483.394 -30.242,467.729 24.848,426.143 36.73,414.799 57.796,394.278 98.299,367.269 101.537,341.343 105.32,313.8 89.66,275.992 81.561,249.527 55.629,160.95 29.709,79.395 0,0 m -147.989,1221.169 c -79.39,44.825 -213.335,78.312 -297.591,36.187 -68.056,-34.026 -159.866,-90.194 -191.197,-160.955 29.164,-68.585 -8.639,-131.235 -11.344,-200.908 -1.078,-37.27 17.288,-69.14 18.904,-109.648 -10.26,-16.743 -40.508,-18.36 -61.568,-17.283 -7.021,35.654 -19.443,75.618 -56.173,79.939 -51.847,5.939 -90.194,-37.269 -92.355,-82.099 -2.7,-52.93 40.508,-140.423 102.076,-134.485 23.765,2.161 29.709,25.926 55.63,25.926 14.043,-28.087 -21.599,-36.725 -25.382,-56.707 -1.083,-5.406 2.7,-25.387 5.4,-35.109 11.343,-45.908 36.186,-105.859 60.49,-140.968 31.326,-44.825 92.36,-51.308 158.25,-55.629 11.882,25.387 55.09,23.226 83.171,16.743 -34.019,13.499 -65.345,45.908 -91.271,74.534 -29.709,32.947 -59.951,68.05 -61.573,111.258 56.712,-78.311 103.159,-146.906 205.78,-181.476 77.772,-25.92 168.51,11.888 228.462,54.013 24.842,17.288 39.425,45.369 57.251,70.217 65.889,95.055 96.676,230.084 90.193,361.325 -2.699,54.007 -2.699,108.02 -21.064,144.206 -18.9,37.809 -83.172,72.373 -120.981,37.809 -7.021,37.264 31.325,59.951 76.151,46.446 -31.86,41.587 -65.346,90.739 -111.259,116.664 m -396.972,20.521 c -76.151,-21.604 -173.911,-77.233 -205.236,-145.823 24.303,3.778 41.047,15.66 64.812,17.282 9.182,0.539 21.065,-3.783 31.325,-1.083 20.521,5.4 38.348,51.852 54.008,69.134 15.126,16.743 33.486,24.304 45.913,39.425 8.099,3.783 19.976,3.783 20.521,15.665 -3.239,3.784 -7.022,6.478 -11.344,5.4 z m -240.884,-215.496 c -33.486,-37.269 -26.465,-106.403 -22.681,-156.089 61.028,38.342 141.506,-3.244 140.962,-68.056 29.165,0.545 10.805,36.186 5.405,59.412 -17.288,75.073 29.164,156.09 2.156,224.679 -52.386,-4.316 -95.055,-25.381 -125.842,-59.951 v 0 z m 675.663,-627.055 c 70.757,34.02 83.717,-128.008 55.63,-180.399 4.323,-15.659 18.905,-21.604 24.848,-35.641 -39.43,-70.756 -83.172,-136.647 -123.686,-206.32 29.709,18.905 72.917,3.24 108.021,17.283 12.966,4.861 22.148,34.564 31.87,58.33 26.998,64.811 55.085,146.911 67.512,208.473 2.7,14.044 10.799,44.836 8.638,57.258 -3.239,22.681 -33.486,39.424 -49.152,52.929 -28.62,25.926 -46.446,48.063 -76.694,72.373 -11.338,-17.827 -37.265,-29.704 -46.987,-44.292 z m -514.174,-56.174 c -7.022,4.861 -54.007,65.895 -60.49,63.196 -84.794,-33.493 -164.189,-91.283 -234.945,-146.368 67.512,-145.29 95.06,-322.983 99.921,-494.192 77.239,-36.187 145.284,-88.578 250.604,-93.977 -12.421,85.871 -23.22,163.11 -30.242,244.127 -26.465,11.338 -64.273,-0.545 -89.116,3.238 0,29.704 37.803,12.96 41.042,32.943 2.166,15.127 -21.065,16.204 -13.5,39.969 19.444,-7.022 29.704,-22.682 50.23,-28.626 18.905,41.047 0,113.959 2.7,148.529 0.545,6.477 3.239,35.647 17.821,30.787 12.966,-4.322 -0.539,-78.318 0.544,-110.721 1.079,-30.247 -3.782,-58.873 8.639,-77.777 101.543,14.043 204.702,22.687 314.877,25.926 -24.303,10.26 -52.929,19.982 -84.254,37.808 -17.283,9.722 -70.751,29.703 -75.612,45.908 -8.105,25.926 20.521,39.425 25.382,61.574 -51.308,-28.087 -61.029,26.998 -73.451,65.35 -10.804,35.109 -17.282,61.568 -19.981,81.555 -44.831,22.682 -92.361,43.747 -130.169,70.751 z m 559.004,-64.273 c -1.077,24.848 -7.565,76.156 -23.225,85.338 -32.403,18.905 -89.655,-38.347 -113.959,-46.991 2.7,-7.56 7.021,-13.499 7.56,-23.221 14.588,3.778 31.865,1.078 44.287,-4.86 -14.582,-1.623 -30.243,-1.623 -39.964,-8.644 -3.244,-10.261 1.078,-23.765 -1.622,-37.809 34.025,-9.721 73.456,-14.582 116.664,-16.198 8.099,10.799 11.338,31.325 10.259,52.385 m -249.521,75.617 c 0,-2.162 -2.705,-1.622 -3.243,-3.245 28.625,-22.142 49.684,-26.998 88.032,-24.842 17.288,12.421 32.947,27.542 51.313,39.43 -42.13,-3.783 -95.06,-29.709 -136.107,-11.343 z m -272.213,10.26 c -22.143,-22.682 62.107,-52.929 88.577,-54.552 0,14.044 8.099,27.543 6.477,37.809 -31.864,5.4 -73.45,1.622 -95.054,16.743 m 253.843,-45.908 c -26.465,14.588 -66.429,30.248 -100.999,36.725 -42.663,8.105 -38.347,-58.329 -36.725,-97.76 1.622,-31.319 17.826,-64.267 24.848,-85.332 3.239,-9.722 4.317,-19.982 12.422,-22.144 14.582,-3.244 63.189,15.661 76.694,23.227 29.165,15.66 51.847,41.041 76.694,58.329 0.539,8.1 0.539,16.743 1.079,24.843 -15.122,7.566 -31.865,12.421 -54.013,13.499 14.588,7.566 36.73,7.566 50.229,16.204 0,3.245 0,6.483 0.544,9.727 -24.847,2.7 -34.03,13.5 -50.773,22.682 m 68.595,-22.682 c -1.623,-18.904 2.7,-24.848 6.477,-46.452 61.573,-19.443 51.314,84.8 -6.477,46.452 m 50.23,-66.439 c -15.666,1.627 -29.165,-18.36 -49.691,-9.716 -4.861,-5.4 -9.183,-10.805 -14.043,-16.205 45.368,-55.085 66.433,-132.868 101.542,-197.136 18.904,62.107 16.743,129.624 21.065,197.136 -25.926,-1.077 -40.508,24.304 -58.873,25.926 z m 78.311,-27.543 c -2.7,-65.89 -10.26,-152.306 -27.542,-203.613 41.586,53.469 75.616,115.042 110.719,175.532 -15.121,24.304 -46.447,45.369 -83.172,28.086 z M -205.235,-1.616 c -28.087,65.889 -53.469,133.94 -95.061,186.87 -40.508,-26.998 -84.794,-52.93 -96.677,-102.076 58.33,-32.948 125.847,-64.813 191.738,-84.794 m 370.506,-242.505 c 39.97,9.722 64.812,58.329 53.469,108.558 -7.56,33.487 -20.521,97.216 -35.109,118.826 -10.26,15.66 -38.886,36.724 -62.107,22.142 C 84.255,-18.359 18.904,-25.382 -8.1,-54.007 5.399,-99.376 9.722,-160.949 15.121,-218.195 c 46.452,-2.705 103.159,12.955 142.051,-3.784 -27.009,-8.643 -61.573,-8.643 -84.8,-21.604 19.443,-9.183 63.734,-7.565 92.899,-0.544 z m -205.78,187.953 c -12.96,2.7 -27.542,0 -39.425,0 5.939,-56.713 19.444,-119.364 24.304,-179.315 18.904,-0.539 29.165,8.644 44.83,11.343 1.078,52.391 -4.321,124.764 -29.709,167.972 m -135.562,-11.344 c -1.083,-69.673 3.239,-138.801 8.643,-208.474 26.999,3.778 44.825,6.477 69.673,12.421 -8.104,66.973 -7.021,143.124 -23.765,202.537 -18.904,-0.545 -35.653,0 -54.551,-6.478 z m -405.077,-14.043 c 17.826,-162.566 43.208,-298.668 90.193,-442.88 104.243,-31.865 229.546,-34.564 321.905,-5.939 -16.743,81.012 -9.721,179.849 -19.442,266.809 -7.567,65.351 -3.783,130.703 -14.044,197.136 -111.803,23.221 -269.509,5.4 -378.612,-15.127 z m 416.96,-229.001 c -1.623,-40.508 3.777,-104.781 5.938,-147.445 27.009,0 38.347,5.938 58.335,12.422 2.16,49.69 -15.666,95.598 -21.065,140.968 -10.805,3.777 -30.249,-6.484 -43.208,-5.945"
       style="fill:#231f20;fill-opacity:1;fill-rule:nonzero;stroke:none"
       transform="matrix(1.3333333,0,0,-1.3333333,1574.8385,1914.2752)"
       clip-path="url(#clipPath70)" /><path
       id="path71"
       d="m 0,0 c 3.238,4.322 21.599,11.338 47.524,-1.083 0,0 -30.787,-4.861 -28.087,-56.174 L 6.478,-54.552 C 7.021,-55.096 -6.483,-8.644 0,0"
       style="fill:#f7e4cd;fill-opacity:1;fill-rule:nonzero;stroke:none"
       transform="matrix(1.3333333,0,0,-1.3333333,1023.944,1096.1991)"
       clip-path="url(#clipPath72)" /><path
       id="path73"
       d="m 0,0 c 0,-7.566 -6.478,-14.044 -14.044,-14.044 -7.56,0 -14.043,6.478 -14.043,14.044 0,7.566 6.483,14.043 14.043,14.043 C -5.938,14.043 0,8.1 0,0 m -14.044,65.351 c 0,-7.561 -6.477,-14.043 -14.043,-14.043 -7.56,0 -14.044,6.482 -14.044,14.043 0,7.566 6.484,14.044 14.044,14.044 8.105,0 14.043,-6.478 14.043,-14.044"
       style="fill:#1d1919;fill-opacity:1;fill-rule:nonzero;stroke:none"
       transform="matrix(1.3333333,0,0,-1.3333333,1340.7956,1768.0851)"
       clip-path="url(#clipPath74)" /><path
       id="path75"
       d="M 0,0 C -10.8,0 -21.599,1.616 -31.859,4.86 -42.125,8.1 -50.225,11.338 -56.163,15.121 L -61.024,3.777 h -12.965 l -2.161,62.652 h 12.421 c 1.622,-4.862 4.322,-10.8 8.643,-17.283 3.783,-6.477 8.645,-11.882 13.499,-17.282 5.575,-5.049 11.742,-9.402 18.366,-12.966 7.022,-3.238 14.043,-5.399 21.61,-5.399 10.259,0 17.82,2.161 22.681,5.944 4.861,3.778 7.561,10.26 7.561,18.36 0,4.322 -1.083,8.105 -3.244,11.343 -2.156,2.701 -5.4,5.4 -9.178,7.567 -4.321,2.155 -9.183,4.316 -14.587,5.933 -5.4,1.622 -11.878,3.244 -19.438,5.944 -7.566,2.161 -14.043,4.322 -19.449,7.021 -5.399,2.161 -11.338,5.945 -16.743,10.805 -4.86,4.316 -9.177,9.722 -11.877,15.66 -3.244,5.945 -4.322,13.499 -4.322,22.143 0,15.666 6.478,28.632 19.982,38.347 13.499,9.722 30.787,14.588 52.391,14.588 10.261,0 19.443,-1.089 28.087,-3.244 8.639,-2.161 15.66,-4.322 21.603,-7.021 l 3.779,9.721 h 12.96 L 71.3,119.358 H 59.417 c -3.782,11.883 -10.805,21.61 -19.987,30.248 -9.721,8.638 -19.982,12.96 -30.782,12.96 -8.643,0 -15.665,-1.616 -20.526,-5.399 -4.86,-3.783 -7.565,-8.644 -7.565,-15.121 0,-8.645 3.783,-14.588 10.804,-18.365 7.022,-3.784 17.287,-7.567 30.248,-10.8 C 41.591,107.476 56.174,100.454 65.895,91.815 75.077,82.633 79.938,71.295 79.938,57.79 79.938,39.425 72.917,24.843 58.334,15.116 42.13,5.399 23.226,0 0.005,0 Z M -93.433,5.938 H -194.97 v 12.421 c 2.16,0 4.861,0.545 7.561,1.083 3.238,0.539 5.399,1.079 7.021,1.618 2.161,1.083 3.778,3.244 4.861,5.405 1.078,2.16 1.622,5.938 1.622,10.26 v 78.85 c 0,11.338 -2.161,19.982 -6.483,25.92 -4.322,5.944 -10.26,8.645 -18.904,8.645 -4.322,0 -8.644,-0.545 -12.422,-2.161 -3.782,-1.618 -7.565,-3.24 -11.343,-5.939 -3.239,-2.161 -5.938,-4.322 -8.099,-7.022 -2.161,-2.161 -3.783,-4.322 -4.862,-6.477 V 38.342 c 0,-3.783 0.539,-7.023 1.618,-9.722 1.083,-2.706 3.244,-4.866 5.404,-5.944 1.617,-1.078 3.778,-2.161 6.477,-2.7 l 8.106,-1.622 V 5.933 h -102.621 v 12.421 c 2.7,0 5.4,0.544 8.644,1.083 2.7,0.539 5.4,1.078 7.561,1.617 3.777,1.083 5.938,3.244 7.56,5.944 1.078,2.699 2.162,5.939 2.162,10.26 v 98.299 c 0,3.239 -1.084,7.021 -2.701,10.26 -1.622,3.245 -4.322,5.944 -7.021,8.105 -2.161,1.078 -4.322,2.7 -7.567,3.239 -3.306,1.106 -6.773,1.653 -10.259,1.622 v 12.421 l 80.477,4.322 2.699,-2.7 v -24.308 h 0.545 c 3.939,3.241 7.722,6.667 11.338,10.265 3.978,3.443 8.123,6.688 12.421,9.722 4.322,2.699 9.722,4.86 16.205,7.021 6.478,2.161 14.043,2.701 21.604,2.701 18.36,0 31.864,-5.401 41.042,-15.666 9.187,-10.261 13.505,-24.304 13.505,-41.586 V 38.342 c 0,-4.322 0.544,-7.567 1.622,-9.722 1.083,-2.705 3.782,-4.322 7.021,-5.944 1.622,-0.544 3.783,-1.622 6.478,-2.161 2.705,-0.544 5.404,-1.078 9.187,-1.622 V 5.938 Z m -262.487,229.54 c 0,-8.639 -3.244,-15.661 -9.722,-21.599 -6.482,-5.944 -14.587,-9.183 -23.225,-9.183 -9.183,0 -16.743,3.239 -23.766,9.183 -6.476,5.938 -9.721,13.499 -9.721,21.603 0,8.639 3.239,15.661 9.721,22.144 6.478,5.938 14.588,9.183 23.766,9.183 9.182,0 16.743,-3.245 23.225,-9.183 6.478,-5.944 9.722,-13.499 9.722,-22.144 z m 24.304,-229.54 h -106.398 v 12.421 c 2.7,0 5.939,0.545 8.638,1.083 2.7,0.539 5.4,1.079 7.022,1.618 3.783,1.083 5.944,3.244 7.566,5.943 1.617,2.7 2.155,5.938 2.155,10.261 v 98.298 c 0,3.784 -1.077,7.567 -2.699,10.261 -1.416,2.931 -3.67,5.375 -6.478,7.022 -2.167,1.083 -4.866,2.7 -9.182,3.783 -4.322,1.077 -8.106,2.161 -11.344,2.161 v 12.421 l 82.633,4.322 2.7,-2.7 V 38.88 c 0,-3.782 1.083,-7.022 2.699,-10.26 1.623,-2.706 4.323,-4.866 7.023,-5.944 2.161,-1.078 4.86,-2.161 7.565,-2.7 2.7,-0.544 5.401,-1.083 8.639,-1.622 V 5.933 h -0.544 z m -108.02,0 h -79.394 c -8.373,14.961 -17.383,29.557 -27.004,43.747 -8.105,11.882 -15.666,23.226 -22.688,32.948 l -9.721,-8.645 V 37.264 c 0,-3.778 0.545,-7.561 1.622,-9.722 1.078,-2.7 3.239,-4.322 7.022,-5.938 2.16,-1.083 4.321,-1.623 7.022,-2.162 2.699,-0.544 5.399,-1.083 8.099,-1.083 V 5.937 h -104.781 v 12.422 c 2.705,0 5.405,0.544 8.643,1.083 2.7,0.539 5.4,1.079 7.566,1.617 3.778,1.084 5.934,3.244 7.556,5.944 1.083,2.7 2.16,5.938 2.16,10.261 v 187.953 c 0,3.783 -1.077,7.566 -2.699,11.344 -1.622,3.783 -3.778,7.021 -7.022,9.182 -2.161,1.078 -5.4,2.7 -9.722,3.239 -4.321,1.083 -8.099,1.622 -11.882,1.622 v 12.421 l 83.716,4.323 2.7,-2.701 V 90.737 c 8.105,7.561 17.827,16.2 28.087,25.921 10.26,9.722 18.904,17.826 24.842,24.304 3.784,3.783 5.945,6.482 5.945,8.643 0.539,2.162 0.539,3.24 0.539,3.779 0,2.16 -1.622,3.782 -5.401,4.86 -3.782,1.083 -8.643,2.705 -16.204,3.783 v 11.883 h 85.333 v -11.883 c -11.338,-3.239 -19.976,-5.938 -25.92,-8.643 -5.944,-2.7 -12.427,-6.478 -19.443,-10.8 -4.593,-3.111 -9.097,-6.354 -13.505,-9.722 -4.322,-3.238 -9.183,-7.566 -15.121,-12.421 10.799,-16.205 21.065,-30.787 30.242,-44.292 9.183,-13.499 18.904,-28.086 29.165,-43.208 3.244,-5.399 7.566,-8.637 12.966,-10.798 5.399,-1.622 10.26,-2.701 15.66,-3.245 V 5.943 h 1.622 z m -232.245,0 h -101.537 v 12.421 c 2.161,0 4.86,0.545 7.566,1.083 3.239,0.539 5.394,1.079 7.021,1.618 2.156,1.083 3.778,3.244 4.856,5.405 1.083,2.16 1.622,5.938 1.622,10.26 v 78.85 c 0,11.338 -2.161,19.982 -6.478,25.92 -4.327,5.944 -10.265,8.645 -18.909,8.645 -4.322,0 -8.638,-0.545 -12.422,-2.161 -3.782,-1.079 -7.566,-3.24 -11.343,-5.939 -3.239,-2.161 -5.938,-4.322 -8.099,-7.022 -2.162,-2.161 -3.784,-4.322 -4.861,-6.477 V 38.342 c 0,-3.783 0.544,-7.023 1.622,-9.722 1.077,-2.706 3.239,-4.866 5.4,-5.944 1.622,-1.078 3.777,-2.161 6.477,-2.7 l 8.105,-1.622 V 5.933 h -102.621 v 12.421 c 2.7,0 5.4,0.544 8.644,1.083 2.7,0.539 5.4,1.078 7.561,1.617 3.783,1.083 5.938,3.244 7.566,5.944 1.077,2.699 2.155,5.939 2.155,10.26 v 98.299 c 0,3.239 -1.078,7.021 -2.7,10.26 -1.622,3.245 -4.322,5.944 -7.021,8.105 -2.161,1.078 -4.322,2.7 -7.566,3.239 -3.305,1.105 -6.771,1.653 -10.256,1.622 v 12.421 l 80.473,4.322 2.7,-2.7 v -24.308 h 0.544 c 3.939,3.241 7.722,6.667 11.338,10.265 3.978,3.443 8.124,6.688 12.421,9.722 4.322,2.699 9.722,4.86 16.205,7.021 6.477,2.161 14.043,2.701 21.604,2.701 18.365,0 31.864,-5.401 41.047,-15.666 9.183,-10.261 13.499,-24.304 13.499,-41.586 V 38.342 c 0,-4.322 0.544,-7.567 1.622,-9.722 1.084,-2.705 3.783,-4.322 7.022,-5.944 1.622,-0.544 3.783,-1.622 6.483,-2.161 2.7,-0.544 5.399,-1.078 9.183,-1.622 V 5.938 Z m -302.451,104.243 c 0,6.482 -0.539,13.505 -1.078,20.526 -0.544,7.022 -1.622,12.96 -3.782,17.282 -2.162,5.4 -4.317,9.183 -8.1,11.882 -3.239,2.7 -7.566,3.783 -12.421,3.783 -8.644,0 -15.666,-4.321 -20.521,-12.966 -5.405,-8.637 -8.111,-22.681 -8.644,-41.585 z m 64.268,-64.279 c -3.778,-6.477 -8.638,-12.416 -14.043,-18.36 -5.4,-5.938 -11.883,-10.26 -18.905,-14.582 -7.56,-4.322 -15.121,-7.566 -22.681,-9.722 C -973.259,1.077 -982.437,0 -992.158,0 c -16.743,0 -30.787,2.155 -43.208,7.021 -11.883,4.861 -22.143,10.799 -29.704,18.899 -8.105,8.105 -13.504,17.288 -17.826,28.087 -3.938,11.286 -5.945,23.155 -5.939,35.108 0,11.339 2.161,22.683 6.478,32.943 4.321,10.265 10.266,19.987 17.826,28.087 7.561,8.099 17.282,14.587 29.165,19.443 12.342,5.043 25.554,7.614 38.886,7.566 15.666,0 28.631,-2.167 38.886,-5.944 10.266,-3.783 18.365,-9.183 24.848,-15.665 6.477,-6.478 10.8,-14.044 14.044,-22.683 2.7,-8.643 4.316,-17.826 4.316,-27.542 V 94.516 h -113.959 c 0,-23.227 4.322,-40.508 13.499,-52.391 8.644,-11.883 23.227,-17.821 42.131,-17.821 10.804,0 19.982,2.7 28.626,8.638 8.629,5.841 15.979,13.376 21.604,22.149 l 12.421,-9.183 z M -1109.9,231.7 c -4.322,-0.545 -8.1,-1.078 -11.344,-1.622 -3.238,-0.539 -6.477,-1.078 -10.799,-2.161 -4.861,-1.078 -7.566,-3.239 -8.644,-6.478 -1.078,-3.244 -2.161,-6.477 -2.161,-10.804 V 78.855 c -10e-4,-11.586 -2.584,-23.028 -7.56,-33.492 -4.861,-10.26 -11.344,-18.359 -19.982,-25.382 -8.644,-6.477 -18.365,-11.881 -29.165,-15.121 -10.804,-3.244 -22.148,-5.405 -34.03,-5.405 -21.066,0 -37.804,4.861 -50.769,15.127 -12.96,10.261 -19.443,23.765 -19.443,41.586 0,10.261 2.699,18.904 8.644,25.926 5.938,7.021 14.043,10.26 24.303,10.26 9.722,0 17.283,-2.7 23.226,-8.643 5.939,-5.939 8.639,-12.961 8.639,-21.065 0,-7.022 -2.7,-14.044 -7.561,-19.977 -4.861,-5.944 -10.799,-11.888 -17.282,-16.749 v -2.161 c 1.078,-2.155 3.239,-4.317 6.477,-5.939 3.245,-1.622 7.022,-2.161 10.266,-2.161 13.5,0 24.304,4.862 31.865,14.588 7.566,9.717 11.344,24.299 11.344,43.742 v 135.03 c 0,3.777 -0.545,7.56 -1.623,10.259 -1.078,2.701 -4.322,4.862 -9.183,7.023 -3.238,1.616 -7.56,2.699 -12.421,3.777 -4.86,1.083 -8.638,1.622 -11.882,2.161 v 12.966 h 127.463 V 231.7 Z"
       style="fill:#94a3b8;fill-opacity:1;fill-rule:nonzero;stroke:none"
       transform="matrix(7.3559859,0,0,-7.6591227,11734.891,2233.9108)"
       clip-path="url(#clipPath76)" /></g></svg>
