<?xml version="1.0" encoding="UTF-8" standalone="no"?>
<svg
   fill="none"
   height="48"
   viewBox="0 0 120 48"
   width="120"
   version="1.1"
   id="svg6"
   sodipodi:docname="Jira Align.svg"
   xml:space="preserve"
   inkscape:version="1.4 (86a8ad7, 2024-10-11)"
   xmlns:inkscape="http://www.inkscape.org/namespaces/inkscape"
   xmlns:sodipodi="http://sodipodi.sourceforge.net/DTD/sodipodi-0.dtd"
   xmlns="http://www.w3.org/2000/svg"
   xmlns:svg="http://www.w3.org/2000/svg"><defs
     id="defs6"><clipPath
       clipPathUnits="userSpaceOnUse"
       id="clipPath2"><path
         d="M 0,1536 H 2048 V 0 H 0 Z"
         transform="translate(-575.83621,-847.97922)"
         id="path2-0" /></clipPath><clipPath
       clipPathUnits="userSpaceOnUse"
       id="clipPath4"><path
         d="M 0,1536 H 2048 V 0 H 0 Z"
         transform="translate(-291.4852,-743.55954)"
         id="path4-9" /></clipPath><clipPath
       clipPathUnits="userSpaceOnUse"
       id="clipPath6"><path
         d="M 0,1536 H 2048 V 0 H 0 Z"
         transform="translate(-326.35021,-833.43752)"
         id="path6-4" /></clipPath><clipPath
       clipPathUnits="userSpaceOnUse"
       id="clipPath2-4"><path
         d="M 0,2500 H 1535 V 0 H 0 Z"
         transform="translate(-1435.5166,-1463.4269)"
         id="path2" /></clipPath><clipPath
       clipPathUnits="userSpaceOnUse"
       id="clipPath4-5"><path
         d="M 0,2500 H 1535 V 0 H 0 Z"
         transform="translate(-123.61431,-1293.839)"
         id="path4" /></clipPath><clipPath
       clipPathUnits="userSpaceOnUse"
       id="clipPath6-5"><path
         d="M 0,2500 H 1535 V 0 H 0 Z"
         transform="translate(-277.54251,-962.21735)"
         id="path6" /></clipPath><clipPath
       clipPathUnits="userSpaceOnUse"
       id="clipPath8"><path
         d="M 0,2500 H 1535 V 0 H 0 Z"
         transform="translate(-1047.7266,-1459.6495)"
         id="path8" /></clipPath><clipPath
       clipPathUnits="userSpaceOnUse"
       id="clipPath10"><path
         d="M 0,2500 H 1535 V 0 H 0 Z"
         transform="translate(-961.3105,-1018.3864)"
         id="path10" /></clipPath><clipPath
       clipPathUnits="userSpaceOnUse"
       id="clipPath12"><path
         d="M 0,2500 H 1535 V 0 H 0 Z"
         transform="translate(-356.39791,-1908.4733)"
         id="path12" /></clipPath><clipPath
       clipPathUnits="userSpaceOnUse"
       id="clipPath14"><path
         d="M 0,2500 H 1535 V 0 H 0 Z"
         transform="translate(-384.48491,-1926.2941)"
         id="path14" /></clipPath><clipPath
       clipPathUnits="userSpaceOnUse"
       id="clipPath16"><path
         d="M 0,2500 H 1535 V 0 H 0 Z"
         transform="translate(-1129.2765,-2207.1466)"
         id="path16" /></clipPath><clipPath
       clipPathUnits="userSpaceOnUse"
       id="clipPath18"><path
         d="M 0,2500 H 1535 V 0 H 0 Z"
         transform="translate(-805.76072,-2115.8697)"
         id="path18" /></clipPath><clipPath
       clipPathUnits="userSpaceOnUse"
       id="clipPath20"><path
         d="M 0,2500 H 1535 V 0 H 0 Z"
         transform="translate(-591.34231,-990.30432)"
         id="path20" /></clipPath><clipPath
       clipPathUnits="userSpaceOnUse"
       id="clipPath22"><path
         d="M 0,2500 H 1535 V 0 H 0 Z"
         transform="translate(-983.998,-1015.6861)"
         id="path22" /></clipPath><clipPath
       clipPathUnits="userSpaceOnUse"
       id="clipPath24"><path
         d="M 0,2500 H 1535 V 0 H 0 Z"
         transform="translate(-1009.38,-1015.6861)"
         id="path24" /></clipPath><clipPath
       clipPathUnits="userSpaceOnUse"
       id="clipPath26"><path
         d="M 0,2500 H 1535 V 0 H 0 Z"
         transform="translate(-1075.8087,-1480.1701)"
         id="path26" /></clipPath><clipPath
       clipPathUnits="userSpaceOnUse"
       id="clipPath28"><path
         d="M 0,2500 H 1535 V 0 H 0 Z"
         transform="translate(-679.91942,-513.39409)"
         id="path28" /></clipPath><clipPath
       clipPathUnits="userSpaceOnUse"
       id="clipPath30"><path
         d="M 0,2500 H 1535 V 0 H 0 Z"
         transform="translate(-951.04495,-1018.3864)"
         id="path30" /></clipPath><clipPath
       clipPathUnits="userSpaceOnUse"
       id="clipPath32"><path
         d="M 0,2500 H 1535 V 0 H 0 Z"
         transform="translate(-1105.5177,-803.96735)"
         id="path32" /></clipPath><clipPath
       clipPathUnits="userSpaceOnUse"
       id="clipPath34"><path
         d="M 0,2500 H 1535 V 0 H 0 Z"
         transform="translate(-1103.8956,-855.275)"
         id="path34" /></clipPath><clipPath
       clipPathUnits="userSpaceOnUse"
       id="clipPath36"><path
         d="M 0,2500 H 1535 V 0 H 0 Z"
         transform="translate(-1003.4355,-1036.2125)"
         id="path36" /></clipPath><clipPath
       clipPathUnits="userSpaceOnUse"
       id="clipPath38"><path
         d="M 0,2500 H 1535 V 0 H 0 Z"
         transform="translate(-1014.7794,-1084.8199)"
         id="path38" /></clipPath><clipPath
       clipPathUnits="userSpaceOnUse"
       id="clipPath40"><path
         d="M 0,2500 H 1535 V 0 H 0 Z"
         transform="translate(-702.60162,-1421.302)"
         id="path40" /></clipPath><clipPath
       clipPathUnits="userSpaceOnUse"
       id="clipPath42"><path
         d="M 0,2500 H 1535 V 0 H 0 Z"
         transform="translate(-588.64261,-1413.7414)"
         id="path42" /></clipPath><clipPath
       clipPathUnits="userSpaceOnUse"
       id="clipPath44"><path
         d="M 0,2500 H 1535 V 0 H 0 Z"
         transform="translate(-1105.5177,-1290.0559)"
         id="path44" /></clipPath><clipPath
       clipPathUnits="userSpaceOnUse"
       id="clipPath46"><path
         d="M 0,2500 H 1535 V 0 H 0 Z"
         transform="translate(-1105.5177,-1290.0559)"
         id="path46" /></clipPath><clipPath
       clipPathUnits="userSpaceOnUse"
       id="clipPath48"><path
         d="M 0,2500 H 1535 V 0 H 0 Z"
         transform="translate(-898.66022,-1360.8116)"
         id="path48" /></clipPath><clipPath
       clipPathUnits="userSpaceOnUse"
       id="clipPath50"><path
         d="M 0,2500 H 1535 V 0 H 0 Z"
         transform="translate(-898.66022,-1360.8116)"
         id="path50" /></clipPath><clipPath
       clipPathUnits="userSpaceOnUse"
       id="clipPath52"><path
         d="M 0,2500 H 1535 V 0 H 0 Z"
         transform="translate(-922.9639,-1313.821)"
         id="path52" /></clipPath><clipPath
       clipPathUnits="userSpaceOnUse"
       id="clipPath54"><path
         d="M 0,2500 H 1535 V 0 H 0 Z"
         transform="translate(-922.9639,-1313.821)"
         id="path54" /></clipPath><clipPath
       clipPathUnits="userSpaceOnUse"
       id="clipPath56"><path
         d="M 0,2500 H 1535 V 0 H 0 Z"
         transform="translate(-738.24902,-1212.2839)"
         id="path56" /></clipPath><clipPath
       clipPathUnits="userSpaceOnUse"
       id="clipPath58"><path
         d="M 0,2500 H 1535 V 0 H 0 Z"
         transform="translate(-828.98635,-1654.6246)"
         id="path58" /></clipPath><clipPath
       clipPathUnits="userSpaceOnUse"
       id="clipPath60"><path
         d="M 0,2500 H 1535 V 0 H 0 Z"
         transform="translate(-1128.1992,-1238.2096)"
         id="path60" /></clipPath><clipPath
       clipPathUnits="userSpaceOnUse"
       id="clipPath62"><path
         d="M 0,2500 H 1535 V 0 H 0 Z"
         transform="translate(-1346.4004,-906.04355)"
         id="path62" /></clipPath><clipPath
       clipPathUnits="userSpaceOnUse"
       id="clipPath64"><path
         d="M 0,2500 H 1535 V 0 H 0 Z"
         transform="translate(-1060.1484,-760.22134)"
         id="path64" /></clipPath><clipPath
       clipPathUnits="userSpaceOnUse"
       id="clipPath66"><path
         d="M 0,2500 H 1535 V 0 H 0 Z"
         transform="translate(-1001.8194,-1429.9406)"
         id="path66" /></clipPath><clipPath
       clipPathUnits="userSpaceOnUse"
       id="clipPath68"><path
         d="M 0,2500 H 1535 V 0 H 0 Z"
         transform="translate(-784.69532,-1147.4713)"
         id="path68" /></clipPath><clipPath
       clipPathUnits="userSpaceOnUse"
       id="clipPath70"><path
         d="M 0,2500 H 1535 V 0 H 0 Z"
         transform="translate(-1181.1289,-1064.2936)"
         id="path70" /></clipPath><clipPath
       clipPathUnits="userSpaceOnUse"
       id="clipPath72"><path
         d="M 0,2500 H 1535 V 0 H 0 Z"
         transform="translate(-767.95802,-1677.8507)"
         id="path72" /></clipPath><clipPath
       clipPathUnits="userSpaceOnUse"
       id="clipPath74"><path
         d="M 0,2500 H 1535 V 0 H 0 Z"
         transform="translate(-1005.5967,-1173.9362)"
         id="path74" /></clipPath><clipPath
       clipPathUnits="userSpaceOnUse"
       id="clipPath76"><path
         d="M 0,2500 H 1535 V 0 H 0 Z"
         transform="translate(-1379.8818,-115.88343)"
         id="path76" /></clipPath></defs><sodipodi:namedview
     id="namedview6"
     pagecolor="#505050"
     bordercolor="#eeeeee"
     borderopacity="1"
     inkscape:showpageshadow="0"
     inkscape:pageopacity="0"
     inkscape:pagecheckerboard="0"
     inkscape:deskcolor="#505050"
     inkscape:zoom="6.8"
     inkscape:cx="72.867647"
     inkscape:cy="25.514706"
     inkscape:window-width="1600"
     inkscape:window-height="829"
     inkscape:window-x="-8"
     inkscape:window-y="-8"
     inkscape:window-maximized="1"
     inkscape:current-layer="layer-MC0"><inkscape:page
       x="0"
       y="0"
       width="120"
       height="48"
       id="page6"
       margin="0"
       bleed="0" /><inkscape:page
       x="130"
       y="0"
       width="2730.6667"
       height="2048"
       id="page7"
       margin="855.45734 253.16 855.45734 253.15866"
       bleed="0" /><inkscape:page
       x="2870.6667"
       y="0"
       width="2046.6667"
       height="3333.3333"
       id="page8"
       margin="153.78534 100.24 155.69333 100.72747"
       bleed="0" /></sodipodi:namedview><clipPath
     id="a"><path
       d="m0 11h120v25.632h-120z"
       id="path1" /></clipPath><g
     id="layer-MC0"
     inkscape:groupmode="layer"
     inkscape:label="katman 1"
     transform="matrix(0.00927975,0,0,0.00802468,2.7395412,13.924085)"><g
       transform="matrix(33.03406,0,0,38.53522,119.41296,-57.276737)"
       id="g18">
	
		<linearGradient
   id="SVGID_1_"
   gradientUnits="userSpaceOnUse"
   x1="-656.89099"
   y1="495.28009"
   x2="-655.89099"
   y2="495.28009"
   gradientTransform="matrix(5.6040865,-28.834117,-28.879416,-5.5952962,18011.606,-16123.619)">
		<stop
   offset="0"
   style="stop-color:#0052CC"
   id="stop1" />
		<stop
   offset="0.15"
   style="stop-color:#0052CC"
   id="stop2" />
		<stop
   offset="0.5"
   style="stop-color:#0E64DE"
   id="stop3" />
		<stop
   offset="1"
   style="stop-color:#2684FF"
   id="stop4" />
	</linearGradient>
	<path
   class="st0"
   d="M 0,-1.8112044 C 0,10.279754 9.8760786,20.140341 21.986032,20.140341 h 20.340019 v 20.308114 h 21.86846 V 1.7104338 c 0,-1.87820706 -1.528441,-3.5216382 -3.409598,-3.5216382 z"
   id="path4-1"
   style="fill:url(#SVGID_1_);stroke-width:1.1748" />
	
		<linearGradient
   id="SVGID_2_"
   gradientUnits="userSpaceOnUse"
   x1="-642.43848"
   y1="547.25562"
   x2="-641.43848"
   y2="547.25562"
   gradientTransform="matrix(-5.6172546,28.847382,28.892702,5.6084436,-19383.105,15477.957)">
		<stop
   offset="0"
   style="stop-color:#0052CC"
   id="stop5" />
		<stop
   offset="0.15"
   style="stop-color:#0052CC"
   id="stop6" />
		<stop
   offset="0.5"
   style="stop-color:#0E64DE"
   id="stop7" />
		<stop
   offset="1"
   style="stop-color:#2684FF"
   id="stop8" />
	</linearGradient>
	<path
   class="st1"
   d="m 64.194511,62.4 c 0,-11.97357 -9.876078,-21.834157 -21.86846,-21.951545 H 21.986032 V 20.140341 H 0 V 58.878362 C 0,60.756569 1.6460131,62.4 3.5271709,62.4 Z"
   id="path8-5"
   style="fill:url(#SVGID_2_);stroke-width:1.1748" />
	<g
   id="g17">
		<path
   class="st2"
   d="m 97.733445,9.9468711 h 6.858965 V 40.352509 c 0,8.093043 -4.08065,13.614464 -13.544286,13.614464 C 88.269808,54.042609 85.491493,53.588794 82.8,52.832435 v -5.823966 c 2.257381,0.756359 4.688407,1.134539 7.119433,1.134539 5.817098,0 7.814012,-3.025437 7.814012,-7.41232 z"
   id="path9"
   style="stroke-width:0.810363;fill:#94a3b8;fill-opacity:1" />
		<path
   class="st2"
   d="m 117.00801,7.6021577 c 0.0868,0 0.17364,0 0.34729,0 2.3442,0 4.25429,1.6639901 4.25429,3.7061603 0,0.07564 0,0.151271 0,0.302543 0,2.193442 -2.08373,4.008704 -4.60158,4.008704 -2.51785,0 -4.60159,-1.815262 -4.60159,-4.008704 0,-0.07564 0,-0.151272 0,-0.302543 0,-2.0421702 1.91009,-3.7061603 4.2543,-3.7061603 0.17364,0 0.26046,0 0.34729,0 z m -3.38607,12.7824693 h 6.59849 V 53.66443 h -6.59849 z"
   id="path10-2"
   style="stroke-width:0.810363;fill:#94a3b8;fill-opacity:1" />
		<path
   class="st2"
   d="m 136.71668,53.66443 h -6.42485 V 20.384627 h 6.42485 v 5.823966 c 2.25738,-3.933068 5.99074,-6.731597 13.54429,-6.277781 v 5.597057 c -8.42177,-0.756359 -13.54429,1.437083 -13.54429,8.546859 z"
   id="path11"
   style="stroke-width:0.810363;fill:#94a3b8;fill-opacity:1" />
		<path
   class="st2"
   d="m 181.0829,47.689192 c -2.43102,4.386883 -7.03261,6.655961 -12.93653,6.655961 -10.15821,0 -15.28073,-7.487956 -15.28073,-17.320625 0,-9.378853 5.29616,-17.320624 16.06213,-17.320624 5.55664,0 9.89775,2.193442 12.15513,6.504689 v -5.823966 h 6.5985 V 53.66443 h -6.5985 z m -11.20008,1.285811 c 5.90392,0 11.20008,-3.252344 11.20008,-10.664664 v -2.647257 c 0,-7.41232 -4.86205,-10.664664 -10.41868,-10.664664 -7.3799,0 -11.20008,4.235611 -11.20008,11.950475 0,8.093042 3.64654,12.02611 10.41868,12.02611 z"
   id="path12-7"
   style="stroke-width:0.810363;fill:#94a3b8;fill-opacity:1" />
		<path
   class="st2"
   d="m 212.16531,43.831761 -4.16748,9.832669 h -7.81401 l 19.7955,-43.7175589 h 8.68223 l 19.7955,43.7175589 h -7.72719 l -4.16747,-9.908305 c -4.08065,0.756359 -8.24813,1.134539 -12.4156,1.210174 -4.08065,-0.07563 -8.07448,-0.453815 -11.98148,-1.134538 z M 234.56547,38.764154 224.40726,14.78757 214.24904,38.83979 c 3.29925,0.453816 6.5985,0.75636 9.89775,0.75636 3.4729,-0.07564 6.94579,-0.302544 10.41868,-0.831996 z"
   id="path13"
   style="stroke-width:0.810363;fill:#94a3b8;fill-opacity:1" />
		<path
   class="st2"
   d="m 263.30367,53.815701 c -6.25121,0 -10.24503,-2.571621 -10.24503,-8.69813 V 6.467619 h 6.59849 v 37.969229 c 0,3.025437 2.25739,4.084339 5.12252,4.084339 0.60776,0 1.30234,0 1.91009,-0.07563 v 5.143242 c -1.12869,0.226907 -2.25738,0.302543 -3.38607,0.226907 z"
   id="path14-6"
   style="stroke-width:0.810363;fill:#94a3b8;fill-opacity:1" />
		<path
   class="st2"
   d="m 276.41385,7.6021577 c 0.0868,0 0.17364,0 0.34729,0 2.3442,0 4.25429,1.6639901 4.25429,3.7061603 0,0.07564 0,0.151271 0,0.302543 0,2.193442 -2.08373,4.008704 -4.60158,4.008704 -2.51785,0 -4.60159,-1.815262 -4.60159,-4.008704 0,-0.07564 0,-0.151272 0,-0.302543 0,-2.0421702 1.9101,-3.7061603 4.2543,-3.7061603 0.17364,0 0.26047,0 0.34729,0 z m -3.38607,12.7824693 h 6.5985 V 53.66443 h -6.5985 z"
   id="path15"
   style="stroke-width:0.810363;fill:#94a3b8;fill-opacity:1" />
		<path
   class="st2"
   d="m 315.31026,47.689192 c -2.43102,4.386883 -7.03261,6.655961 -12.93653,6.655961 -10.07139,0 -15.10709,-7.487956 -15.10709,-17.320625 0,-9.378853 5.29617,-17.320624 15.88849,-17.320624 5.55663,0 9.89775,2.193442 12.15513,6.504689 v -5.823966 h 6.42486 v 30.254366 c 0,9.757033 -5.29617,16.337358 -18.92728,16.337358 -4.60158,0.151271 -9.20317,-0.529452 -13.63111,-1.815262 v -5.521422 c 4.2543,1.28581 8.76906,1.966534 13.28382,2.04217 9.55046,0 12.84971,-4.462519 12.84971,-10.664664 z m -11.20008,1.285811 c 5.90392,0 11.20008,-3.252344 11.20008,-10.664664 v -2.647257 c 0,-7.41232 -4.77523,-10.664664 -10.41868,-10.664664 -7.3799,0 -11.20008,4.235611 -11.20008,11.950475 0,8.093042 3.64654,12.02611 10.41868,12.02611 z"
   id="path16-1"
   style="stroke-width:0.810363;fill:#94a3b8;fill-opacity:1" />
		<path
   class="st2"
   d="m 364.10443,53.66443 h -6.5985 V 33.545276 c 0,-5.975237 -2.77832,-8.622494 -9.02953,-8.622494 -6.07756,0 -10.33186,3.554888 -10.33186,10.286485 v 18.530799 h -6.5985 V 20.460263 h 6.5985 v 5.445786 c 2.34421,-3.857432 7.03261,-6.202145 12.06831,-6.126509 8.76906,0 13.80475,5.294514 13.80475,14.44646 z"
   id="path17"
   style="stroke-width:0.810363;fill:#94a3b8;fill-opacity:1" />
	</g>
</g></g><style
     type="text/css"
     id="style1">
	.st0{fill:#010202;}
</style><style
     type="text/css"
     id="style1-1">
	.st0{fill:url(#SVGID_1_);}
	.st1{fill:url(#SVGID_2_);}
	.st2{fill:#253858;}
</style></svg>
