<?xml version="1.0" encoding="UTF-8" standalone="no"?>
<svg
   fill="none"
   height="48"
   viewBox="0 0 120 48"
   width="120"
   version="1.1"
   id="svg6"
   sodipodi:docname="Kubernetes.svg"
   xml:space="preserve"
   inkscape:version="1.4 (86a8ad7, 2024-10-11)"
   xmlns:inkscape="http://www.inkscape.org/namespaces/inkscape"
   xmlns:sodipodi="http://sodipodi.sourceforge.net/DTD/sodipodi-0.dtd"
   xmlns="http://www.w3.org/2000/svg"
   xmlns:svg="http://www.w3.org/2000/svg"><defs
     id="defs6"><clipPath
       clipPathUnits="userSpaceOnUse"
       id="clipPath2"><path
         d="M 0,1536 H 2048 V 0 H 0 Z"
         transform="translate(-575.83621,-847.97922)"
         id="path2-0" /></clipPath><clipPath
       clipPathUnits="userSpaceOnUse"
       id="clipPath4"><path
         d="M 0,1536 H 2048 V 0 H 0 Z"
         transform="translate(-291.4852,-743.55954)"
         id="path4-9" /></clipPath><clipPath
       clipPathUnits="userSpaceOnUse"
       id="clipPath6"><path
         d="M 0,1536 H 2048 V 0 H 0 Z"
         transform="translate(-326.35021,-833.43752)"
         id="path6-4" /></clipPath><clipPath
       clipPathUnits="userSpaceOnUse"
       id="clipPath2-4"><path
         d="M 0,2500 H 1535 V 0 H 0 Z"
         transform="translate(-1435.5166,-1463.4269)"
         id="path2" /></clipPath><clipPath
       clipPathUnits="userSpaceOnUse"
       id="clipPath4-5"><path
         d="M 0,2500 H 1535 V 0 H 0 Z"
         transform="translate(-123.61431,-1293.839)"
         id="path4" /></clipPath><clipPath
       clipPathUnits="userSpaceOnUse"
       id="clipPath6-5"><path
         d="M 0,2500 H 1535 V 0 H 0 Z"
         transform="translate(-277.54251,-962.21735)"
         id="path6" /></clipPath><clipPath
       clipPathUnits="userSpaceOnUse"
       id="clipPath8"><path
         d="M 0,2500 H 1535 V 0 H 0 Z"
         transform="translate(-1047.7266,-1459.6495)"
         id="path8" /></clipPath><clipPath
       clipPathUnits="userSpaceOnUse"
       id="clipPath10"><path
         d="M 0,2500 H 1535 V 0 H 0 Z"
         transform="translate(-961.3105,-1018.3864)"
         id="path10" /></clipPath><clipPath
       clipPathUnits="userSpaceOnUse"
       id="clipPath12"><path
         d="M 0,2500 H 1535 V 0 H 0 Z"
         transform="translate(-356.39791,-1908.4733)"
         id="path12" /></clipPath><clipPath
       clipPathUnits="userSpaceOnUse"
       id="clipPath14"><path
         d="M 0,2500 H 1535 V 0 H 0 Z"
         transform="translate(-384.48491,-1926.2941)"
         id="path14" /></clipPath><clipPath
       clipPathUnits="userSpaceOnUse"
       id="clipPath16"><path
         d="M 0,2500 H 1535 V 0 H 0 Z"
         transform="translate(-1129.2765,-2207.1466)"
         id="path16" /></clipPath><clipPath
       clipPathUnits="userSpaceOnUse"
       id="clipPath18"><path
         d="M 0,2500 H 1535 V 0 H 0 Z"
         transform="translate(-805.76072,-2115.8697)"
         id="path18" /></clipPath><clipPath
       clipPathUnits="userSpaceOnUse"
       id="clipPath20"><path
         d="M 0,2500 H 1535 V 0 H 0 Z"
         transform="translate(-591.34231,-990.30432)"
         id="path20" /></clipPath><clipPath
       clipPathUnits="userSpaceOnUse"
       id="clipPath22"><path
         d="M 0,2500 H 1535 V 0 H 0 Z"
         transform="translate(-983.998,-1015.6861)"
         id="path22" /></clipPath><clipPath
       clipPathUnits="userSpaceOnUse"
       id="clipPath24"><path
         d="M 0,2500 H 1535 V 0 H 0 Z"
         transform="translate(-1009.38,-1015.6861)"
         id="path24" /></clipPath><clipPath
       clipPathUnits="userSpaceOnUse"
       id="clipPath26"><path
         d="M 0,2500 H 1535 V 0 H 0 Z"
         transform="translate(-1075.8087,-1480.1701)"
         id="path26" /></clipPath><clipPath
       clipPathUnits="userSpaceOnUse"
       id="clipPath28"><path
         d="M 0,2500 H 1535 V 0 H 0 Z"
         transform="translate(-679.91942,-513.39409)"
         id="path28" /></clipPath><clipPath
       clipPathUnits="userSpaceOnUse"
       id="clipPath30"><path
         d="M 0,2500 H 1535 V 0 H 0 Z"
         transform="translate(-951.04495,-1018.3864)"
         id="path30" /></clipPath><clipPath
       clipPathUnits="userSpaceOnUse"
       id="clipPath32"><path
         d="M 0,2500 H 1535 V 0 H 0 Z"
         transform="translate(-1105.5177,-803.96735)"
         id="path32" /></clipPath><clipPath
       clipPathUnits="userSpaceOnUse"
       id="clipPath34"><path
         d="M 0,2500 H 1535 V 0 H 0 Z"
         transform="translate(-1103.8956,-855.275)"
         id="path34" /></clipPath><clipPath
       clipPathUnits="userSpaceOnUse"
       id="clipPath36"><path
         d="M 0,2500 H 1535 V 0 H 0 Z"
         transform="translate(-1003.4355,-1036.2125)"
         id="path36" /></clipPath><clipPath
       clipPathUnits="userSpaceOnUse"
       id="clipPath38"><path
         d="M 0,2500 H 1535 V 0 H 0 Z"
         transform="translate(-1014.7794,-1084.8199)"
         id="path38" /></clipPath><clipPath
       clipPathUnits="userSpaceOnUse"
       id="clipPath40"><path
         d="M 0,2500 H 1535 V 0 H 0 Z"
         transform="translate(-702.60162,-1421.302)"
         id="path40" /></clipPath><clipPath
       clipPathUnits="userSpaceOnUse"
       id="clipPath42"><path
         d="M 0,2500 H 1535 V 0 H 0 Z"
         transform="translate(-588.64261,-1413.7414)"
         id="path42" /></clipPath><clipPath
       clipPathUnits="userSpaceOnUse"
       id="clipPath44"><path
         d="M 0,2500 H 1535 V 0 H 0 Z"
         transform="translate(-1105.5177,-1290.0559)"
         id="path44" /></clipPath><clipPath
       clipPathUnits="userSpaceOnUse"
       id="clipPath46"><path
         d="M 0,2500 H 1535 V 0 H 0 Z"
         transform="translate(-1105.5177,-1290.0559)"
         id="path46" /></clipPath><clipPath
       clipPathUnits="userSpaceOnUse"
       id="clipPath48"><path
         d="M 0,2500 H 1535 V 0 H 0 Z"
         transform="translate(-898.66022,-1360.8116)"
         id="path48" /></clipPath><clipPath
       clipPathUnits="userSpaceOnUse"
       id="clipPath50"><path
         d="M 0,2500 H 1535 V 0 H 0 Z"
         transform="translate(-898.66022,-1360.8116)"
         id="path50" /></clipPath><clipPath
       clipPathUnits="userSpaceOnUse"
       id="clipPath52"><path
         d="M 0,2500 H 1535 V 0 H 0 Z"
         transform="translate(-922.9639,-1313.821)"
         id="path52" /></clipPath><clipPath
       clipPathUnits="userSpaceOnUse"
       id="clipPath54"><path
         d="M 0,2500 H 1535 V 0 H 0 Z"
         transform="translate(-922.9639,-1313.821)"
         id="path54" /></clipPath><clipPath
       clipPathUnits="userSpaceOnUse"
       id="clipPath56"><path
         d="M 0,2500 H 1535 V 0 H 0 Z"
         transform="translate(-738.24902,-1212.2839)"
         id="path56" /></clipPath><clipPath
       clipPathUnits="userSpaceOnUse"
       id="clipPath58"><path
         d="M 0,2500 H 1535 V 0 H 0 Z"
         transform="translate(-828.98635,-1654.6246)"
         id="path58" /></clipPath><clipPath
       clipPathUnits="userSpaceOnUse"
       id="clipPath60"><path
         d="M 0,2500 H 1535 V 0 H 0 Z"
         transform="translate(-1128.1992,-1238.2096)"
         id="path60" /></clipPath><clipPath
       clipPathUnits="userSpaceOnUse"
       id="clipPath62"><path
         d="M 0,2500 H 1535 V 0 H 0 Z"
         transform="translate(-1346.4004,-906.04355)"
         id="path62" /></clipPath><clipPath
       clipPathUnits="userSpaceOnUse"
       id="clipPath64"><path
         d="M 0,2500 H 1535 V 0 H 0 Z"
         transform="translate(-1060.1484,-760.22134)"
         id="path64" /></clipPath><clipPath
       clipPathUnits="userSpaceOnUse"
       id="clipPath66"><path
         d="M 0,2500 H 1535 V 0 H 0 Z"
         transform="translate(-1001.8194,-1429.9406)"
         id="path66" /></clipPath><clipPath
       clipPathUnits="userSpaceOnUse"
       id="clipPath68"><path
         d="M 0,2500 H 1535 V 0 H 0 Z"
         transform="translate(-784.69532,-1147.4713)"
         id="path68" /></clipPath><clipPath
       clipPathUnits="userSpaceOnUse"
       id="clipPath70"><path
         d="M 0,2500 H 1535 V 0 H 0 Z"
         transform="translate(-1181.1289,-1064.2936)"
         id="path70" /></clipPath><clipPath
       clipPathUnits="userSpaceOnUse"
       id="clipPath72"><path
         d="M 0,2500 H 1535 V 0 H 0 Z"
         transform="translate(-767.95802,-1677.8507)"
         id="path72" /></clipPath><clipPath
       clipPathUnits="userSpaceOnUse"
       id="clipPath74"><path
         d="M 0,2500 H 1535 V 0 H 0 Z"
         transform="translate(-1005.5967,-1173.9362)"
         id="path74" /></clipPath><clipPath
       clipPathUnits="userSpaceOnUse"
       id="clipPath76"><path
         d="M 0,2500 H 1535 V 0 H 0 Z"
         transform="translate(-1379.8818,-115.88343)"
         id="path76" /></clipPath><style
       id="style1-2">
      .cls-1 {
        fill: #1d63ed;
        stroke-width: 0px;
      }
    </style></defs><sodipodi:namedview
     id="namedview6"
     pagecolor="#505050"
     bordercolor="#eeeeee"
     borderopacity="1"
     inkscape:showpageshadow="0"
     inkscape:pageopacity="0"
     inkscape:pagecheckerboard="0"
     inkscape:deskcolor="#505050"
     inkscape:zoom="7.13"
     inkscape:cx="72.019635"
     inkscape:cy="26.01683"
     inkscape:window-width="1600"
     inkscape:window-height="829"
     inkscape:window-x="-8"
     inkscape:window-y="-8"
     inkscape:window-maximized="1"
     inkscape:current-layer="layer1"><inkscape:page
       x="0"
       y="0"
       width="120"
       height="48"
       id="page6"
       margin="0"
       bleed="0" /><inkscape:page
       x="130"
       y="0"
       width="2730.6667"
       height="2048"
       id="page7"
       margin="855.45734 253.16 855.45734 253.15866"
       bleed="0" /><inkscape:page
       x="2870.6667"
       y="0"
       width="2046.6667"
       height="3333.3333"
       id="page8"
       margin="153.78534 100.24 155.69333 100.72747"
       bleed="0" /></sodipodi:namedview><clipPath
     id="a"><path
       d="m0 11h120v25.632h-120z"
       id="path1" /></clipPath><g
     id="layer-MC0"
     inkscape:groupmode="layer"
     inkscape:label="katman 1"
     transform="matrix(0.00927975,0,0,0.00802468,3.7077293,16.966962)"><g
       id="Layer_2"
       transform="matrix(25.245746,0,0,30.875347,-2074.4074,-6662.8791)">
	<g
   id="Layer_1-2">
		<path
   class="st0"
   d="m 154.2,220.8 c -0.5,-1.6 -1.7,-2.9 -3.2,-3.7 l -30.5,-14.6 c -0.8,-0.4 -1.7,-0.5 -2.5,-0.5 -0.8,0 -1.7,0 -2.5,0.2 L 85,216.9 c -1.5,0.7 -2.6,2 -3,3.7 l -7.5,32.9 c -0.3,1.7 0.1,3.4 1.1,4.8 l 21.1,26.1 c 1.2,1.2 2.9,2 4.6,2.1 h 33.6 c 1.8,0.2 3.5,-0.6 4.6,-2.1 l 21.1,-26.1 c 1,-1.4 1.4,-3.1 1.2,-4.8 z"
   id="path1-1"
   style="fill:#94a3b8;fill-opacity:1" />
		<path
   class="st1"
   d="m 154.2,220.8 c -0.5,-1.6 -1.7,-2.9 -3.2,-3.7 l -30.5,-14.6 c -0.8,-0.4 -1.7,-0.5 -2.5,-0.5 -0.8,0 -1.7,0 -2.5,0.2 L 85,216.9 c -1.5,0.7 -2.6,2 -3,3.7 l -7.5,32.9 c -0.3,1.7 0.1,3.4 1.1,4.8 l 21.1,26.1 c 1.2,1.2 2.9,2 4.6,2.1 h 33.6 c 1.8,0.2 3.5,-0.6 4.6,-2.1 l 21.1,-26.1 c 1,-1.4 1.4,-3.1 1.2,-4.8 z"
   id="path2-2" />
		<path
   class="st2"
   d="m 149.5,252.2 v 0 c -0.1,0 -0.2,0 -0.2,-0.1 0,-0.1 -0.2,-0.1 -0.4,-0.1 -0.4,-0.1 -0.8,-0.1 -1.2,-0.1 -0.2,0 -0.4,0 -0.6,-0.1 H 147 c -1.1,-0.1 -2.3,-0.3 -3.4,-0.6 -0.3,-0.1 -0.6,-0.4 -0.7,-0.7 0.1,0 0,0 0,0 v 0 l -0.8,-0.2 c 0.4,-2.9 0.2,-5.9 -0.4,-8.8 -0.7,-2.9 -1.9,-5.7 -3.5,-8.2 l 0.6,-0.6 v 0 -0.1 c 0,-0.3 0.1,-0.7 0.3,-0.9 0.9,-0.8 1.8,-1.4 2.8,-2 v 0 c 0.2,-0.1 0.4,-0.2 0.6,-0.3 0.4,-0.2 0.7,-0.4 1.1,-0.6 0.1,-0.1 0.2,-0.1 0.3,-0.2 0.1,-0.1 0,-0.1 0,-0.2 v 0 c 0.9,-0.7 1.1,-1.9 0.4,-2.8 -0.3,-0.4 -0.9,-0.7 -1.4,-0.7 -0.5,0 -1,0.2 -1.4,0.5 v 0 l -0.1,0.1 c -0.1,0.1 -0.2,0.2 -0.3,0.2 -0.3,0.3 -0.6,0.6 -0.8,0.9 -0.1,0.2 -0.3,0.3 -0.4,0.4 v 0 c -0.7,0.8 -1.6,1.6 -2.5,2.2 -0.2,0.1 -0.4,0.2 -0.6,0.2 -0.1,0 -0.3,0 -0.4,-0.1 h -0.1 l -0.8,0.5 c -0.8,-0.8 -1.7,-1.6 -2.5,-2.4 -3.7,-2.9 -8.3,-4.7 -13,-5.2 l -0.1,-0.8 v 0 0.1 c -0.3,-0.2 -0.4,-0.5 -0.5,-0.8 0,-1.1 0,-2.2 0.2,-3.4 v -0.1 c 0,-0.2 0.1,-0.4 0.1,-0.6 0.1,-0.4 0.1,-0.8 0.2,-1.2 v -0.6 0 c 0.1,-1 -0.7,-2 -1.7,-2.1 -0.6,-0.1 -1.2,0.2 -1.7,0.7 -0.4,0.4 -0.6,0.9 -0.6,1.4 v 0 0.5 c 0,0.4 0.1,0.8 0.2,1.2 0.1,0.2 0.1,0.4 0.1,0.6 v 0.1 c 0.2,1.1 0.2,2.2 0.2,3.4 -0.1,0.3 -0.2,0.6 -0.5,0.8 v 0.2 0 l -0.1,0.8 c -1.1,0.1 -2.2,0.3 -3.4,0.5 -4.7,1 -9,3.5 -12.3,7 l -0.6,-0.4 h -0.1 c -0.1,0 -0.2,0.1 -0.4,0.1 -0.2,0 -0.4,-0.1 -0.6,-0.2 -0.9,-0.7 -1.8,-1.5 -2.5,-2.3 v 0 c -0.1,-0.2 -0.3,-0.3 -0.4,-0.4 -0.3,-0.3 -0.5,-0.6 -0.8,-0.9 -0.1,-0.1 -0.2,-0.1 -0.3,-0.2 -0.1,-0.1 -0.1,-0.1 -0.1,-0.1 v 0 c -0.4,-0.3 -0.9,-0.5 -1.4,-0.5 -0.6,0 -1.1,0.2 -1.4,0.7 -0.6,0.9 -0.4,2.1 0.4,2.8 v 0 c 0.1,0 0.1,0.1 0.1,0.1 0,0 0.2,0.2 0.3,0.2 0.3,0.2 0.7,0.4 1.1,0.6 0.2,0.1 0.4,0.2 0.6,0.3 v 0 c 1,0.6 2,1.2 2.8,2 0.2,0.2 0.4,0.6 0.3,0.9 v -0.1 0 l 0.6,0.6 c -0.1,0.2 -0.2,0.3 -0.3,0.5 -3.1,4.9 -4.4,10.7 -3.5,16.4 l -0.8,0.2 v 0 c 0,0.1 -0.1,0.1 -0.1,0.1 -0.1,0.3 -0.4,0.5 -0.7,0.7 -1.1,0.3 -2.2,0.5 -3.4,0.6 v 0 c -0.2,0 -0.4,0 -0.6,0.1 -0.4,0 -0.8,0.1 -1.2,0.1 -0.1,0 -0.2,0.1 -0.4,0.1 -0.1,0 -0.1,0 -0.2,0.1 v 0 c -1.1,0.2 -1.8,1.2 -1.6,2.3 v 0 c 0.2,0.9 1.1,1.5 2,1.4 0.2,0 0.3,0 0.5,-0.1 v 0 c 0.1,0 0.1,0 0.1,-0.1 0,-0.1 0.3,0 0.4,0 0.4,-0.1 0.8,-0.3 1.1,-0.4 0.2,-0.1 0.4,-0.2 0.6,-0.2 h 0.1 c 1.1,-0.4 2.1,-0.7 3.3,-0.9 h 0.1 c 0.3,0 0.6,0.1 0.8,0.3 0.1,0 0.1,0.1 0.1,0.1 v 0 l 0.9,-0.1 c 1.5,4.6 4.3,8.7 8.2,11.7 0.9,0.7 1.7,1.3 2.7,1.8 l -0.5,0.7 v 0 c 0,0.1 0.1,0.1 0.1,0.1 0.2,0.3 0.2,0.7 0.1,1 -0.4,1 -1,2 -1.6,2.9 v 0.1 c -0.1,0.2 -0.2,0.3 -0.4,0.5 -0.2,0.2 -0.4,0.6 -0.7,1 -0.1,0.1 -0.1,0.2 -0.2,0.3 0,0 0,0.1 -0.1,0.1 v 0 c -0.5,1 -0.1,2.2 0.8,2.7 0.2,0.1 0.5,0.2 0.7,0.2 0.8,0 1.5,-0.5 1.9,-1.2 v 0 c 0,0 0,-0.1 0.1,-0.1 0,-0.1 0.1,-0.2 0.2,-0.3 0.1,-0.4 0.3,-0.7 0.4,-1.1 l 0.2,-0.6 v 0 c 0.3,-1.1 0.8,-2.1 1.3,-3.1 0.2,-0.3 0.5,-0.5 0.8,-0.6 0.1,0 0.1,0 0.1,-0.1 v 0 l 0.4,-0.8 c 2.8,1.1 5.7,1.6 8.7,1.6 1.8,0 3.6,-0.2 5.4,-0.7 1.1,-0.2 2.2,-0.6 3.2,-0.9 l 0.4,0.7 v 0 c 0.1,0 0.1,0 0.1,0.1 0.3,0.1 0.6,0.3 0.8,0.6 0.5,1 1,2 1.3,3.1 v 0.1 l 0.2,0.6 c 0.1,0.4 0.2,0.8 0.4,1.1 0.1,0.1 0.1,0.2 0.2,0.3 0,0 0,0.1 0.1,0.1 v 0 c 0.4,0.7 1.1,1.2 1.9,1.2 0.3,0 0.5,-0.1 0.8,-0.2 0.4,-0.2 0.8,-0.6 0.9,-1.1 0.1,-0.5 0.1,-1 -0.1,-1.5 v 0 c 0,-0.1 -0.1,-0.1 -0.1,-0.1 0,-0.1 -0.1,-0.2 -0.2,-0.3 -0.2,-0.4 -0.4,-0.7 -0.7,-1 -0.1,-0.2 -0.2,-0.3 -0.4,-0.5 v -0.2 c -0.7,-0.9 -1.2,-1.9 -1.6,-2.9 -0.1,-0.3 -0.1,-0.7 0.1,-1 0,-0.1 0.1,-0.1 0.1,-0.1 v 0 l -0.3,-0.8 c 5.1,-3.1 9,-7.9 10.8,-13.6 l 0.8,0.1 v 0 c 0.1,0 0.1,-0.1 0.1,-0.1 0.2,-0.2 0.5,-0.3 0.8,-0.3 h 0.1 c 1.1,0.2 2.2,0.5 3.2,0.9 h 0.1 c 0.2,0.1 0.4,0.2 0.6,0.2 0.4,0.2 0.7,0.4 1.1,0.5 0.1,0 0.2,0.1 0.4,0.1 0.1,0 0.1,0 0.2,0.1 v 0 c 0.2,0.1 0.3,0.1 0.5,0.1 0.9,0 1.7,-0.6 2,-1.4 -0.1,-1.1 -0.9,-1.9 -1.8,-2.1 z m -28.9,-3.1 -2.7,1.3 -2.7,-1.3 -0.7,-2.9 1.9,-2.4 h 3 l 1.9,2.4 z m 16.3,-6.5 c 0.5,2.1 0.6,4.2 0.4,6.3 l -9.5,-2.7 v 0 c -0.9,-0.2 -1.4,-1.1 -1.2,-2 0.1,-0.3 0.2,-0.5 0.4,-0.7 l 7.5,-6.8 c 1.1,1.8 1.9,3.8 2.4,5.9 z m -5.4,-9.6 -8.2,5.8 c -0.7,0.4 -1.7,0.3 -2.2,-0.4 -0.2,-0.2 -0.3,-0.4 -0.3,-0.7 l -0.6,-10.1 c 4.4,0.5 8.3,2.4 11.3,5.4 z m -18.1,-5.1 2,-0.4 -0.5,10 v 0 c 0,0.9 -0.8,1.6 -1.7,1.6 -0.3,0 -0.5,-0.1 -0.8,-0.2 l -8.3,-5.9 c 2.6,-2.5 5.8,-4.3 9.3,-5.1 z m -12.2,8.8 7.4,6.6 v 0 c 0.7,0.6 0.8,1.6 0.2,2.3 -0.2,0.3 -0.4,0.4 -0.8,0.5 l -9.7,2.8 c -0.3,-4.2 0.7,-8.5 2.9,-12.2 z m -1.7,16.9 9.9,-1.7 c 0.8,0 1.6,0.5 1.7,1.3 0.1,0.3 0.1,0.7 -0.1,1 v 0 l -3.8,9.2 c -3.5,-2.3 -6.3,-5.8 -7.7,-9.8 z m 22.7,12.4 c -1.4,0.3 -2.8,0.5 -4.3,0.5 -2.1,0 -4.3,-0.4 -6.3,-1 l 4.9,-8.9 c 0.5,-0.6 1.3,-0.8 2,-0.4 0.3,0.2 0.5,0.4 0.8,0.7 v 0 l 4.8,8.7 c -0.6,0.1 -1.2,0.2 -1.9,0.4 z m 12.2,-8.7 c -1.5,2.4 -3.6,4.5 -6,6 l -3.9,-9.4 c -0.2,-0.8 0.2,-1.6 0.9,-1.9 0.3,-0.1 0.6,-0.2 0.9,-0.2 l 10,1.7 c -0.5,1.4 -1.1,2.7 -1.9,3.8 z"
   id="path3"
   style="fill:#94a3b8;fill-opacity:1" />
		<g
   id="layer1"
   style="fill:#94a3b8;fill-opacity:1"
   transform="translate(-13.326348,0.56607096)">
			<g
   id="text4373"
   style="fill:#94a3b8;fill-opacity:1">
				<path
   id="path2985"
   class="st3"
   d="m 200,247.9 c 1.1,-1.2 2.1,-2.4 3.3,-3.6 1.1,-1.3 2.2,-2.5 3.3,-3.7 1.1,-1.3 2.1,-2.4 3,-3.5 0.9,-1.1 1.8,-2.1 2.5,-2.9 h 12.8 c -2.6,2.9 -5.1,5.8 -7.5,8.5 -2.5,2.7 -5.1,5.5 -8,8.3 1.6,1.5 3.1,3 4.5,4.7 1.5,1.8 3,3.6 4.5,5.6 1.4,1.9 2.8,3.9 4,5.8 1.2,1.9 2.2,3.7 3,5.3 H 213 c -0.8,-1.3 -1.7,-2.6 -2.7,-4.1 -1,-1.5 -2.1,-3 -3.1,-4.6 -1.1,-1.5 -2.3,-3 -3.6,-4.4 -1.1,-1.3 -2.3,-2.5 -3.6,-3.5 v 16.7 H 189.2 V 217.7 L 200,216 v 31.9"
   style="fill:#94a3b8;fill-opacity:1" />
				<path
   id="path2987"
   class="st3"
   d="m 263,270.9 c -2.3,0.6 -4.7,1.1 -7.1,1.4 -3,0.5 -6.1,0.7 -9.1,0.7 -2.8,0.1 -5.5,-0.4 -8.1,-1.3 -2,-0.8 -3.7,-2 -5.1,-3.6 -1.3,-1.7 -2.2,-3.6 -2.7,-5.7 -0.6,-2.3 -0.8,-4.8 -0.8,-7.2 v -21.1 h 10.8 V 254 c 0,3.5 0.5,6 1.4,7.5 0.9,1.5 2.6,2.3 5.1,2.3 0.8,0 1.6,0 2.5,-0.1 0.9,-0.1 1.6,-0.1 2.3,-0.3 V 234.1 H 263 v 36.8"
   style="fill:#94a3b8;fill-opacity:1" />
				<path
   id="path2989"
   class="st3"
   d="m 297.6,252.9 c 0,-7 -2.6,-10.4 -7.7,-10.4 -1.1,0 -2.2,0.1 -3.3,0.4 -0.9,0.2 -1.8,0.6 -2.6,1.1 v 19.6 c 0.5,0.1 1.2,0.2 2,0.3 0.8,0.1 1.7,0.1 2.7,0.1 2.6,0.2 5.1,-0.9 6.7,-3 1.5,-2.4 2.3,-5.2 2.2,-8.1 m 11,0.4 c 0,2.8 -0.4,5.6 -1.4,8.3 -0.8,2.4 -2.1,4.5 -3.8,6.3 -1.8,1.8 -3.9,3.2 -6.2,4.1 -2.7,1 -5.5,1.4 -8.4,1.4 -1.3,0 -2.7,-0.1 -4.1,-0.2 -1.4,-0.1 -2.8,-0.3 -4.2,-0.4 -1.3,-0.2 -2.6,-0.4 -3.9,-0.7 -1.3,-0.2 -2.4,-0.5 -3.3,-0.9 v -53.5 l 10.8,-1.7 v 19 c 1.2,-0.5 2.5,-0.9 3.8,-1.2 1.4,-0.3 2.8,-0.4 4.2,-0.4 2.5,0 4.9,0.4 7.2,1.5 2,0.9 3.8,2.3 5.2,4 1.5,1.9 2.6,4 3.2,6.3 0.6,2.5 0.9,5.3 0.9,8.1"
   style="fill:#94a3b8;fill-opacity:1" />
				<path
   id="path2991"
   class="st3"
   d="m 315.1,253.5 c -0.1,-3 0.5,-6 1.5,-8.8 0.9,-2.4 2.3,-4.5 4.1,-6.4 1.7,-1.7 3.6,-3 5.8,-3.8 2.2,-0.9 4.5,-1.3 6.8,-1.3 5.4,0 9.7,1.7 12.8,5 3.1,3.3 4.7,8.2 4.7,14.5 0,0.6 0,1.3 -0.1,2.1 -0.1,0.8 -0.1,1.4 -0.1,2 h -24.5 c 0.2,2.1 1.3,4.1 3.1,5.3 2.2,1.4 4.8,2.1 7.4,2 1.9,0 3.9,-0.2 5.8,-0.5 1.6,-0.3 3.2,-0.8 4.7,-1.4 l 1.5,8.8 c -0.7,0.4 -1.5,0.6 -2.3,0.9 -1.1,0.3 -2.2,0.6 -3.3,0.7 -1.2,0.2 -2.4,0.4 -3.8,0.6 -1.3,0.1 -2.7,0.2 -4.1,0.2 -3.1,0.1 -6.1,-0.4 -9,-1.5 -2.4,-0.9 -4.5,-2.3 -6.3,-4.1 -1.7,-1.8 -2.9,-4 -3.7,-6.3 -0.6,-2.7 -1,-5.3 -1,-8 m 25.4,-4.1 c 0,-0.9 -0.2,-1.8 -0.5,-2.7 -0.2,-0.9 -0.7,-1.6 -1.2,-2.3 -0.6,-0.7 -1.3,-1.3 -2.1,-1.7 -1,-0.5 -2,-0.7 -3.1,-0.7 -1.1,0 -2.1,0.2 -3.1,0.7 -0.8,0.4 -1.6,0.9 -2.2,1.6 -0.6,0.7 -1.1,1.5 -1.4,2.4 -0.3,0.9 -0.5,1.8 -0.6,2.7 h 14.2"
   style="fill:#94a3b8;fill-opacity:1" />
				<path
   id="path2993"
   class="st3"
   d="m 382.2,243.7 c -1,-0.2 -2.1,-0.5 -3.4,-0.7 -1.4,-0.3 -2.8,-0.4 -4.2,-0.4 -0.8,0 -1.6,0.1 -2.5,0.2 -0.7,0.1 -1.4,0.2 -2.1,0.4 v 29.1 h -10.8 v -36.2 c 2.2,-0.8 4.5,-1.4 6.8,-1.9 2.9,-0.7 5.9,-1 8.8,-0.9 0.7,0 1.4,0.1 2.1,0.1 0.8,0 1.6,0.1 2.5,0.3 0.8,0.1 1.6,0.2 2.5,0.4 0.7,0.1 1.4,0.3 2.1,0.6 l -1.8,9"
   style="fill:#94a3b8;fill-opacity:1" />
				<path
   id="path2995"
   class="st3"
   d="m 389.8,235.4 c 2.3,-0.6 4.7,-1.1 7.1,-1.5 3,-0.5 6.1,-0.7 9.1,-0.7 2.7,-0.1 5.4,0.4 8,1.3 2,0.7 3.8,1.9 5.1,3.5 1.3,1.6 2.2,3.5 2.7,5.5 0.6,2.3 0.8,4.7 0.8,7.1 v 21.5 H 411.9 V 252 c 0,-3.5 -0.5,-5.9 -1.4,-7.4 -0.9,-1.4 -2.6,-2.2 -5.1,-2.2 -0.8,0 -1.6,0 -2.5,0.1 -0.9,0 -1.6,0.1 -2.3,0.2 v 29.4 h -10.8 v -36.7"
   style="fill:#94a3b8;fill-opacity:1" />
				<path
   id="path2997"
   class="st3"
   d="m 430.8,253.5 c -0.1,-3 0.5,-6 1.5,-8.8 0.9,-2.4 2.3,-4.5 4.1,-6.4 1.7,-1.7 3.6,-3 5.8,-3.8 2.2,-0.9 4.5,-1.3 6.8,-1.3 5.4,0 9.7,1.7 12.8,5 3.1,3.3 4.7,8.2 4.7,14.6 0,0.6 0,1.3 -0.1,2.1 -0.1,0.8 -0.1,1.4 -0.1,2 h -24.5 c 0.2,2.1 1.3,4.1 3.1,5.3 2.2,1.4 4.8,2.1 7.4,2 1.9,0 3.9,-0.2 5.8,-0.5 1.6,-0.3 3.2,-0.8 4.8,-1.5 l 1.5,8.8 c -0.7,0.4 -1.5,0.6 -2.3,0.9 -1.1,0.3 -2.2,0.6 -3.3,0.7 -1.2,0.2 -2.4,0.4 -3.8,0.6 -1.3,0.1 -2.7,0.2 -4.1,0.2 -3.1,0.1 -6.1,-0.4 -9,-1.5 -2.4,-0.9 -4.5,-2.3 -6.3,-4.1 -1.7,-1.8 -2.9,-4 -3.7,-6.3 -0.8,-2.7 -1.2,-5.4 -1.1,-8 m 25.3,-4.1 c 0,-0.9 -0.2,-1.8 -0.5,-2.7 -0.2,-0.9 -0.7,-1.6 -1.2,-2.3 -0.6,-0.7 -1.3,-1.3 -2.1,-1.7 -1,-0.5 -2,-0.7 -3.1,-0.7 -1.1,0 -2.1,0.2 -3.1,0.7 -0.8,0.4 -1.5,0.9 -2.1,1.6 -0.6,0.7 -1.1,1.5 -1.4,2.4 -0.3,0.9 -0.5,1.8 -0.6,2.7 h 14.1"
   style="fill:#94a3b8;fill-opacity:1" />
				<path
   id="path2999"
   class="st3"
   d="m 474.5,224.6 10.8,-1.7 v 11.2 h 13 v 9 h -13 v 13.4 c -0.1,1.9 0.3,3.8 1.2,5.4 0.8,1.3 2.4,2 4.9,2 1.2,0 2.4,-0.1 3.5,-0.3 1.2,-0.2 2.3,-0.5 3.4,-0.9 l 1.5,8.4 c -1.4,0.6 -2.9,1 -4.4,1.4 -1.9,0.4 -3.9,0.6 -5.9,0.6 -2.5,0.1 -5,-0.3 -7.3,-1.2 -1.8,-0.7 -3.4,-1.9 -4.6,-3.3 -1.2,-1.5 -2,-3.3 -2.5,-5.2 -0.5,-2.2 -0.7,-4.5 -0.6,-6.7 v -32.1"
   style="fill:#94a3b8;fill-opacity:1" />
				<path
   id="path3001"
   class="st3"
   d="m 503.8,253.5 c -0.1,-3 0.5,-6 1.5,-8.8 0.9,-2.4 2.3,-4.5 4.1,-6.4 1.7,-1.7 3.6,-3 5.8,-3.8 2.2,-0.9 4.5,-1.3 6.8,-1.3 5.4,0 9.7,1.7 12.8,5 3.1,3.3 4.7,8.2 4.7,14.6 0,0.6 0,1.3 -0.1,2.1 0,0.8 -0.1,1.4 -0.1,2 h -24.4 c 0.2,2.1 1.3,4.1 3.1,5.3 2.2,1.4 4.8,2.1 7.4,2 1.9,0 3.9,-0.2 5.8,-0.5 1.6,-0.3 3.2,-0.8 4.7,-1.5 l 1.5,8.8 c -0.7,0.4 -1.5,0.6 -2.3,0.9 -1.1,0.3 -2.2,0.6 -3.3,0.7 -1.2,0.2 -2.4,0.4 -3.8,0.6 -1.3,0.1 -2.7,0.2 -4.1,0.2 -3.1,0.1 -6.1,-0.4 -9,-1.5 -2.4,-0.9 -4.5,-2.3 -6.3,-4.1 -1.7,-1.8 -2.9,-4 -3.7,-6.3 -0.7,-2.7 -1.1,-5.4 -1.1,-8 m 25.3,-4.1 c 0,-0.9 -0.2,-1.8 -0.5,-2.7 -0.2,-0.9 -0.7,-1.6 -1.2,-2.3 -0.6,-0.7 -1.3,-1.3 -2.1,-1.7 -1,-0.5 -2,-0.7 -3.1,-0.7 -1.1,0 -2.1,0.2 -3.1,0.7 -0.8,0.4 -1.6,0.9 -2.2,1.6 -0.6,0.7 -1.1,1.5 -1.4,2.4 -0.3,0.9 -0.5,1.8 -0.6,2.7 h 14.2"
   style="fill:#94a3b8;fill-opacity:1" />
				<path
   id="path3003"
   class="st3"
   d="m 558.9,264.5 c 1.4,0.1 2.9,-0.1 4.2,-0.6 0.8,-0.4 1.3,-1.3 1.2,-2.2 -0.1,-1 -0.7,-1.9 -1.6,-2.2 -1.5,-0.9 -3.2,-1.7 -4.9,-2.2 -1.7,-0.6 -3.2,-1.3 -4.6,-2 -1.3,-0.6 -2.4,-1.4 -3.5,-2.4 -1,-1 -1.7,-2.1 -2.2,-3.4 -0.6,-1.5 -0.8,-3.1 -0.8,-4.7 -0.1,-3.3 1.4,-6.5 4,-8.5 2.7,-2.1 6.3,-3.1 10.9,-3.1 2.2,0 4.5,0.2 6.7,0.7 1.7,0.3 3.4,0.7 5.1,1.3 l -1.9,8.5 c -1.4,-0.5 -2.7,-0.8 -4.1,-1.2 -1.6,-0.4 -3.3,-0.5 -4.9,-0.5 -3.4,0 -5.1,0.9 -5.1,2.8 0,0.4 0.1,0.8 0.2,1.2 0.2,0.4 0.5,0.7 0.9,1 0.4,0.3 1,0.6 1.7,1 0.7,0.4 1.7,0.8 2.9,1.2 2,0.7 4,1.6 5.8,2.6 1.4,0.7 2.6,1.6 3.6,2.8 0.9,0.9 1.5,2 1.9,3.3 0.4,1.4 0.6,2.8 0.6,4.2 0.2,3.4 -1.4,6.7 -4.3,8.6 -2.8,1.9 -6.8,2.9 -12,2.9 -2.9,0.1 -5.7,-0.2 -8.5,-0.9 -1.6,-0.4 -3.1,-0.9 -4.6,-1.4 l 1.8,-8.8 c 1.8,0.7 3.7,1.3 5.6,1.7 2,0.1 3.9,0.3 5.9,0.3"
   style="fill:#94a3b8;fill-opacity:1" />
			</g>
		</g>
	</g>
</g></g><style
     type="text/css"
     id="style1">
	.st0{fill:#010202;}
</style><style
     type="text/css"
     id="style1-1">
	.st0{fill:url(#SVGID_1_);}
	.st1{fill:url(#SVGID_2_);}
	.st2{fill:#253858;}
</style><style
     type="text/css"
     id="style1-4">
	.st0{fill:#1A1918;}
	.st1{fill:#FFFFFF;}
</style><style
     type="text/css"
     id="style1-6">
	.st0{fill-rule:evenodd;clip-rule:evenodd;fill:#7B42BC;}
</style><style
     type="text/css"
     id="style1-9">
	.st0{fill:#F49819;}
</style><style
     type="text/css"
     id="style1-43">
	.st0{fill:#FFFFFF;stroke:#FFFFFF;stroke-width:5;stroke-miterlimit:10;}
	.st1{fill:#326DE6;}
	.st2{fill:#FFFFFF;}
	.st3{fill:#1D1D1B;}
</style></svg>
