<?xml version="1.0" encoding="UTF-8" standalone="no"?>
<svg
   fill="none"
   height="48"
   viewBox="0 0 120 48"
   width="120"
   version="1.1"
   id="svg6"
   sodipodi:docname="Prometheus.svg"
   xml:space="preserve"
   inkscape:version="1.4 (86a8ad7, 2024-10-11)"
   xmlns:inkscape="http://www.inkscape.org/namespaces/inkscape"
   xmlns:sodipodi="http://sodipodi.sourceforge.net/DTD/sodipodi-0.dtd"
   xmlns="http://www.w3.org/2000/svg"
   xmlns:svg="http://www.w3.org/2000/svg"><defs
     id="defs6"><clipPath
       clipPathUnits="userSpaceOnUse"
       id="clipPath2"><path
         d="M 0,1536 H 2048 V 0 H 0 Z"
         transform="translate(-575.83621,-847.97922)"
         id="path2-0" /></clipPath><clipPath
       clipPathUnits="userSpaceOnUse"
       id="clipPath4"><path
         d="M 0,1536 H 2048 V 0 H 0 Z"
         transform="translate(-291.4852,-743.55954)"
         id="path4-9" /></clipPath><clipPath
       clipPathUnits="userSpaceOnUse"
       id="clipPath6"><path
         d="M 0,1536 H 2048 V 0 H 0 Z"
         transform="translate(-326.35021,-833.43752)"
         id="path6-4" /></clipPath><clipPath
       clipPathUnits="userSpaceOnUse"
       id="clipPath2-4"><path
         d="M 0,2500 H 1535 V 0 H 0 Z"
         transform="translate(-1435.5166,-1463.4269)"
         id="path2" /></clipPath><clipPath
       clipPathUnits="userSpaceOnUse"
       id="clipPath4-5"><path
         d="M 0,2500 H 1535 V 0 H 0 Z"
         transform="translate(-123.61431,-1293.839)"
         id="path4" /></clipPath><clipPath
       clipPathUnits="userSpaceOnUse"
       id="clipPath6-5"><path
         d="M 0,2500 H 1535 V 0 H 0 Z"
         transform="translate(-277.54251,-962.21735)"
         id="path6" /></clipPath><clipPath
       clipPathUnits="userSpaceOnUse"
       id="clipPath8"><path
         d="M 0,2500 H 1535 V 0 H 0 Z"
         transform="translate(-1047.7266,-1459.6495)"
         id="path8" /></clipPath><clipPath
       clipPathUnits="userSpaceOnUse"
       id="clipPath10"><path
         d="M 0,2500 H 1535 V 0 H 0 Z"
         transform="translate(-961.3105,-1018.3864)"
         id="path10" /></clipPath><clipPath
       clipPathUnits="userSpaceOnUse"
       id="clipPath12"><path
         d="M 0,2500 H 1535 V 0 H 0 Z"
         transform="translate(-356.39791,-1908.4733)"
         id="path12" /></clipPath><clipPath
       clipPathUnits="userSpaceOnUse"
       id="clipPath14"><path
         d="M 0,2500 H 1535 V 0 H 0 Z"
         transform="translate(-384.48491,-1926.2941)"
         id="path14" /></clipPath><clipPath
       clipPathUnits="userSpaceOnUse"
       id="clipPath16"><path
         d="M 0,2500 H 1535 V 0 H 0 Z"
         transform="translate(-1129.2765,-2207.1466)"
         id="path16" /></clipPath><clipPath
       clipPathUnits="userSpaceOnUse"
       id="clipPath18"><path
         d="M 0,2500 H 1535 V 0 H 0 Z"
         transform="translate(-805.76072,-2115.8697)"
         id="path18" /></clipPath><clipPath
       clipPathUnits="userSpaceOnUse"
       id="clipPath20"><path
         d="M 0,2500 H 1535 V 0 H 0 Z"
         transform="translate(-591.34231,-990.30432)"
         id="path20" /></clipPath><clipPath
       clipPathUnits="userSpaceOnUse"
       id="clipPath22"><path
         d="M 0,2500 H 1535 V 0 H 0 Z"
         transform="translate(-983.998,-1015.6861)"
         id="path22" /></clipPath><clipPath
       clipPathUnits="userSpaceOnUse"
       id="clipPath24"><path
         d="M 0,2500 H 1535 V 0 H 0 Z"
         transform="translate(-1009.38,-1015.6861)"
         id="path24" /></clipPath><clipPath
       clipPathUnits="userSpaceOnUse"
       id="clipPath26"><path
         d="M 0,2500 H 1535 V 0 H 0 Z"
         transform="translate(-1075.8087,-1480.1701)"
         id="path26" /></clipPath><clipPath
       clipPathUnits="userSpaceOnUse"
       id="clipPath28"><path
         d="M 0,2500 H 1535 V 0 H 0 Z"
         transform="translate(-679.91942,-513.39409)"
         id="path28" /></clipPath><clipPath
       clipPathUnits="userSpaceOnUse"
       id="clipPath30"><path
         d="M 0,2500 H 1535 V 0 H 0 Z"
         transform="translate(-951.04495,-1018.3864)"
         id="path30" /></clipPath><clipPath
       clipPathUnits="userSpaceOnUse"
       id="clipPath32"><path
         d="M 0,2500 H 1535 V 0 H 0 Z"
         transform="translate(-1105.5177,-803.96735)"
         id="path32" /></clipPath><clipPath
       clipPathUnits="userSpaceOnUse"
       id="clipPath34"><path
         d="M 0,2500 H 1535 V 0 H 0 Z"
         transform="translate(-1103.8956,-855.275)"
         id="path34" /></clipPath><clipPath
       clipPathUnits="userSpaceOnUse"
       id="clipPath36"><path
         d="M 0,2500 H 1535 V 0 H 0 Z"
         transform="translate(-1003.4355,-1036.2125)"
         id="path36" /></clipPath><clipPath
       clipPathUnits="userSpaceOnUse"
       id="clipPath38"><path
         d="M 0,2500 H 1535 V 0 H 0 Z"
         transform="translate(-1014.7794,-1084.8199)"
         id="path38" /></clipPath><clipPath
       clipPathUnits="userSpaceOnUse"
       id="clipPath40"><path
         d="M 0,2500 H 1535 V 0 H 0 Z"
         transform="translate(-702.60162,-1421.302)"
         id="path40" /></clipPath><clipPath
       clipPathUnits="userSpaceOnUse"
       id="clipPath42"><path
         d="M 0,2500 H 1535 V 0 H 0 Z"
         transform="translate(-588.64261,-1413.7414)"
         id="path42" /></clipPath><clipPath
       clipPathUnits="userSpaceOnUse"
       id="clipPath44"><path
         d="M 0,2500 H 1535 V 0 H 0 Z"
         transform="translate(-1105.5177,-1290.0559)"
         id="path44" /></clipPath><clipPath
       clipPathUnits="userSpaceOnUse"
       id="clipPath46"><path
         d="M 0,2500 H 1535 V 0 H 0 Z"
         transform="translate(-1105.5177,-1290.0559)"
         id="path46" /></clipPath><clipPath
       clipPathUnits="userSpaceOnUse"
       id="clipPath48"><path
         d="M 0,2500 H 1535 V 0 H 0 Z"
         transform="translate(-898.66022,-1360.8116)"
         id="path48" /></clipPath><clipPath
       clipPathUnits="userSpaceOnUse"
       id="clipPath50"><path
         d="M 0,2500 H 1535 V 0 H 0 Z"
         transform="translate(-898.66022,-1360.8116)"
         id="path50" /></clipPath><clipPath
       clipPathUnits="userSpaceOnUse"
       id="clipPath52"><path
         d="M 0,2500 H 1535 V 0 H 0 Z"
         transform="translate(-922.9639,-1313.821)"
         id="path52" /></clipPath><clipPath
       clipPathUnits="userSpaceOnUse"
       id="clipPath54"><path
         d="M 0,2500 H 1535 V 0 H 0 Z"
         transform="translate(-922.9639,-1313.821)"
         id="path54" /></clipPath><clipPath
       clipPathUnits="userSpaceOnUse"
       id="clipPath56"><path
         d="M 0,2500 H 1535 V 0 H 0 Z"
         transform="translate(-738.24902,-1212.2839)"
         id="path56" /></clipPath><clipPath
       clipPathUnits="userSpaceOnUse"
       id="clipPath58"><path
         d="M 0,2500 H 1535 V 0 H 0 Z"
         transform="translate(-828.98635,-1654.6246)"
         id="path58" /></clipPath><clipPath
       clipPathUnits="userSpaceOnUse"
       id="clipPath60"><path
         d="M 0,2500 H 1535 V 0 H 0 Z"
         transform="translate(-1128.1992,-1238.2096)"
         id="path60" /></clipPath><clipPath
       clipPathUnits="userSpaceOnUse"
       id="clipPath62"><path
         d="M 0,2500 H 1535 V 0 H 0 Z"
         transform="translate(-1346.4004,-906.04355)"
         id="path62" /></clipPath><clipPath
       clipPathUnits="userSpaceOnUse"
       id="clipPath64"><path
         d="M 0,2500 H 1535 V 0 H 0 Z"
         transform="translate(-1060.1484,-760.22134)"
         id="path64" /></clipPath><clipPath
       clipPathUnits="userSpaceOnUse"
       id="clipPath66"><path
         d="M 0,2500 H 1535 V 0 H 0 Z"
         transform="translate(-1001.8194,-1429.9406)"
         id="path66" /></clipPath><clipPath
       clipPathUnits="userSpaceOnUse"
       id="clipPath68"><path
         d="M 0,2500 H 1535 V 0 H 0 Z"
         transform="translate(-784.69532,-1147.4713)"
         id="path68" /></clipPath><clipPath
       clipPathUnits="userSpaceOnUse"
       id="clipPath70"><path
         d="M 0,2500 H 1535 V 0 H 0 Z"
         transform="translate(-1181.1289,-1064.2936)"
         id="path70" /></clipPath><clipPath
       clipPathUnits="userSpaceOnUse"
       id="clipPath72"><path
         d="M 0,2500 H 1535 V 0 H 0 Z"
         transform="translate(-767.95802,-1677.8507)"
         id="path72" /></clipPath><clipPath
       clipPathUnits="userSpaceOnUse"
       id="clipPath74"><path
         d="M 0,2500 H 1535 V 0 H 0 Z"
         transform="translate(-1005.5967,-1173.9362)"
         id="path74" /></clipPath><clipPath
       clipPathUnits="userSpaceOnUse"
       id="clipPath76"><path
         d="M 0,2500 H 1535 V 0 H 0 Z"
         transform="translate(-1379.8818,-115.88343)"
         id="path76" /></clipPath></defs><sodipodi:namedview
     id="namedview6"
     pagecolor="#505050"
     bordercolor="#eeeeee"
     borderopacity="1"
     inkscape:showpageshadow="0"
     inkscape:pageopacity="0"
     inkscape:pagecheckerboard="0"
     inkscape:deskcolor="#505050"
     inkscape:zoom="7.28"
     inkscape:cx="73.008242"
     inkscape:cy="25.480769"
     inkscape:window-width="1600"
     inkscape:window-height="829"
     inkscape:window-x="-8"
     inkscape:window-y="-8"
     inkscape:window-maximized="1"
     inkscape:current-layer="layer-MC0"><inkscape:page
       x="0"
       y="0"
       width="120"
       height="48"
       id="page6"
       margin="0"
       bleed="0" /><inkscape:page
       x="130"
       y="0"
       width="2730.6667"
       height="2048"
       id="page7"
       margin="855.45734 253.16 855.45734 253.15866"
       bleed="0" /><inkscape:page
       x="2870.6667"
       y="0"
       width="2046.6667"
       height="3333.3333"
       id="page8"
       margin="153.78534 100.24 155.69333 100.72747"
       bleed="0" /></sodipodi:namedview><clipPath
     id="a"><path
       d="m0 11h120v25.632h-120z"
       id="path1" /></clipPath><g
     id="layer-MC0"
     inkscape:groupmode="layer"
     inkscape:label="katman 1"
     transform="matrix(0.00927975,0,0,0.00802468,2.7395412,13.924085)"><path
       class="st0"
       d="m 3020.0453,1461.5013 v 583.5801 h -90.4027 V 593.76995 h 324.3864 c 148.8991,0 260.5729,36.66456 335.0215,113.0494 74.4496,73.32933 111.6748,180.26823 111.6748,317.76095 0,64.1633 -10.6361,122.2156 -31.9072,174.1575 -21.2712,51.9415 -50.5194,100.8278 -87.7437,137.4925 -39.8842,39.7202 -85.0847,67.2187 -140.922,91.6616 -55.8374,21.3879 -116.9919,33.6094 -186.1234,33.6094 z m 0,-82.4956 h 233.9837 c 55.8374,0 106.3558,-9.166 148.8991,-27.4986 45.2013,-18.3322 82.4256,-42.7752 111.6738,-73.3293 29.2482,-30.5537 53.1775,-67.2185 69.1315,-109.9941 15.9532,-42.7755 23.9302,-88.6063 23.9302,-140.5479 0,-109.99442 -29.2482,-195.54532 -90.4027,-256.65312 -58.4964,-61.10782 -148.899,-91.66188 -265.8909,-91.66188 h -233.9837 v 699.6849 z m 983.7952,669.131 V 1027.6358 h 45.2013 c 10.6352,0 18.6122,3.0552 21.2712,6.1107 5.318,6.1108 7.9761,12.2215 7.9761,24.443 l 7.9771,213.8775 c 29.2481,-82.4956 66.4725,-146.6588 114.3328,-195.5451 47.8604,-45.8309 106.3567,-70.2739 175.4882,-70.2739 26.5892,0 50.5185,3.0552 74.4495,9.1659 21.2712,6.1109 45.2005,15.2771 63.8135,27.4986 l -10.636,67.2189 c -2.659,12.2215 -7.977,15.2768 -18.6121,15.2768 -2.659,0 -7.977,0 -15.9532,-3.0553 -5.318,-3.0555 -15.954,-6.1107 -23.9302,-9.1662 -10.636,-3.0553 -23.9301,-6.1108 -37.2252,-9.1664 -15.9531,-3.0552 -31.9063,-3.0552 -47.8603,-3.0552 -66.4725,0 -122.3099,24.4431 -164.8522,70.2741 -42.5423,48.8863 -77.1077,116.1049 -103.6968,207.7665 V 2042.026 Z M 5144.51,1009.3032 c 63.8144,0 119.6509,12.2216 170.1702,36.6648 50.5194,24.4431 93.0617,61.1079 127.6279,106.9387 34.5653,45.8311 61.1545,100.8281 79.7666,164.9912 18.6122,64.1633 26.5892,137.4926 26.5892,216.933 0,79.4401 -7.977,152.7696 -26.5892,216.9327 -18.6121,64.1634 -45.2013,119.1605 -79.7666,164.9912 -34.5662,45.8311 -77.1085,79.4404 -127.6279,106.9389 -50.5193,24.443 -106.3558,36.6645 -170.1702,36.6645 -63.8135,0 -119.65,-12.2215 -170.1693,-36.6645 -50.5194,-24.4432 -93.0617,-61.1078 -127.6279,-106.9389 -34.5653,-45.8307 -61.1545,-100.8278 -79.7667,-164.9912 -18.6121,-64.1631 -26.5892,-137.4926 -26.5892,-216.9327 0,-79.4404 7.9771,-152.7697 26.5892,-216.933 18.6122,-64.1631 45.2014,-119.1601 79.7667,-164.9912 34.5662,-45.8308 77.1085,-82.4956 127.6279,-106.9387 47.8603,-21.3877 106.3558,-36.6648 170.1693,-36.6648 z m 0,974.6704 c 53.1784,0 98.3797,-9.1662 138.263,-30.554 39.8842,-21.3877 71.7905,-51.9415 98.3797,-88.6063 26.5892,-39.7201 45.2014,-85.5511 58.4964,-140.5483 13.2941,-54.9969 18.6121,-116.1048 18.6121,-186.3789 0,-67.2186 -5.318,-128.3263 -18.6121,-183.3235 -13.295,-54.997 -31.9072,-103.8833 -58.4964,-140.5481 -26.5892,-39.72 -61.1545,-70.2738 -98.3797,-91.6616 -39.8833,-21.3878 -85.0846,-30.554 -138.263,-30.554 -53.1775,0 -98.3788,9.1662 -138.263,30.554 -39.8834,21.3878 -71.7905,51.9416 -98.3788,91.6616 -26.5892,39.7203 -45.2014,85.5511 -58.4964,140.5481 -13.2942,54.9972 -21.2712,116.1049 -21.2712,183.3235 0,67.2189 7.977,131.382 21.2712,186.3789 13.295,54.9972 34.5662,100.8282 58.4964,140.5483 26.5883,39.7201 61.1545,70.2741 98.3788,88.6063 37.2252,18.3323 85.0855,30.554 138.263,30.554 z m 696.6331,64.1631 V 1027.6358 h 45.2022 c 15.9532,0 23.9293,9.166 26.5883,24.443 l 7.9771,146.659 c 15.9531,-27.4986 34.5662,-51.9419 55.8373,-76.3849 18.6122,-21.3878 39.8833,-42.7755 63.8135,-61.1078 21.2712,-15.2771 45.2014,-30.5541 71.7905,-39.7203 26.5892,-9.1661 53.1784,-15.2768 79.7667,-15.2768 63.8144,0 116.9919,21.3878 154.217,64.1631 39.8834,42.7756 63.8136,103.8834 79.7667,180.2682 10.636,-42.7755 26.5892,-79.4401 45.2013,-109.9942 18.6122,-30.5537 39.8843,-54.997 66.4726,-76.3847 23.931,-21.3879 53.1783,-36.6646 82.4265,-45.831 29.2482,-9.1662 58.4955,-15.2769 90.4027,-15.2769 42.5423,0 82.4265,9.1662 119.6508,24.4433 34.5654,15.2767 66.4725,42.7753 90.4027,73.3293 23.9302,33.6093 42.5423,73.3294 55.8365,122.2157 13.295,48.8862 18.613,103.8833 18.613,164.9911 v 650.7988 h -85.0846 v -644.6881 c 0,-100.8278 -18.6131,-177.2126 -55.8374,-229.1541 -37.2252,-51.9418 -90.4027,-79.4404 -159.5342,-79.4404 -29.2482,0 -61.1554,6.1108 -87.7445,18.3322 -29.2473,12.2219 -53.1775,33.6096 -74.4487,58.0527 -21.2711,24.4429 -39.8833,58.0525 -50.5193,94.717 -13.2951,39.7201 -18.6122,82.4957 -18.6122,134.4374 v 650.7986 h -85.0855 v -647.7434 c 0,-97.7725 -18.6122,-174.1571 -50.5185,-226.0989 -34.5662,-51.9415 -85.0856,-79.4401 -151.5581,-79.4401 -47.8603,0 -93.0616,15.2767 -132.945,48.8863 -39.8833,33.6093 -77.1085,79.4401 -109.0148,137.4927 v 769.9588 z M 7665.1525,1009.3032 c 50.5193,0 95.7207,9.1662 138.263,30.5541 42.5423,18.3322 79.7667,48.8863 111.6739,85.5509 31.9071,36.6648 55.8373,85.5511 74.4495,140.5481 18.6121,54.9971 26.5892,119.1604 26.5892,189.4342 0,15.277 -2.6591,24.4432 -5.3181,30.554 -2.659,6.1109 -10.636,9.1664 -18.6121,9.1664 h -640.7967 v 18.3321 c 0,76.3849 7.9771,143.6035 23.9302,201.6561 15.954,58.0523 37.2252,106.9387 66.4734,146.6587 26.5892,39.7203 63.8135,70.2741 103.6968,88.6063 39.8834,18.3326 85.0847,30.554 135.604,30.554 45.2014,0 82.4266,-6.1107 116.9919,-18.3322 31.9072,-12.2218 61.1554,-24.4433 82.4265,-36.6649 21.2712,-15.2769 39.8834,-27.4985 53.1775,-36.6647 13.295,-12.2215 21.2712,-18.3322 29.2482,-18.3322 7.977,0 13.295,3.0555 18.6122,9.1662 l 23.9301,33.6093 c -13.2941,21.3878 -31.9072,39.72 -55.8365,58.0523 -23.9301,18.3326 -50.5193,33.6093 -77.1085,45.831 -29.2482,12.2216 -58.4963,21.3878 -93.0617,30.5538 -31.9072,6.1108 -66.4725,12.2215 -98.3797,12.2215 -61.1545,0 -116.9918,-12.2215 -164.8522,-36.6645 -50.5193,-24.4432 -93.0616,-61.1078 -127.627,-106.9389 -34.5662,-45.8307 -63.8143,-103.8834 -82.4265,-171.1019 -18.6122,-67.2186 -29.2473,-143.6035 -29.2473,-232.2099 0,-73.3293 7.9761,-140.548 26.5883,-201.6559 18.613,-61.1078 45.2022,-116.1048 77.1085,-158.8804 34.5662,-45.8308 77.1085,-79.4401 124.9689,-103.8834 39.8833,-24.443 98.3788,-39.7201 159.5342,-39.7201 z m 2.659,73.3297 c -45.2013,0 -87.7437,9.166 -122.3099,24.443 -34.5653,15.277 -66.4725,39.72 -93.0617,70.2741 -26.5891,30.5538 -47.8603,67.2186 -63.8135,109.9941 -15.954,42.7755 -26.5891,91.6616 -31.9071,143.6034 h 584.9592 c 0,-54.997 -5.318,-103.8834 -18.6121,-146.6589 -13.2951,-42.7755 -31.9072,-79.4401 -55.8374,-109.9941 -23.9302,-30.5538 -53.1783,-54.9971 -85.0847,-70.2742 -37.2252,-12.2214 -74.4495,-21.3874 -114.3328,-21.3874 z m 850.8493,980.7808 c -61.1545,0 -106.3558,-18.3323 -140.922,-58.0525 -34.5653,-39.72 -50.5194,-97.7723 -50.5194,-177.2127 v -696.6296 h -127.627 c -5.318,0 -10.636,-3.0552 -15.9531,-6.1107 -5.3181,-3.0553 -5.3181,-9.166 -5.3181,-18.3323 v -36.6648 l 151.5572,-12.2216 21.2712,-363.59163 c 0,-6.11074 2.659,-12.22157 5.318,-15.27707 2.659,-3.05525 5.318,-3.05525 7.977,-6.11075 2.659,0 5.3172,-3.05549 7.9762,-3.05549 h 39.8842 v 388.03494 h 279.185 v 73.3294 h -279.185 v 690.5189 c 0,27.4985 2.659,51.9418 10.6351,73.3292 5.318,21.3878 15.954,36.6649 26.5892,48.8864 10.636,12.2217 23.9302,21.3878 39.8833,27.4985 15.954,6.1107 31.9072,9.1662 47.8604,9.1662 21.2711,0 39.8842,-3.0555 55.8373,-12.2214 13.2942,-6.1108 26.5892,-15.2771 39.8834,-24.4433 10.636,-9.166 21.2711,-15.2769 26.5891,-24.4431 7.977,-6.1107 13.2951,-12.2214 15.9532,-12.2214 5.318,0 10.636,3.0552 13.295,9.1659 l 23.9298,42.7755 c -21.2708,27.4986 -50.519,51.9419 -85.0852,70.2742 -34.5653,24.443 -71.7896,33.6092 -109.0148,33.6092 z m 465.3089,-15.277 V 557.10515 h 85.0847 V 1201.793 c 39.8842,-58.0523 87.7446,-103.8834 140.922,-137.4926 53.1784,-33.6094 111.6748,-51.9417 178.1473,-51.9417 47.8594,0 93.0616,9.1661 127.627,27.4986 37.2252,18.3322 69.1315,42.7756 93.0617,76.3849 23.9301,33.6093 42.5423,73.3292 55.8373,122.2156 13.2942,45.8308 18.6122,100.8279 18.6122,158.8803 v 650.7986 h -85.0847 v -653.8541 c 0,-94.717 -18.6122,-171.1018 -55.8374,-226.0989 -37.2243,-54.997 -95.7206,-82.4956 -175.4882,-82.4956 -58.4955,0 -111.6738,18.3322 -162.1923,51.9418 -50.5193,33.6093 -95.7207,82.4956 -132.9459,140.5479 v 763.8482 h -87.7437 z M 10355.965,1009.3032 c 50.519,0 95.721,9.1662 138.263,30.5541 42.542,18.3322 79.767,48.8863 111.674,85.5509 31.907,36.6648 55.837,85.5511 74.449,140.5481 18.612,54.9971 26.589,119.1604 26.589,189.4342 0,15.277 -2.659,24.4432 -5.318,30.554 -2.659,6.1109 -10.636,9.1664 -18.612,9.1664 h -640.796 v 18.3321 c 0,76.3849 7.977,143.6035 23.93,201.6561 15.954,58.0523 37.225,106.9387 66.472,146.6587 26.589,39.7203 63.815,70.2741 103.698,88.6063 39.883,18.3326 85.085,30.554 135.604,30.554 45.201,0 82.427,-6.1107 116.992,-18.3322 31.907,-12.2218 61.155,-24.4433 82.426,-36.6649 21.272,-15.2769 39.884,-27.4985 53.178,-36.6647 13.295,-12.2215 21.272,-18.3322 29.248,-18.3322 7.977,0 13.295,3.0555 18.612,9.1662 l 23.93,33.6093 c -13.294,21.3878 -31.906,39.72 -55.836,58.0523 -23.93,18.3326 -50.519,33.6093 -77.109,45.831 -29.248,12.2216 -58.495,21.3878 -93.061,30.5538 -31.908,6.1108 -66.473,12.2215 -98.38,12.2215 -61.155,0 -116.992,-12.2215 -164.852,-36.6645 -50.519,-24.4432 -93.062,-61.1078 -127.627,-106.9389 -34.566,-45.8307 -63.815,-103.8834 -82.4268,-171.1019 -18.6121,-67.2186 -29.2473,-143.6035 -29.2473,-232.2099 0,-73.3293 7.9762,-140.548 26.5883,-201.6559 18.6128,-61.1078 45.2018,-116.1048 77.1088,-158.8804 34.566,-45.8308 77.108,-79.4401 124.969,-103.8834 39.883,-24.443 95.72,-39.7201 159.534,-39.7201 z m 0,73.3297 c -45.202,0 -87.744,9.166 -122.31,24.443 -34.565,15.277 -66.473,39.72 -93.062,70.2741 -26.589,30.5538 -47.86,67.2186 -63.813,109.9941 -15.953,42.7755 -26.589,91.6616 -31.907,143.6034 h 584.959 c 0,-54.997 -5.318,-103.8834 -18.612,-146.6589 -13.294,-42.7755 -31.907,-79.4401 -55.838,-109.9941 -23.93,-30.5538 -53.178,-54.9971 -85.084,-70.2742 -37.226,-12.2214 -74.45,-21.3874 -114.333,-21.3874 z m 672.703,-54.9971 v 650.7985 c 0,94.7171 18.612,171.102 58.495,226.0991 37.225,54.9969 95.721,82.4955 175.489,82.4955 58.495,0 111.673,-18.3322 162.193,-51.9415 50.519,-33.6093 95.72,-79.4404 135.604,-140.5482 v -766.9034 h 85.084 v 1020.5009 h -47.86 c -15.953,0 -23.93,-9.166 -26.588,-27.4986 l -7.977,-152.7696 c -39.884,58.0525 -87.744,106.9389 -143.581,140.5482 -53.179,36.6647 -114.333,51.9415 -180.806,51.9415 -50.519,0 -93.061,-9.1659 -130.287,-27.4984 -37.224,-18.3324 -66.472,-42.7753 -93.06,-76.3847 -23.931,-33.6095 -42.544,-73.3296 -55.838,-122.2159 -13.294,-45.8307 -18.612,-100.8279 -18.612,-158.8804 v -647.743 z m 1427.831,125.2709 c -5.317,9.1663 -10.635,15.277 -18.612,15.277 -5.318,0 -15.953,-3.0552 -26.589,-12.2215 -10.635,-9.1663 -23.93,-18.3323 -39.883,-27.4985 -15.953,-9.1663 -37.225,-21.3878 -61.155,-27.4986 -23.93,-9.1662 -55.837,-12.2215 -90.402,-12.2215 -31.908,0 -61.156,6.1108 -87.745,15.2767 -26.589,9.1664 -47.86,24.4434 -66.473,42.7756 -18.612,18.3326 -31.906,36.6648 -42.542,61.1079 -10.635,24.4432 -15.953,48.8862 -15.953,73.3296 0,30.5537 7.976,58.0523 21.271,79.44 13.294,21.3878 31.907,39.7201 55.837,54.9971 23.93,15.277 50.519,27.4985 79.767,39.72 29.248,12.2218 58.496,21.3878 90.403,33.6094 31.907,12.2217 61.154,24.4431 90.403,36.6647 29.248,12.2215 55.837,30.554 79.767,48.8863 23.93,18.3323 42.542,42.7756 55.837,73.3293 13.295,27.4986 21.271,64.1634 21.271,103.8834 0,45.8311 -7.976,85.5511 -21.271,125.2712 -13.295,36.6648 -34.566,70.2741 -61.155,100.8278 -26.589,27.4986 -58.495,48.8864 -98.38,67.2188 -39.883,15.2768 -82.425,24.4431 -132.945,24.4431 -61.155,0 -116.992,-12.2215 -162.193,-33.6093 -45.201,-21.3878 -85.085,-51.9416 -122.31,-88.6063 l 21.271,-33.6093 c 2.659,-6.1107 5.318,-9.1662 10.636,-12.2215 2.659,-3.0556 7.977,-3.0556 15.954,-3.0556 7.977,0 18.612,6.1109 29.248,15.2771 10.636,12.2214 26.589,21.3878 45.201,36.6645 18.612,12.2218 39.883,24.4433 66.473,36.6648 26.589,12.2216 61.154,15.277 101.038,15.277 37.225,0 69.132,-6.1107 98.38,-18.3323 29.247,-12.2217 53.178,-27.4985 71.79,-48.8862 18.613,-21.3878 34.566,-45.8311 42.542,-73.3296 10.636,-27.4986 15.954,-58.0524 15.954,-88.6064 0,-33.6093 -7.977,-61.1078 -21.271,-85.5509 -13.295,-21.3877 -31.907,-42.7755 -55.837,-58.0525 -23.931,-15.277 -50.52,-30.5539 -79.767,-39.7201 -29.248,-12.2214 -58.497,-21.3878 -90.404,-33.6093 -31.906,-12.2218 -61.154,-21.3877 -90.402,-36.6647 -29.248,-12.2216 -55.837,-27.4985 -79.767,-48.8864 -23.93,-18.3322 -42.542,-42.7756 -55.837,-73.3294 -13.295,-27.4984 -21.272,-64.1632 -21.272,-106.9388 0,-36.6645 7.977,-70.2738 21.272,-103.8834 13.295,-33.6092 34.566,-64.163 58.496,-88.6063 23.93,-24.443 55.836,-45.8308 93.062,-61.1078 37.224,-15.277 77.107,-21.3879 122.309,-21.3879 53.178,0 101.038,9.1664 143.581,27.4986 42.543,18.3326 79.767,45.8311 114.333,82.4957 z M 1007.2544,80.463858 c 598.2535,0 1087.4921,556.081382 1087.4921,1234.378742 0,687.4633 -489.2386,1234.3784 -1100.78709,1234.3784 -595.59443,0 -1079.515015,-556.0813 -1079.515015,-1246.6 C -82.8966,630.43451 406.342,80.463858 1007.2544,80.463858 Z M 677.55003,511.27435 c 13.29416,76.38461 0,149.71421 -18.61216,219.98832 -13.29415,48.88601 -34.56619,94.71711 -45.20134,146.65861 -18.61216,82.4956 -39.88333,164.99122 -47.86034,247.48692 -10.63602,119.1604 29.24818,226.0989 101.0387,329.9823 l -324.38727,-79.44 c 0,12.2214 0,15.2769 0,21.3876 31.90719,103.8835 85.08554,189.4343 146.24004,271.93 5.31801,9.1662 21.27117,12.2217 31.90719,12.2217 324.38639,0 648.77275,0 973.15915,0 10.6352,0 23.9302,-3.0555 29.2482,-9.1662 69.1315,-82.4957 122.309,-177.2127 156.8752,-299.4286 l -342.9986,76.3848 c 23.9302,-51.9417 47.8604,-94.7172 63.8135,-143.6035 50.5194,-168.0464 29.2474,-329.98242 -42.5423,-482.75202 -58.4964,-122.21566 -111.6747,-244.43131 -82.4265,-394.14553 -61.1545,70.27386 -85.0847,158.88021 -101.0379,250.54205 -15.954,91.66188 -23.931,183.32348 -34.5661,274.98538 -2.6591,-3.0553 -2.6591,-6.1108 -5.3181,-6.1108 -2.659,-9.1662 -2.659,-18.3323 -2.659,-30.554 -7.9761,-149.7142 -31.9063,-296.37287 -87.7436,-433.86551 -31.9064,-82.4956 -66.47255,-164.99145 -34.5654,-262.76388 -21.27113,12.22158 -42.54229,27.49857 -55.83732,45.8308 -42.54233,58.05263 -61.1545,125.27115 -66.4725,198.60051 -2.65901,64.16337 -7.97702,128.32665 -18.61217,189.43452 -10.63602,67.21853 -29.24818,131.38186 -66.4725,192.48966 C 778.58873,722.09635 778.58873,593.76995 677.55003,511.27435 Z M 1512.4462,1797.5947 H 496.74468 v 201.6558 H 1512.4462 Z m -816.284,305.539 c 0,168.0468 148.89904,293.3179 335.0224,284.1517 154.2162,-6.1107 289.8202,-146.6589 276.5261,-284.1517 z"
       id="path1-7"
       style="stroke-width:28.5028;fill:#94a3b8;fill-opacity:1" /></g><style
     type="text/css"
     id="style1">
	.st0{fill:#010202;}
</style></svg>
