<?xml version="1.0" encoding="UTF-8" standalone="no"?>
<svg
   fill="none"
   height="48"
   viewBox="0 0 120 48"
   width="120"
   version="1.1"
   id="svg6"
   sodipodi:docname="Teams.svg"
   xml:space="preserve"
   inkscape:version="1.4 (86a8ad7, 2024-10-11)"
   xmlns:inkscape="http://www.inkscape.org/namespaces/inkscape"
   xmlns:sodipodi="http://sodipodi.sourceforge.net/DTD/sodipodi-0.dtd"
   xmlns="http://www.w3.org/2000/svg"
   xmlns:svg="http://www.w3.org/2000/svg"><defs
     id="defs6"><clipPath
       clipPathUnits="userSpaceOnUse"
       id="clipPath2"><path
         d="M 0,229.274 H 627.794 V 0 H 0 Z"
         transform="translate(-111.8232,-218.50341)"
         id="path2-0" /></clipPath><linearGradient
       x1="0"
       y1="0"
       x2="1"
       y2="0"
       gradientUnits="userSpaceOnUse"
       gradientTransform="matrix(0,-258.62232,240.27183,0,128.04058,283.40516)"
       spreadMethod="pad"
       id="linearGradient3"><stop
         style="stop-opacity:1;stop-color:#3974c3"
         offset="0"
         id="stop2" /><stop
         style="stop-opacity:1;stop-color:#38bdef"
         offset="1"
         id="stop3" /></linearGradient><linearGradient
       x1="0"
       y1="0"
       x2="1"
       y2="0"
       gradientUnits="userSpaceOnUse"
       gradientTransform="matrix(0,-98.269754,151.53264,0,700.67802,227.20576)"
       spreadMethod="pad"
       id="linearGradient5"><stop
         style="stop-opacity:1;stop-color:#38bdef"
         offset="0"
         id="stop4" /><stop
         style="stop-opacity:1;stop-color:#3974c3"
         offset="1"
         id="stop5" /></linearGradient><clipPath
       clipPathUnits="userSpaceOnUse"
       id="clipPath7"><path
         d="M 0,229.274 H 627.794 V 0 H 0 Z"
         transform="translate(-135.4204,-80.864205)"
         id="path7" /></clipPath><clipPath
       clipPathUnits="userSpaceOnUse"
       id="clipPath9"><path
         d="M 0,229.274 H 627.794 V 0 H 0 Z"
         transform="translate(-142.9351,-101.67281)"
         id="path9" /></clipPath><clipPath
       clipPathUnits="userSpaceOnUse"
       id="clipPath2-2"><path
         d="M 0,512 H 512 V 0 H 0 Z"
         transform="translate(-83.000005,-243.40041)"
         id="path2-3" /></clipPath><clipPath
       clipPathUnits="userSpaceOnUse"
       id="clipPath4"><path
         d="M 0,512 H 512 V 0 H 0 Z"
         transform="translate(-43.200201,-288.10011)"
         id="path4-7" /></clipPath><clipPath
       clipPathUnits="userSpaceOnUse"
       id="clipPath6"><path
         d="M 0,512 H 512 V 0 H 0 Z"
         id="path6-2" /></clipPath><clipPath
       clipPathUnits="userSpaceOnUse"
       id="clipPath8"><path
         d="M 0,512 H 512 V 0 H 0 Z"
         transform="translate(-23.799801,-243.40041)"
         id="path8-4" /></clipPath><clipPath
       clipPathUnits="userSpaceOnUse"
       id="clipPath10"><path
         d="M 0,512 H 512 V 0 H 0 Z"
         transform="translate(-85.500002,-281.70021)"
         id="path10" /></clipPath><clipPath
       clipPathUnits="userSpaceOnUse"
       id="clipPath12"><path
         d="M 0,512 H 512 V 0 H 0 Z"
         transform="translate(-67.000001,-243.40041)"
         id="path12" /></clipPath><clipPath
       clipPathUnits="userSpaceOnUse"
       id="clipPath14"><path
         d="M 0,512 H 512 V 0 H 0 Z"
         transform="translate(-85.500002,-271.5)"
         id="path14" /></clipPath><clipPath
       clipPathUnits="userSpaceOnUse"
       id="clipPath16"><path
         d="M 0,512 H 512 V 0 H 0 Z"
         transform="translate(-358.09961,-232.5)"
         id="path16" /></clipPath><clipPath
       clipPathUnits="userSpaceOnUse"
       id="clipPath18"><path
         d="M 0,512 H 512 V 0 H 0 Z"
         transform="translate(-407.59961,-251.40041)"
         id="path18" /></clipPath><clipPath
       clipPathUnits="userSpaceOnUse"
       id="clipPath20"><path
         d="M 0,512 H 512 V 0 H 0 Z"
         transform="translate(-441.20021,-251.40041)"
         id="path20" /></clipPath><clipPath
       clipPathUnits="userSpaceOnUse"
       id="clipPath22"><path
         d="M 0,512 H 512 V 0 H 0 Z"
         transform="translate(-481.20021,-232.00001)"
         id="path22" /></clipPath><clipPath
       clipPathUnits="userSpaceOnUse"
       id="clipPath24"><path
         d="M 0,512 H 512 V 0 H 0 Z"
         transform="translate(-163.7998,-251.2998)"
         id="path24" /></clipPath><clipPath
       clipPathUnits="userSpaceOnUse"
       id="clipPath26"><path
         d="M 0,512 H 512 V 0 H 0 Z"
         transform="translate(-214.50001,-247.09961)"
         id="path26" /></clipPath><clipPath
       clipPathUnits="userSpaceOnUse"
       id="clipPath28"><path
         d="M 0,512 H 512 V 0 H 0 Z"
         transform="translate(-249.6001,-247.09961)"
         id="path28" /></clipPath><clipPath
       clipPathUnits="userSpaceOnUse"
       id="clipPath30"><path
         d="M 0,512 H 512 V 0 H 0 Z"
         transform="translate(-284.09961,-247.09961)"
         id="path30" /></clipPath><clipPath
       clipPathUnits="userSpaceOnUse"
       id="clipPath32"><path
         d="M 0,512 H 512 V 0 H 0 Z"
         id="path32" /></clipPath><clipPath
       clipPathUnits="userSpaceOnUse"
       id="clipPath34"><path
         d="M 0,512 H 512 V 0 H 0 Z"
         transform="translate(-312.50001,-247.5996)"
         id="path34" /></clipPath><clipPath
       clipPathUnits="userSpaceOnUse"
       id="clipPath34-1"><path
         d="M 0,512 H 512 V 0 H 0 Z"
         transform="translate(-312.50001,-247.5996)"
         id="path34-1" /></clipPath><clipPath
       clipPathUnits="userSpaceOnUse"
       id="clipPath32-5"><path
         d="M 0,512 H 512 V 0 H 0 Z"
         id="path32-2" /></clipPath><clipPath
       clipPathUnits="userSpaceOnUse"
       id="clipPath30-7"><path
         d="M 0,512 H 512 V 0 H 0 Z"
         transform="translate(-284.09961,-247.09961)"
         id="path30-6" /></clipPath><clipPath
       clipPathUnits="userSpaceOnUse"
       id="clipPath28-1"><path
         d="M 0,512 H 512 V 0 H 0 Z"
         transform="translate(-249.6001,-247.09961)"
         id="path28-4" /></clipPath><clipPath
       clipPathUnits="userSpaceOnUse"
       id="clipPath26-2"><path
         d="M 0,512 H 512 V 0 H 0 Z"
         transform="translate(-214.50001,-247.09961)"
         id="path26-3" /></clipPath><clipPath
       clipPathUnits="userSpaceOnUse"
       id="clipPath24-2"><path
         d="M 0,512 H 512 V 0 H 0 Z"
         transform="translate(-163.7998,-251.2998)"
         id="path24-2" /></clipPath><clipPath
       clipPathUnits="userSpaceOnUse"
       id="clipPath22-1"><path
         d="M 0,512 H 512 V 0 H 0 Z"
         transform="translate(-481.20021,-232.00001)"
         id="path22-6" /></clipPath><clipPath
       clipPathUnits="userSpaceOnUse"
       id="clipPath20-8"><path
         d="M 0,512 H 512 V 0 H 0 Z"
         transform="translate(-441.20021,-251.40041)"
         id="path20-5" /></clipPath><clipPath
       clipPathUnits="userSpaceOnUse"
       id="clipPath18-7"><path
         d="M 0,512 H 512 V 0 H 0 Z"
         transform="translate(-407.59961,-251.40041)"
         id="path18-6" /></clipPath><clipPath
       clipPathUnits="userSpaceOnUse"
       id="clipPath16-1"><path
         d="M 0,512 H 512 V 0 H 0 Z"
         transform="translate(-358.09961,-232.5)"
         id="path16-8" /></clipPath><clipPath
       clipPathUnits="userSpaceOnUse"
       id="clipPath14-9"><path
         d="M 0,512 H 512 V 0 H 0 Z"
         transform="translate(-85.500002,-271.5)"
         id="path14-2" /></clipPath><clipPath
       clipPathUnits="userSpaceOnUse"
       id="clipPath12-7"><path
         d="M 0,512 H 512 V 0 H 0 Z"
         transform="translate(-67.000001,-243.40041)"
         id="path12-9" /></clipPath><clipPath
       clipPathUnits="userSpaceOnUse"
       id="clipPath10-5"><path
         d="M 0,512 H 512 V 0 H 0 Z"
         transform="translate(-85.500002,-281.70021)"
         id="path10-4" /></clipPath><clipPath
       clipPathUnits="userSpaceOnUse"
       id="clipPath8-3"><path
         d="M 0,512 H 512 V 0 H 0 Z"
         transform="translate(-23.799801,-243.40041)"
         id="path8-4-1" /></clipPath><clipPath
       clipPathUnits="userSpaceOnUse"
       id="clipPath6-2"><path
         d="M 0,512 H 512 V 0 H 0 Z"
         id="path6-3" /></clipPath><clipPath
       clipPathUnits="userSpaceOnUse"
       id="clipPath4-3"><path
         d="M 0,512 H 512 V 0 H 0 Z"
         transform="translate(-43.200201,-288.10011)"
         id="path4-4" /></clipPath><clipPath
       clipPathUnits="userSpaceOnUse"
       id="clipPath2-2-1"><path
         d="M 0,512 H 512 V 0 H 0 Z"
         transform="translate(-83.000005,-243.40041)"
         id="path2-1" /></clipPath><clipPath
       clipPathUnits="userSpaceOnUse"
       id="clipPath2-4"><path
         d="M 0,229.274 H 627.794 V 0 H 0 Z"
         transform="translate(-111.8232,-218.50341)"
         id="path2-0-1" /></clipPath><clipPath
       clipPathUnits="userSpaceOnUse"
       id="clipPath7-4"><path
         d="M 0,229.274 H 627.794 V 0 H 0 Z"
         transform="translate(-135.4204,-80.864205)"
         id="path7-6" /></clipPath><clipPath
       clipPathUnits="userSpaceOnUse"
       id="clipPath9-0"><path
         d="M 0,229.274 H 627.794 V 0 H 0 Z"
         transform="translate(-142.9351,-101.67281)"
         id="path9-71" /></clipPath><clipPath
       clipPathUnits="userSpaceOnUse"
       id="clipPath2-2-7"><path
         d="M 0,512 H 512 V 0 H 0 Z"
         transform="translate(-83.000005,-243.40041)"
         id="path2" /></clipPath><clipPath
       clipPathUnits="userSpaceOnUse"
       id="clipPath4-7"><path
         d="M 0,512 H 512 V 0 H 0 Z"
         transform="translate(-43.200201,-288.10011)"
         id="path4" /></clipPath><clipPath
       clipPathUnits="userSpaceOnUse"
       id="clipPath6-7"><path
         d="M 0,512 H 512 V 0 H 0 Z"
         id="path6" /></clipPath><clipPath
       clipPathUnits="userSpaceOnUse"
       id="clipPath8-7"><path
         d="M 0,512 H 512 V 0 H 0 Z"
         transform="translate(-23.799801,-243.40041)"
         id="path8-4-3" /></clipPath><clipPath
       clipPathUnits="userSpaceOnUse"
       id="clipPath10-3"><path
         d="M 0,512 H 512 V 0 H 0 Z"
         transform="translate(-85.500002,-281.70021)"
         id="path10-5" /></clipPath><clipPath
       clipPathUnits="userSpaceOnUse"
       id="clipPath12-9"><path
         d="M 0,512 H 512 V 0 H 0 Z"
         transform="translate(-67.000001,-243.40041)"
         id="path12-98" /></clipPath><clipPath
       clipPathUnits="userSpaceOnUse"
       id="clipPath14-1"><path
         d="M 0,512 H 512 V 0 H 0 Z"
         transform="translate(-85.500002,-271.5)"
         id="path14-8" /></clipPath><clipPath
       clipPathUnits="userSpaceOnUse"
       id="clipPath16-2"><path
         d="M 0,512 H 512 V 0 H 0 Z"
         transform="translate(-358.09961,-232.5)"
         id="path16-6" /></clipPath><clipPath
       clipPathUnits="userSpaceOnUse"
       id="clipPath18-6"><path
         d="M 0,512 H 512 V 0 H 0 Z"
         transform="translate(-407.59961,-251.40041)"
         id="path18-0" /></clipPath><clipPath
       clipPathUnits="userSpaceOnUse"
       id="clipPath20-3"><path
         d="M 0,512 H 512 V 0 H 0 Z"
         transform="translate(-441.20021,-251.40041)"
         id="path20-8" /></clipPath><clipPath
       clipPathUnits="userSpaceOnUse"
       id="clipPath22-0"><path
         d="M 0,512 H 512 V 0 H 0 Z"
         transform="translate(-481.20021,-232.00001)"
         id="path22-1" /></clipPath><clipPath
       clipPathUnits="userSpaceOnUse"
       id="clipPath24-25"><path
         d="M 0,512 H 512 V 0 H 0 Z"
         transform="translate(-163.7998,-251.2998)"
         id="path24-0" /></clipPath><clipPath
       clipPathUnits="userSpaceOnUse"
       id="clipPath26-9"><path
         d="M 0,512 H 512 V 0 H 0 Z"
         transform="translate(-214.50001,-247.09961)"
         id="path26-4" /></clipPath><clipPath
       clipPathUnits="userSpaceOnUse"
       id="clipPath28-7"><path
         d="M 0,512 H 512 V 0 H 0 Z"
         transform="translate(-249.6001,-247.09961)"
         id="path28-8" /></clipPath><clipPath
       clipPathUnits="userSpaceOnUse"
       id="clipPath30-3"><path
         d="M 0,512 H 512 V 0 H 0 Z"
         transform="translate(-284.09961,-247.09961)"
         id="path30-5" /></clipPath><clipPath
       clipPathUnits="userSpaceOnUse"
       id="clipPath32-1"><path
         d="M 0,512 H 512 V 0 H 0 Z"
         id="path32-20" /></clipPath><clipPath
       clipPathUnits="userSpaceOnUse"
       id="clipPath34-16"><path
         d="M 0,512 H 512 V 0 H 0 Z"
         transform="translate(-312.50001,-247.5996)"
         id="path34-4" /></clipPath></defs><sodipodi:namedview
     id="namedview6"
     pagecolor="#505050"
     bordercolor="#eeeeee"
     borderopacity="1"
     inkscape:showpageshadow="0"
     inkscape:pageopacity="0"
     inkscape:pagecheckerboard="0"
     inkscape:deskcolor="#505050"
     inkscape:zoom="6.49"
     inkscape:cx="76.194145"
     inkscape:cy="23.959938"
     inkscape:window-width="1600"
     inkscape:window-height="829"
     inkscape:window-x="-8"
     inkscape:window-y="-8"
     inkscape:window-maximized="1"
     inkscape:current-layer="svg6" /><clipPath
     id="a"><path
       d="m0 9h120v29.088h-120z"
       id="path1" /></clipPath><g
     style="fill:none"
     id="g9"
     transform="translate(-1.4397983,-3.2146941)"><g
       id="layer-MC0-8"
       inkscape:label="Capa 1"
       transform="matrix(0.1216911,0,0,0.11309814,7.9428812,6.5510142)"><g
         id="g8"
         transform="matrix(7.1851311,0,0,7.5129517,-51.208341,38.983751)"><path
           id="circle1"
           style="fill:#7b83eb"
           d="M 21.667,6 A 4.6669998,4.6669998 0 0 1 17,10.667 4.6669998,4.6669998 0 0 1 12.333,6 4.6669998,4.6669998 0 0 1 17,1.3330002 4.6669998,4.6669998 0 0 1 21.667,6 Z" /><path
           d="M 16.667,7 H 12.44 l 0.021,0.093 0.002,0.008 0.022,0.086 A 4.671,4.671 0 0 0 18,10.559 V 8.333 A 1.337,1.337 0 0 0 16.667,7 Z"
           opacity="0.1"
           id="path1-3" /><path
           d="M 15.667,8 H 12.783 A 4.667,4.667 0 0 0 17,10.667 V 9.333 A 1.337,1.337 0 0 0 15.667,8 Z"
           opacity="0.2"
           id="path2-8" /><path
           id="circle2"
           style="fill:#5059c9"
           d="M 31,7.5 A 3.5,3.5 0 0 1 27.5,11 3.5,3.5 0 0 1 24,7.5 3.5,3.5 0 0 1 27.5,4 3.5,3.5 0 0 1 31,7.5 Z" /><path
           d="m 30.5,12 h -7.861 a 0.64,0.64 0 0 0 -0.64,0.64 v 8.11 A 5.121,5.121 0 0 0 25.966,25.834 5.006,5.006 0 0 0 32,20.938 V 13.5 A 1.5,1.5 0 0 0 30.5,12 Z"
           fill="#5059c9"
           id="path3" /><path
           d="M 25,13.5 V 23 A 7.995,7.995 0 0 1 10.08,27 7.173,7.173 0 0 1 9.58,26 8.367,8.367 0 0 1 9.25,25 8.24,8.24 0 0 1 9,23 V 13.5 A 1.498,1.498 0 0 1 10.5,12 h 13 a 1.498,1.498 0 0 1 1.5,1.5 z"
           fill="#7b83eb"
           id="path4-7-9" /><path
           d="M 15.667,8 H 12.783 A 4.667,4.667 0 0 0 17,10.667 V 9.333 A 1.337,1.337 0 0 0 15.667,8 Z"
           opacity="0.2"
           id="path5" /><path
           d="M 18,12 V 24.67 A 1.32,1.32 0 0 1 16.96,25.96 0.966,0.966 0 0 1 16.67,26 H 9.58 A 8.367,8.367 0 0 1 9.25,25 8.24,8.24 0 0 1 9,23 V 13.5 A 1.498,1.498 0 0 1 10.5,12 Z"
           opacity="0.1"
           id="path6-4" /><path
           d="M 17,12 V 25.67 A 0.967,0.967 0 0 1 16.96,25.96 1.32,1.32 0 0 1 15.67,27 H 10.08 A 7.173,7.173 0 0 1 9.58,26 8.367,8.367 0 0 1 9.25,25 8.24,8.24 0 0 1 9,23 V 13.5 A 1.498,1.498 0 0 1 10.5,12 Z"
           opacity="0.2"
           id="path7-2" /><path
           d="M 17,12 V 23.67 A 1.336,1.336 0 0 1 15.67,25 H 9.25 A 8.24,8.24 0 0 1 9,23 V 13.5 A 1.498,1.498 0 0 1 10.5,12 Z"
           opacity="0.2"
           id="path8" /><path
           d="M 10.5,12 A 1.498,1.498 0 0 0 9,13.5 V 23 a 8.24,8.24 0 0 0 0.25,2 h 5.42 A 1.336,1.336 0 0 0 16,23.67 V 12 Z"
           opacity="0.2"
           id="path9-7-8" /><path
           d="M 1.333,8 H 14.667 A 1.333,1.333 0 0 1 16,9.333 V 22.667 A 1.333,1.333 0 0 1 14.667,24 H 1.333 A 1.333,1.333 0 0 1 0,22.667 V 9.333 A 1.333,1.333 0 0 1 1.333,8 Z"
           fill="#4b53bc"
           id="path10-7" /><path
           d="M 11.98,12.975 H 8.99 v 8.02 H 7.028 v -8.02 H 4.02 v -1.97 h 7.96 z"
           fill="#ffffff"
           id="path11-4" /><path
           d="M 0,0 H 32 V 32 H 0 Z"
           fill="none"
           id="path12-9-1" /></g><path
         style="font-weight:bold;font-size:105.978px;line-height:0px;font-family:'Segoe UI';-inkscape-font-specification:'Segoe UI Bold';fill:#94a3b8;stroke-width:8.54145"
         d="m 319.60289,188.33401 h -16.50731 v -44.39898 q 0,-7.19284 0.62096,-15.88635 h -0.41398 q -1.29367,6.83061 -2.32861,9.83194 l -17.38702,50.45339 H 269.9257 l -17.69749,-49.93592 q -0.72446,-2.01813 -2.32862,-10.34941 h -0.46572 q 0.67271,10.97038 0.67271,19.24991 v 41.03542 h -15.0584 v -74.20529 h 24.47636 l 15.16189,43.98501 q 1.81115,5.2782 2.63911,10.60815 h 0.31048 q 1.39717,-6.15791 2.94958,-10.71165 l 15.16189,-43.88151 h 23.8554 z m 23.54492,-61.37202 q -4.13977,0 -6.77887,-2.43211 -2.6391,-2.48386 -2.6391,-6.05441 0,-3.67404 2.6391,-6.00266 2.6391,-2.32862 6.77887,-2.32862 4.19151,0 6.77886,2.32862 2.6391,2.32862 2.6391,6.00266 0,3.72579 -2.6391,6.10616 -2.58735,2.38036 -6.77886,2.38036 z m 8.07254,61.37202 h -16.35207 v -52.98899 h 16.35207 z m 53.92044,-1.91464 q -5.53693,3.20832 -15.98984,3.20832 -12.21231,0 -19.76738,-7.39983 -7.55507,-7.39983 -7.55507,-19.09467 0,-13.50598 8.07254,-21.26804 8.12429,-7.81381 21.68202,-7.81381 9.36622,0 13.55773,2.48386 v 13.86821 q -5.12296,-3.82928 -11.4361,-3.82928 -7.0376,0 -11.17737,4.13977 -4.08802,4.08801 -4.08802,11.3326 0,7.03761 3.93278,11.07388 3.93278,3.98452 10.81514,3.98452 6.10615,0 11.95357,-3.82928 z m 45.27869,-36.32644 q -2.94958,-1.60416 -6.88236,-1.60416 -5.32995,0 -8.33128,3.93278 -3.00133,3.88103 -3.00133,10.60815 v 25.30431 h -16.35207 v -52.98899 h 16.35207 v 9.83194 h 0.20699 q 3.88103,-10.76339 13.97171,-10.76339 2.58735,0 4.03627,0.62096 z m 32.44541,39.53476 q -13.24724,0 -20.85406,-7.39983 -7.55508,-7.45158 -7.55508,-20.18136 0,-13.14375 7.86556,-20.54358 7.86555,-7.45158 21.26804,-7.45158 13.19551,0 20.69883,7.45158 7.50333,7.39983 7.50333,19.61214 0,13.1955 -7.76206,20.85407 -7.71032,7.65856 -21.16456,7.65856 z m 0.41398,-43.05356 q -5.79567,0 -9.00399,3.98452 -3.20832,3.98453 -3.20832,11.28087 0,15.26538 12.31581,15.26538 11.74658,0 11.74658,-15.67936 0,-14.85141 -11.85008,-14.85141 z m 35.65372,40.36271 v -13.24725 q 4.03628,2.43212 8.0208,3.6223 4.03627,1.19018 7.60682,1.19018 4.34675,0 6.83061,-1.19018 2.53561,-1.19018 2.53561,-3.6223 0,-1.55241 -1.13844,-2.58735 -1.13843,-1.03494 -2.94958,-1.81115 -1.7594,-0.7762 -3.88103,-1.39717 -2.12163,-0.62096 -4.08802,-1.39717 -3.15657,-1.19018 -5.58868,-2.5356 -2.38037,-1.39718 -4.03627,-3.20832 -1.60416,-1.81115 -2.48386,-4.19152 -0.82796,-2.38036 -0.82796,-5.64043 0,-4.45024 1.91465,-7.65856 1.96638,-3.20832 5.1747,-5.22646 3.26007,-2.06988 7.39983,-3.00133 4.19152,-0.98319 8.69351,-0.98319 3.5188,0 7.1411,0.56922 3.62229,0.51747 7.14109,1.55241 v 12.62628 q -3.10482,-1.81114 -6.67537,-2.69084 -3.5188,-0.93145 -6.93411,-0.93145 -1.60416,0 -3.05307,0.31048 -1.39717,0.25874 -2.48386,0.82796 -1.08669,0.51747 -1.70766,1.39717 -0.62096,0.82795 -0.62096,1.91464 0,1.44892 0.93145,2.48386 0.93144,1.03494 2.43211,1.81114 1.50066,0.72446 3.31181,1.34543 1.8629,0.56922 3.67404,1.19018 3.26007,1.13844 5.89917,2.48386 2.6391,1.34542 4.50199,3.15657 1.91465,1.81115 2.89784,4.24326 1.03494,2.43211 1.03494,5.79567 0,4.70899 -2.06988,8.07255 -2.01814,3.31181 -5.43344,5.43344 -3.36356,2.06988 -7.81381,3.00133 -4.3985,0.98319 -9.15923,0.98319 -8.74526,0 -16.19684,-2.69085 z m 75.34374,2.69085 q -13.24725,0 -20.85407,-7.39983 -7.55507,-7.45158 -7.55507,-20.18136 0,-13.14375 7.86556,-20.54358 7.86555,-7.45158 21.26804,-7.45158 13.1955,0 20.69883,7.45158 7.50332,7.39983 7.50332,19.61214 0,13.1955 -7.76206,20.85407 -7.71031,7.65856 -21.16455,7.65856 z m 0.41398,-43.05356 q -5.79567,0 -9.00399,3.98452 -3.20832,3.98453 -3.20832,11.28087 0,15.26538 12.3158,15.26538 11.74659,0 11.74659,-15.67936 0,-14.85141 -11.85008,-14.85141 z m 72.08366,-24.16588 q -3.15657,-1.24193 -6.05441,-1.24193 -7.86555,0 -7.86555,8.53827 v 5.64043 h 12.10881 v 12.05706 h -12.10881 v 40.93193 h -16.30033 v -40.93193 h -8.90049 v -12.05706 h 8.90049 v -6.57188 q 0,-9.05574 5.89917,-14.59267 5.89917,-5.53694 16.04159,-5.53694 4.96772,0 8.27953,1.03494 z m 40.10398,65.3048 q -3.62229,1.91464 -10.91863,1.91464 -17.28352,0 -17.28352,-17.95623 v -24.26938 h -8.59001 v -12.05706 h 8.59001 v -11.43611 l 16.30033,-4.65723 v 16.09334 h 11.90182 v 12.05706 h -11.90182 v 21.42329 q 0,8.27953 6.57187,8.27953 2.58736,0 5.32995,-1.50066 z m 92.16152,-59.97485 h -21.16455 v 60.59581 H 761.10887 V 127.7382 h -21.06106 v -13.60948 h 58.99166 z m 46.46889,38.75855 h -34.56705 q 0.82796,11.5396 14.54093,11.5396 8.74525,0 15.36888,-4.13977 v 11.79833 q -7.34808,3.93278 -19.09467,3.93278 -12.83327,0 -19.92262,-7.08935 -7.08935,-7.14109 -7.08935,-19.87087 0,-13.1955 7.65857,-20.90582 7.65856,-7.71031 18.83593,-7.71031 11.59134,0 17.90449,6.88236 6.36489,6.88236 6.36489,18.68069 z m -15.1619,-10.03893 q 0,-11.38435 -9.21097,-11.38435 -3.93278,0 -6.83062,3.26006 -2.84609,3.26007 -3.46705,8.12429 z m 68.97885,31.87619 h -15.47237 v -7.60681 h -0.20699 q -5.32995,8.90049 -15.78286,8.90049 -7.71031,0 -12.16056,-4.34675 -4.3985,-4.3985 -4.3985,-11.69484 0,-15.42063 18.26671,-17.80099 l 14.38569,-1.91464 q 0,-8.69351 -9.41797,-8.69351 -9.46971,0 -18.00798,5.64043 v -12.3158 q 3.41531,-1.7594 9.31448,-3.10483 5.95091,-1.34542 10.81513,-1.34542 22.66522,0 22.66522,22.61347 z m -15.36888,-21.52678 v -3.57054 l -9.62496,1.24193 q -7.96904,1.03494 -7.96904,7.19284 0,2.79434 1.91464,4.60549 1.96639,1.7594 5.2782,1.7594 4.60549,0 7.50332,-3.15657 2.89784,-3.20832 2.89784,-8.07255 z m 112.44638,21.52678 h -16.30033 v -30.22028 q 0,-11.5396 -8.48652,-11.5396 -4.03627,0 -6.57187,3.46705 -2.53561,3.46706 -2.53561,8.64176 v 29.65107 h -16.35207 v -30.53077 q 0,-11.22911 -8.33128,-11.22911 -4.19152,0 -6.72712,3.31181 -2.48386,3.31182 -2.48386,9.00399 v 29.44408 h -16.35207 v -52.98899 h 16.35207 v 8.27953 h 0.20699 q 2.5356,-4.24326 7.08935,-6.88236 4.60548,-2.69085 10.03893,-2.69085 11.22911,0 15.36888,9.88369 6.0544,-9.88369 17.80099,-9.88369 17.28352,0 17.28352,21.31979 z m 9.46969,-1.39717 v -13.24725 q 4.0363,2.43212 8.0208,3.6223 4.0363,1.19018 7.6069,1.19018 4.3467,0 6.8306,-1.19018 2.5356,-1.19018 2.5356,-3.6223 0,-1.55241 -1.1385,-2.58735 -1.1384,-1.03494 -2.9495,-1.81115 -1.7594,-0.7762 -3.8811,-1.39717 -2.1216,-0.62096 -4.088,-1.39717 -3.1566,-1.19018 -5.5887,-2.5356 -2.3803,-1.39718 -4.0363,-3.20832 -1.6041,-1.81115 -2.4838,-4.19152 -0.828,-2.38036 -0.828,-5.64043 0,-4.45024 1.9147,-7.65856 1.9664,-3.20832 5.1747,-5.22646 3.26,-2.06988 7.3998,-3.00133 4.1915,-0.98319 8.6935,-0.98319 3.5188,0 7.1411,0.56922 3.6223,0.51747 7.1411,1.55241 v 12.62628 q -3.1048,-1.81114 -6.6754,-2.69084 -3.5188,-0.93145 -6.9341,-0.93145 -1.6041,0 -3.053,0.31048 -1.3972,0.25874 -2.4839,0.82796 -1.0867,0.51747 -1.7077,1.39717 -0.6209,0.82795 -0.6209,1.91464 0,1.44892 0.9314,2.48386 0.9315,1.03494 2.4321,1.81114 1.5007,0.72446 3.3119,1.34543 1.8628,0.56922 3.674,1.19018 3.2601,1.13844 5.8992,2.48386 2.6391,1.34542 4.502,3.15657 1.9146,1.81115 2.8978,4.24326 1.0349,2.43211 1.0349,5.79567 0,4.70899 -2.0699,8.07255 -2.0181,3.31181 -5.4334,5.43344 -3.3636,2.06988 -7.8138,3.00133 -4.3985,0.98319 -9.1592,0.98319 -8.7453,0 -16.1969,-2.69085 z"
         id="text8"
         transform="scale(0.88808527,1.126018)"
         aria-label="Microsoft Teams" /></g></g></svg>
