<?xml version="1.0" encoding="UTF-8" standalone="no"?>
<svg
   fill="none"
   height="48"
   viewBox="0 0 120 48"
   width="120"
   version="1.1"
   id="svg6"
   sodipodi:docname="Terraform.svg"
   xml:space="preserve"
   inkscape:version="1.4 (86a8ad7, 2024-10-11)"
   xmlns:inkscape="http://www.inkscape.org/namespaces/inkscape"
   xmlns:sodipodi="http://sodipodi.sourceforge.net/DTD/sodipodi-0.dtd"
   xmlns="http://www.w3.org/2000/svg"
   xmlns:svg="http://www.w3.org/2000/svg"><defs
     id="defs6"><clipPath
       clipPathUnits="userSpaceOnUse"
       id="clipPath2"><path
         d="M 0,1536 H 2048 V 0 H 0 Z"
         transform="translate(-575.83621,-847.97922)"
         id="path2-0" /></clipPath><clipPath
       clipPathUnits="userSpaceOnUse"
       id="clipPath4"><path
         d="M 0,1536 H 2048 V 0 H 0 Z"
         transform="translate(-291.4852,-743.55954)"
         id="path4-9" /></clipPath><clipPath
       clipPathUnits="userSpaceOnUse"
       id="clipPath6"><path
         d="M 0,1536 H 2048 V 0 H 0 Z"
         transform="translate(-326.35021,-833.43752)"
         id="path6-4" /></clipPath><clipPath
       clipPathUnits="userSpaceOnUse"
       id="clipPath2-4"><path
         d="M 0,2500 H 1535 V 0 H 0 Z"
         transform="translate(-1435.5166,-1463.4269)"
         id="path2" /></clipPath><clipPath
       clipPathUnits="userSpaceOnUse"
       id="clipPath4-5"><path
         d="M 0,2500 H 1535 V 0 H 0 Z"
         transform="translate(-123.61431,-1293.839)"
         id="path4" /></clipPath><clipPath
       clipPathUnits="userSpaceOnUse"
       id="clipPath6-5"><path
         d="M 0,2500 H 1535 V 0 H 0 Z"
         transform="translate(-277.54251,-962.21735)"
         id="path6" /></clipPath><clipPath
       clipPathUnits="userSpaceOnUse"
       id="clipPath8"><path
         d="M 0,2500 H 1535 V 0 H 0 Z"
         transform="translate(-1047.7266,-1459.6495)"
         id="path8" /></clipPath><clipPath
       clipPathUnits="userSpaceOnUse"
       id="clipPath10"><path
         d="M 0,2500 H 1535 V 0 H 0 Z"
         transform="translate(-961.3105,-1018.3864)"
         id="path10" /></clipPath><clipPath
       clipPathUnits="userSpaceOnUse"
       id="clipPath12"><path
         d="M 0,2500 H 1535 V 0 H 0 Z"
         transform="translate(-356.39791,-1908.4733)"
         id="path12" /></clipPath><clipPath
       clipPathUnits="userSpaceOnUse"
       id="clipPath14"><path
         d="M 0,2500 H 1535 V 0 H 0 Z"
         transform="translate(-384.48491,-1926.2941)"
         id="path14" /></clipPath><clipPath
       clipPathUnits="userSpaceOnUse"
       id="clipPath16"><path
         d="M 0,2500 H 1535 V 0 H 0 Z"
         transform="translate(-1129.2765,-2207.1466)"
         id="path16" /></clipPath><clipPath
       clipPathUnits="userSpaceOnUse"
       id="clipPath18"><path
         d="M 0,2500 H 1535 V 0 H 0 Z"
         transform="translate(-805.76072,-2115.8697)"
         id="path18" /></clipPath><clipPath
       clipPathUnits="userSpaceOnUse"
       id="clipPath20"><path
         d="M 0,2500 H 1535 V 0 H 0 Z"
         transform="translate(-591.34231,-990.30432)"
         id="path20" /></clipPath><clipPath
       clipPathUnits="userSpaceOnUse"
       id="clipPath22"><path
         d="M 0,2500 H 1535 V 0 H 0 Z"
         transform="translate(-983.998,-1015.6861)"
         id="path22" /></clipPath><clipPath
       clipPathUnits="userSpaceOnUse"
       id="clipPath24"><path
         d="M 0,2500 H 1535 V 0 H 0 Z"
         transform="translate(-1009.38,-1015.6861)"
         id="path24" /></clipPath><clipPath
       clipPathUnits="userSpaceOnUse"
       id="clipPath26"><path
         d="M 0,2500 H 1535 V 0 H 0 Z"
         transform="translate(-1075.8087,-1480.1701)"
         id="path26" /></clipPath><clipPath
       clipPathUnits="userSpaceOnUse"
       id="clipPath28"><path
         d="M 0,2500 H 1535 V 0 H 0 Z"
         transform="translate(-679.91942,-513.39409)"
         id="path28" /></clipPath><clipPath
       clipPathUnits="userSpaceOnUse"
       id="clipPath30"><path
         d="M 0,2500 H 1535 V 0 H 0 Z"
         transform="translate(-951.04495,-1018.3864)"
         id="path30" /></clipPath><clipPath
       clipPathUnits="userSpaceOnUse"
       id="clipPath32"><path
         d="M 0,2500 H 1535 V 0 H 0 Z"
         transform="translate(-1105.5177,-803.96735)"
         id="path32" /></clipPath><clipPath
       clipPathUnits="userSpaceOnUse"
       id="clipPath34"><path
         d="M 0,2500 H 1535 V 0 H 0 Z"
         transform="translate(-1103.8956,-855.275)"
         id="path34" /></clipPath><clipPath
       clipPathUnits="userSpaceOnUse"
       id="clipPath36"><path
         d="M 0,2500 H 1535 V 0 H 0 Z"
         transform="translate(-1003.4355,-1036.2125)"
         id="path36" /></clipPath><clipPath
       clipPathUnits="userSpaceOnUse"
       id="clipPath38"><path
         d="M 0,2500 H 1535 V 0 H 0 Z"
         transform="translate(-1014.7794,-1084.8199)"
         id="path38" /></clipPath><clipPath
       clipPathUnits="userSpaceOnUse"
       id="clipPath40"><path
         d="M 0,2500 H 1535 V 0 H 0 Z"
         transform="translate(-702.60162,-1421.302)"
         id="path40" /></clipPath><clipPath
       clipPathUnits="userSpaceOnUse"
       id="clipPath42"><path
         d="M 0,2500 H 1535 V 0 H 0 Z"
         transform="translate(-588.64261,-1413.7414)"
         id="path42" /></clipPath><clipPath
       clipPathUnits="userSpaceOnUse"
       id="clipPath44"><path
         d="M 0,2500 H 1535 V 0 H 0 Z"
         transform="translate(-1105.5177,-1290.0559)"
         id="path44" /></clipPath><clipPath
       clipPathUnits="userSpaceOnUse"
       id="clipPath46"><path
         d="M 0,2500 H 1535 V 0 H 0 Z"
         transform="translate(-1105.5177,-1290.0559)"
         id="path46" /></clipPath><clipPath
       clipPathUnits="userSpaceOnUse"
       id="clipPath48"><path
         d="M 0,2500 H 1535 V 0 H 0 Z"
         transform="translate(-898.66022,-1360.8116)"
         id="path48" /></clipPath><clipPath
       clipPathUnits="userSpaceOnUse"
       id="clipPath50"><path
         d="M 0,2500 H 1535 V 0 H 0 Z"
         transform="translate(-898.66022,-1360.8116)"
         id="path50" /></clipPath><clipPath
       clipPathUnits="userSpaceOnUse"
       id="clipPath52"><path
         d="M 0,2500 H 1535 V 0 H 0 Z"
         transform="translate(-922.9639,-1313.821)"
         id="path52" /></clipPath><clipPath
       clipPathUnits="userSpaceOnUse"
       id="clipPath54"><path
         d="M 0,2500 H 1535 V 0 H 0 Z"
         transform="translate(-922.9639,-1313.821)"
         id="path54" /></clipPath><clipPath
       clipPathUnits="userSpaceOnUse"
       id="clipPath56"><path
         d="M 0,2500 H 1535 V 0 H 0 Z"
         transform="translate(-738.24902,-1212.2839)"
         id="path56" /></clipPath><clipPath
       clipPathUnits="userSpaceOnUse"
       id="clipPath58"><path
         d="M 0,2500 H 1535 V 0 H 0 Z"
         transform="translate(-828.98635,-1654.6246)"
         id="path58" /></clipPath><clipPath
       clipPathUnits="userSpaceOnUse"
       id="clipPath60"><path
         d="M 0,2500 H 1535 V 0 H 0 Z"
         transform="translate(-1128.1992,-1238.2096)"
         id="path60" /></clipPath><clipPath
       clipPathUnits="userSpaceOnUse"
       id="clipPath62"><path
         d="M 0,2500 H 1535 V 0 H 0 Z"
         transform="translate(-1346.4004,-906.04355)"
         id="path62" /></clipPath><clipPath
       clipPathUnits="userSpaceOnUse"
       id="clipPath64"><path
         d="M 0,2500 H 1535 V 0 H 0 Z"
         transform="translate(-1060.1484,-760.22134)"
         id="path64" /></clipPath><clipPath
       clipPathUnits="userSpaceOnUse"
       id="clipPath66"><path
         d="M 0,2500 H 1535 V 0 H 0 Z"
         transform="translate(-1001.8194,-1429.9406)"
         id="path66" /></clipPath><clipPath
       clipPathUnits="userSpaceOnUse"
       id="clipPath68"><path
         d="M 0,2500 H 1535 V 0 H 0 Z"
         transform="translate(-784.69532,-1147.4713)"
         id="path68" /></clipPath><clipPath
       clipPathUnits="userSpaceOnUse"
       id="clipPath70"><path
         d="M 0,2500 H 1535 V 0 H 0 Z"
         transform="translate(-1181.1289,-1064.2936)"
         id="path70" /></clipPath><clipPath
       clipPathUnits="userSpaceOnUse"
       id="clipPath72"><path
         d="M 0,2500 H 1535 V 0 H 0 Z"
         transform="translate(-767.95802,-1677.8507)"
         id="path72" /></clipPath><clipPath
       clipPathUnits="userSpaceOnUse"
       id="clipPath74"><path
         d="M 0,2500 H 1535 V 0 H 0 Z"
         transform="translate(-1005.5967,-1173.9362)"
         id="path74" /></clipPath><clipPath
       clipPathUnits="userSpaceOnUse"
       id="clipPath76"><path
         d="M 0,2500 H 1535 V 0 H 0 Z"
         transform="translate(-1379.8818,-115.88343)"
         id="path76" /></clipPath><style
       id="style1-2">
      .cls-1 {
        fill: #1d63ed;
        stroke-width: 0px;
      }
    </style></defs><sodipodi:namedview
     id="namedview6"
     pagecolor="#505050"
     bordercolor="#eeeeee"
     borderopacity="1"
     inkscape:showpageshadow="0"
     inkscape:pageopacity="0"
     inkscape:pagecheckerboard="0"
     inkscape:deskcolor="#505050"
     inkscape:zoom="5.43"
     inkscape:cx="72.28361"
     inkscape:cy="25.87477"
     inkscape:window-width="1600"
     inkscape:window-height="829"
     inkscape:window-x="-8"
     inkscape:window-y="-8"
     inkscape:window-maximized="1"
     inkscape:current-layer="layer-MC0"><inkscape:page
       x="0"
       y="0"
       width="120"
       height="48"
       id="page6"
       margin="0"
       bleed="0" /><inkscape:page
       x="130"
       y="0"
       width="2730.6667"
       height="2048"
       id="page7"
       margin="855.45734 253.16 855.45734 253.15866"
       bleed="0" /><inkscape:page
       x="2870.6667"
       y="0"
       width="2046.6667"
       height="3333.3333"
       id="page8"
       margin="153.78534 100.24 155.69333 100.72747"
       bleed="0" /></sodipodi:namedview><clipPath
     id="a"><path
       d="m0 11h120v25.632h-120z"
       id="path1" /></clipPath><g
     id="layer-MC0"
     inkscape:groupmode="layer"
     inkscape:label="katman 1"
     transform="matrix(0.00927975,0,0,0.00802468,3.7077293,16.966962)"><g
       id="g8"
       transform="matrix(17.883921,0,0,25.782362,-1849.5062,-6958.747)"><polygon
         points="292.2,273.2 292.2,257.6 362.4,257.6 362.4,273.2 336.2,273.2 336.2,351.5 318.5,351.5 318.5,273.2 "
         id="polygon1"
         style="fill:#94a3b8;fill-opacity:1"
         transform="matrix(0.98308401,0,0,0.77085957,-41.664073,75.670453)" /><path
         d="m 704.69331,346.70468 v -37.00126 c 0,-2.85218 -1.57293,-4.23972 -5.40696,-4.23972 -3.83403,0 -11.50208,1.92715 -17.5972,4.47098 v 36.77 H 664.7801 v -52.95805 h 12.8784 l 1.67125,4.47099 c 8.45452,-3.3147 17.5972,-5.16476 27.03481,-5.55019 6.48835,0 10.519,2.08132 12.78009,5.62727 8.45452,-3.39178 17.69551,-5.31893 27.13312,-5.62727 11.20716,0 15.2378,6.16687 15.2378,15.64845 v 38.3888 h -16.90904 v -37.00126 c 0,-2.85218 -1.57294,-4.23972 -5.40697,-4.23972 -6.19343,0.5396 -12.19024,2.00423 -17.5972,4.47098 v 36.77 z m -46.49987,-41.93476 c -6.19343,2.2355 -12.19024,4.77933 -17.89213,7.7086 v 34.14908 h -16.90904 v -52.95806 h 14.25471 l 1.0814,5.85854 c 5.50527,-2.92927 11.50208,-5.24185 17.89213,-6.93774 z m -72.94483,-0.84794 c -9.04438,0 -12.48517,3.16052 -12.48517,9.09614 v 14.2609 c 0,6.01271 3.44079,9.17323 12.48517,9.17323 9.04437,0 12.48516,-3.16052 12.48516,-9.17323 v -14.2609 c 0,-5.85853 -3.44079,-9.09614 -12.48516,-9.09614 z m 0,43.78482 c -23.10248,0 -29.49252,-10.02117 -29.49252,-20.81321 v -13.41295 c 0,-10.79204 6.19343,-20.8903 29.39421,-20.8903 23.20078,0 29.39421,10.02118 29.39421,20.8903 v 13.41295 c 0.0983,10.79204 -6.09512,20.81321 -29.2959,20.81321 z m -32.93332,-66.06266 c -3.14587,-0.53961 -6.48835,-0.84795 -9.73253,-0.84795 -6.68497,0 -7.56975,2.31258 -7.56975,6.32105 v 6.62939 h 17.10567 l -0.98309,10.56078 h -16.12258 v 42.39727 h -16.90904 v -42.39727 h -10.81393 v -10.56078 h 10.81393 v -7.40025 c 0,-10.94621 6.48835,-16.41931 21.43123,-16.41931 4.91542,0 9.83084,0.5396 14.54964,1.54172 z m -68.91419,45.01819 h -12.38686 c -5.50527,0 -7.0782,1.23338 -7.0782,5.24185 0,3.62304 1.57293,5.39602 6.88159,5.39602 4.42388,-0.0771 8.84775,-1.00212 12.68178,-2.69801 z m 16.90905,20.04235 h -13.86149 l -1.27801,-3.62304 c -5.99681,3.08344 -12.9767,4.70225 -20.05491,4.70225 -12.38686,0 -17.5972,-6.6294 -17.5972,-15.72554 0,-10.79203 5.99681,-14.87759 19.66168,-14.87759 h 16.22088 v -5.62727 c 0,-5.85854 -2.06447,-7.93986 -12.8784,-7.93986 -6.29174,0.0771 -12.58347,0.61669 -18.67859,1.61881 l -2.06448,-10.09826 c 7.56975,-1.61881 15.33611,-2.46675 23.10247,-2.46675 21.23462,0 27.52636,5.85853 27.52636,19.11731 z m -56.52733,-41.93476 c -6.19343,2.2355 -12.19024,4.77933 -17.89213,7.7086 v 34.14908 h -16.90905 v -52.95806 h 14.25472 l 1.08139,5.85854 c 5.50527,-2.92927 11.50209,-5.24185 17.79382,-6.93774 z m -41.28953,0 c -6.19343,2.15841 -12.19024,4.77933 -17.89213,7.7086 v 34.14908 h -16.90905 v -52.95806 h 14.25472 l 1.0814,5.85854 c 5.50527,-2.92927 11.40377,-5.24185 17.69551,-6.93774 z m -82.67737,9.78992 h 21.52954 v -2.62092 c 0,-5.01059 -1.96617,-8.47946 -10.22407,-8.47946 -8.25791,0 -11.20716,3.46887 -11.20716,8.47946 v 2.62092 z m 13.07502,22.27784 c 6.9799,0 13.95979,-0.84794 20.64476,-2.46675 l 2.55602,10.02117 c -7.96298,2.2355 -16.4175,3.39179 -24.87202,3.39179 -21.23462,0 -28.50944,-7.7086 -28.50944,-20.42778 v -14.02965 c 0,-11.17746 6.39005,-20.65903 28.0179,-20.65903 21.62784,0 26.44496,9.867 26.44496,21.27572 v 11.33164 h -37.3572 v 2.69801 c 0.0983,6.39813 2.85095,8.86488 13.07502,8.86488 z"
         id="path1-8"
         style="fill:#94a3b8;fill-opacity:1;stroke-width:0.870528" /><path
         class="st0"
         d="M 144.21715,352.5299 185.96036,375 v -44.94019 l -41.74321,-22.4701 z M 97.877509,232.57282 v 44.94019 L 139.62071,299.9831 V 255.04291 Z M 190.5568,280.22341 V 325.1636 L 232.3,302.6935 v -44.94019 z m -46.33965,-22.55753 41.74321,22.4701 v 45.02762 l -41.74321,-22.4701 z"
         id="path2-5"
         style="stroke-width:0.905626" /></g></g><style
     type="text/css"
     id="style1">
	.st0{fill:#010202;}
</style><style
     type="text/css"
     id="style1-1">
	.st0{fill:url(#SVGID_1_);}
	.st1{fill:url(#SVGID_2_);}
	.st2{fill:#253858;}
</style><style
     type="text/css"
     id="style1-4">
	.st0{fill:#1A1918;}
	.st1{fill:#FFFFFF;}
</style><style
     type="text/css"
     id="style1-6">
	.st0{fill-rule:evenodd;clip-rule:evenodd;fill:#7B42BC;}
</style></svg>
