<?xml version="1.0" encoding="UTF-8" standalone="no"?>
<svg
   fill="none"
   height="48"
   viewBox="0 0 120 48"
   width="120"
   version="1.1"
   id="svg6"
   sodipodi:docname="Zoom.svg"
   xml:space="preserve"
   inkscape:version="1.4 (86a8ad7, 2024-10-11)"
   xmlns:inkscape="http://www.inkscape.org/namespaces/inkscape"
   xmlns:sodipodi="http://sodipodi.sourceforge.net/DTD/sodipodi-0.dtd"
   xmlns="http://www.w3.org/2000/svg"
   xmlns:svg="http://www.w3.org/2000/svg"><defs
     id="defs6"><clipPath
       clipPathUnits="userSpaceOnUse"
       id="clipPath2"><path
         d="M 0,229.274 H 627.794 V 0 H 0 Z"
         transform="translate(-111.8232,-218.50341)"
         id="path2-0" /></clipPath><linearGradient
       x1="0"
       y1="0"
       x2="1"
       y2="0"
       gradientUnits="userSpaceOnUse"
       gradientTransform="matrix(0,-258.62232,240.27183,0,128.04058,283.40516)"
       spreadMethod="pad"
       id="linearGradient3"><stop
         style="stop-opacity:1;stop-color:#3974c3"
         offset="0"
         id="stop2" /><stop
         style="stop-opacity:1;stop-color:#38bdef"
         offset="1"
         id="stop3" /></linearGradient><linearGradient
       x1="0"
       y1="0"
       x2="1"
       y2="0"
       gradientUnits="userSpaceOnUse"
       gradientTransform="matrix(0,-98.269754,151.53264,0,700.67802,227.20576)"
       spreadMethod="pad"
       id="linearGradient5"><stop
         style="stop-opacity:1;stop-color:#38bdef"
         offset="0"
         id="stop4" /><stop
         style="stop-opacity:1;stop-color:#3974c3"
         offset="1"
         id="stop5" /></linearGradient><clipPath
       clipPathUnits="userSpaceOnUse"
       id="clipPath7"><path
         d="M 0,229.274 H 627.794 V 0 H 0 Z"
         transform="translate(-135.4204,-80.864205)"
         id="path7" /></clipPath><clipPath
       clipPathUnits="userSpaceOnUse"
       id="clipPath9"><path
         d="M 0,229.274 H 627.794 V 0 H 0 Z"
         transform="translate(-142.9351,-101.67281)"
         id="path9" /></clipPath><clipPath
       clipPathUnits="userSpaceOnUse"
       id="clipPath2-2"><path
         d="M 0,512 H 512 V 0 H 0 Z"
         transform="translate(-83.000005,-243.40041)"
         id="path2-3" /></clipPath><clipPath
       clipPathUnits="userSpaceOnUse"
       id="clipPath4"><path
         d="M 0,512 H 512 V 0 H 0 Z"
         transform="translate(-43.200201,-288.10011)"
         id="path4-7" /></clipPath><clipPath
       clipPathUnits="userSpaceOnUse"
       id="clipPath6"><path
         d="M 0,512 H 512 V 0 H 0 Z"
         id="path6-2" /></clipPath><clipPath
       clipPathUnits="userSpaceOnUse"
       id="clipPath8"><path
         d="M 0,512 H 512 V 0 H 0 Z"
         transform="translate(-23.799801,-243.40041)"
         id="path8-4" /></clipPath><clipPath
       clipPathUnits="userSpaceOnUse"
       id="clipPath10"><path
         d="M 0,512 H 512 V 0 H 0 Z"
         transform="translate(-85.500002,-281.70021)"
         id="path10" /></clipPath><clipPath
       clipPathUnits="userSpaceOnUse"
       id="clipPath12"><path
         d="M 0,512 H 512 V 0 H 0 Z"
         transform="translate(-67.000001,-243.40041)"
         id="path12" /></clipPath><clipPath
       clipPathUnits="userSpaceOnUse"
       id="clipPath14"><path
         d="M 0,512 H 512 V 0 H 0 Z"
         transform="translate(-85.500002,-271.5)"
         id="path14" /></clipPath><clipPath
       clipPathUnits="userSpaceOnUse"
       id="clipPath16"><path
         d="M 0,512 H 512 V 0 H 0 Z"
         transform="translate(-358.09961,-232.5)"
         id="path16" /></clipPath><clipPath
       clipPathUnits="userSpaceOnUse"
       id="clipPath18"><path
         d="M 0,512 H 512 V 0 H 0 Z"
         transform="translate(-407.59961,-251.40041)"
         id="path18" /></clipPath><clipPath
       clipPathUnits="userSpaceOnUse"
       id="clipPath20"><path
         d="M 0,512 H 512 V 0 H 0 Z"
         transform="translate(-441.20021,-251.40041)"
         id="path20" /></clipPath><clipPath
       clipPathUnits="userSpaceOnUse"
       id="clipPath22"><path
         d="M 0,512 H 512 V 0 H 0 Z"
         transform="translate(-481.20021,-232.00001)"
         id="path22" /></clipPath><clipPath
       clipPathUnits="userSpaceOnUse"
       id="clipPath24"><path
         d="M 0,512 H 512 V 0 H 0 Z"
         transform="translate(-163.7998,-251.2998)"
         id="path24" /></clipPath><clipPath
       clipPathUnits="userSpaceOnUse"
       id="clipPath26"><path
         d="M 0,512 H 512 V 0 H 0 Z"
         transform="translate(-214.50001,-247.09961)"
         id="path26" /></clipPath><clipPath
       clipPathUnits="userSpaceOnUse"
       id="clipPath28"><path
         d="M 0,512 H 512 V 0 H 0 Z"
         transform="translate(-249.6001,-247.09961)"
         id="path28" /></clipPath><clipPath
       clipPathUnits="userSpaceOnUse"
       id="clipPath30"><path
         d="M 0,512 H 512 V 0 H 0 Z"
         transform="translate(-284.09961,-247.09961)"
         id="path30" /></clipPath><clipPath
       clipPathUnits="userSpaceOnUse"
       id="clipPath32"><path
         d="M 0,512 H 512 V 0 H 0 Z"
         id="path32" /></clipPath><clipPath
       clipPathUnits="userSpaceOnUse"
       id="clipPath34"><path
         d="M 0,512 H 512 V 0 H 0 Z"
         transform="translate(-312.50001,-247.5996)"
         id="path34" /></clipPath><clipPath
       clipPathUnits="userSpaceOnUse"
       id="clipPath34-1"><path
         d="M 0,512 H 512 V 0 H 0 Z"
         transform="translate(-312.50001,-247.5996)"
         id="path34-1" /></clipPath><clipPath
       clipPathUnits="userSpaceOnUse"
       id="clipPath32-5"><path
         d="M 0,512 H 512 V 0 H 0 Z"
         id="path32-2" /></clipPath><clipPath
       clipPathUnits="userSpaceOnUse"
       id="clipPath30-7"><path
         d="M 0,512 H 512 V 0 H 0 Z"
         transform="translate(-284.09961,-247.09961)"
         id="path30-6" /></clipPath><clipPath
       clipPathUnits="userSpaceOnUse"
       id="clipPath28-1"><path
         d="M 0,512 H 512 V 0 H 0 Z"
         transform="translate(-249.6001,-247.09961)"
         id="path28-4" /></clipPath><clipPath
       clipPathUnits="userSpaceOnUse"
       id="clipPath26-2"><path
         d="M 0,512 H 512 V 0 H 0 Z"
         transform="translate(-214.50001,-247.09961)"
         id="path26-3" /></clipPath><clipPath
       clipPathUnits="userSpaceOnUse"
       id="clipPath24-2"><path
         d="M 0,512 H 512 V 0 H 0 Z"
         transform="translate(-163.7998,-251.2998)"
         id="path24-2" /></clipPath><clipPath
       clipPathUnits="userSpaceOnUse"
       id="clipPath22-1"><path
         d="M 0,512 H 512 V 0 H 0 Z"
         transform="translate(-481.20021,-232.00001)"
         id="path22-6" /></clipPath><clipPath
       clipPathUnits="userSpaceOnUse"
       id="clipPath20-8"><path
         d="M 0,512 H 512 V 0 H 0 Z"
         transform="translate(-441.20021,-251.40041)"
         id="path20-5" /></clipPath><clipPath
       clipPathUnits="userSpaceOnUse"
       id="clipPath18-7"><path
         d="M 0,512 H 512 V 0 H 0 Z"
         transform="translate(-407.59961,-251.40041)"
         id="path18-6" /></clipPath><clipPath
       clipPathUnits="userSpaceOnUse"
       id="clipPath16-1"><path
         d="M 0,512 H 512 V 0 H 0 Z"
         transform="translate(-358.09961,-232.5)"
         id="path16-8" /></clipPath><clipPath
       clipPathUnits="userSpaceOnUse"
       id="clipPath14-9"><path
         d="M 0,512 H 512 V 0 H 0 Z"
         transform="translate(-85.500002,-271.5)"
         id="path14-2" /></clipPath><clipPath
       clipPathUnits="userSpaceOnUse"
       id="clipPath12-7"><path
         d="M 0,512 H 512 V 0 H 0 Z"
         transform="translate(-67.000001,-243.40041)"
         id="path12-9" /></clipPath><clipPath
       clipPathUnits="userSpaceOnUse"
       id="clipPath10-5"><path
         d="M 0,512 H 512 V 0 H 0 Z"
         transform="translate(-85.500002,-281.70021)"
         id="path10-4" /></clipPath><clipPath
       clipPathUnits="userSpaceOnUse"
       id="clipPath8-3"><path
         d="M 0,512 H 512 V 0 H 0 Z"
         transform="translate(-23.799801,-243.40041)"
         id="path8-4-1" /></clipPath><clipPath
       clipPathUnits="userSpaceOnUse"
       id="clipPath6-2"><path
         d="M 0,512 H 512 V 0 H 0 Z"
         id="path6-3" /></clipPath><clipPath
       clipPathUnits="userSpaceOnUse"
       id="clipPath4-3"><path
         d="M 0,512 H 512 V 0 H 0 Z"
         transform="translate(-43.200201,-288.10011)"
         id="path4-4" /></clipPath><clipPath
       clipPathUnits="userSpaceOnUse"
       id="clipPath2-2-1"><path
         d="M 0,512 H 512 V 0 H 0 Z"
         transform="translate(-83.000005,-243.40041)"
         id="path2-1" /></clipPath><clipPath
       clipPathUnits="userSpaceOnUse"
       id="clipPath2-4"><path
         d="M 0,229.274 H 627.794 V 0 H 0 Z"
         transform="translate(-111.8232,-218.50341)"
         id="path2-0-1" /></clipPath><clipPath
       clipPathUnits="userSpaceOnUse"
       id="clipPath7-4"><path
         d="M 0,229.274 H 627.794 V 0 H 0 Z"
         transform="translate(-135.4204,-80.864205)"
         id="path7-6" /></clipPath><clipPath
       clipPathUnits="userSpaceOnUse"
       id="clipPath9-0"><path
         d="M 0,229.274 H 627.794 V 0 H 0 Z"
         transform="translate(-142.9351,-101.67281)"
         id="path9-71" /></clipPath><clipPath
       clipPathUnits="userSpaceOnUse"
       id="clipPath2-2-7"><path
         d="M 0,512 H 512 V 0 H 0 Z"
         transform="translate(-83.000005,-243.40041)"
         id="path2" /></clipPath><clipPath
       clipPathUnits="userSpaceOnUse"
       id="clipPath4-7"><path
         d="M 0,512 H 512 V 0 H 0 Z"
         transform="translate(-43.200201,-288.10011)"
         id="path4" /></clipPath><clipPath
       clipPathUnits="userSpaceOnUse"
       id="clipPath6-7"><path
         d="M 0,512 H 512 V 0 H 0 Z"
         id="path6" /></clipPath><clipPath
       clipPathUnits="userSpaceOnUse"
       id="clipPath8-7"><path
         d="M 0,512 H 512 V 0 H 0 Z"
         transform="translate(-23.799801,-243.40041)"
         id="path8-4-3" /></clipPath><clipPath
       clipPathUnits="userSpaceOnUse"
       id="clipPath10-3"><path
         d="M 0,512 H 512 V 0 H 0 Z"
         transform="translate(-85.500002,-281.70021)"
         id="path10-5" /></clipPath><clipPath
       clipPathUnits="userSpaceOnUse"
       id="clipPath12-9"><path
         d="M 0,512 H 512 V 0 H 0 Z"
         transform="translate(-67.000001,-243.40041)"
         id="path12-98" /></clipPath><clipPath
       clipPathUnits="userSpaceOnUse"
       id="clipPath14-1"><path
         d="M 0,512 H 512 V 0 H 0 Z"
         transform="translate(-85.500002,-271.5)"
         id="path14-8" /></clipPath><clipPath
       clipPathUnits="userSpaceOnUse"
       id="clipPath16-2"><path
         d="M 0,512 H 512 V 0 H 0 Z"
         transform="translate(-358.09961,-232.5)"
         id="path16-6" /></clipPath><clipPath
       clipPathUnits="userSpaceOnUse"
       id="clipPath18-6"><path
         d="M 0,512 H 512 V 0 H 0 Z"
         transform="translate(-407.59961,-251.40041)"
         id="path18-0" /></clipPath><clipPath
       clipPathUnits="userSpaceOnUse"
       id="clipPath20-3"><path
         d="M 0,512 H 512 V 0 H 0 Z"
         transform="translate(-441.20021,-251.40041)"
         id="path20-8" /></clipPath><clipPath
       clipPathUnits="userSpaceOnUse"
       id="clipPath22-0"><path
         d="M 0,512 H 512 V 0 H 0 Z"
         transform="translate(-481.20021,-232.00001)"
         id="path22-1" /></clipPath><clipPath
       clipPathUnits="userSpaceOnUse"
       id="clipPath24-25"><path
         d="M 0,512 H 512 V 0 H 0 Z"
         transform="translate(-163.7998,-251.2998)"
         id="path24-0" /></clipPath><clipPath
       clipPathUnits="userSpaceOnUse"
       id="clipPath26-9"><path
         d="M 0,512 H 512 V 0 H 0 Z"
         transform="translate(-214.50001,-247.09961)"
         id="path26-4" /></clipPath><clipPath
       clipPathUnits="userSpaceOnUse"
       id="clipPath28-7"><path
         d="M 0,512 H 512 V 0 H 0 Z"
         transform="translate(-249.6001,-247.09961)"
         id="path28-8" /></clipPath><clipPath
       clipPathUnits="userSpaceOnUse"
       id="clipPath30-3"><path
         d="M 0,512 H 512 V 0 H 0 Z"
         transform="translate(-284.09961,-247.09961)"
         id="path30-5" /></clipPath><clipPath
       clipPathUnits="userSpaceOnUse"
       id="clipPath32-1"><path
         d="M 0,512 H 512 V 0 H 0 Z"
         id="path32-20" /></clipPath><clipPath
       clipPathUnits="userSpaceOnUse"
       id="clipPath34-16"><path
         d="M 0,512 H 512 V 0 H 0 Z"
         transform="translate(-312.50001,-247.5996)"
         id="path34-4" /></clipPath><clipPath
       clipPathUnits="userSpaceOnUse"
       id="clipPath2-9"><path
         d="M 0,229.274 H 627.794 V 0 H 0 Z"
         transform="translate(-111.8232,-218.50341)"
         id="path2-0-8" /></clipPath><linearGradient
       x1="0"
       y1="0"
       x2="1"
       y2="0"
       gradientUnits="userSpaceOnUse"
       gradientTransform="matrix(0,-258.62232,240.27183,0,128.04058,283.40516)"
       spreadMethod="pad"
       id="linearGradient3-8"><stop
         style="stop-opacity:1;stop-color:#3974c3"
         offset="0"
         id="stop2-0" /><stop
         style="stop-opacity:1;stop-color:#38bdef"
         offset="1"
         id="stop3-8" /></linearGradient><linearGradient
       x1="0"
       y1="0"
       x2="1"
       y2="0"
       gradientUnits="userSpaceOnUse"
       gradientTransform="matrix(0,-140.93988,143.00472,0,609.87711,242.87978)"
       spreadMethod="pad"
       id="linearGradient5-7"><stop
         style="stop-color:#94a3b8;stop-opacity:1;"
         offset="0"
         id="stop4-7" /><stop
         style="stop-opacity:1;stop-color:#3974c3"
         offset="1"
         id="stop5-8" /></linearGradient><clipPath
       clipPathUnits="userSpaceOnUse"
       id="clipPath7-3"><path
         d="M 0,229.274 H 627.794 V 0 H 0 Z"
         transform="translate(-135.4204,-80.864205)"
         id="path7-8" /></clipPath><clipPath
       clipPathUnits="userSpaceOnUse"
       id="clipPath9-3"><path
         d="M 0,229.274 H 627.794 V 0 H 0 Z"
         transform="translate(-142.9351,-101.67281)"
         id="path9-7" /></clipPath></defs><sodipodi:namedview
     id="namedview6"
     pagecolor="#505050"
     bordercolor="#eeeeee"
     borderopacity="1"
     inkscape:showpageshadow="0"
     inkscape:pageopacity="0"
     inkscape:pagecheckerboard="0"
     inkscape:deskcolor="#505050"
     inkscape:zoom="6.49"
     inkscape:cx="76.194145"
     inkscape:cy="23.959938"
     inkscape:window-width="1600"
     inkscape:window-height="829"
     inkscape:window-x="-8"
     inkscape:window-y="-8"
     inkscape:window-maximized="1"
     inkscape:current-layer="svg6" /><clipPath
     id="a"><path
       d="m0 9h120v29.088h-120z"
       id="path1" /></clipPath><g
     style="fill:none"
     id="g10"
     transform="translate(-5.3400513,-1.9449287)"><g
       id="layer-MC0"
       inkscape:label="Capa 1"
       transform="matrix(0.1216911,0,0,0.11309814,7.9428812,6.5510142)"><path
         id="path1-9"
         d="m 0,0 c -13.921,0 -27.429,-2.728 -40.149,-8.108 -12.284,-5.195 -23.313,-12.631 -32.783,-22.101 -9.47,-9.471 -16.906,-20.5 -22.102,-32.783 -5.38,-12.721 -8.108,-26.229 -8.108,-40.15 0,-13.921 2.728,-27.43 8.108,-40.149 5.196,-12.284 12.632,-23.313 22.102,-32.784 9.47,-9.469 20.499,-16.906 32.783,-22.101 12.72,-5.38 26.228,-8.109 40.149,-8.109 13.921,0 27.43,2.729 40.15,8.109 12.283,5.195 23.312,12.632 32.783,22.101 9.47,9.471 16.906,20.5 22.101,32.784 5.381,12.719 8.109,26.228 8.109,40.149 0,13.921 -2.728,27.429 -8.109,40.15 -5.195,12.283 -12.631,23.312 -22.101,32.783 -9.471,9.47 -20.5,16.906 -32.783,22.101 C 27.43,-2.728 13.921,0 0,0"
         style="fill:#ffffff;fill-opacity:1;fill-rule:nonzero;stroke:none"
         transform="matrix(1.2486822,0,0,-1.3440489,128.04023,15.466035)"
         clip-path="url(#clipPath2-9)" /><path
         id="path3-4"
         d="m 7.9042571,154.09447 c 0,71.41739 53.7869869,129.31095 120.1357229,129.31095 v 0 c 66.34998,0 120.13696,-57.89356 120.13696,-129.31095 v 0 c 0,-71.416033 -53.78698,-129.312284 -120.13696,-129.312284 v 0 c -66.348736,0 -120.1357229,57.896251 -120.1357229,129.312284"
         style="fill:url(#linearGradient3-8);stroke:none;stroke-width:1.29549" /><path
         id="path5-8"
         d="m 724.38824,101.94016 v 39.94526 3.24421 c -0.0438,0.13242 -0.10159,0.25868 -0.1453,0.39263 v 0 h 0.1453 v 39.16463 54.88834 h 8.96442 c 11.04694,0 20.00198,-8.82574 20.00198,-19.71473 v 0 -72.9186 c 0,-1.61056 0.53899,-3.17647 1.51698,-4.46677 v 0 c 5.76798,-7.61089 14.58398,-12.49646 24.49827,-12.49646 v 0 c 10.31266,0 19.44426,5.27512 25.18723,13.40952 v 0 c 0.88894,1.26104 1.39043,2.75151 1.39512,4.28662 v 0 l 0.18279,72.18569 c 0,10.88899 8.95817,19.71473 20.00668,19.71473 v 0 h 8.96128 l 0.32965,-91.90504 c 0.005,-1.53204 0.50462,-3.01942 1.392,-4.27891 v 0 c 5.74454,-8.13595 14.87768,-13.41261 25.18879,-13.41261 v 0 c 10.30955,0 19.43957,5.27203 25.18254,13.40337 v 0 c 0.89363,1.26566 1.39357,2.76073 1.39357,4.30201 v 0 l 0.006,72.82931 c 0,10.88744 8.9566,19.7147 20.00356,19.7147 v 0 h 8.96442 v -91.16441 c 0,-2.14485 -0.43432,-3.41513 -0.98269,-5.04262 v 0 c -8.40512,-23.3331 -29.63975,-39.92525 -54.56763,-39.92525 v 0 c -16.14626,0 -30.7443,6.97038 -41.32101,18.2135 v 0 c -10.57669,-11.24312 -25.17473,-18.2135 -41.32254,-18.2135 v 0 c -11.54376,0 -22.2845,3.58142 -31.34578,9.71725 v 0 c -3.07771,-6.98577 -10.13145,-11.87287 -18.34908,-11.87287 v 0 z m -144.50553,68.76749 c 0,37.97902 31.23798,68.76441 69.77341,68.76441 v 0 c 38.53699,0 69.77496,-30.78539 69.77496,-68.76441 v 0 c 0,-37.98055 -31.23797,-68.76749 -69.77496,-68.76749 v 0 c -38.53543,0 -69.77341,30.78694 -69.77341,68.76749 m 27.77283,0 c 0,-22.86347 18.80371,-41.39722 42.00058,-41.39722 v 0 c 23.19845,0 42.00216,18.53375 42.00216,41.39722 v 0 c 0,22.86039 -18.80371,41.39569 -42.00216,41.39569 v 0 c -23.19687,0 -42.00058,-18.5353 -42.00058,-41.39569 m -173.66253,0 c 0,37.97902 31.23798,68.76441 69.77185,68.76441 v 0 c 38.53699,0 69.77496,-30.78539 69.77496,-68.76441 v 0 c 0,-37.98055 -31.23797,-68.76749 -69.77496,-68.76749 v 0 c -38.53387,0 -69.77185,30.78694 -69.77185,68.76749 m 27.77127,0 c 0,-22.86347 18.80527,-41.39722 42.00058,-41.39722 v 0 c 23.19687,0 42.00214,18.53375 42.00214,41.39722 v 0 c 0,22.86039 -18.80527,41.39569 -42.00214,41.39569 v 0 c -23.19531,0 -42.00058,-18.5353 -42.00058,-41.39569 M 304.99947,101.94016 c -1.55292,0 -2.809,1.23948 -2.809,2.7669 v 0 5.74166 c 0,11.06759 9.10503,20.04115 20.33476,20.04115 v 0 h 69.86089 l -74.99927,73.91019 c -4.96182,4.89019 -7.74894,11.52336 -7.74894,18.43829 v 0 c 0,11.06759 9.10345,20.04268 20.33476,20.04268 v 0 h 111.46622 v -8.83498 c 0,-10.88898 -8.95661,-19.71472 -20.00356,-19.71472 v 0 h -72.51367 l 85.07135,-83.84146 v -8.83498 c 0,-10.88898 -8.95661,-19.71473 -20.00667,-19.71473 v 0 z"
         style="fill:#94a3b8;stroke:none;stroke-width:1.55096;fill-opacity:1" /><path
         id="path6-8"
         d="m 0,0 h -64.249 c -11.909,0 -21.564,9.653 -21.564,21.562 v 44.059 c 0,2.54 2.059,4.598 4.599,4.598 h 64.249 c 11.909,0 21.563,-9.654 21.563,-21.563 V 4.598 C 4.598,2.059 2.539,0 0,0"
         style="fill:#ffffff;fill-opacity:1;fill-rule:nonzero;stroke:none"
         transform="matrix(1.2486822,0,0,-1.3440489,157.50563,200.45985)"
         clip-path="url(#clipPath7-3)" /><path
         id="path8-3"
         d="m 0,0 28.324,-20.136 c 1.703,0 3.084,1.381 3.084,3.084 v 61.808 c 0,1.703 -1.381,3.084 -3.084,3.084 L 0,27.704 Z"
         style="fill:#ffffff;fill-opacity:1;fill-rule:nonzero;stroke:none"
         transform="matrix(1.2486822,0,0,-1.3440489,166.8891,172.49207)"
         clip-path="url(#clipPath9-3)" /></g></g></svg>
